<svg width="179" height="173" viewBox="0 0 179 173" fill="none" xmlns="http://www.w3.org/2000/svg">
<path d="M28.5714 136.571C28.5714 140.589 25.3348 143.714 21.4286 143.714C17.4107 143.714 14.2857 140.589 14.2857 136.571C14.2857 132.665 17.4107 129.429 21.4286 129.429C25.3348 129.429 28.5714 132.665 28.5714 136.571ZM46.4286 79.4286C46.4286 75.5223 43.192 72.2857 39.2857 72.2857H7.14286C3.23661 72.2857 0 75.5223 0 79.4286V150.857C0 154.763 3.23661 158 7.14286 158H39.2857C43.192 158 46.4286 154.763 46.4286 150.857V79.4286ZM178.571 79.4286C178.571 67.8214 168.75 58 157.143 58H126.228C127.121 54.4286 128.237 53.3125 129.464 50.8571C132.478 45.0536 135.714 38.5804 135.714 29.4286C135.714 20.8348 135.714 0.857134 110.714 0.857134C108.817 0.857134 107.031 1.63838 105.692 2.97768C100.893 7.66518 99.5536 14.5848 98.3259 21.1696C96.9866 27.6429 95.7589 34.3393 91.4063 38.692C87.9464 42.1518 84.1518 46.9509 80.1339 52.0848C75.2232 58.558 64.5089 71.8393 60.3795 72.1741C56.6964 72.5089 53.5714 75.6339 53.5714 79.317V150.857C53.5714 154.763 56.9196 157.888 60.7143 158C64.6205 158.112 71.317 160.455 78.3482 162.911C90.4018 167.04 105.469 172.286 121.429 172.286H123.326H131.808C133.817 172.286 135.379 172.286 135.826 172.286C145.647 172.174 153.013 169.272 157.813 163.58C162.054 158.558 163.951 151.75 163.281 143.379C166.071 140.701 168.192 137.018 169.308 132.888C170.536 128.424 170.536 123.96 169.308 119.83C172.656 115.366 174.33 110.121 174.107 104.54C174.107 102.978 173.661 99.6295 172.433 96.058C176.228 91.7054 178.571 85.3437 178.571 79.4286Z" fill="url(#paint0_radial)"/>
<defs>
<radialGradient id="paint0_radial" cx="0" cy="0" r="1" gradientUnits="userSpaceOnUse" gradientTransform="translate(25.5 95.5) rotate(28.7479) scale(99.8011 124.143)">
<stop stop-color="#C5FFD9"/>
<stop offset="1" stop-color="#1ED760"/>
</radialGradient>
</defs>
</svg>
