<svg width="120" height="120" viewBox="0 0 120 120" fill="none" xmlns="http://www.w3.org/2000/svg">
<g clip-path="url(#clip0)">
<path d="M60.0001 30.5264C85.5793 30.5264 106.84 46.3038 116.784 56.4103C118.747 58.4046 118.747 61.5949 116.784 63.5892C106.84 73.6957 85.5793 89.4733 60.0001 89.4733C34.4208 89.4733 13.1602 73.6957 3.21593 63.5892C1.2535 61.5949 1.2535 58.4046 3.21593 56.4103C13.1602 46.3038 34.4208 30.5264 60.0001 30.5264Z" fill="#D1EFF2"/>
<path d="M60.0004 89.4727C76.2777 89.4727 89.4731 76.2773 89.4731 60C89.4731 43.7227 76.2777 30.5273 60.0004 30.5273C43.7231 30.5273 30.5278 43.7227 30.5278 60C30.5278 76.2773 43.7231 89.4727 60.0004 89.4727Z" fill="#76B7EB"/>
<path opacity="0.1" d="M44.7509 34.7729C36.2248 39.9379 30.5267 49.303 30.5267 59.9994C30.5267 76.2773 43.7223 89.4728 60.0001 89.4728C67.0308 89.4728 73.4853 87.0098 78.5511 82.9009C33.7505 93.7771 30.5269 50.7913 44.7509 34.7729Z" fill="black"/>
<path d="M59.9998 74.4384C67.974 74.4384 74.4384 67.974 74.4384 59.9997C74.4384 52.0254 67.974 45.561 59.9998 45.561C52.0255 45.561 45.5611 52.0254 45.5611 59.9997C45.5611 67.974 52.0255 74.4384 59.9998 74.4384Z" fill="#38648C"/>
<path d="M74.1556 59.0953C77.922 59.0953 80.9752 56.042 80.9752 52.2757C80.9752 48.5093 77.922 45.4561 74.1556 45.4561C70.3892 45.4561 67.336 48.5093 67.336 52.2757C67.336 56.042 70.3892 59.0953 74.1556 59.0953Z" fill="white"/>
<path opacity="0.15" d="M4.25333 55.3762C14.1458 49.2682 36.2345 36.558 59.9999 36.558C83.7653 36.558 105.854 49.2682 115.746 55.3762C105.41 45.2646 84.7227 30.5264 59.9999 30.5264C35.2771 30.5264 14.5895 45.2646 4.25333 55.3762Z" fill="black"/>
<g opacity="0.1">
<path opacity="0.1" d="M78.1417 76.5145C77.752 76.5145 77.3594 76.3856 77.0334 76.1203L74.9502 74.4258C74.1967 73.8129 74.0831 72.7057 74.6957 71.9522C75.3084 71.1987 76.4158 71.0848 77.1691 71.6976L79.2522 73.3922C80.0057 74.0051 80.1194 75.1123 79.5067 75.8658C79.1594 76.2928 78.6524 76.5145 78.1417 76.5145Z" fill="black"/>
<path opacity="0.1" d="M82.3703 68.579C82.2004 68.579 82.0279 68.5542 81.8568 68.5021L79.2885 67.7191C78.3597 67.436 77.8366 66.4534 78.1197 65.5246C78.4026 64.5958 79.3851 64.0724 80.3142 64.3558L82.8824 65.1388C83.8113 65.422 84.3344 66.4045 84.0513 67.3333C83.8204 68.0908 83.1236 68.579 82.3703 68.579Z" fill="black"/>
<path opacity="0.1" d="M57.8493 85.0451C57.795 85.0451 57.7406 85.0425 57.6855 85.0376C56.7187 84.9483 56.0072 84.0919 56.0967 83.1251L56.3437 80.4513C56.433 79.4843 57.2894 78.7748 58.2562 78.8623C59.223 78.9516 59.9346 79.808 59.845 80.7748L59.598 83.4485C59.5139 84.3607 58.7475 85.0451 57.8493 85.0451Z" fill="black"/>
<path opacity="0.1" d="M37.345 67.5664C36.5611 67.5664 35.8465 67.0386 35.643 66.2446C35.4018 65.304 35.9688 64.3459 36.9093 64.1047L39.5104 63.4377C40.4512 63.197 41.4093 63.7637 41.65 64.704C41.8912 65.6446 41.3243 66.6027 40.3837 66.8438L37.7826 67.5109C37.6366 67.5486 37.4897 67.5664 37.345 67.5664Z" fill="black"/>
<path opacity="0.1" d="M48.9771 44.2365C48.3928 44.2365 47.8214 43.9456 47.4872 43.4143L46.0573 41.1418C45.54 40.3199 45.7873 39.2345 46.6092 38.7174C47.4307 38.2007 48.5168 38.4472 49.0336 39.2694L50.4635 41.5419C50.9808 42.3639 50.7335 43.4492 49.9115 43.9663C49.6212 44.1493 49.2975 44.2365 48.9771 44.2365Z" fill="black"/>
<path opacity="0.1" d="M69.5834 43.4093C69.3089 43.4093 69.0307 43.3451 68.7706 43.2092C67.91 42.7597 67.5767 41.6972 68.0262 40.8369L69.2693 38.457C69.7189 37.5962 70.7817 37.2638 71.6417 37.7124C72.5023 38.1619 72.8356 39.2244 72.386 40.0847L71.1429 42.4646C70.8293 43.0655 70.2171 43.4093 69.5834 43.4093Z" fill="black"/>
</g>
<path d="M118.038 55.1772C117.453 54.5826 116.84 53.9794 116.215 53.3833C115.512 52.7133 114.399 52.7393 113.729 53.4424C113.059 54.1453 113.085 55.2581 113.788 55.9284C114.386 56.4987 114.972 57.0757 115.531 57.6438C116.81 58.943 116.81 61.057 115.531 62.3566C111.959 65.9869 104.338 72.9464 93.4274 78.7706C88.606 81.3443 83.7608 83.3669 78.917 84.8334C86.3966 79.1222 91.232 70.1161 91.232 60.0005C91.232 49.9047 86.4153 40.9141 78.961 35.2012C91.6578 39.0647 101.799 45.9382 107.698 50.633C108.458 51.2374 109.564 51.1115 110.169 50.3522C110.774 49.5923 110.648 48.4861 109.888 47.8814C100.919 40.7435 82.5109 28.769 60.0003 28.769C48.3547 28.769 36.5511 31.9179 24.9172 38.1283C13.5943 44.1724 5.67548 51.4047 1.96298 55.178C-0.653818 57.8372 -0.653818 62.164 1.96298 64.8234C4.22235 67.1196 7.99298 70.6497 13.1249 74.4251C13.4387 74.6557 13.8038 74.767 14.1652 74.767C14.7055 74.767 15.2382 74.519 15.5827 74.0505C16.1584 73.2682 15.9903 72.1678 15.2084 71.5924C10.2629 67.9544 6.63853 64.5623 4.46892 62.3573C3.1904 61.0582 3.1904 58.9441 4.46892 57.6445C8.04103 54.0143 15.6622 47.0547 26.5726 41.2305C31.3939 38.6569 36.2392 36.6342 41.083 35.1677C33.6036 40.8783 28.7682 49.8846 28.7682 60.0002C28.7682 70.0901 33.5792 79.0762 41.026 84.7896C34.5835 82.8358 28.153 79.9226 21.9156 76.1029C21.0875 75.5962 20.0052 75.8559 19.4977 76.6842C18.9906 77.5122 19.2509 78.5948 20.079 79.1018C33.0381 87.0372 46.8425 91.2316 59.9999 91.2316C71.6455 91.2316 83.4491 88.0828 95.083 81.8726C106.406 75.8283 114.325 68.5959 118.037 64.8227C120.654 62.1635 120.654 57.8367 118.038 55.1772ZM32.285 60C32.285 44.7178 44.7181 32.2849 60.0003 32.2849C75.2825 32.2849 87.7156 44.718 87.7156 60C87.7156 75.2819 75.2827 87.7151 60.0003 87.7151C44.7179 87.7151 32.285 75.2822 32.285 60ZM82.7326 52.2759C82.7326 47.5467 78.8851 43.6992 74.1559 43.6992C71.8698 43.6992 69.7913 44.6001 68.252 46.0633C65.7603 44.5812 62.9392 43.8021 60.0006 43.8021C51.069 43.8021 43.8029 51.0682 43.8029 59.9995C43.8029 68.9308 51.069 76.1969 60.0006 76.1969C68.728 76.1969 75.8612 69.258 76.1827 60.6079C79.9365 59.6951 82.7326 56.3069 82.7326 52.2759ZM60.0003 72.6811C53.008 72.6811 47.319 66.9923 47.319 60C47.319 53.0076 53.008 47.3189 60.0003 47.3189C62.217 47.3189 64.3492 47.883 66.2459 48.9616C65.8168 49.9819 65.5789 51.1017 65.5789 52.2762C65.5789 56.4949 68.6415 60.0096 72.6596 60.7197C72.2856 67.3781 66.7513 72.6811 60.0003 72.6811ZM74.1559 57.3363C71.3656 57.3363 69.0957 55.0664 69.0957 52.2762C69.0957 49.4859 71.3656 47.216 74.1559 47.216C76.9461 47.216 79.216 49.4859 79.216 52.2762C79.216 55.0664 76.9461 57.3363 74.1559 57.3363Z" fill="black"/>
</g>
<defs>
<clipPath id="clip0">
<rect width="120" height="120" fill="white"/>
</clipPath>
</defs>
</svg>
