<svg width="120" height="120" viewBox="0 0 120 120" fill="none" xmlns="http://www.w3.org/2000/svg">
<path fill-rule="evenodd" clip-rule="evenodd" d="M25.6494 46.0721C19.907 52.3344 19.0889 58.4782 22.7114 56.6207C41.1731 43.3914 81.4466 27.8517 103.896 44.4255C105.018 45.2487 105.558 44.9452 105.342 43.8904C100.541 20.4368 46.5141 23.339 25.6494 46.0721Z" fill="#D09080"/>
<path fill-rule="evenodd" clip-rule="evenodd" d="M101.379 68.6143C103.448 70.0192 104.41 71.6966 105.136 73.9864C105.424 75.8593 105.007 77.8405 103.911 80.0377C96.4861 94.8878 82.2177 102.349 66.3338 104.783C50.9798 107.134 34.8901 104.634 23.1019 92.4232C21.3936 90.6532 20.4057 88.8882 20.1175 87.0153C20.1688 64.9508 76.743 51.9325 101.379 68.6143V68.6143Z" fill="#F9F6F6"/>
<path fill-rule="evenodd" clip-rule="evenodd" d="M45.4127 67.1587C49.1813 63.9198 53.3721 61.8126 58.3786 61.0459C63.385 60.2791 68.2019 60.4708 75.0555 62.6152C79.2491 65.7847 82.2746 70.632 83.1339 76.2354C84.8834 87.6535 77.0469 98.3305 65.6292 100.08C54.2062 101.83 43.5346 93.9928 41.78 82.5748C40.9259 76.9663 42.3614 71.4399 45.4127 67.1587V67.1587Z" fill="#D09080"/>
<path fill-rule="evenodd" clip-rule="evenodd" d="M73.5794 78.4581C73.5999 78.5764 73.6206 78.6948 73.6411 78.8131C74.5827 84.957 70.3635 90.7047 64.2198 91.6462C58.0761 92.5878 52.3337 88.3684 51.3921 82.2245C50.4506 76.0806 54.6647 70.3381 60.8084 69.3965C63.0569 69.0518 65.2489 69.3965 67.1681 70.2713C69.5918 71.5708 72.8406 74.2665 73.5794 78.4581V78.4581Z" fill="#365E7D"/>
<path fill-rule="evenodd" clip-rule="evenodd" d="M68.2895 69.9782C71.2586 69.5202 74.0319 71.5631 74.4899 74.5322C74.7112 75.9678 74.3458 77.357 73.5792 78.4582C72.756 79.6417 71.4695 80.4958 69.9362 80.7325C66.9671 81.1852 64.1887 79.1476 63.7358 76.1786C63.3395 73.6006 64.8266 71.1667 67.1679 70.2714C67.5228 70.1378 67.8985 70.0349 68.2895 69.9782Z" fill="#F9F6F6"/>
<path fill-rule="evenodd" clip-rule="evenodd" d="M97.4998 74.1924C92.4469 71.1617 86.509 69.2115 80.2007 68.2698C78.832 66.0623 77.0824 64.143 75.0552 62.6147C84.1421 62.9647 92.8071 64.9816 99.8357 68.8512C101.786 69.9215 104.41 71.6968 105.136 73.9866C105.424 75.8595 105.007 77.8407 103.911 80.0379C103.386 81.0824 102.83 82.0909 102.244 83.0583C102.573 81.7771 102.65 80.5576 102.47 79.3791C101.771 77.0843 99.3162 75.2834 97.4998 74.1924Z" fill="#DDDAEC"/>
<path fill-rule="evenodd" clip-rule="evenodd" d="M74.4541 67.6935C69.8592 67.4465 65.1512 67.6935 60.515 68.4036C55.8842 69.1138 51.3201 70.287 47.0082 71.8974C45.3823 72.5046 43.7923 73.1736 42.2486 73.9042C42.8971 71.46 43.9775 69.1702 45.4132 67.1584C50.0801 65.4913 55.0145 64.2615 60.0211 63.4947C65.0277 62.7279 70.1062 62.4244 75.056 62.6148C77.0833 64.1431 78.8328 66.0624 80.2015 68.2699C78.3131 67.9869 76.3939 67.7965 74.4541 67.6935V67.6935Z" fill="#CE775F"/>
<path fill-rule="evenodd" clip-rule="evenodd" d="M20.1176 87.0155C20.1226 84.6125 22.0985 82.1323 23.6371 80.5269C29.1891 74.733 36.8507 70.215 45.4127 67.1587C43.9772 69.1705 42.8966 71.4605 42.2482 73.9045C36.2845 76.7294 31.0052 80.4549 26.9661 85.0037C25.5562 86.5886 23.7553 89.043 23.776 91.4409C23.8994 92.2487 24.1465 93.0412 24.5117 93.8233C24.0383 93.3704 23.5649 92.9073 23.1018 92.4237C21.3937 90.6535 20.4058 88.8885 20.1176 87.0155Z" fill="#DDDAEC"/>
<path fill-rule="evenodd" clip-rule="evenodd" d="M63.6074 55.6628C66.8028 55.3902 70.0083 55.3439 73.1779 55.5702C75.6632 55.7503 78.1279 56.095 80.5514 56.6301C83.4277 57.2631 86.2422 58.1584 88.9642 59.3574C93.7186 61.4567 98.1796 64.4669 102.152 68.5833C103.86 70.3483 104.853 72.1132 105.136 73.9862C104.411 71.6965 101.787 69.9212 99.8365 68.8509C92.8079 64.9813 84.1429 62.9644 75.0561 62.6145C70.1062 62.424 65.0277 62.7277 60.0212 63.4943C55.0148 64.2609 50.0803 65.4907 45.4133 67.158C36.8513 70.2145 29.1897 74.7323 23.6378 80.5262C22.0994 82.1316 20.1235 84.6117 20.1183 87.0147C19.8302 85.1418 20.247 83.1659 21.3481 80.9634C28.9427 65.7788 43.5507 58.575 58.9098 56.2235C60.4687 55.9819 62.0382 55.7966 63.6074 55.6628V55.6628Z" fill="#FED1A3"/>
<path fill-rule="evenodd" clip-rule="evenodd" d="M25.6496 46.0722C31.3404 39.877 39.4909 35.1534 48.4389 32.0352L51.3976 32.6527L55.3236 33.4759C49.2777 36.3625 43.8852 40.0674 39.7791 44.544C38.611 45.8201 37.6437 47.0911 36.8771 48.2899C31.4383 50.9554 26.5914 53.8369 22.7117 56.6206C19.0892 58.4783 19.9073 52.3344 25.6496 46.0722V46.0722Z" fill="#CE775F"/>
<path fill-rule="evenodd" clip-rule="evenodd" d="M56.0191 27.6121L62.0586 23.8994L66.391 26.8118L73.2396 31.4067L59.8512 34.4221L56.0191 27.6121Z" fill="#FED1A3"/>
<path fill-rule="evenodd" clip-rule="evenodd" d="M21.8408 15.4761L62.0576 23.8996L61.1006 28.4636L59.8503 34.4222L51.3963 32.6521L19.6335 25.9989C16.7418 25.3917 14.8688 22.5256 15.476 19.6338C16.083 16.7421 18.9439 14.8689 21.8408 15.4761V15.4761Z" fill="#365E7D"/>
<path fill-rule="evenodd" clip-rule="evenodd" d="M60.6745 30.5014L69.0667 28.6079L73.2396 31.407L59.8512 34.4223L60.6745 30.5014Z" fill="#FFBC85"/>
<path fill-rule="evenodd" clip-rule="evenodd" d="M57.5151 29.8374L60.6744 30.5013L59.8512 34.4222L51.3972 32.6522L19.6343 25.9989C16.7426 25.3917 14.8697 22.5257 15.4769 19.6338C15.621 18.9391 15.8937 18.3063 16.2692 17.7505C16.6448 19.8447 18.2553 21.6097 20.4575 22.0728L52.2204 28.726L57.5151 29.8374Z" fill="#2B4D66"/>
<path d="M64.4258 92.9925C63.7784 93.0918 63.1313 93.1408 62.4885 93.1408C59.8239 93.1408 57.2372 92.2976 55.0489 90.6902C52.3333 88.6956 50.5565 85.7625 50.0461 82.4314C48.9923 75.5559 53.7276 69.1051 60.6017 68.0515C62.8577 67.7057 65.1388 67.9722 67.2338 68.8199C67.5111 68.7407 67.7945 68.677 68.0842 68.6327C69.8782 68.3566 71.6722 68.7965 73.1368 69.8713C74.6031 70.9477 75.5616 72.5299 75.8357 74.3272C76.0769 75.9093 75.7475 77.4496 75.0036 78.7402C75.9767 85.5681 71.2589 91.9453 64.4258 92.9925ZM63.6321 71.3296C63.7804 71.1276 63.9393 70.9363 64.1061 70.7538C63.0914 70.5896 62.0498 70.5843 61.0145 70.7428C55.6245 71.5691 51.9116 76.6275 52.7377 82.0188C53.1382 84.6313 54.5314 86.9314 56.661 88.4957C58.7907 90.0603 61.4017 90.7007 64.0133 90.301C68.6271 89.5938 72.013 85.7881 72.3778 81.326C72.3386 81.3475 72.2987 81.3654 72.2582 81.3818C71.612 81.7203 70.9017 81.9616 70.1416 82.0787C69.7949 82.1315 69.4511 82.1573 69.1107 82.1573C65.8088 82.1569 62.9026 79.7435 62.3903 76.3842C62.1162 74.5889 62.5573 72.7936 63.6321 71.3296ZM73.1442 74.7378C72.9799 73.6604 72.4052 72.7118 71.5257 72.0665C70.8191 71.5477 69.9846 71.2757 69.1254 71.2757C68.917 71.2757 68.707 71.2919 68.4974 71.3242C68.4966 71.3244 68.4957 71.3246 68.495 71.3246C67.4195 71.4885 66.4719 72.0626 65.8271 72.9409C65.1822 73.8194 64.9175 74.8964 65.0818 75.9738C65.4205 78.1951 67.5055 79.725 69.7288 79.3875C71.9507 79.0448 73.4828 76.9589 73.1442 74.7378V74.7378Z" fill="black"/>
<path d="M41.7987 59.8035C42.4819 59.4897 43.2903 59.7892 43.6041 60.4724C43.918 61.1557 43.6186 61.964 42.9352 62.2779C35.3079 65.7817 29.3085 70.8186 25.04 77.2847C33.4881 69.7256 45.9512 64.2707 59.8144 62.1495C73.306 60.0798 86.4712 61.4191 96.6768 65.8036C92.7423 62.9887 88.4233 60.6108 88.405 60.6019C83.8106 58.5791 79.071 57.5022 74.4781 57.0514C74.4628 57.0504 74.4474 57.0484 74.4322 57.0467C68.949 56.5134 63.6769 56.8701 59.1144 57.5704C55.535 58.1161 52.0951 58.9211 48.8905 59.9635C48.1751 60.1963 47.4074 59.8052 47.1747 59.0898C46.9422 58.3749 47.3333 57.6067 48.0484 57.3742C51.3935 56.2861 54.9788 55.4466 58.7029 54.879C61.0413 54.5199 63.5585 54.2484 66.1931 54.13C67.5384 52.578 68.2418 50.6284 68.23 48.457C68.226 47.705 68.8321 47.0921 69.584 47.0881C69.5866 47.0881 69.5889 47.0881 69.5916 47.0881C70.3401 47.0881 70.9489 47.6928 70.9529 48.4421C70.964 50.4915 70.4824 52.3944 69.5484 54.067C70.9999 54.0784 72.4775 54.1411 73.9727 54.266C75.2501 52.4854 75.9014 49.9925 75.6861 47.5828C75.6191 46.8338 76.1721 46.1723 76.9209 46.1055C77.6695 46.0371 78.3313 46.5913 78.3981 47.3403C78.623 49.8558 78.0851 52.4658 76.9592 54.5972C78.3799 54.7953 79.8107 55.0543 81.244 55.3814C83.337 53.1087 84.2802 49.8535 83.7138 46.71C83.5806 45.9699 84.0724 45.262 84.8124 45.1288C85.5521 44.9953 86.2604 45.4873 86.3937 46.2272C87.0245 49.7286 86.1697 53.3482 84.1397 56.1384C85.6712 56.5909 87.1998 57.128 88.7161 57.7607C90.8612 55.4337 92.0358 51.2939 91.5453 47.524C91.4484 46.7785 91.9741 46.0954 92.7198 45.9983C93.4659 45.8997 94.1486 46.4272 94.2455 47.1727C94.7984 51.4215 93.6084 55.9616 91.2876 58.9344C92.7621 59.6661 94.2199 60.4951 95.652 61.432C98.7767 59.3239 100.17 54.1171 99.6546 50.1695C99.5573 49.424 100.083 48.7405 100.828 48.6433C101.574 48.547 102.257 49.0713 102.355 49.8168C102.705 52.4995 102.337 55.5156 101.344 58.091C100.549 60.1555 99.3844 61.862 97.9776 63.0679C99.7499 64.4048 101.474 65.9207 103.131 67.6381C106.952 71.5919 107.587 75.7255 105.129 80.647C96.3697 98.167 79.3181 104.175 66.556 106.129C63.3839 106.615 59.8865 106.942 56.209 106.941C45.0897 106.941 32.3433 103.956 22.1229 93.3691C18.3013 89.4095 17.6681 85.2741 20.13 80.356C24.6913 71.2279 31.9817 64.3133 41.7987 59.8035V59.8035ZM74.5656 63.9579C69.9258 63.8065 65.1024 64.0931 60.2268 64.841C55.3525 65.5869 50.6652 66.7575 46.2839 68.2912C43.5275 72.3468 42.3774 77.4526 43.1258 82.3684C44.7633 93.025 54.7651 100.366 65.4231 98.7346C76.08 97.1016 83.4216 87.1011 81.7882 76.4418C81.0351 71.5274 78.4108 67.0015 74.5656 63.9579ZM24.0817 91.478C36.8737 104.728 54.0156 105.295 66.1438 103.438C78.2703 101.58 94.4552 95.9076 102.694 79.4299C103.637 77.5412 104.018 75.8945 103.818 74.3423C103.343 72.9353 101.743 71.451 99.1802 70.0446C93.4833 66.91 86.4808 64.941 78.8269 64.2233C81.7969 67.4769 83.8033 71.6158 84.4801 76.0292C86.3407 88.1726 77.9768 99.5655 65.8357 101.426C64.6976 101.6 63.5674 101.685 62.4496 101.685C51.6438 101.684 42.1254 93.7834 40.4345 82.7797C39.7622 78.3647 40.4391 73.8139 42.2984 69.8202C35.2123 72.7965 29.1201 76.772 24.6205 81.4688C22.5967 83.5805 21.5146 85.4756 21.4823 86.9563C21.7562 88.499 22.6139 89.9572 24.0817 91.478V91.478Z" fill="black"/>
<path d="M14.1445 19.3542C14.9076 15.7192 18.4858 13.3828 22.1208 14.1437L40.6599 18.0285C41.3958 18.1828 41.8674 18.9044 41.7131 19.6403C41.5588 20.3762 40.837 20.8474 40.1015 20.6937L21.5625 16.8089C19.3963 16.3552 17.264 17.7477 16.8093 19.9137C16.3545 22.0796 17.7474 24.2118 19.9135 24.6665L58.7981 32.8108L60.4465 24.9528L46.2557 21.9801C45.5198 21.8258 45.0482 21.1045 45.2023 20.3684C45.3566 19.6325 46.0791 19.1614 46.8139 19.315L62.3377 22.567C62.5092 22.6029 62.672 22.6716 62.8174 22.7692L68.355 26.4874C77.6496 25.7582 86.3831 26.7646 92.9945 29.336C100.641 32.3107 105.372 37.2488 106.676 43.6169C106.971 45.0569 106.323 45.7148 105.911 45.9789C105.376 46.322 104.452 46.5216 103.088 45.5207C82.071 30.0042 43.1747 43.6318 23.5044 57.7271C23.4498 57.7661 23.3924 57.8012 23.3327 57.8319C22.6431 58.1855 22.0602 58.3154 21.5757 58.3153C20.5138 58.3153 19.9255 57.691 19.7269 57.4301C18.0863 55.2778 20.201 49.9991 24.6466 45.1513C29.3312 40.047 35.8408 35.6941 43.6441 32.4187L19.3546 27.3313C15.7185 26.5678 13.3812 22.9892 14.1445 19.3542V19.3542ZM62.9763 26.1555L61.6185 32.6285L69.8544 30.7737L62.9763 26.1555ZM26.6528 46.992C23.0156 50.9586 21.8596 54.3317 21.8731 55.5096C21.9135 55.4931 21.9584 55.4733 22.0077 55.4497C30.3951 49.4598 45.1439 41.7555 61.5052 38.0196C73.69 35.2372 90.7166 33.8326 103.571 42.5287C101.639 36.7328 96.3195 33.5512 92.0072 31.8739C86.6062 29.773 79.652 28.7835 72.1102 29.0091L73.9984 30.2769C74.4499 30.58 74.6777 31.1228 74.5776 31.6574C74.4776 32.1919 74.0692 32.6156 73.5386 32.7352L60.1501 35.7505C60.0517 35.7727 59.9513 35.7839 59.851 35.7839C59.7575 35.7839 59.664 35.7743 59.5718 35.7551L48.5447 33.4456C39.3801 36.6885 31.8151 41.3673 26.6528 46.992V46.992Z" fill="black"/>
</svg>
