<svg width="214" height="218" viewBox="0 0 214 218" fill="none" xmlns="http://www.w3.org/2000/svg">
<path d="M213.999 27.34V11.6759C213.999 5.71921 209.216 0.873047 203.337 0.873047H187.965C186.983 0.873047 186.188 1.67916 186.188 2.67357C186.188 3.66797 186.983 4.47409 187.965 4.47409H203.337C207.256 4.47409 210.445 7.70483 210.445 11.676V27.3401C210.445 28.3345 211.241 29.1406 212.222 29.1406C213.204 29.1406 213.999 28.3344 213.999 27.34Z" fill="url(#paint0_linear)"/>
<path d="M213.999 190.972V206.637C213.999 212.593 209.216 217.439 203.337 217.439H187.965C186.983 217.439 186.188 216.633 186.188 215.639C186.188 214.645 186.983 213.838 187.965 213.838H203.337C207.256 213.838 210.445 210.608 210.445 206.637V190.972C210.445 189.978 211.241 189.172 212.222 189.172C213.204 189.172 213.999 189.978 213.999 190.972Z" fill="url(#paint1_linear)"/>
<path d="M0.623877 27.34V11.6759C0.623877 5.71921 5.40711 0.873047 11.2865 0.873047H26.6584C27.6399 0.873047 28.4355 1.67916 28.4355 2.67357C28.4355 3.66797 27.6399 4.47409 26.6584 4.47409H11.2865C7.36687 4.47409 4.17807 7.70483 4.17807 11.676V27.3401C4.17807 28.3345 3.38243 29.1406 2.40093 29.1406C1.41944 29.1406 0.623877 28.3344 0.623877 27.34Z" fill="url(#paint2_linear)"/>
<path d="M0.623877 190.972V206.637C0.623877 212.593 5.40711 217.439 11.2865 217.439H26.6584C27.6399 217.439 28.4355 216.633 28.4355 215.639C28.4355 214.645 27.6399 213.838 26.6584 213.838H11.2865C7.36687 213.838 4.17807 210.608 4.17807 206.637V190.972C4.17807 189.978 3.38243 189.172 2.40093 189.172C1.41944 189.172 0.623877 189.978 0.623877 190.972Z" fill="url(#paint3_linear)"/>
<rect x="12.0225" y="14.0957" width="189.666" height="189.666" rx="50" fill="white"/>
<path d="M110.503 175.038C149.91 175.038 181.856 143.092 181.856 103.685C181.856 64.2778 149.91 32.332 110.503 32.332C71.0962 32.332 39.1504 64.2778 39.1504 103.685C39.1504 143.092 71.0962 175.038 110.503 175.038Z" fill="#8496B9"/>
<path d="M71.2945 203.944H143.058V166.922L147.252 128.852C147.252 124.475 143.377 121.648 139.319 120.007C132.617 117.272 117.252 111.162 117.252 111.162C117.252 111.162 115.656 120.828 106.948 120.828C98.9693 120.828 96.8721 111.162 96.8721 111.162C96.8721 111.162 80.5498 116.679 74.8051 120.007C70.9753 122.196 66.416 125.159 66.416 127.211L71.4768 166.557L71.2945 203.944Z" fill="#F99B2D"/>
<path d="M117.207 111.207C117.207 111.207 116.067 121.01 106.858 121.01C98.3317 121.01 96.8271 111.207 96.8271 111.207V101.223H117.207V111.207Z" fill="#E78779"/>
<path d="M128.742 89.6882C128.742 97.3934 118.438 107.971 106.994 107.971C96.0064 107.971 85.292 98.8524 85.292 89.6882L84.4258 72.7277C84.4258 60.2352 94.5474 50.1592 106.994 50.1592C119.487 50.1592 129.563 60.2808 129.563 72.7277L128.742 89.6882Z" fill="#F69583"/>
<path d="M129.609 79.5661C130.065 76.9673 130.293 75.1436 130.293 69.1253C130.293 59.0949 126.007 46.876 106.995 46.876C92.7696 46.876 83.7422 58.3198 83.7422 70.9946C83.7422 74.87 84.0613 77.2408 84.9732 82.8032C84.9732 82.8032 86.2954 68.2134 89.2589 68.259C92.8152 68.3502 92.7696 71.8609 103.074 71.6329C115.292 71.3594 116.159 66.4809 120.353 66.3897C122.679 66.3441 123.545 67.484 124.092 70.4475C125.095 75.5083 124.001 79.0646 127.603 83.2135C127.648 83.2591 129.016 82.712 129.609 79.5661Z" fill="#5D2610"/>
<path d="M149.03 203.715V203.897H164.03C162.024 178.411 159.653 151.921 158.058 144.763C154.046 126.982 143.058 121.967 143.058 121.967C143.058 121.967 143.149 139.52 143.058 164.961C142.966 180.143 149.03 203.715 149.03 203.715Z" fill="#F99B2D"/>
<path d="M104.076 94.3376C104.168 94.3376 104.304 94.3376 104.396 94.3376C104.578 94.3376 104.715 94.1552 104.715 93.9728C104.715 93.7904 104.532 93.6081 104.35 93.6537C103.666 93.6993 103.119 93.5169 103.073 93.3801C103.028 93.3345 103.119 93.061 103.712 92.6962C105.444 91.5108 105.672 87.3619 105.672 87.2251C105.672 87.0427 105.535 86.8604 105.353 86.8604C105.171 86.8604 104.988 86.9971 104.988 87.1795C104.943 88.2737 104.532 91.2828 103.347 92.1491C102.572 92.6506 102.298 93.1521 102.435 93.6537C102.618 94.1096 103.347 94.3376 104.076 94.3376Z" fill="#071938"/>
<path d="M93.1339 83.167C92.6324 83.167 92.1308 83.395 91.8117 83.7597C91.5381 84.0789 91.4014 84.5348 91.4014 84.9907C91.4014 85.9026 91.9941 86.8144 93.1339 86.8144C93.681 86.8144 94.1369 86.5865 94.4561 86.2217C94.7296 85.9026 94.912 85.4466 94.912 84.9907C94.912 84.0789 94.2737 83.167 93.1339 83.167Z" fill="#071938"/>
<path d="M114.972 83.167C115.474 83.167 115.976 83.395 116.295 83.7597C116.568 84.0789 116.705 84.5348 116.705 84.9907C116.705 85.9026 116.112 86.8144 114.972 86.8144C114.425 86.8144 113.969 86.5865 113.65 86.2217C113.377 85.9026 113.194 85.4466 113.194 84.9907C113.194 84.0789 113.787 83.167 114.972 83.167Z" fill="#071938"/>
<path d="M119.166 78.5624C119.166 78.5624 117.205 76.146 112.828 77.605" stroke="#071938" stroke-width="2.1579" stroke-miterlimit="10" stroke-linecap="round" stroke-linejoin="round"/>
<path d="M89.4395 78.5624C89.4395 78.5624 91.3999 76.146 95.7769 77.605" stroke="#071938" stroke-width="2.1579" stroke-miterlimit="10" stroke-linecap="round" stroke-linejoin="round"/>
<path d="M97.6017 92.7872C97.6017 94.3374 95.6868 95.614 93.316 95.614C90.9452 95.614 89.0303 94.3374 89.0303 92.7872C89.0303 91.2371 90.9452 90.0061 93.316 90.0061C95.6868 89.9605 97.6017 91.2371 97.6017 92.7872Z" fill="#F37784"/>
<path d="M119.121 93.3795C119.121 94.9297 117.206 96.1607 114.836 96.1607C112.465 96.1607 110.55 94.8841 110.55 93.3795C110.55 91.8293 112.465 90.5527 114.836 90.5527C117.161 90.5527 119.121 91.7837 119.121 93.3795Z" fill="#F37784"/>
<path d="M98.5586 98.167C98.6498 101.222 101.385 103.684 104.759 103.684C108.133 103.684 110.869 101.222 110.96 98.167H98.5586Z" fill="white"/>
<path d="M43.7099 185.342C43.2539 190.084 44.1202 193.959 50.0929 196.968C54.333 199.111 61.5367 193.822 63.178 189.354C65.6856 182.515 70.8377 162.363 70.8377 162.363C71.2936 160.859 70.2449 122.105 69.2419 123.564C57.9804 139.977 43.7099 185.342 43.7099 185.342Z" fill="#F99B2D"/>
<path d="M132.251 83.0764C132.16 85.7208 130.519 87.7725 128.558 87.7269C126.598 87.6357 125.093 85.4929 125.185 82.8485C125.276 80.2497 126.917 78.1524 128.878 78.198C130.838 78.2892 132.343 80.4776 132.251 83.0764Z" fill="#F69583"/>
<path d="M88.9832 78.5631C89.9652 78.5631 90.7613 77.767 90.7613 76.785C90.7613 75.8029 89.9652 75.0068 88.9832 75.0068C88.0012 75.0068 87.2051 75.8029 87.2051 76.785C87.2051 77.767 88.0012 78.5631 88.9832 78.5631Z" fill="white"/>
<path d="M106.398 89.8707C107.38 89.8707 108.176 89.0746 108.176 88.0926C108.176 87.1105 107.38 86.3145 106.398 86.3145C105.416 86.3145 104.62 87.1105 104.62 88.0926C104.62 89.0746 105.416 89.8707 106.398 89.8707Z" fill="white"/>
<path d="M119.028 80.3414C120.01 80.3414 120.806 79.5453 120.806 78.5633C120.806 77.5812 120.01 76.7852 119.028 76.7852C118.046 76.7852 117.25 77.5812 117.25 78.5633C117.25 79.5453 118.046 80.3414 119.028 80.3414Z" fill="white"/>
<path d="M94.3641 105.828C95.3461 105.828 96.1422 105.032 96.1422 104.05C96.1422 103.068 95.3461 102.271 94.3641 102.271C93.382 102.271 92.5859 103.068 92.5859 104.05C92.5859 105.032 93.382 105.828 94.3641 105.828Z" fill="white"/>
<path d="M117.798 108.609C118.78 108.609 119.576 107.813 119.576 106.831C119.576 105.849 118.78 105.053 117.798 105.053C116.816 105.053 116.02 105.849 116.02 106.831C116.02 107.813 116.816 108.609 117.798 108.609Z" fill="white"/>
<path d="M94.3634 104.05L106.4 88.0922L88.9834 76.7852" stroke="white" stroke-width="1.2003" stroke-miterlimit="10"/>
<path d="M107.221 89.1865L118.254 106.831" stroke="white" stroke-width="1.2003" stroke-miterlimit="10"/>
<path d="M118.254 105.919L119.576 78.5635" stroke="white" stroke-width="1.2003" stroke-miterlimit="10"/>
<path d="M93.8165 104.05L88.4365 76.7852L119.029 78.1529L107.449 87.6363" stroke="white" stroke-width="1.2003" stroke-miterlimit="10"/>
<path d="M94.9092 105.053L117.067 106.831" stroke="white" stroke-width="1.2003" stroke-miterlimit="10"/>
<path d="M142.738 50.0215H67.3271V125.432H142.738V50.0215Z" stroke="white" stroke-width="1.8618" stroke-miterlimit="10"/>
<path d="M132.07 60.6904H77.9971V114.764H132.07V60.6904Z" stroke="white" stroke-width="1.8618" stroke-miterlimit="10"/>
<path d="M35.002 114.991L86.7499 82.0732L128.741 115.766L86.7499 147.864L35.002 114.991Z" fill="url(#paint4_linear)"/>
<path d="M70.2908 114.992H51.461C42.3709 114.992 35.002 122.361 35.002 131.451C35.002 140.541 42.3709 147.91 51.461 147.91H70.2908C79.3809 147.91 86.7499 140.541 86.7499 131.451C86.7499 122.361 79.3809 114.992 70.2908 114.992Z" fill="url(#paint5_linear)"/>
<path d="M34.6831 148.458L35.367 151.74H45.9901C44.5311 147.591 43.6649 144.537 43.984 143.716C44.7135 141.938 46.1725 134.369 46.3548 132.682C47.4035 123.062 37.0995 115.813 31.8563 133.458C30.7165 137.378 33.0873 142.85 33.8624 145.129C34.4551 146.543 34.6831 148.458 34.6831 148.458Z" fill="#F69583"/>
<path d="M60.6715 186.983C60.6715 186.983 49.6837 161.086 45.7171 149.141H33.9541L43.6654 190.676C44.6684 195.326 48.9086 198.426 54.1062 197.241C58.7566 196.147 61.7202 191.633 60.6715 186.983Z" fill="#F99B2D"/>
<path d="M127.966 39.7637H128.65" stroke="white" stroke-width="1.468" stroke-linecap="round" stroke-linejoin="round"/>
<path d="M130.519 39.7637H148.938" stroke="white" stroke-width="1.468" stroke-linecap="round" stroke-linejoin="round" stroke-dasharray="3.03 3.03"/>
<path d="M149.851 39.7637H150.534" stroke="white" stroke-width="1.468" stroke-linecap="round" stroke-linejoin="round"/>
<path d="M150.764 41.1773C151.545 41.1773 152.177 40.5445 152.177 39.764C152.177 38.9834 151.545 38.3506 150.764 38.3506C149.983 38.3506 149.351 38.9834 149.351 39.764C149.351 40.5445 149.983 41.1773 150.764 41.1773Z" fill="white"/>
<path d="M127.966 41.1783C128.747 41.1783 129.379 40.5455 129.379 39.7649C129.379 38.9844 128.747 38.3516 127.966 38.3516C127.186 38.3516 126.553 38.9844 126.553 39.7649C126.553 40.5455 127.186 41.1783 127.966 41.1783Z" fill="white"/>
<path d="M33.042 94.3379H33.7259" stroke="white" stroke-width="1.468" stroke-linecap="round" stroke-linejoin="round"/>
<path d="M35.5498 94.3379H54.0149" stroke="white" stroke-width="1.468" stroke-linecap="round" stroke-linejoin="round" stroke-dasharray="3.03 3.03"/>
<path d="M54.9268 94.3379H55.6106" stroke="white" stroke-width="1.468" stroke-linecap="round" stroke-linejoin="round"/>
<path d="M55.8401 95.7516C56.6207 95.7516 57.2535 95.1188 57.2535 94.3382C57.2535 93.5576 56.6207 92.9248 55.8401 92.9248C55.0595 92.9248 54.4268 93.5576 54.4268 94.3382C54.4268 95.1188 55.0595 95.7516 55.8401 95.7516Z" fill="white"/>
<path d="M33.0423 95.7516C33.8229 95.7516 34.4557 95.1188 34.4557 94.3382C34.4557 93.5576 33.8229 92.9248 33.0423 92.9248C32.2617 92.9248 31.6289 93.5576 31.6289 94.3382C31.6289 95.1188 32.2617 95.7516 33.0423 95.7516Z" fill="white"/>
<path d="M130.382 132.865H155.595V114.126" stroke="white" stroke-width="1.468" stroke-miterlimit="10" stroke-linecap="round" stroke-linejoin="round" stroke-dasharray="2.94 2.94"/>
<path d="M130.884 134.278C131.665 134.278 132.297 133.645 132.297 132.865C132.297 132.084 131.665 131.451 130.884 131.451C130.103 131.451 129.471 132.084 129.471 132.865C129.471 133.645 130.103 134.278 130.884 134.278Z" fill="white"/>
<path d="M155.594 115.54C156.375 115.54 157.007 114.907 157.007 114.126C157.007 113.346 156.375 112.713 155.594 112.713C154.813 112.713 154.181 113.346 154.181 114.126C154.181 114.907 154.813 115.54 155.594 115.54Z" fill="white"/>
<path d="M52.9658 63.0612V37.8027H71.7501" stroke="white" stroke-width="1.468" stroke-miterlimit="10" stroke-linecap="round" stroke-linejoin="round" stroke-dasharray="2.94 2.94"/>
<path d="M52.9651 63.9732C53.7457 63.9732 54.3785 63.3404 54.3785 62.5599C54.3785 61.7793 53.7457 61.1465 52.9651 61.1465C52.1845 61.1465 51.5518 61.7793 51.5518 62.5599C51.5518 63.3404 52.1845 63.9732 52.9651 63.9732Z" fill="white"/>
<path d="M71.7493 39.2164C72.5299 39.2164 73.1627 38.5836 73.1627 37.803C73.1627 37.0224 72.5299 36.3896 71.7493 36.3896C70.9687 36.3896 70.3359 37.0224 70.3359 37.803C70.3359 38.5836 70.9687 39.2164 71.7493 39.2164Z" fill="white"/>
<defs>
<linearGradient id="paint0_linear" x1="200.093" y1="0.873047" x2="200.093" y2="29.1406" gradientUnits="userSpaceOnUse">
<stop stop-color="#C5E862"/>
<stop offset="1" stop-color="#EEFFBC"/>
</linearGradient>
<linearGradient id="paint1_linear" x1="200.093" y1="217.439" x2="200.093" y2="189.172" gradientUnits="userSpaceOnUse">
<stop stop-color="#FE5DDB"/>
<stop offset="1" stop-color="#FFB8F0"/>
</linearGradient>
<linearGradient id="paint2_linear" x1="14.5297" y1="0.873047" x2="14.5297" y2="29.1406" gradientUnits="userSpaceOnUse">
<stop stop-color="#7862FF"/>
<stop offset="1" stop-color="#BCB1FF"/>
</linearGradient>
<linearGradient id="paint3_linear" x1="14.5297" y1="217.439" x2="14.5297" y2="189.172" gradientUnits="userSpaceOnUse">
<stop stop-color="#8AB7FF"/>
<stop offset="1" stop-color="#B8D3FF"/>
</linearGradient>
<linearGradient id="paint4_linear" x1="44.9326" y1="144.115" x2="116.237" y2="88.6554" gradientUnits="userSpaceOnUse">
<stop stop-color="white"/>
<stop offset="0.3295" stop-color="#C7B2AB" stop-opacity="0"/>
<stop offset="0.5626" stop-color="white" stop-opacity="0"/>
<stop offset="0.6675" stop-color="white" stop-opacity="0.3"/>
</linearGradient>
<linearGradient id="paint5_linear" x1="60.8759" y1="114.992" x2="60.8759" y2="147.91" gradientUnits="userSpaceOnUse">
<stop stop-color="#5AF38F"/>
<stop offset="1" stop-color="#00001E" stop-opacity="0"/>
</linearGradient>
</defs>
</svg>
