<svg width="121" height="120" viewBox="0 0 121 120" fill="none" xmlns="http://www.w3.org/2000/svg">
<g clip-path="url(#clip0)">
<path d="M23.8275 1.84961H12.1087H2.7337V11.193V22.8721H12.1087V11.193H23.8275V1.84961Z" fill="#C9EBFA"/>
<path d="M98.1243 1.84961H109.843H119.218V11.193V22.8721H109.843V11.193H98.1243V1.84961Z" fill="#C9EBFA"/>
<path d="M23.8275 117.94H12.1087H2.7337V108.597V96.918H12.1087V108.597H23.8275V117.94Z" fill="#C9EBFA"/>
<path d="M98.1243 117.94H109.843H119.218V108.597V96.918H109.843V108.597H98.1243V117.94Z" fill="#C9EBFA"/>
<path d="M28.1634 76.6693H32.8509V62.3467H28.1634C25.5745 62.3467 23.4759 64.4382 23.4759 67.0183V71.9977C23.4759 74.5778 25.5745 76.6693 28.1634 76.6693Z" fill="#FFDEC7"/>
<path d="M89.1009 51.3436V77.8039C89.1009 91.3494 78.0829 102.33 64.4915 102.33H57.4603C43.8689 102.33 32.8509 91.3494 32.8509 77.8039V61.6282C34.8243 60.9579 36.5939 59.8437 38.0376 58.4048C40.4798 55.9708 41.9915 52.6049 41.9915 48.8886V45.2424H84.5376C85.6157 45.2424 86.6681 45.1209 87.6759 44.8896C88.3251 46.2841 88.7728 47.7931 88.9743 49.3791C89.0587 50.0238 89.1009 50.6778 89.1009 51.3436Z" fill="#FFDEC7"/>
<path d="M49.7564 58.4048C51.9717 56.197 53.4171 53.2213 53.6674 49.914H84.5376C86.0657 49.914 87.5517 49.7295 88.9743 49.3791C88.7728 47.7931 88.3251 46.2841 87.6759 44.8896C86.6681 45.1209 85.6157 45.2424 84.5376 45.2424H53.7103H41.9915V48.8886C41.9915 52.6049 40.4798 55.9708 38.0376 58.4048C36.5939 59.8437 34.8243 60.9579 32.8509 61.6282V66.4914V77.8039C32.8509 91.3494 43.8689 102.33 57.4603 102.33H64.4915C65.2814 102.33 66.0642 102.293 66.8353 102.218C54.3431 101.045 44.5696 90.5622 44.5696 77.8039V61.6282C46.5431 60.9579 48.3126 59.8437 49.7564 58.4048Z" fill="#FEC5A5"/>
<path d="M54.0618 17.46C44.2427 17.46 35.8485 23.5385 32.4604 32.1257C27.2257 33.9785 23.4759 38.9559 23.4759 44.8086V57.3511C23.4759 60.1102 25.72 62.3468 28.4885 62.3468C35.946 62.3468 41.9915 56.3217 41.9915 48.8893V45.2424H84.5376C92.2354 45.2424 98.4759 39.023 98.4759 31.3512C98.4759 23.6794 92.2354 17.46 84.5376 17.46H54.0618Z" fill="#548EB5"/>
<path d="M65.7806 17.46C55.9626 17.46 47.5673 23.5378 44.1782 32.1267C38.9446 33.979 35.1946 38.9567 35.1946 44.8079V57.3514C35.1946 58.3558 35.4923 59.2878 36.0056 60.0703C33.8564 61.5092 31.2712 62.3477 28.4892 62.3477C25.7212 62.3477 23.4759 60.11 23.4759 57.3514V44.8079C23.4759 38.9567 27.2259 33.979 32.4595 32.1267C35.8485 23.5378 44.2439 17.46 54.0618 17.46H65.7806Z" fill="#447D99"/>
<path d="M93.7884 76.6693H89.1009V62.3467H93.7884C96.3773 62.3467 98.4759 64.4382 98.4759 67.0183V71.9977C98.4759 74.5778 96.3773 76.6693 93.7884 76.6693Z" fill="#FEC5A5"/>
<path d="M12.1087 24.6239H2.7337C1.76269 24.6239 0.975891 23.8398 0.975891 22.8721V1.84953C0.975891 0.881796 1.76269 0.0976562 2.7337 0.0976562H23.8275C24.7985 0.0976562 25.5853 0.881796 25.5853 1.84953V11.1929C25.5853 12.1606 24.7985 12.9448 23.8275 12.9448H13.8665V22.8721C13.8665 23.8398 13.0797 24.6239 12.1087 24.6239ZM4.49152 21.1202H10.3509V11.1929C10.3509 10.2251 11.1377 9.441 12.1087 9.441H22.0696V3.60141H4.49152V21.1202Z" fill="black"/>
<path d="M119.218 24.6239H109.843C108.872 24.6239 108.085 23.8398 108.085 22.8721V12.9448H98.1243C97.1533 12.9448 96.3665 12.1606 96.3665 11.1929V1.84953C96.3665 0.881796 97.1533 0.0976562 98.1243 0.0976562H119.218C120.189 0.0976562 120.976 0.881796 120.976 1.84953V22.8721C120.976 23.8398 120.189 24.6239 119.218 24.6239ZM111.601 21.1202H117.46V3.60141H99.8821V9.441H109.843C110.814 9.441 111.601 10.2251 111.601 11.1929V21.1202Z" fill="black"/>
<path d="M23.8275 119.692H2.7337C1.76269 119.692 0.975891 118.908 0.975891 117.94V96.9179C0.975891 95.9502 1.76269 95.166 2.7337 95.166H12.1087C13.0797 95.166 13.8665 95.9502 13.8665 96.9179V106.845H23.8275C24.7985 106.845 25.5853 107.629 25.5853 108.597V117.94C25.5853 118.908 24.7985 119.692 23.8275 119.692ZM4.49152 116.189H22.0696V110.349H12.1087C11.1377 110.349 10.3509 109.565 10.3509 108.597V98.6698H4.49152V116.189Z" fill="black"/>
<path d="M119.218 119.692H98.1243C97.1533 119.692 96.3665 118.908 96.3665 117.94V108.597C96.3665 107.629 97.1533 106.845 98.1243 106.845H108.085V96.9179C108.085 95.9502 108.872 95.166 109.843 95.166H119.218C120.189 95.166 120.976 95.9502 120.976 96.9179V117.94C120.976 118.908 120.189 119.692 119.218 119.692ZM99.8821 116.189H117.46V98.6698H111.601V108.597C111.601 109.565 110.814 110.349 109.843 110.349H99.8821V116.189Z" fill="black"/>
<path d="M60.9757 90.2509C57.2712 90.2509 53.7091 88.6936 51.2025 85.9784C50.5451 85.2665 50.5917 84.1581 51.3058 83.5029C52.0204 82.848 53.1323 82.894 53.7897 83.6059C55.6324 85.6021 58.2518 86.7469 60.9757 86.7469C63.6996 86.7469 66.319 85.6021 68.1616 83.6059C68.8188 82.8937 69.9309 82.8475 70.6455 83.5029C71.3599 84.1581 71.4063 85.2665 70.7489 85.9784C68.2423 88.6936 64.6802 90.2509 60.9757 90.2509Z" fill="black"/>
<path d="M47.4601 71.1021C46.489 71.1021 45.7022 70.318 45.7022 69.3502V66.2919C45.7022 65.3242 46.489 64.54 47.4601 64.54C48.4311 64.54 49.2179 65.3242 49.2179 66.2919V69.3502C49.2179 70.318 48.4311 71.1021 47.4601 71.1021Z" fill="black"/>
<path d="M74.4916 71.1021C73.5206 71.1021 72.7338 70.318 72.7338 69.3502V66.2919C72.7338 65.3242 73.5206 64.54 74.4916 64.54C75.4626 64.54 76.2494 65.3242 76.2494 66.2919V69.3502C76.2494 70.318 75.4626 71.1021 74.4916 71.1021Z" fill="black"/>
<path d="M93.7883 60.5946H90.8586V51.3435C90.8586 49.5096 90.5701 47.7248 90.0053 46.0134C95.972 43.7962 100.234 38.061 100.234 31.3511C100.234 27.1732 98.6007 23.245 95.6361 20.29C92.6713 17.3354 88.7296 15.708 84.5375 15.708H80.2555C79.2845 15.708 78.4977 16.4921 78.4977 17.4599C78.4977 18.4276 79.2845 19.2118 80.2555 19.2118H84.5378C87.7909 19.2118 90.8495 20.4745 93.1501 22.7678C95.451 25.0607 96.7182 28.109 96.7182 31.3511C96.7182 38.0447 91.2542 43.4904 84.5378 43.4904H56.3258C55.3548 43.4904 54.568 44.2746 54.568 45.2423C54.568 46.21 55.3548 46.9942 56.3258 46.9942H84.5375C85.2301 46.9942 85.9107 46.9444 86.5796 46.8575C87.0845 48.2927 87.3428 49.7958 87.3428 51.3437V77.8041C87.3428 90.2053 77.2224 100.421 64.7832 100.576C63.8122 100.589 63.0353 101.382 63.0477 102.35C63.0596 103.31 63.8441 104.08 64.8048 104.08C64.8123 104.08 64.8198 104.08 64.8273 104.08C71.7995 103.993 78.3407 101.221 83.2456 96.2747C88.0096 91.4706 90.696 85.1517 90.8509 78.4212H93.7883C97.3421 78.4212 100.234 75.5395 100.234 71.9977V67.0184C100.234 63.4763 97.3421 60.5946 93.7883 60.5946ZM96.718 71.9977C96.718 73.6078 95.4039 74.9175 93.7883 74.9175H90.8586V64.0986H93.7883C95.4039 64.0986 96.718 65.4083 96.718 67.0184V71.9977Z" fill="black"/>
<path d="M57.1682 100.577C44.729 100.421 34.6087 90.2058 34.6087 77.8046V62.8277C40.7728 60.1366 44.2875 53.5869 43.7493 46.9949H48.6665C49.6375 46.9949 50.4243 46.2108 50.4243 45.2431C50.4243 44.2753 49.6375 43.4912 48.6665 43.4912H41.9915C41.0205 43.4912 40.2337 44.2753 40.2337 45.2431C40.6122 51.2812 38.7588 57.8206 32.2959 59.9677C29.9758 60.7579 25.2337 61.3627 25.2337 57.3523V44.8088C25.2337 39.8653 28.3739 35.4325 33.0478 33.7783C33.5271 33.6085 33.9093 33.2404 34.0954 32.7688C37.3448 24.5338 45.1823 19.2127 54.0618 19.2127H72.5962C73.5672 19.2127 74.354 18.4286 74.354 17.4609C74.354 16.4931 73.5672 15.709 72.5962 15.709H54.0618C44.25 15.709 34.9964 21.7768 31.1217 30.7644C25.465 33.1077 21.7181 38.6537 21.7181 44.8086V57.352C21.7181 59.2821 22.5368 61.0242 23.8443 62.2554C22.5393 63.4317 21.7181 65.1315 21.7181 67.0189V71.9982C21.7181 75.54 24.6096 78.4217 28.1634 78.4217H31.1006C31.2555 85.152 33.9424 91.4711 38.706 96.2752C43.6108 101.221 50.152 103.993 57.1242 104.08C57.1317 104.08 57.1389 104.08 57.1467 104.08C58.1071 104.08 58.8918 103.311 58.9038 102.35C58.9162 101.383 58.139 100.589 57.1682 100.577ZM25.2337 71.9984V67.0191C25.2337 65.409 26.5478 64.0993 28.1634 64.0993H31.0931V74.9182H28.1634C26.5478 74.9182 25.2337 73.6083 25.2337 71.9984Z" fill="black"/>
</g>
<defs>
<clipPath id="clip0">
<rect width="120" height="119.595" fill="white" transform="translate(0.975891 0.0976562)"/>
</clipPath>
</defs>
</svg>
