<svg width="214" height="218" viewBox="0 0 214 218" fill="none" xmlns="http://www.w3.org/2000/svg">
<path d="M214 27.3395V11.6754C214 5.71872 209.216 0.872559 203.337 0.872559H187.965C186.984 0.872559 186.188 1.67867 186.188 2.67308C186.188 3.66749 186.984 4.4736 187.965 4.4736H203.337C207.257 4.4736 210.445 7.70435 210.445 11.6755V27.3396C210.445 28.334 211.241 29.1402 212.222 29.1402C213.204 29.1402 214 28.334 214 27.3395Z" fill="url(#paint0_linear)"/>
<path d="M214 190.972V206.636C214 212.593 209.216 217.439 203.337 217.439H187.965C186.984 217.439 186.188 216.633 186.188 215.638C186.188 214.644 186.984 213.838 187.965 213.838H203.337C207.257 213.838 210.445 210.607 210.445 206.636V190.972C210.445 189.977 211.241 189.171 212.222 189.171C213.204 189.171 214 189.978 214 190.972Z" fill="url(#paint1_linear)"/>
<path d="M0.624029 27.3395V11.6754C0.624029 5.71872 5.40727 0.872559 11.2866 0.872559H26.6586C27.6401 0.872559 28.4357 1.67867 28.4357 2.67308C28.4357 3.66749 27.6401 4.4736 26.6586 4.4736H11.2866C7.36702 4.4736 4.17822 7.70435 4.17822 11.6755V27.3396C4.17822 28.334 3.38258 29.1402 2.40108 29.1402C1.41959 29.1402 0.624029 28.334 0.624029 27.3395Z" fill="url(#paint2_linear)"/>
<path d="M0.624029 190.972V206.636C0.624029 212.593 5.40727 217.439 11.2866 217.439H26.6586C27.6401 217.439 28.4357 216.633 28.4357 215.638C28.4357 214.644 27.6401 213.838 26.6586 213.838H11.2866C7.36702 213.838 4.17822 210.607 4.17822 206.636V190.972C4.17822 189.977 3.38258 189.171 2.40108 189.171C1.41959 189.171 0.624029 189.978 0.624029 190.972Z" fill="url(#paint3_linear)"/>
<rect x="12.0221" y="14.0947" width="189.666" height="189.666" rx="50" fill="white"/>
<path d="M110.503 175.037C149.91 175.037 181.856 143.091 181.856 103.684C181.856 64.2773 149.91 32.3315 110.503 32.3315C71.0961 32.3315 39.1503 64.2773 39.1503 103.684C39.1503 143.091 71.0961 175.037 110.503 175.037Z" fill="#8496B9"/>
<path d="M71.2941 203.942H143.057V166.921L147.252 128.851C147.252 124.474 143.376 121.647 139.319 120.006C132.617 117.27 117.252 111.161 117.252 111.161C117.252 111.161 115.656 120.826 106.948 120.826C98.969 120.826 96.8717 111.161 96.8717 111.161C96.8717 111.161 80.5494 116.677 74.8047 120.006C70.9749 122.194 66.4156 125.158 66.4156 127.209L71.4765 166.556L71.2941 203.942Z" fill="#F99B2D"/>
<path d="M117.207 111.206C117.207 111.206 116.067 121.009 106.858 121.009C98.3317 121.009 96.8272 111.206 96.8272 111.206V101.221H117.207V111.206Z" fill="#E78779"/>
<path d="M128.742 89.6867C128.742 97.3919 118.438 107.969 106.994 107.969C96.006 107.969 85.2916 98.8509 85.2916 89.6867L84.4254 72.7262C84.4254 60.2337 94.547 50.1577 106.994 50.1577C119.486 50.1577 129.562 60.2793 129.562 72.7262L128.742 89.6867Z" fill="#F69583"/>
<path d="M129.608 79.5651C130.064 76.9663 130.292 75.1426 130.292 69.1243C130.292 59.0939 126.007 46.875 106.994 46.875C92.7693 46.875 83.7419 58.3188 83.7419 70.9936C83.7419 74.869 84.0611 77.2399 84.9729 82.8022C84.9729 82.8022 86.2951 68.2125 89.2587 68.2581C92.8149 68.3493 92.7693 71.8599 103.073 71.6319C115.292 71.3584 116.158 66.4799 120.353 66.3888C122.678 66.3432 123.545 67.483 124.092 70.4465C125.095 75.5073 124 79.0636 127.602 83.2125C127.648 83.2581 129.016 82.711 129.608 79.5651Z" fill="#5D2610"/>
<path d="M149.03 203.714V203.896H164.03C162.024 178.41 159.653 151.92 158.058 144.762C154.045 126.981 143.058 121.966 143.058 121.966C143.058 121.966 143.149 139.519 143.058 164.96C142.966 180.142 149.03 203.714 149.03 203.714Z" fill="#F99B2D"/>
<path d="M104.076 94.3361C104.167 94.3361 104.304 94.3361 104.395 94.3361C104.577 94.3361 104.714 94.1537 104.714 93.9713C104.714 93.789 104.532 93.6066 104.349 93.6522C103.665 93.6978 103.118 93.5154 103.073 93.3786C103.027 93.333 103.118 93.0595 103.711 92.6947C105.444 91.5093 105.671 87.3604 105.671 87.2236C105.671 87.0413 105.535 86.8589 105.352 86.8589C105.17 86.8589 104.988 86.9957 104.988 87.178C104.942 88.2723 104.532 91.2814 103.346 92.1476C102.571 92.6492 102.298 93.1507 102.434 93.6522C102.617 94.1081 103.346 94.3361 104.076 94.3361Z" fill="#071938"/>
<path d="M93.1331 83.166C92.6315 83.166 92.13 83.394 91.8109 83.7587C91.5373 84.0779 91.4005 84.5338 91.4005 84.9897C91.4005 85.9016 91.9932 86.8134 93.1331 86.8134C93.6802 86.8134 94.1361 86.5855 94.4552 86.2207C94.7288 85.9016 94.9112 85.4457 94.9112 84.9897C94.9112 84.0779 94.2729 83.166 93.1331 83.166Z" fill="#071938"/>
<path d="M114.972 83.166C115.474 83.166 115.975 83.394 116.294 83.7587C116.568 84.0779 116.705 84.5338 116.705 84.9897C116.705 85.9016 116.112 86.8134 114.972 86.8134C114.425 86.8134 113.969 86.5855 113.65 86.2207C113.376 85.9016 113.194 85.4457 113.194 84.9897C113.194 84.0779 113.787 83.166 114.972 83.166Z" fill="#071938"/>
<path d="M119.165 78.5614C119.165 78.5614 117.205 76.145 112.828 77.604" stroke="#071938" stroke-width="2.1579" stroke-miterlimit="10" stroke-linecap="round" stroke-linejoin="round"/>
<path d="M89.4391 78.5614C89.4391 78.5614 91.3995 76.145 95.7765 77.604" stroke="#071938" stroke-width="2.1579" stroke-miterlimit="10" stroke-linecap="round" stroke-linejoin="round"/>
<path d="M97.6013 92.7863C97.6013 94.3364 95.6865 95.613 93.3156 95.613C90.9448 95.613 89.0299 94.3364 89.0299 92.7863C89.0299 91.2361 90.9448 90.0051 93.3156 90.0051C95.6865 89.9595 97.6013 91.2361 97.6013 92.7863Z" fill="#F37784"/>
<path d="M119.121 93.379C119.121 94.9292 117.206 96.1602 114.835 96.1602C112.464 96.1602 110.549 94.8836 110.549 93.379C110.549 91.8288 112.464 90.5522 114.835 90.5522C117.16 90.5522 119.121 91.7833 119.121 93.379Z" fill="#F37784"/>
<path d="M98.5586 98.1665C98.6498 101.221 101.385 103.683 104.759 103.683C108.133 103.683 110.869 101.221 110.96 98.1665H98.5586Z" fill="white"/>
<path d="M43.7096 185.341C43.2536 190.083 44.1199 193.958 50.0926 196.967C54.3327 199.11 61.5364 193.821 63.1777 189.353C65.6853 182.514 70.8373 162.362 70.8373 162.362C71.2933 160.858 70.2446 122.104 69.2416 123.563C57.9801 139.976 43.7096 185.341 43.7096 185.341Z" fill="#F99B2D"/>
<path d="M132.251 83.0755C132.16 85.7199 130.519 87.7715 128.558 87.7259C126.598 87.6348 125.093 85.4919 125.184 82.8475C125.276 80.2487 126.917 78.1514 128.877 78.197C130.838 78.2882 132.343 80.4767 132.251 83.0755Z" fill="#F69583"/>
<path d="M88.9833 78.5621C89.9654 78.5621 90.7615 77.766 90.7615 76.784C90.7615 75.802 89.9654 75.0059 88.9833 75.0059C88.0013 75.0059 87.2052 75.802 87.2052 76.784C87.2052 77.766 88.0013 78.5621 88.9833 78.5621Z" fill="white"/>
<path d="M106.399 89.8692C107.381 89.8692 108.177 89.0732 108.177 88.0911C108.177 87.1091 107.381 86.313 106.399 86.313C105.417 86.313 104.621 87.1091 104.621 88.0911C104.621 89.0732 105.417 89.8692 106.399 89.8692Z" fill="white"/>
<path d="M119.029 80.3399C120.011 80.3399 120.807 79.5438 120.807 78.5618C120.807 77.5798 120.011 76.7837 119.029 76.7837C118.047 76.7837 117.251 77.5798 117.251 78.5618C117.251 79.5438 118.047 80.3399 119.029 80.3399Z" fill="white"/>
<path d="M94.3644 105.827C95.3465 105.827 96.1426 105.031 96.1426 104.049C96.1426 103.067 95.3465 102.271 94.3644 102.271C93.3824 102.271 92.5863 103.067 92.5863 104.049C92.5863 105.031 93.3824 105.827 94.3644 105.827Z" fill="white"/>
<path d="M117.798 108.607C118.78 108.607 119.576 107.811 119.576 106.829C119.576 105.847 118.78 105.051 117.798 105.051C116.816 105.051 116.02 105.847 116.02 106.829C116.02 107.811 116.816 108.607 117.798 108.607Z" fill="white"/>
<path d="M94.3637 104.048L106.4 88.0907L88.9837 76.7837" stroke="white" stroke-width="1.2003" stroke-miterlimit="10"/>
<path d="M107.22 89.1851L118.254 106.829" stroke="white" stroke-width="1.2003" stroke-miterlimit="10"/>
<path d="M118.254 105.918L119.577 78.562" stroke="white" stroke-width="1.2003" stroke-miterlimit="10"/>
<path d="M93.8162 104.048L88.4363 76.7837L119.029 78.1515L107.449 87.6348" stroke="white" stroke-width="1.2003" stroke-miterlimit="10"/>
<path d="M94.9098 105.051L117.068 106.829" stroke="white" stroke-width="1.2003" stroke-miterlimit="10"/>
<path d="M142.738 50.0205H67.3272V125.431H142.738V50.0205Z" stroke="white" stroke-width="1.8618" stroke-miterlimit="10"/>
<path d="M132.07 60.6895H77.9971V114.763H132.07V60.6895Z" stroke="white" stroke-width="1.8618" stroke-miterlimit="10"/>
<path d="M35.0014 114.99L86.7494 82.0723L128.74 115.765L86.7494 147.863L35.0014 114.99Z" fill="url(#paint4_linear)"/>
<path d="M70.2903 114.991H51.4605C42.3704 114.991 35.0014 122.36 35.0014 131.45C35.0014 140.54 42.3704 147.909 51.4605 147.909H70.2903C79.3804 147.909 86.7493 140.54 86.7493 131.45C86.7493 122.36 79.3804 114.991 70.2903 114.991Z" fill="url(#paint5_linear)"/>
<path d="M34.683 148.457L35.3669 151.739H45.99C44.531 147.59 43.6648 144.536 43.9839 143.715C44.7134 141.937 46.1724 134.368 46.3548 132.681C47.4034 123.061 37.0994 115.812 31.8562 133.457C30.7164 137.378 33.0872 142.849 33.8623 145.128C34.455 146.542 34.683 148.457 34.683 148.457Z" fill="#F69583"/>
<path d="M60.6713 186.982C60.6713 186.982 49.6834 161.085 45.7168 149.14H33.9538L43.6651 190.675C44.6681 195.326 48.9083 198.426 54.1059 197.241C58.7564 196.146 61.7199 191.633 60.6713 186.982Z" fill="#F99B2D"/>
<path d="M127.966 39.7627H128.65" stroke="white" stroke-width="1.468" stroke-linecap="round" stroke-linejoin="round"/>
<path d="M130.519 39.7627H148.939" stroke="white" stroke-width="1.468" stroke-linecap="round" stroke-linejoin="round" stroke-dasharray="3.03 3.03"/>
<path d="M149.851 39.7627H150.535" stroke="white" stroke-width="1.468" stroke-linecap="round" stroke-linejoin="round"/>
<path d="M150.764 41.1764C151.544 41.1764 152.177 40.5436 152.177 39.763C152.177 38.9824 151.544 38.3496 150.764 38.3496C149.983 38.3496 149.351 38.9824 149.351 39.763C149.351 40.5436 149.983 41.1764 150.764 41.1764Z" fill="white"/>
<path d="M127.966 41.1768C128.747 41.1768 129.38 40.5441 129.38 39.7635C129.38 38.9829 128.747 38.3501 127.966 38.3501C127.186 38.3501 126.553 38.9829 126.553 39.7635C126.553 40.5441 127.186 41.1768 127.966 41.1768Z" fill="white"/>
<path d="M33.0426 94.3369H33.7265" stroke="white" stroke-width="1.468" stroke-linecap="round" stroke-linejoin="round"/>
<path d="M35.5507 94.3369H54.0158" stroke="white" stroke-width="1.468" stroke-linecap="round" stroke-linejoin="round" stroke-dasharray="3.03 3.03"/>
<path d="M54.9273 94.3369H55.6112" stroke="white" stroke-width="1.468" stroke-linecap="round" stroke-linejoin="round"/>
<path d="M55.8402 95.7511C56.6207 95.7511 57.2535 95.1183 57.2535 94.3377C57.2535 93.5571 56.6207 92.9243 55.8402 92.9243C55.0596 92.9243 54.4268 93.5571 54.4268 94.3377C54.4268 95.1183 55.0596 95.7511 55.8402 95.7511Z" fill="white"/>
<path d="M33.0426 95.7511C33.8232 95.7511 34.456 95.1183 34.456 94.3377C34.456 93.5571 33.8232 92.9243 33.0426 92.9243C32.262 92.9243 31.6292 93.5571 31.6292 94.3377C31.6292 95.1183 32.262 95.7511 33.0426 95.7511Z" fill="white"/>
<path d="M130.382 132.864H155.595V114.125" stroke="white" stroke-width="1.468" stroke-miterlimit="10" stroke-linecap="round" stroke-linejoin="round" stroke-dasharray="2.94 2.94"/>
<path d="M130.884 134.278C131.665 134.278 132.297 133.645 132.297 132.865C132.297 132.084 131.665 131.451 130.884 131.451C130.103 131.451 129.471 132.084 129.471 132.865C129.471 133.645 130.103 134.278 130.884 134.278Z" fill="white"/>
<path d="M155.594 115.539C156.375 115.539 157.008 114.906 157.008 114.126C157.008 113.345 156.375 112.712 155.594 112.712C154.814 112.712 154.181 113.345 154.181 114.126C154.181 114.906 154.814 115.539 155.594 115.539Z" fill="white"/>
<path d="M52.9657 63.0607V37.8022H71.75" stroke="white" stroke-width="1.468" stroke-miterlimit="10" stroke-linecap="round" stroke-linejoin="round" stroke-dasharray="2.94 2.94"/>
<path d="M52.965 63.9727C53.7456 63.9727 54.3784 63.3399 54.3784 62.5594C54.3784 61.7788 53.7456 61.146 52.965 61.146C52.1844 61.146 51.5516 61.7788 51.5516 62.5594C51.5516 63.3399 52.1844 63.9727 52.965 63.9727Z" fill="white"/>
<path d="M71.7492 39.2159C72.5298 39.2159 73.1626 38.5831 73.1626 37.8025C73.1626 37.0219 72.5298 36.3892 71.7492 36.3892C70.9687 36.3892 70.3359 37.0219 70.3359 37.8025C70.3359 38.5831 70.9687 39.2159 71.7492 39.2159Z" fill="white"/>
<defs>
<linearGradient id="paint0_linear" x1="200.094" y1="0.872559" x2="200.094" y2="29.1402" gradientUnits="userSpaceOnUse">
<stop stop-color="#C5E862"/>
<stop offset="1" stop-color="#EEFFBC"/>
</linearGradient>
<linearGradient id="paint1_linear" x1="200.094" y1="217.439" x2="200.094" y2="189.171" gradientUnits="userSpaceOnUse">
<stop stop-color="#FE5DDB"/>
<stop offset="1" stop-color="#FFB8F0"/>
</linearGradient>
<linearGradient id="paint2_linear" x1="14.5299" y1="0.872559" x2="14.5299" y2="29.1402" gradientUnits="userSpaceOnUse">
<stop stop-color="#7862FF"/>
<stop offset="1" stop-color="#BCB1FF"/>
</linearGradient>
<linearGradient id="paint3_linear" x1="14.5299" y1="217.439" x2="14.5299" y2="189.171" gradientUnits="userSpaceOnUse">
<stop stop-color="#8AB7FF"/>
<stop offset="1" stop-color="#B8D3FF"/>
</linearGradient>
<linearGradient id="paint4_linear" x1="44.9321" y1="144.114" x2="116.237" y2="88.6544" gradientUnits="userSpaceOnUse">
<stop stop-color="white"/>
<stop offset="0.3295" stop-color="#C7B2AB" stop-opacity="0"/>
<stop offset="0.5626" stop-color="white" stop-opacity="0"/>
<stop offset="0.6675" stop-color="white" stop-opacity="0.3"/>
</linearGradient>
<linearGradient id="paint5_linear" x1="60.8754" y1="114.991" x2="60.8754" y2="147.909" gradientUnits="userSpaceOnUse">
<stop stop-color="#5AF38F"/>
<stop offset="1" stop-color="#00001E" stop-opacity="0"/>
</linearGradient>
</defs>
</svg>
