<svg width="120" height="120" viewBox="0 0 120 120" fill="none" xmlns="http://www.w3.org/2000/svg">
<path d="M42.4219 15.8203H77.5781C95.0248 15.8203 109.219 30.0143 109.219 47.4609L44.3395 104.18H42.4219C24.9752 104.18 10.7812 89.9857 10.7812 72.5391V47.4609C10.7812 30.0143 24.9752 15.8203 42.4219 15.8203Z" fill="#452096"/>
<path d="M109.219 72.5391C109.219 89.9857 95.0248 104.18 77.5781 104.18H44.3395L21.3281 72.5391V47.4609H109.219V72.5391Z" fill="#921FB2"/>
<path d="M38.9062 54.9609V90.1172C29.1982 90.1172 21.3281 82.2471 21.3281 72.5391C21.3281 62.831 29.1982 54.9609 38.9062 54.9609Z" fill="#FF2962"/>
<path d="M28.3594 72.5391C28.3594 62.831 33.0813 54.9609 38.9062 54.9609C49.4531 54.9609 49.4531 61.9922 60 61.9922C70.5469 61.9922 70.5469 54.9609 81.0938 54.9609C90.8018 54.9609 98.6719 62.831 98.6719 72.5391C98.6719 82.2471 90.8018 90.1172 81.0938 90.1172H38.9062C33.0813 90.1172 28.3594 82.2471 28.3594 72.5391Z" fill="#FF545A"/>
<path d="M24.8438 79.5703L38.9062 105.938H16.0547L7.26562 79.5703H24.8438Z" fill="#FFE7B5"/>
<path d="M42.4219 79.5703L51.2109 96.0499L60 79.5703H77.5781L86.3672 96.0499L95.1562 79.5703H112.734L103.945 105.938H24.8438V79.5703H42.4219Z" fill="white"/>
<path d="M95.1562 79.5703H77.5781V105.938H95.1562V79.5703Z" fill="#FFE7B5"/>
<path d="M60 79.5703H42.4219V105.938H60V79.5703Z" fill="#FFE7B5"/>
<path d="M24.8438 40.4297L38.9062 14.0625H16.0547L7.26562 40.4297H24.8438Z" fill="#FFE7B5"/>
<path d="M42.4219 40.4297L51.2109 23.9503L60 40.4297H77.5781L86.3672 23.9503L95.1562 40.4297H112.734L103.945 14.0625H24.8438V40.4297H42.4219Z" fill="white"/>
<path d="M95.1562 14.0625H77.5781V40.4297H95.1562V14.0625Z" fill="#FFE7B5"/>
<path d="M60 14.0625H42.4219V40.4297H60V14.0625Z" fill="#FFE7B5"/>
<path d="M41.0156 1.75781C26.1298 1.75781 14.2969 28.692 14.2969 47.4609V72.5391C14.2969 91.308 29.2779 118.242 48.0469 118.242H41.0156C22.2466 118.242 7.03125 103.027 7.03125 84.2578V35.7422C7.03125 16.9732 22.2466 1.75781 41.0156 1.75781Z" fill="#E80673"/>
<path d="M42.4219 100.664H78.0469C93.5798 100.664 105.703 88.072 105.703 72.5391V47.4609C105.703 31.928 93.5798 19.3359 78.0469 19.3359H42.4219C26.8889 19.3359 14.2969 31.928 14.2969 47.4609L14.0625 35.7422C14.0625 16.9732 26.1298 1.75781 41.0156 1.75781C45.7868 1.75781 50.3283 2.74125 54.4486 4.51617C57.9846 6.03937 62.0154 6.03937 65.5512 4.51617C69.6717 2.74125 74.2132 1.75781 78.9844 1.75781C97.7534 1.75781 112.969 16.9732 112.969 35.7422V84.2578C112.969 103.027 97.7534 118.242 78.9844 118.242H48.0469C29.2779 118.242 14.0625 103.027 14.0625 84.2578L14.2969 72.5391C14.2969 88.072 26.8889 100.664 42.4219 100.664Z" fill="#FF2962"/>
<path d="M98.6719 74.2969C97.7009 74.2969 96.9141 73.5098 96.9141 72.5391C96.9141 63.8156 89.8172 56.7188 81.0938 56.7188C76.3526 56.7188 74.1141 58.2113 71.5219 59.9391C68.8427 61.7255 65.8057 63.75 60 63.75C54.1943 63.75 51.1573 61.7255 48.4781 59.9391C45.8859 58.2113 43.6474 56.7188 38.9062 56.7188C30.1828 56.7188 23.0859 63.8156 23.0859 72.5391C23.0859 73.5098 22.2991 74.2969 21.3281 74.2969C20.3571 74.2969 19.5703 73.5098 19.5703 72.5391C19.5703 61.8771 28.2445 53.2031 38.9062 53.2031C44.712 53.2031 47.749 55.2277 50.4281 57.0141C53.0203 58.7419 55.2588 60.2344 60 60.2344C64.7412 60.2344 66.9797 58.7419 69.5719 57.0141C72.251 55.2277 75.288 53.2031 81.0938 53.2031C91.7555 53.2031 100.43 61.8771 100.43 72.5391C100.43 73.5098 99.6429 74.2969 98.6719 74.2969Z" fill="black"/>
<path d="M42.4219 17.5781H78.0469C86.0079 17.5781 93.4338 20.6916 98.9573 26.3452C104.441 31.958 107.461 39.4573 107.461 47.4609V72.5391C107.461 80.5427 104.441 88.042 98.9573 93.6548C93.4338 99.3084 86.0079 102.422 78.0469 102.422H42.4219C25.9444 102.422 12.5391 89.0166 12.5391 72.5391V47.4609C12.5391 30.9834 25.9444 17.5781 42.4219 17.5781ZM16.0547 47.4609V72.5391C16.0547 74.3445 16.2375 76.1081 16.5848 77.8125H103.447C103.774 76.1128 103.945 74.3503 103.945 72.5391V47.4609C103.945 45.6497 103.774 43.8872 103.447 42.1875H16.5848C16.2375 43.8919 16.0547 45.6555 16.0547 47.4609ZM26.6016 93.6195C30.5721 96.6068 35.4103 98.4987 40.6641 98.8462V81.3281H26.6016V93.6195ZM93.3984 81.3281H79.3359V98.8748C84.6237 98.6229 89.4483 96.8269 93.3984 93.9091V81.3281ZM75.8203 81.3281H61.7578V98.9062H75.8203V81.3281ZM58.2422 81.3281H44.1797V98.9062H58.2422V81.3281ZM93.3984 26.0909C89.4445 23.1703 84.6143 21.3738 79.3207 21.1247V38.6719H93.3984V26.0909ZM26.6016 38.6719H40.6488V21.1547C35.4009 21.5048 30.5684 23.396 26.6016 26.3805V38.6719ZM44.1645 38.6719H58.227V21.0938H44.1645V38.6719ZM61.7426 38.6719H75.8051V21.0938H61.7426V38.6719ZM23.0859 38.6719V29.5552C20.6702 32.1619 18.7741 35.2559 17.5629 38.6719H23.0859ZM96.9141 29.2273V38.6719H102.523C101.318 35.096 99.3938 31.8905 96.9141 29.2273ZM102.523 81.3281H96.9141V90.7727C99.3938 88.1095 101.318 84.904 102.523 81.3281ZM23.0859 90.4448V81.3281H17.5629C18.7741 84.7439 20.6702 87.8381 23.0859 90.4448Z" fill="black"/>
<path d="M41.0156 0C45.9209 0 50.6742 0.976406 55.1442 2.90156C58.23 4.23117 61.7698 4.23117 64.856 2.90156C69.3258 0.976406 74.0791 0 78.9844 0C98.6927 0 114.727 16.0338 114.727 35.7422V84.2578C114.727 103.966 98.6927 120 78.9844 120H41.0156C21.3073 120 5.27344 103.966 5.27344 84.2578V35.7422C5.27344 16.0338 21.3073 0 41.0156 0ZM8.78906 84.2578C8.78906 102.028 23.246 116.484 41.0156 116.484H78.9844C96.754 116.484 111.211 102.028 111.211 84.2578V35.7422C111.211 17.9723 96.754 3.51562 78.9844 3.51562C74.5603 3.51562 70.2748 4.39547 66.2468 6.13055C62.2765 7.84078 57.7228 7.84078 53.7532 6.13055C49.7252 4.39547 45.4397 3.51562 41.0156 3.51562C23.246 3.51562 8.78906 17.9723 8.78906 35.7422V84.2578Z" fill="black"/>
</svg>
