<svg width="120" height="120" viewBox="0 0 120 120" fill="none" xmlns="http://www.w3.org/2000/svg">
<g clip-path="url(#clip0)">
<path d="M93.7494 78.45C90.3994 77.15 88.1495 74 87.6995 70.4C85.4495 50.85 81.5494 31.7 73.8994 13.15C71.6494 7.45 66.0994 3.75 59.9994 3.75C53.8994 3.75 48.3494 7.45 46.0994 13.15C38.4494 31.7 34.5494 50.85 32.2994 70.4C31.8494 74 29.5994 77.15 26.2494 78.45C17.5494 81.75 11.8494 91.15 14.3494 101.55C15.9494 108.45 21.5494 114.05 28.4494 115.65C36.1444 117.5 43.2944 114.75 47.7944 109.605C47.8744 109.71 47.9794 109.785 48.0544 109.89L48.2044 110.1C50.8994 113.95 55.3044 116.245 60.0044 116.245C64.7044 116.245 69.1094 113.95 71.8044 110.1L71.9544 109.89C72.0294 109.785 72.1344 109.71 72.2144 109.605C76.7144 114.75 83.8595 117.495 91.5594 115.65C98.4594 114.05 104.059 108.45 105.659 101.55C108.149 91.15 102.449 81.75 93.7494 78.45Z" fill="#FFCC80"/>
<path d="M86.6902 119.985C80.0852 119.985 73.8702 117.21 69.3752 112.065L75.0302 107.135C78.9252 111.6 84.7652 113.425 90.6752 112.005C96.1902 110.725 100.725 106.19 102 100.7C104.19 91.6 98.8352 84.39 92.4252 81.96C87.8352 80.18 84.6102 75.93 83.9852 70.865C81.4302 48.675 77.1252 30.8 70.4402 14.58C68.7552 10.32 64.5702 7.5 60.0002 7.5C55.4302 7.5 51.2452 10.32 49.5852 14.525C42.8802 30.8 38.5752 48.675 36.0252 70.83C35.3902 75.93 32.1702 80.175 27.6102 81.95C21.1652 84.39 15.8152 91.6 17.9952 100.67C19.2752 106.19 23.8102 110.725 29.3002 112C35.2002 113.41 41.0702 111.605 44.9702 107.135L50.6252 112.065C44.8552 118.675 36.2302 121.365 27.5802 119.295C19.2702 117.365 12.6352 110.73 10.7002 102.395C7.88515 90.69 13.8652 79.135 24.9252 74.945C26.8802 74.185 28.2902 72.26 28.5802 69.935C31.2052 47.11 35.6752 28.6 42.6302 11.72C45.3902 4.73 52.3852 0 60.0002 0C67.6152 0 74.6102 4.73 77.3902 11.77C84.3302 28.595 88.7952 47.105 91.4302 69.97C91.7202 72.26 93.1302 74.185 95.1152 74.955C106.14 79.135 112.12 90.69 109.3 102.425C107.37 110.73 100.735 117.365 92.4002 119.3C90.4852 119.76 88.5702 119.985 86.6902 119.985Z" fill="black"/>
<path d="M60 120C54.08 120 48.52 117.105 45.125 112.26C42.99 109.2 39.72 107.5 36.25 107.5H33.75C31.68 107.5 30 105.82 30 103.75C30 101.68 31.68 100 33.75 100H36.25C42.17 100 47.73 102.895 51.125 107.74C53.26 110.8 56.53 112.5 60 112.5C63.47 112.5 66.74 110.8 68.73 107.955C72.27 102.895 77.83 100 83.75 100H86.25C88.32 100 90 101.68 90 103.75C90 105.82 88.32 107.5 86.25 107.5H83.75C80.28 107.5 77.01 109.2 75.02 112.045C71.48 117.105 65.92 120 60 120Z" fill="black"/>
</g>
<defs>
<clipPath id="clip0">
<rect width="120" height="120" fill="white"/>
</clipPath>
</defs>
</svg>
