<svg width="120" height="120" viewBox="0 0 120 120" fill="none" xmlns="http://www.w3.org/2000/svg">
<g clip-path="url(#clip0)">
<path d="M2.556 40.568C2.268 43.592 1.692 46.796 0.648 48.92C1.584 49.244 3.168 50 3.924 50.468C4.968 48.164 5.724 44.564 6.084 41.18L2.556 40.568ZM10.584 41.36C11.484 43.556 12.42 46.472 12.708 48.308L16.092 47.12C15.66 45.284 14.724 42.476 13.752 40.352L10.584 41.36ZM9.972 32.396C10.404 33.152 10.836 34.016 11.232 34.844L7.596 35.024C9.936 32.108 12.456 28.436 14.472 25.268L10.836 23.756C9.972 25.556 8.82 27.644 7.524 29.66C7.164 29.192 6.732 28.652 6.264 28.148C7.56 26.132 9.036 23.36 10.332 20.876L6.552 19.544C5.94 21.416 4.932 23.828 3.924 25.808C3.636 25.556 3.348 25.304 3.06 25.052L1.044 28.004C2.556 29.444 4.32 31.388 5.364 32.936C4.824 33.728 4.248 34.484 3.708 35.168L1.044 35.276L1.404 39.02C2.988 38.912 4.788 38.768 6.732 38.66V53.168H10.512V38.372L12.564 38.228C12.78 38.948 12.96 39.596 13.068 40.172L16.308 38.66C15.876 36.608 14.436 33.476 12.996 31.064L9.972 32.396ZM29.016 42.692V47.768H20.988V42.692H29.016ZM17.064 53.096H20.988V51.584H29.016V53.06H33.156V38.876H17.064V53.096ZM34.776 28.04V24.152H26.892V19.508H22.536V24.152H14.94V28.04H22.536V31.964H15.948V35.852H33.948V31.964H26.892V28.04H34.776ZM46.008 32.648V30.344H51.804V32.648H46.008ZM46.008 24.728H51.804V27.032H46.008V24.728ZM62.064 27.032H56.34V24.728H62.064V27.032ZM62.064 32.648H56.34V30.344H62.064V32.648ZM70.092 42.26V38.336H56.34V36.212H66.78V21.164H41.508V36.212H51.804V38.336H38.016V42.26H48.672C45.648 44.96 41.184 47.336 36.9 48.596C37.872 49.496 39.168 51.152 39.816 52.16C44.1 50.576 48.492 47.768 51.804 44.456V53.132H56.34V44.276C59.688 47.552 64.08 50.36 68.256 51.944C68.868 50.864 70.164 49.172 71.136 48.308C67.032 47.12 62.64 44.816 59.472 42.26H70.092ZM89.496 21.128L84.744 20.732C84.672 22.028 84.42 23.432 84.024 24.872C83.448 24.872 82.836 24.872 82.296 24.872C80.46 24.872 77.796 24.728 75.96 24.44V28.652C77.94 28.796 80.568 28.868 82.044 28.868C82.188 28.868 82.332 28.868 82.512 28.868C80.892 32.108 78.336 35.312 74.556 38.804L78.408 41.684C79.632 40.1 80.676 38.804 81.756 37.724C83.124 36.392 85.356 35.24 87.372 35.24C88.38 35.24 89.352 35.564 89.892 36.464C85.788 38.588 81.468 41.468 81.468 46.076C81.468 50.72 85.644 52.088 91.296 52.088C94.68 52.088 99.108 51.8 101.484 51.476L101.628 46.832C98.46 47.444 94.464 47.84 91.404 47.84C87.876 47.84 86.184 47.3 86.184 45.32C86.184 43.52 87.624 42.116 90.324 40.568C90.288 42.152 90.252 43.88 90.144 44.96H94.464C94.428 43.304 94.356 40.64 94.32 38.624C96.516 37.616 98.568 36.824 100.188 36.176C101.412 35.708 103.32 34.988 104.472 34.664L102.672 30.488C101.34 31.172 100.08 31.748 98.676 32.36C97.2 33.008 95.688 33.62 93.816 34.484C93.024 32.648 91.224 31.712 89.028 31.712C87.84 31.712 85.896 32 84.96 32.432C85.68 31.388 86.4 30.092 87.012 28.76C90.9 28.652 95.328 28.364 98.748 27.86L98.784 23.684C95.616 24.224 92.016 24.548 88.596 24.728C89.064 23.216 89.316 22.028 89.496 21.128ZM27.216 71.58C25.344 76.692 22.068 81.804 18.72 85.044C19.44 86.088 20.628 88.392 21.024 89.436C21.96 88.464 22.86 87.384 23.76 86.232V105.06H27.828V79.968C29.124 77.664 30.24 75.216 31.176 72.876L27.216 71.58ZM35.964 76.836H46.512V81.66H35.964V76.836ZM52.56 92.568V88.68H43.272V85.44H50.796V73.056H31.896V85.44H38.952V88.68H29.52V92.568H36.9C34.668 95.736 31.464 98.652 28.224 100.344C29.196 101.172 30.528 102.72 31.176 103.764C34.02 101.928 36.756 99.192 38.952 96.024V105.132H43.272V95.844C45.324 99.048 47.952 101.964 50.58 103.836C51.264 102.756 52.632 101.244 53.604 100.416C50.58 98.652 47.484 95.7 45.36 92.568H52.56ZM88.02 80.256V76.152H70.632C71.1 74.964 71.496 73.74 71.856 72.552L67.284 71.508C66.888 73.02 66.42 74.604 65.808 76.152H56.052V80.256H64.008C61.812 84.576 58.752 88.5 54.828 91.056C55.548 92.136 56.52 94.08 56.952 95.268C58.104 94.476 59.148 93.648 60.156 92.712V105.06H64.476V87.888C66.24 85.548 67.68 82.956 68.94 80.256H88.02ZM88.524 92.1H80.064V91.128C82.404 89.364 84.852 87.024 86.616 84.972L83.952 82.812L83.052 83.064H69.372V86.916H79.488C78.696 87.708 77.868 88.5 77.04 89.148H75.708V92.1H66.6V96.096H75.708V100.452C75.708 100.92 75.528 101.028 74.952 101.064C74.376 101.1 72.252 101.1 70.452 100.992C70.956 102.18 71.496 103.872 71.64 105.132C74.52 105.132 76.644 105.096 78.12 104.448C79.668 103.836 80.064 102.72 80.064 100.56V96.096H88.524V92.1Z" fill="#EBF0F3"/>
</g>
<defs>
<clipPath id="clip0">
<rect width="120" height="120" fill="white"/>
</clipPath>
</defs>
</svg>
