<svg width="188" height="188" viewBox="0 0 188 188" fill="none" xmlns="http://www.w3.org/2000/svg">
<path d="M94 188C145.915 188 188 145.915 188 94C188 42.0852 145.915 0 94 0C42.0852 0 0 42.0852 0 94C0 145.915 42.0852 188 94 188Z" fill="#0FE1C2"/>
<path d="M94 158.258C129.489 158.258 158.258 129.489 158.258 94C158.258 58.5114 129.489 29.7422 94 29.7422C58.5114 29.7422 29.7422 58.5114 29.7422 94C29.7422 129.489 58.5114 158.258 94 158.258Z" fill="#66FADE"/>
<path d="M25.9699 175.939C25.9699 175.939 6.38672 183.773 6.38672 185.976C6.38672 188.179 9.56913 187.995 14.4648 187.995C19.3606 187.995 24.7461 186.343 27.3164 187.2C29.8867 188.056 34.6602 188.668 36.0066 186.588C37.3531 184.507 36.0066 178.264 36.0066 178.264C29.0521 180.648 25.9699 175.939 25.9699 175.939Z" fill="#FFAEA1"/>
<path d="M162.031 175.939C162.031 175.939 181.614 183.773 181.614 185.976C181.614 188.179 178.431 187.995 173.536 187.995C168.64 187.995 163.254 186.343 160.684 187.2C158.114 188.056 153.34 188.668 151.994 186.588C150.647 184.507 151.994 178.264 151.994 178.264C158.948 180.648 162.031 175.939 162.031 175.939Z" fill="#FFAEA1"/>
<path d="M151.992 178.265C158.947 180.648 162.029 175.94 162.029 175.94C156.521 166.515 163.497 124.496 156.766 118.744C150.034 112.991 115.112 111.251 115.112 111.251L93.9987 102.832L72.8854 111.251C72.8854 111.251 37.9637 112.991 31.2316 118.744C24.5 124.496 31.4766 166.516 25.9688 175.94C25.9688 175.94 29.0509 180.648 36.0051 178.265C36.0051 178.265 44.9399 145.426 44.9399 140.775C44.9399 136.123 43.1039 129.881 43.1039 129.881C43.1039 129.881 61.0252 134.842 77.8645 132.941C87.8824 131.81 93.9987 131.269 93.9987 131.269C93.9987 131.269 100.115 131.81 110.133 132.941C126.972 134.842 144.893 129.881 144.893 129.881C144.893 129.881 143.057 136.123 143.057 140.775C143.057 145.426 151.992 178.265 151.992 178.265Z" fill="#0C99E6"/>
<path d="M168.723 46.1016C165.143 46.1016 99.3723 46.1016 99.3723 46.1016V36.5547H94H88.6277V46.1016C88.6277 46.1016 22.8574 46.1016 19.2773 46.1016C15.6973 46.1016 0 46.6523 0 48.2129C0 49.7734 8.26172 49.7734 9.08789 50.1406C9.91406 50.5078 15.7891 52.1601 17.0742 51.8848C18.3594 51.6094 20.4707 50.6914 20.4707 50.6914C20.4707 50.6914 39.5645 55.4648 45.1641 55.0976H68.052C69.2181 55.0976 70.5962 61.7313 71.5817 67.5618H116.418C117.404 61.7313 118.781 55.0976 119.948 55.0976H142.836C148.435 55.4648 167.529 50.6914 167.529 50.6914C167.529 50.6914 169.64 51.6094 170.925 51.8848C172.211 52.1601 178.086 50.5078 178.912 50.1406C179.738 49.7734 188 49.7734 188 48.2129C188 46.6523 172.303 46.1016 168.723 46.1016Z" fill="#FFAEA1"/>
<path d="M72.713 58.4409C72.0362 56.4423 70.161 55.0977 68.0508 55.0977C69.217 55.0977 70.595 61.7313 71.5806 67.5618H75.8018L72.713 58.4409Z" fill="#F4958C"/>
<path d="M111.509 62.6522V46.1016H104.165V52.0735C104.165 57.6871 99.6139 62.238 94.0003 62.238C88.3867 62.238 83.8358 57.6871 83.8358 52.0735V46.1016H76.4921V62.6522C76.4921 65.3638 74.2937 67.5622 71.582 67.5622C72.355 72.1333 72.887 76.2113 72.887 76.2113V111.251C72.887 111.251 82.1618 116.949 94.0003 116.949C105.839 116.949 115.114 111.251 115.114 111.251V76.2113C115.114 76.2113 115.646 72.1337 116.419 67.5622C113.707 67.5622 111.509 65.3638 111.509 62.6522Z" fill="#3E4A68"/>
<path d="M72.887 111.25C72.887 111.25 75.1827 112.66 78.9456 114.077V79.8644C78.9456 79.4891 78.9302 79.115 78.9074 78.7412C83.0959 78.5131 89.839 76.8399 89.839 76.8399C81.8831 76.8399 77.9755 73.9751 76.904 70.8114L75.2451 65.9131C75.1346 66.0372 75.0178 66.1554 74.8952 66.2678C74.8908 66.2718 74.8864 66.2759 74.8819 66.2799C74.7652 66.3864 74.6433 66.4866 74.5166 66.5817C74.5048 66.5905 74.4931 66.5994 74.4813 66.6082C74.3624 66.6956 74.2394 66.7775 74.1123 66.8538C74.0914 66.8667 74.0705 66.8795 74.0492 66.892C73.9306 66.961 73.8087 67.0246 73.6842 67.0837C73.6533 67.0984 73.6229 67.1142 73.5913 67.1285C73.4745 67.181 73.3552 67.2273 73.2336 67.2706C73.1929 67.2853 73.1532 67.3014 73.1121 67.315C72.9964 67.3532 72.8778 67.384 72.7581 67.4138C72.7104 67.4255 72.6638 67.4399 72.6157 67.4505C72.4945 67.4766 72.3711 67.4946 72.247 67.5115C72.1993 67.5181 72.153 67.528 72.1049 67.5331C71.9331 67.5515 71.7586 67.5618 71.582 67.5618C72.355 72.1329 72.887 76.2109 72.887 76.2109V111.25Z" fill="#303A59"/>
<path d="M88.627 46.1016C88.627 46.1016 97.1732 45.918 97.9076 36.5547H88.627V46.1016Z" fill="#F4958C"/>
<path d="M106.677 15.5784C106.677 15.5784 107.379 10.3383 104.856 7.41214C104.478 6.97371 103.76 7.27224 103.805 7.84909L103.835 8.21995C103.835 8.21995 102.387 5.39444 98.6601 4.28517C98.1427 4.13131 97.7076 4.70046 97.983 5.16495L98.153 5.45172C98.153 5.45172 95.9061 3.2049 88.4603 3.04995C87.9136 3.03856 87.6426 3.71052 88.0421 4.08395L88.4684 4.48271C88.468 4.48271 85.6646 4.97731 81.9504 7.22597C81.4922 7.50356 81.6064 8.19939 82.1289 8.31872L82.4329 8.38812C80.9954 10.0412 80.2004 11.7629 79.7954 12.8722C79.6195 13.3543 80.0914 13.8192 80.5706 13.6356C81.0497 13.452 79.4297 18.9297 80.8118 23.4975L94.0001 26.4765L107.189 23.4972C107.189 23.4975 107.988 19.6582 106.677 15.5784Z" fill="#8C4F5C"/>
<path d="M88.6056 15.3144C84.72 14.4812 81.9554 12.9559 80.5704 13.6356C80.5704 13.6356 79.4295 18.9297 80.8116 23.4975L88.9525 25.3364L88.6056 15.3144Z" fill="#7B3C47"/>
<path d="M104.064 26.0211C104.064 26.0211 105.361 22.8648 107.672 23.5977C109.982 24.3302 107.616 31.1702 103.106 31.6009L104.064 26.0211Z" fill="#FFAEA1"/>
<path d="M83.9359 26.0211C83.9359 26.0211 82.6398 22.8648 80.3287 23.5977C78.0176 24.3306 80.3845 31.1702 84.8939 31.6009L83.9359 26.0211Z" fill="#F4958C"/>
<path d="M104.387 22.0382C104.255 21.7162 104.149 21.2554 104.048 20.723L93.9996 17.8086L83.9515 20.7226C83.8506 21.255 83.7437 21.7158 83.6119 22.0379C83.0182 23.486 82.272 23.7809 82.1729 23.8147C82.1655 24.0412 82.1611 24.2689 82.1611 24.4987C82.1611 33.2165 87.4615 43.4405 93.9996 43.4405C100.538 43.4405 105.838 33.2165 105.838 24.4987C105.838 24.2689 105.834 24.0412 105.826 23.8147C105.727 23.7813 104.981 23.486 104.387 22.0382Z" fill="#FFCFC2"/>
<path d="M86.2321 24.4991C86.2321 22.8747 86.4183 21.3373 86.7605 19.9082L83.9515 20.723C83.8506 21.2554 83.7437 21.7162 83.6119 22.0383C83.0182 23.4864 82.272 23.7813 82.1729 23.8151C82.1655 24.0416 82.1611 24.2693 82.1611 24.4991C82.1611 33.2169 87.4615 43.4409 93.9996 43.4409C94.6936 43.4409 95.3737 43.3245 96.0353 43.1082C90.4669 41.2859 86.2321 32.2912 86.2321 24.4991Z" fill="#FFAEA1"/>
<path d="M94.0012 16.2098C89.863 16.2098 88.2066 14.8978 86.775 14.8945H86.7735C86.5088 14.8942 86.2514 14.9386 85.9874 15.0443C84.6471 15.5819 84.3401 18.685 83.9531 20.7229H104.049C103.662 18.685 103.356 15.5819 102.015 15.0443C101.751 14.9386 101.494 14.8942 101.229 14.8945H101.227C99.7958 14.8978 98.1394 16.2098 94.0012 16.2098Z" fill="white"/>
<path d="M91.7449 18.4662C91.7449 17.2199 92.755 16.2098 94.0013 16.2098C89.863 16.2098 88.2066 14.8978 86.775 14.8945H86.7735C86.5088 14.8942 86.2514 14.9386 85.9874 15.0443C84.6471 15.5819 84.3401 18.685 83.9531 20.7229H94.0013C92.755 20.7229 91.7449 19.7124 91.7449 18.4662Z" fill="#EBF0F3"/>
<path d="M36.0051 178.265C36.0051 178.265 40.9302 160.163 43.4667 148.936C42.1852 151.745 39.3557 153.701 36.066 153.701C32.2253 153.701 29.0204 151.034 28.1675 147.455C28.3797 159.383 28.6125 171.416 25.9688 175.94C25.9688 175.939 29.0509 180.648 36.0051 178.265Z" fill="#066AE7"/>
<path d="M151.993 178.265C151.993 178.265 147.068 160.163 144.531 148.936C145.813 151.745 148.642 153.701 151.932 153.701C155.773 153.701 158.978 151.034 159.83 147.455C159.618 159.383 159.385 171.416 162.029 175.94C162.029 175.939 158.947 180.648 151.993 178.265Z" fill="#066AE7"/>
</svg>
