<svg width="212" height="212" viewBox="0 0 212 212" fill="none" xmlns="http://www.w3.org/2000/svg">
<g clip-path="url(#clip0)">
<path d="M108.477 166.608L96.009 159.625L85.9883 166.608V170.485C85.9883 176.695 91.0225 181.729 97.2326 181.729C103.443 181.729 108.477 176.695 108.477 170.485V166.608Z" fill="#FFDDCE"/>
<path d="M100.553 181.233C99.5045 181.554 98.3878 181.729 97.2326 181.729C91.0241 181.729 85.9883 176.698 85.9883 170.485V166.609L96.009 159.626L99.6888 161.688L92.629 166.609V170.485C92.629 175.543 95.9622 179.812 100.553 181.233Z" fill="#FFCBBE"/>
<path d="M125.767 108.799V112.958L114.166 123.485L108.477 139.136L88.832 143.689L63.4997 139.136L46.208 112.956L46.2092 108.799C46.2092 89.7202 61.6724 74.2529 80.7553 74.2529H91.2207C110.299 74.2529 125.767 89.7202 125.767 108.799Z" fill="#BFE19F"/>
<path d="M55.3244 126.758L46.208 112.956V108.797C46.208 89.7183 61.6712 74.251 80.7541 74.251H86.4445C67.3616 74.251 51.8985 89.7183 51.8985 108.797V112.956L58.4634 122.895L55.3244 126.758Z" fill="#A7D3A3"/>
<path d="M117.565 58.9962H54.4102C49.3388 58.9962 45.2275 54.885 45.2275 49.8135C45.2275 44.7421 49.3388 40.6309 54.4102 40.6309H117.565C122.637 40.6309 126.748 44.7421 126.748 49.8135C126.748 54.8854 122.637 58.9962 117.565 58.9962Z" fill="#EAAC9D"/>
<path d="M85.9885 88.4791C71.3055 88.4791 59.4028 76.5761 59.4028 61.8934V36.7068C59.4028 22.0237 71.3059 10.1211 85.9885 10.1211C100.672 10.1211 112.574 22.0241 112.574 36.7068V61.8934C112.574 76.5765 100.672 88.4791 85.9885 88.4791Z" fill="#FFDDCE"/>
<path d="M92.8123 87.5973C90.6347 88.1757 88.352 88.4809 85.9906 88.4809C71.3055 88.4809 59.4028 76.5783 59.4028 61.8931V36.7098C59.4028 22.0247 71.3055 10.1221 85.9906 10.1221C88.352 10.1221 90.6347 10.4272 92.8123 11.0057C81.4301 14.0196 73.0462 24.3861 73.0462 36.7098V61.8935C73.0466 74.2169 81.4305 84.5838 92.8123 87.5973Z" fill="#FFCBBE"/>
<path d="M85.9873 66.1455C81.3954 66.1455 77.0779 64.3572 73.8313 61.1101C72.5816 59.8605 72.5816 57.8353 73.8313 56.5857C75.0809 55.336 77.1065 55.336 78.3557 56.5857C80.3946 58.6245 83.1046 59.747 85.9878 59.747C88.8709 59.747 91.5813 58.6245 93.6198 56.5857C94.869 55.3364 96.8946 55.3364 98.1442 56.5857C99.3939 57.8349 99.3939 59.8605 98.1442 61.1101C94.8967 64.3576 90.5793 66.1455 85.9873 66.1455Z" fill="#DF75A5"/>
<path d="M79.0516 48.5673C77.2848 48.5673 75.8525 47.1351 75.8525 45.3683V39.9979C75.8525 38.2311 77.2848 36.7988 79.0516 36.7988C80.8184 36.7988 82.2506 38.2311 82.2506 39.9979V45.3683C82.2506 47.1351 80.8184 48.5673 79.0516 48.5673Z" fill="#365E7D"/>
<path d="M92.9256 48.5673C91.1588 48.5673 89.7266 47.1351 89.7266 45.3683V39.9979C89.7266 38.2311 91.1588 36.7988 92.9256 36.7988C94.6924 36.7988 96.1246 38.2311 96.1246 39.9979V45.3683C96.1251 47.1351 94.6924 48.5673 92.9256 48.5673Z" fill="#365E7D"/>
<path d="M63.2028 4.90332H65.5385C72.6227 4.90332 78.3658 10.6464 78.3658 17.7306V17.8291C78.3658 24.9133 72.6227 30.6559 65.5385 30.6559H63.2028C56.1186 30.6559 50.376 24.9129 50.376 17.8291V17.7306C50.3756 10.6464 56.1186 4.90332 63.2028 4.90332Z" fill="#C0976F"/>
<path d="M68.9645 30.187C67.8734 30.4942 66.7244 30.6544 65.5398 30.6544H63.2061C56.1207 30.6544 50.376 24.9139 50.376 17.8284V17.7303C50.376 10.6449 56.1207 4.9043 63.2061 4.9043H65.5398C66.7244 4.9043 67.8734 5.06454 68.9645 5.37177C63.5403 6.86364 59.559 11.8291 59.559 17.7299V17.828C59.5586 23.7296 63.5398 28.6951 68.9645 30.187Z" fill="#B28968"/>
<path d="M76.14 13.9949C76.14 24.1779 84.3947 32.4327 94.5778 32.4327C111.14 32.4327 124.567 19.0063 124.567 2.44338V0H89.4637C81.8387 0 75.7653 6.37946 76.14 13.9949Z" fill="#C0976F"/>
<path d="M100.563 31.8355C98.6298 32.2272 96.6257 32.4322 94.5774 32.4322C84.3923 32.4322 76.1404 24.1799 76.1404 13.9948C75.7665 6.37934 81.8408 0.00195312 89.4649 0.00195312H100.127C92.5025 0.00195312 86.4278 6.37934 86.8021 13.9948C86.8013 22.5638 92.6445 29.7648 100.563 31.8355Z" fill="#B28968"/>
<path d="M108.476 139.135V166.608H85.9875V199.464L63.4985 207.418V139.135H108.476Z" fill="#BED8FB"/>
<path d="M63.5005 139.136H69.1976V212H63.5005V139.136Z" fill="#9DC6FB"/>
<path d="M63.4997 112.956H46.208V154.234C46.208 159.009 50.0791 162.88 54.854 162.88C59.629 162.88 63.5001 159.009 63.5001 154.234V112.956H63.4997Z" fill="#FFDDCE"/>
<path d="M57.6983 162.396C56.8085 162.713 55.8499 162.88 54.8529 162.88C50.0779 162.88 46.2056 159.007 46.2056 154.232V112.956H51.896V154.232C51.8964 158.01 54.3224 161.223 57.6983 162.396Z" fill="#FFCBBE"/>
<path d="M85.9889 199.463V212H59.2471C57.5142 212 55.9482 211.298 54.8145 210.164C53.6808 209.03 52.979 207.464 52.979 205.731C52.979 202.27 55.7859 199.463 59.2471 199.463H85.9889Z" fill="#407093"/>
<path d="M65.3015 210.164C66.4352 211.298 68.0012 212 69.734 212H59.2471C57.5142 212 55.9482 211.298 54.8145 210.164C53.6808 209.03 52.979 207.464 52.979 205.731C52.979 202.27 55.7859 199.463 59.2471 199.463H69.734C66.2725 199.463 63.466 202.27 63.466 205.731C63.466 207.464 64.1674 209.03 65.3015 210.164Z" fill="#365E7D"/>
<path d="M125.768 112.958H108.476V154.235C108.476 159.01 112.347 162.882 117.122 162.882C121.897 162.882 125.768 159.01 125.768 154.235V112.958H125.768Z" fill="#FFDDCE"/>
<path d="M119.968 162.398C119.078 162.715 118.12 162.882 117.123 162.882C112.348 162.882 108.476 159.009 108.476 154.234V112.958H114.166V154.234C114.166 158.012 116.592 161.225 119.968 162.398Z" fill="#FFCBBE"/>
<path d="M140.574 147.185L140.971 147.867C142.37 150.274 145.393 151.186 147.889 149.955L155.568 146.168C158.318 144.812 159.344 141.41 157.803 138.759L156.818 137.064C155.277 134.412 151.812 133.622 149.273 135.341L142.183 140.14C139.878 141.7 139.175 144.779 140.574 147.185Z" fill="#FFE07D"/>
<path d="M147.635 172.445L147.638 173.235C147.646 176.018 149.808 178.319 152.586 178.501L161.129 179.061C164.189 179.262 166.779 176.829 166.769 173.762L166.763 171.801C166.754 168.735 164.149 166.317 161.091 166.536L152.551 167.148C149.775 167.347 147.627 169.662 147.635 172.445Z" fill="#FFE07D"/>
<path d="M141.121 197.853L140.729 198.538C139.344 200.953 140.066 204.027 142.38 205.573L149.499 210.329C152.049 212.033 155.508 211.221 157.033 208.56L158.009 206.859C159.534 204.199 158.487 200.803 155.728 199.464L148.027 195.724C145.523 194.508 142.505 195.439 141.121 197.853Z" fill="#FFE07D"/>
</g>
<defs>
<clipPath id="clip0">
<rect width="212" height="212" fill="white"/>
</clipPath>
</defs>
</svg>
