<svg width="96" height="112" viewBox="0 0 96 112" fill="none" xmlns="http://www.w3.org/2000/svg">
<path d="M94.1931 49.0673C94.1931 49.0673 89.5829 64.2828 66.0801 53.5689V35.5625C66.0801 35.5625 80.0914 42.9451 90.4869 41.1445C96.1818 40.0641 94.1931 49.0673 94.1931 49.0673Z" fill="#078C81"/>
<path d="M77.4689 98.2253C61.1073 91.653 55.6836 83.46 57.0395 71.7559H47.0056H45.8305H39.0508C40.4068 83.5501 35.0734 91.653 18.6215 98.2253C2.16949 104.798 0 112 0 112H43.9322H47.0056H96C96 112 93.8305 104.798 77.4689 98.2253Z" fill="#E83F53"/>
<path d="M27.2988 93.9943L27.7508 94.3544C33.8977 99.2161 40.9485 101.827 47.9994 101.827C55.1406 101.827 62.1011 99.2161 68.248 94.3544L68.7 93.9943C68.1576 93.6341 67.6152 93.274 67.0728 93.0039C61.3779 97.5055 54.8694 100.116 47.909 100.116C40.9485 100.116 34.4401 97.5055 28.7452 93.0039C28.3836 93.364 27.8412 93.7242 27.2988 93.9943Z" fill="white"/>
<path d="M28.8359 93.0035C34.5309 97.5051 41.0393 100.116 47.9998 100.116C54.9602 100.116 61.4687 97.5051 67.1636 93.0035C58.7568 87.4215 55.9546 80.579 57.0393 71.7559H47.0054H45.8303H39.0506C40.045 80.579 37.2427 87.4215 28.8359 93.0035Z" fill="#FD9A8B"/>
<path d="M57.0401 71.7559H47.0062H45.831H39.0514C39.7745 77.698 38.6898 82.6498 35.4355 86.9713C39.3226 89.042 43.5711 90.3025 48.1813 90.3025C52.7011 90.3025 56.9497 89.1321 60.7463 87.0613C57.4016 82.7398 56.3169 77.698 57.0401 71.7559Z" fill="#FD7058"/>
<path d="M22.7734 66.4725C27.1977 64.1688 28.403 57.7647 25.4655 52.1684C22.528 46.5722 16.5601 43.9031 12.1358 46.2067C7.71158 48.5104 6.5063 54.9146 9.44379 60.5108C12.3813 66.107 18.3492 68.7762 22.7734 66.4725Z" fill="#FD8977"/>
<path d="M22.87 62.7527C22.87 62.4826 22.7796 62.3025 22.7796 62.1225C22.7796 62.3025 22.87 62.3926 22.87 62.4826C22.87 61.3122 22.6892 60.4119 22.418 59.6916C20.0677 50.2382 11.209 49.3379 11.209 49.3379C15.7288 52.0389 18.531 55.0099 20.2485 57.4408C17.0847 56.1803 12.1129 58.8813 12.1129 58.8813C17.9886 57.3508 20.6101 58.6112 21.8757 60.1418C22.6892 61.7623 22.87 62.7527 22.87 62.7527Z" fill="#FD5F47"/>
<path d="M86.4245 60.5366C89.362 54.9404 88.1567 48.5363 83.7324 46.2326C79.3081 43.9289 73.3403 46.598 70.4028 52.1943C67.4653 57.7905 68.6706 64.1947 73.0948 66.4983C77.5191 68.802 83.487 66.1329 86.4245 60.5366Z" fill="#FD8977"/>
<path d="M72.9492 62.7527C72.9492 62.4826 73.0396 62.3025 73.0396 62.1225C73.0396 62.3025 72.9492 62.3926 72.9492 62.4826C72.9492 61.3122 73.13 60.4118 73.4012 59.6916C75.7515 50.2382 84.6102 49.3379 84.6102 49.3379C80.0905 52.0389 77.2882 55.0099 75.5707 57.4408C78.7345 56.1803 83.7063 58.8813 83.7063 58.8813C77.8306 57.3508 75.2091 58.6112 73.9436 60.1418C73.13 61.7623 72.9492 62.7527 72.9492 62.7527Z" fill="#FD5F47"/>
<path d="M79.0963 39.2541C79.0963 39.2541 81.8986 62.5725 70.0568 65.5435L60.1133 50.4181L65.1754 21.8779L79.0963 39.2541Z" fill="#1E1C36"/>
<path d="M16.5418 37.003C16.5418 37.003 15.0051 56.54 23.9543 62.8423L30.1916 20.6172L16.5418 37.003Z" fill="#1E1C36"/>
<path d="M39.6837 20.4375C29.3786 20.4375 21.0622 28.7205 20.8814 38.8941L20.791 56.7205C20.791 73.0163 32.904 86.251 47.9097 86.251C62.9153 86.251 75.0283 73.0163 75.0283 56.7205L74.9379 37.8137C74.9379 28.1803 67.0735 20.4375 57.4012 20.4375H39.6837Z" fill="#EBB084"/>
<path opacity="0.49" d="M75.0278 42.8555V37.8137C75.0278 28.1803 67.1633 20.4375 57.491 20.4375H39.6831C29.378 20.4375 21.0617 28.7205 20.8809 38.8941V39.3443C31.4571 37.0034 50.0786 35.2928 75.0278 42.8555Z" fill="#FD7058"/>
<path d="M47.9095 80.9391C37.6045 80.9391 28.5649 75.9873 23.0508 68.5146C27.209 78.9584 36.7909 86.251 47.9095 86.251C59.0282 86.251 68.6101 78.9584 72.7683 68.5146C67.2542 76.0773 58.1242 80.9391 47.9095 80.9391Z" fill="#EBC5A9"/>
<path d="M60.2931 52.8492C61.1918 52.8492 61.9203 51.1159 61.9203 48.9778C61.9203 46.8397 61.1918 45.1064 60.2931 45.1064C59.3945 45.1064 58.666 46.8397 58.666 48.9778C58.666 51.1159 59.3945 52.8492 60.2931 52.8492Z" fill="#25110D"/>
<path d="M67.7969 44.746C67.9777 44.656 59.1189 38.984 53.6048 39.2541C53.5144 39.3441 53.6952 34.3923 61.0172 37.0033C68.1584 39.7943 67.7969 44.8361 67.7969 44.746Z" fill="#1E1C36"/>
<path d="M35.5275 52.8492C36.4261 52.8492 37.1546 51.1159 37.1546 48.9778C37.1546 46.8397 36.4261 45.1064 35.5275 45.1064C34.6289 45.1064 33.9004 46.8397 33.9004 48.9778C33.9004 51.1159 34.6289 52.8492 35.5275 52.8492Z" fill="#25110D"/>
<path d="M27.1199 44.746C26.9391 44.656 35.7979 38.984 41.312 39.2541C41.4024 39.3441 41.2216 34.3923 33.8996 37.0033C26.8487 39.7943 27.2103 44.8361 27.1199 44.746Z" fill="#1E1C36"/>
<path d="M31.7291 61.9426C31.6387 61.9426 31.5483 61.9426 31.4579 61.8526C31.0963 61.6725 30.9155 61.2224 31.0963 60.8623L33.3562 56.2706C33.537 55.9105 33.989 55.7304 34.3506 55.9105C34.7121 56.0905 34.8929 56.5407 34.7121 56.9008L32.4522 61.4925C32.1811 61.8526 32.0003 61.9426 31.7291 61.9426Z" fill="#FD5F44"/>
<path d="M27.2096 61.9426C27.1192 61.9426 27.0288 61.9426 26.9384 61.8526C26.5768 61.6725 26.396 61.2224 26.5768 60.8623L28.8367 56.2706C29.0175 55.9105 29.4694 55.7304 29.831 55.9105C30.1926 56.0905 30.3734 56.5407 30.1926 56.9008L27.9327 61.4925C27.7519 61.8526 27.4807 61.9426 27.2096 61.9426Z" fill="#FD5F44"/>
<path d="M63.7292 61.9425C63.458 61.9425 63.1868 61.7624 63.0964 61.5823L60.8366 56.9907C60.6558 56.6306 60.8365 56.1804 61.1981 56.0003C61.5597 55.8203 62.0117 56.0003 62.1925 56.3605L64.4524 60.9521C64.6332 61.3122 64.4524 61.7624 64.0908 61.9425C63.91 61.9425 63.8196 61.9425 63.7292 61.9425Z" fill="#FD5F44"/>
<path d="M68.1589 61.9425C67.8877 61.9425 67.6165 61.7624 67.5261 61.5823L65.2662 56.9907C65.0854 56.6306 65.2662 56.1804 65.6278 56.0003C65.9894 55.8203 66.4414 56.0003 66.6222 56.3605L68.8821 60.9521C69.0628 61.3122 68.8821 61.7624 68.5205 61.9425C68.4301 61.9425 68.2493 61.9425 68.1589 61.9425Z" fill="#FD5F44"/>
<path d="M41.4923 67.1641C41.1308 66.894 40.8596 66.7139 40.5884 66.5338C40.2268 66.2638 40.2268 65.8136 40.498 65.4535C40.7692 65.0933 41.2212 65.0933 41.5827 65.3634C41.8539 65.5435 48.0008 70.3152 52.3398 65.9937C52.611 65.7236 53.1534 65.7236 53.4245 65.9937C53.6957 66.2638 53.6957 66.8039 53.4245 67.074C49.5375 70.7654 44.385 69.0547 41.4923 67.1641Z" fill="#FD5F44"/>
<path d="M40.8578 60.4117C40.8578 60.4117 47.9991 64.013 55.1403 60.4117C55.1403 60.4117 56.5866 55.46 47.9991 55.46C39.6827 55.55 40.8578 60.4117 40.8578 60.4117Z" fill="#FD5F44"/>
<path d="M79.0961 39.2539C79.0961 39.2539 39.1413 27.2796 16.5425 37.0031C16.5425 37.0031 15.3673 18.8166 20.8814 12.8745C26.2148 7.11242 37.6046 1.53043 48.904 1.89056C62.6441 2.34072 76.1131 9.81339 77.921 13.0545C84.6103 24.7587 79.0961 39.2539 79.0961 39.2539Z" fill="#0AC2B2"/>
<path d="M33.5371 29.8907V33.3119C43.119 32.6817 53.2433 33.8521 61.4693 35.2026L62.0117 30.791L47.006 22.8682L33.5371 29.8907Z" fill="#078C81"/>
<path d="M49.3551 3.78135C52.1509 3.78135 54.4173 2.93487 54.4173 1.89068C54.4173 0.846484 52.1509 0 49.3551 0C46.5594 0 44.293 0.846484 44.293 1.89068C44.293 2.93487 46.5594 3.78135 49.3551 3.78135Z" fill="#078C81"/>
<path d="M61.9218 30.791C61.9218 30.791 46.4642 26.2894 33.4473 29.8907C33.4473 29.8907 35.2552 16.656 46.4642 15.0354C57.7637 13.5049 61.9218 30.791 61.9218 30.791Z" fill="#1E1C36"/>
</svg>
