<svg width="100" height="115" viewBox="0 0 100 115" fill="none" xmlns="http://www.w3.org/2000/svg">
<g clip-path="url(#clip0)">
<path d="M0.6259 55.7148C1.42875 50.5362 2.32082 45.179 5.17541 40.7148C7.67318 36.6969 11.8659 33.1255 11.5982 28.4826C11.509 26.1612 10.2602 24.0183 10.0817 21.6969C9.81413 18.0362 12.4903 14.4648 16.0586 13.304C19.0024 12.3219 21.7677 12.679 24.1763 14.0183V13.929C27.923 2.67905 46.8346 -1.60667 56.8257 0.536189C67.7089 2.76833 76.9863 11.2505 80.3761 21.7862C81.0898 24.1969 81.625 26.6076 82.6063 28.929C86.8882 38.7505 96.5224 37.8576 99.5554 53.7505C102.142 67.2326 94.6491 81.9648 87.0666 86.9648C67.352 100 31.6696 96.6076 19.1808 92.4112C-3.12076 84.9112 -0.266161 61.2505 0.6259 55.7148Z" fill="#E83F53"/>
<path d="M7.22698 61.3393C7.22698 61.3393 5.97809 77.5893 15.1663 90.8036C16.4152 91.4286 17.6641 91.9643 19.0914 92.4107C30.5098 96.3393 61.2859 99.4643 81.5356 90C85.9959 82.6786 88.0477 73.125 86.2635 61.25H7.22698V61.3393Z" fill="#BF2133"/>
<path d="M54.8627 5.26776C71.1874 7.85705 81.0893 24.2856 81.0893 24.2856C80.8216 23.482 80.6432 22.5892 80.3756 21.7856C76.9858 11.2499 67.7083 2.76776 56.8252 0.535618C46.8341 -1.60724 27.9224 2.67848 24.1758 13.8392V13.9285C24.1758 13.9285 38.538 2.58919 54.8627 5.26776Z" fill="#FF7081"/>
<path d="M16.0575 13.3039C13.0245 14.2861 10.616 17.0539 10.1699 20.1789C15.9683 15.2682 22.748 14.1075 23.9969 13.9289C21.5883 12.5897 18.9121 12.3218 16.0575 13.3039Z" fill="#FF7081"/>
<path d="M18.9122 101.874C34.6124 95.5349 39.7864 87.6777 38.4483 76.4277H48.0826H49.2422H55.7543C54.4162 87.6777 59.5901 95.5349 75.2904 101.874C90.9907 108.213 93.0424 115.088 93.0424 115.088H51.1156H48.1718H1.16016C1.16016 114.999 3.2119 108.124 18.9122 101.874Z" fill="#FFDF57"/>
<path d="M55.6647 76.4277H49.1527H47.993H38.448C39.4292 84.642 36.9314 90.9813 29.5273 96.3384C34.1661 101.249 40.7673 104.374 48.0822 104.374C54.9511 104.374 61.2847 101.606 65.8342 97.142C57.3596 91.6063 54.5943 84.9992 55.6647 76.4277Z" fill="#FFA3A3"/>
<path d="M49.1531 76.4277H47.9934H38.4483C39.0728 81.7849 38.2699 86.3384 35.5938 90.3563C39.4296 92.3206 43.3547 93.3027 47.0121 93.1242C51.5616 92.8563 55.5759 92.0527 58.9657 90.892C56.0219 86.7849 55.0407 82.0527 55.7543 76.517H49.1531V76.4277Z" fill="#FF8282"/>
<path d="M21.9005 70.1525C26.2665 67.8679 27.4744 61.5523 24.5984 56.0461C21.7224 50.54 15.8516 47.9284 11.4855 50.213C7.11947 52.4976 5.91155 58.8132 8.78755 64.3194C11.6636 69.8255 17.5344 72.4371 21.9005 70.1525Z" fill="#FF8282"/>
<path d="M22.1235 66.5174C22.1235 66.2496 22.0342 66.071 22.0342 65.8924C22.0342 66.071 22.1235 66.1603 22.1235 66.2496C22.1235 65.0889 21.945 64.196 21.6774 63.4817C19.3581 54.1067 10.7051 53.2139 10.7051 53.2139C15.1654 55.8924 17.8416 58.8389 19.6257 61.2496C16.5035 59.9996 11.5971 62.6781 11.5971 62.6781C17.3063 61.1603 19.9825 62.4103 21.1422 63.8389C21.8558 65.5353 22.1235 66.5174 22.1235 66.5174Z" fill="#FF4F4F"/>
<path d="M84.6531 64.3171C87.5291 58.811 86.3212 52.4954 81.9552 50.2108C77.5891 47.9262 71.7182 50.5378 68.8422 56.0439C65.9662 61.5501 67.1742 67.8657 71.5402 70.1503C75.9063 72.4349 81.7771 69.8233 84.6531 64.3171Z" fill="#FF8282"/>
<path d="M71.3672 66.5174C71.3672 66.2496 71.4564 66.071 71.4564 65.8924C71.4564 66.071 71.3672 66.1603 71.3672 66.2496C71.3672 65.0889 71.5456 64.196 71.8132 63.4817C74.1326 54.1067 82.7856 53.2139 82.7856 53.2139C78.3253 55.8924 75.6491 58.8389 73.865 61.2496C76.9872 59.9996 81.8935 62.6781 81.8935 62.6781C76.1843 61.1603 73.5081 62.4103 72.3485 63.8389C71.5456 65.5353 71.3672 66.5174 71.3672 66.5174Z" fill="#FF4F4F"/>
<path d="M46.9228 88.4816C66.1913 87.4101 74.0415 76.3387 74.0415 61.3387V44.4637C74.0415 33.303 65.0317 24.2852 53.8809 24.2852H39.9648C28.814 24.2852 26.1378 30.5352 24.1753 46.428C23.7293 50.2673 19.715 55.0887 19.8042 61.3387C19.9826 76.3387 35.2368 89.1066 46.9228 88.4816Z" fill="#FDBFA8"/>
<path opacity="0.47" d="M46.3887 72.3207C46.3887 72.3207 52.6331 72.8564 55.5769 69.1064C55.5769 69.1064 55.7553 72.6779 52.6331 73.66C49.3325 74.7314 46.3887 72.3207 46.3887 72.3207Z" fill="#FF8282"/>
<path d="M46.9232 82.0532C37.6458 82.4996 26.3166 76.071 20.6074 66.9639C23.8188 79.3746 36.7537 89.1067 47.0124 88.4817C62.2667 87.5889 70.4736 80.446 73.1498 69.9996C68.6003 76.8746 60.2149 81.4282 46.9232 82.0532Z" fill="#FDD3C3"/>
<path d="M58.6988 57.5887C59.6349 57.5887 60.3937 55.8698 60.3937 53.7494C60.3937 51.6291 59.6349 49.9102 58.6988 49.9102C57.7627 49.9102 57.0039 51.6291 57.0039 53.7494C57.0039 55.8698 57.7627 57.5887 58.6988 57.5887Z" fill="#2E230E"/>
<path d="M35.3258 57.5887C36.2618 57.5887 37.0207 55.8698 37.0207 53.7494C37.0207 51.6291 36.2618 49.9102 35.3258 49.9102C34.3897 49.9102 33.6309 51.6291 33.6309 53.7494C33.6309 55.8698 34.3897 57.5887 35.3258 57.5887Z" fill="#2E230E"/>
<path d="M27.1192 49.2856C27.1192 49.2856 35.683 44.732 40.2325 44.107C40.2325 44.107 38.5376 39.1963 33.2744 41.0713C27.03 43.3034 27.1192 49.2856 27.1192 49.2856Z" fill="#A31727"/>
<path d="M66.8164 49.2856C66.8164 49.2856 58.2526 44.732 53.7031 44.107C53.7031 44.107 55.398 39.1963 60.6612 41.0713C66.8164 43.3034 66.8164 49.2856 66.8164 49.2856Z" fill="#A31727"/>
<path d="M51.1155 61.6966C51.1155 63.4823 49.6882 64.9109 47.9933 64.9109C46.2984 64.9109 44.8711 63.4823 44.8711 61.6966C44.8711 59.9109 46.2984 55.1787 47.9933 55.1787C49.6882 55.1787 51.1155 59.9109 51.1155 61.6966Z" fill="#FF8282"/>
<path d="M33.7211 66.6963C33.6319 66.6963 33.5427 66.6963 33.3643 66.607C33.0075 66.5177 32.8291 66.0713 33.0075 65.7142L35.3268 61.1606C35.5053 60.8035 35.9513 60.6249 36.3081 60.8035C36.6649 60.982 36.8434 61.4285 36.6649 61.7856L34.3456 66.3392C34.2564 66.607 33.9888 66.6963 33.7211 66.6963Z" fill="#FF8282"/>
<path d="M29.0825 66.6967C28.9933 66.6967 28.9041 66.6967 28.7256 66.6074C28.3688 66.4289 28.1904 65.9824 28.3688 65.6253L30.6882 61.0717C30.8666 60.7146 31.3126 60.536 31.6694 60.7146C32.0263 60.8932 32.2047 61.3396 32.0263 61.6967L29.7069 66.2503C29.6177 66.6074 29.3501 66.6967 29.0825 66.6967Z" fill="#FF8282"/>
<path d="M61.8204 66.6963C61.5528 66.6963 61.2852 66.5177 61.196 66.3392L58.8766 61.7856C58.6982 61.4285 58.8766 60.982 59.2335 60.8035C59.5903 60.6249 60.0363 60.8035 60.2147 61.1606L62.5341 65.7142C62.7125 66.0713 62.5341 66.5177 62.1773 66.6963C61.9988 66.6963 61.9096 66.6963 61.8204 66.6963Z" fill="#FF8282"/>
<path d="M65.478 66.3393C65.2104 66.3393 64.9428 66.1607 64.8536 65.9822L62.445 61.3393C62.2666 60.9822 62.445 60.5357 62.8018 60.3572C63.1586 60.1786 63.6047 60.3572 63.7831 60.7143L66.1024 65.2679C66.2809 65.625 66.1024 66.0715 65.7456 66.25C65.6564 66.25 65.5672 66.3393 65.478 66.3393Z" fill="#FF8282"/>
<path d="M46.8337 70.3569C44.2467 70.3569 42.1949 69.7319 42.0165 69.6426C41.5705 69.4641 41.3029 69.0176 41.3921 68.4819C41.5705 68.0355 42.0165 67.7676 42.5518 67.8569C42.641 67.8569 50.5803 70.2676 54.773 64.9105C55.0406 64.5533 55.6651 64.4641 56.0219 64.7319C56.3787 64.9998 56.4679 65.6248 56.2003 65.9819C53.5241 69.5533 49.7775 70.3569 46.8337 70.3569Z" fill="#FF8282"/>
<path d="M67.9759 20.4459L48.4398 15.5352L21.3212 24.2852L20.0723 58.5709C24.3542 53.3923 29.1713 37.053 31.4906 28.2137C38.2703 40.3566 59.769 41.2494 69.9385 40.9816C70.0277 55.803 73.9527 61.2494 73.9527 61.2494L75.38 40.6244L67.9759 20.4459Z" fill="#E83F53"/>
</g>
<defs>
<clipPath id="clip0">
<rect width="100" height="115" fill="white"/>
</clipPath>
</defs>
</svg>
