<svg width="95" height="121" viewBox="0 0 95 121" fill="none" xmlns="http://www.w3.org/2000/svg">
<g clip-path="url(#clip0)">
<path d="M46.866 90.75C67.4531 90.75 84.1422 70.4349 84.1422 45.375C84.1422 20.3151 67.4531 0 46.866 0C26.279 0 9.58984 20.3151 9.58984 45.375C9.58984 70.4349 26.279 90.75 46.866 90.75Z" fill="#E6D66A"/>
<path d="M46.8667 90.8395C72.7504 90.8395 93.7333 71.4059 93.7333 47.4334C93.7333 23.4609 72.7504 4.02734 46.8667 4.02734C20.9829 4.02734 0 23.4609 0 47.4334C0 71.4059 20.9829 90.8395 46.8667 90.8395Z" fill="#FAEE9B"/>
<path d="M46.8673 8.85984C63.334 8.85984 77.9911 15.3931 87.4006 25.5958C79.3483 12.7082 64.2387 3.9375 46.8673 3.9375C29.5864 3.9375 14.4768 12.7082 6.33398 25.5958C15.7435 15.3931 30.4006 8.85984 46.8673 8.85984Z" fill="#FAF3C6"/>
<path d="M93.3705 53.1611C90.7467 48.3282 86.5848 44.3904 79.98 42.2424L21.1705 40.542C21.1705 40.542 8.14193 46.5383 1.80859 59.2469C7.32764 77.5043 25.4229 90.8393 46.9562 90.8393C70.661 90.8393 90.2943 74.3719 93.3705 53.1611Z" fill="#E6D66A"/>
<path d="M79.7099 77.5047C78.7146 74.8198 78.5337 71.8664 79.0766 69.0025C79.0766 68.8235 79.167 68.555 79.167 68.376C82.967 63.0957 85.1385 56.7414 85.1385 49.9396C85.1385 31.3242 68.8527 16.1992 48.6766 16.1992C28.5908 16.1992 12.2146 31.3242 12.2146 49.9396C12.2146 53.43 12.7575 56.7414 13.8432 59.8738C11.6718 62.9167 8.41465 66.7651 4.25274 69.271C-3.79964 74.0143 -0.542495 87.8864 15.7432 92.0927C15.7432 92.0927 16.0146 95.1356 13.1194 97.6415C13.1194 97.6415 23.9766 103.011 35.648 102.564C43.3385 102.206 51.1194 102.564 58.7194 103.459C82.4242 106.323 92.1956 90.9293 92.1956 90.9293C85.6813 89.5868 81.8813 83.2325 79.7099 77.5047Z" fill="#230E0A"/>
<path d="M76.9058 107.755C60.982 101.4 55.7344 93.5247 57.0915 82.248H47.4105H46.2344H39.6296C40.9867 93.5247 35.7391 101.4 19.8153 107.755C3.8915 114.109 1.81055 121 1.81055 121H44.3344H47.3201H95.001C95.001 121 92.8296 114.109 76.9058 107.755Z" fill="white"/>
<path d="M31.3965 101.669C35.1965 111.245 41.4393 117.51 48.406 117.51C55.3727 117.51 61.706 111.245 65.4155 101.669C58.4489 96.4781 56.187 90.2133 57.0917 82.248H47.4108H46.2346H39.6298C40.6251 90.2133 38.3632 96.4781 31.3965 101.669Z" fill="#FF8282"/>
<path opacity="0.45" d="M31.3965 101.669C35.1965 111.245 41.4393 117.51 48.406 117.51C55.3727 117.51 61.706 111.245 65.4155 101.669C58.4489 96.4781 56.187 90.2133 57.0917 82.248H47.4108H46.2346H39.6298C40.6251 90.2133 38.3632 96.4781 31.3965 101.669Z" fill="url(#paint0_linear)"/>
<path opacity="0.57" d="M58.901 98.089C59.3534 97.6415 59.8962 97.1941 60.4391 96.6571C57.4534 92.5402 56.4581 87.7969 57.1819 82.248H47.4105H46.2343H39.6296C40.2629 87.7969 39.3581 92.4507 36.4629 96.5676C37.82 97.6415 39.0867 98.5365 40.1724 99.2525C42.4343 100.774 45.1486 101.579 47.9534 101.579H49.6724C53.1105 101.669 56.3677 100.416 58.901 98.089Z" fill="#FF6161"/>
<path d="M23.0577 75.9657C27.4859 73.6757 28.6922 67.3096 25.7521 61.7467C22.812 56.1837 16.8388 53.5304 12.4106 55.8204C7.98236 58.1104 6.77601 64.4765 9.71611 70.0395C12.6562 75.6024 18.6294 78.2557 23.0577 75.9657Z" fill="#FF8282"/>
<path d="M23.2535 72.3136C23.2535 72.0451 23.163 71.8661 23.163 71.6871C23.163 71.8661 23.2535 71.9556 23.2535 72.0451C23.2535 70.8816 23.0725 69.9867 22.8011 69.2707C20.4487 59.8735 11.582 58.9785 11.582 58.9785C16.1058 61.6634 18.9106 64.6168 20.6296 67.0333C17.463 65.7803 12.4868 68.4652 12.4868 68.4652C18.3677 66.9438 20.9916 68.1967 22.2582 69.7182C22.982 71.2396 23.2535 72.3136 23.2535 72.3136Z" fill="#FF4F4F"/>
<path d="M86.8263 70.0385C89.7664 64.4755 88.5601 58.1094 84.1319 55.8194C79.7037 53.5294 73.7304 56.1827 70.7903 61.7457C67.8502 67.3087 69.0566 73.6748 73.4848 75.9648C77.913 78.2547 83.8862 75.6015 86.8263 70.0385Z" fill="#FF8282"/>
<path d="M73.377 72.3146C73.377 72.0461 73.4674 71.8671 73.4674 71.6881C73.4674 71.8671 73.377 71.9566 73.377 72.0461C73.377 70.8826 73.5579 69.9876 73.8293 69.2717C76.1817 59.8745 85.0484 58.9795 85.0484 58.9795C80.5246 61.6644 77.7198 64.6178 76.0008 67.0342C79.1674 65.7813 84.1436 68.4662 84.1436 68.4662C78.2627 66.9447 75.6389 68.1977 74.3722 69.7191C73.5579 71.2406 73.377 72.3146 73.377 72.3146Z" fill="#FF4F4F"/>
<path d="M18.8199 76.6104C19.8693 76.6104 20.7199 75.769 20.7199 74.731C20.7199 73.693 19.8693 72.8516 18.8199 72.8516C17.7706 72.8516 16.9199 73.693 16.9199 74.731C16.9199 75.769 17.7706 76.6104 18.8199 76.6104Z" fill="white"/>
<path d="M77.359 76.6104C78.4083 76.6104 79.259 75.769 79.259 74.731C79.259 73.693 78.4083 72.8516 77.359 72.8516C76.3096 72.8516 75.459 73.693 75.459 74.731C75.459 75.769 76.3096 76.6104 77.359 76.6104Z" fill="white"/>
<path d="M73.3771 51.1035C73.92 52.446 74.5533 53.7884 75.2771 55.0414C75.9105 56.2943 76.7248 57.5473 77.539 58.6213C79.2581 60.8587 81.339 62.6486 83.6914 63.8121C84.3248 64.0806 84.9581 64.3491 85.5914 64.6176C86.3152 64.8861 87.039 65.1545 87.7628 65.5125L88.8486 66.0495C89.2105 66.2285 89.4819 66.497 89.8438 66.676C90.2057 66.855 90.4771 67.1235 90.839 67.392C91.1105 67.6605 91.4724 67.929 91.7438 68.1974C94.0057 70.4349 95.3628 73.5673 95.0914 76.6102C94.2771 73.7463 92.5581 71.4193 90.3867 69.8084C89.3009 69.0029 88.1248 68.2869 86.8581 67.8395C86.2248 67.571 85.5914 67.392 84.9581 67.1235C84.2343 66.855 83.42 66.5865 82.6962 66.2285C79.8009 64.7966 77.3581 62.4696 75.9105 59.6952C75.5486 59.0687 75.1867 58.3528 74.9152 57.6368C74.6438 56.9208 74.3724 56.2048 74.1914 55.4889C73.6486 54.1464 73.2867 52.625 73.3771 51.1035Z" fill="#230E0A"/>
<path d="M74.3729 69.7188C74.3729 69.7188 81.9729 54.0569 79.349 40.9008V40.4533C79.349 29.5347 70.3014 20.585 59.2633 20.585H38.9062C27.1443 20.585 17.4633 29.9822 17.3729 41.6168L17.2824 46.0021C15.2919 60.2321 21.1729 66.2285 21.1729 66.2285L32.211 52.0879L68.2205 50.298L74.3729 69.7188Z" fill="#230E0A"/>
<path d="M40.0814 30.1608C29.7671 30.1608 21.4433 38.3945 21.2624 48.5077L21.1719 66.2281C21.1719 78.4892 34.4719 89.0498 40.8957 93.3457C42.9766 94.7777 45.4195 95.4936 47.9528 95.4936H49.5814C52.7481 95.4936 55.7338 94.3302 57.9957 92.2717C64.0576 86.7229 75.4576 75.2673 75.4576 66.1386L75.3671 47.3442C75.3671 37.768 67.4957 30.0713 57.8147 30.0713H40.0814V30.1608Z" fill="#FDBFA8"/>
<path opacity="0.4" d="M41.9805 78.1309C41.9805 78.1309 47.59 81.9792 52.2043 79.2048C52.2043 79.2048 50.7567 82.6057 45.9614 81.8002C44.5138 81.5317 42.7948 79.9208 41.9805 78.1309Z" fill="#FF8282"/>
<path opacity="0.45" d="M40.0814 30.1608C29.7671 30.1608 21.4433 38.3945 21.2624 48.5077L21.1719 66.2281C21.1719 78.4892 34.4719 89.0498 40.8957 93.3457C42.9766 94.7777 45.4195 95.4936 47.9528 95.4936H49.5814C52.7481 95.4936 55.7338 94.3302 57.9957 92.2717C64.0576 86.7229 75.4576 75.2673 75.4576 66.1386L75.3671 47.3442C75.3671 37.768 67.4957 30.0713 57.8147 30.0713H40.0814V30.1608Z" fill="url(#paint1_linear)"/>
<path opacity="0.5" d="M21.3522 48.5972L21.2617 58.5314C21.2617 58.5314 28.2284 51.5506 28.7712 44.3909C28.7712 44.3909 40.5331 46.2703 44.9665 45.3753L37.9093 30.3398C28.5903 31.4138 21.4427 39.1106 21.3522 48.5972Z" fill="#FF8282"/>
<path opacity="0.5" d="M58.9005 37.6789L60.6196 43.4962L75.3672 46.8971C75.0053 37.5894 67.3148 30.1611 57.9053 30.1611H46.8672L55.1005 45.1071L58.9005 37.6789Z" fill="#FF8282"/>
<path d="M59.3534 88.0658C56.7296 90.1242 53.2915 91.2877 49.763 91.2877H47.9534C45.0582 91.2877 42.2534 90.5717 39.9011 89.1397C35.7392 86.6338 29.1344 82.2485 24.1582 76.6997C28.4106 84.3069 36.3725 90.4822 40.8963 93.5251C42.9772 94.9571 45.4201 95.673 47.9534 95.673H49.582C52.7487 95.673 55.7344 94.5096 57.9963 92.4511C62.0677 88.7818 68.4915 82.4275 72.382 75.8047C68.1296 80.6375 62.882 85.2019 59.3534 88.0658Z" fill="#FDD4C5"/>
<path d="M60.7106 62.3803C61.61 62.3803 62.3392 60.6574 62.3392 58.532C62.3392 56.4066 61.61 54.6836 60.7106 54.6836C59.8112 54.6836 59.082 56.4066 59.082 58.532C59.082 60.6574 59.8112 62.3803 60.7106 62.3803Z" fill="#25110D"/>
<path d="M68.2197 54.3253C68.4006 54.2358 59.534 48.5975 54.0149 48.866C53.9244 48.9555 54.3768 42.6012 61.7054 45.1966C68.7625 48.0605 68.2197 54.4148 68.2197 54.3253Z" fill="#230E0A"/>
<path d="M35.9196 62.3794C36.819 62.3794 37.5482 60.6564 37.5482 58.531C37.5482 56.4056 36.819 54.6826 35.9196 54.6826C35.0202 54.6826 34.291 56.4056 34.291 58.531C34.291 60.6564 35.0202 62.3794 35.9196 62.3794Z" fill="#25110D"/>
<path d="M27.5047 54.3251C27.3237 54.2356 36.1904 48.5973 41.7094 48.8658C41.7999 48.9553 41.619 43.2274 34.2904 45.8229C27.2333 48.6868 27.5952 54.4146 27.5047 54.3251Z" fill="#230E0A"/>
<path d="M32.1184 71.5089C32.0279 71.5089 31.9374 71.5089 31.847 71.4194C31.4851 71.2404 31.3041 70.7929 31.4851 70.4349L33.747 65.8706C33.9279 65.5126 34.3803 65.3336 34.7422 65.5126C35.1041 65.6916 35.2851 66.1391 35.1041 66.4971L32.8422 71.0614C32.5708 71.3299 32.2993 71.5089 32.1184 71.5089Z" fill="#FF8282"/>
<path d="M27.5949 71.5089C27.5045 71.5089 27.414 71.5089 27.3235 71.4194C26.9616 71.2404 26.7807 70.7929 26.9616 70.4349L29.2235 65.8706C29.4045 65.5126 29.8569 65.3336 30.2188 65.5126C30.5807 65.6916 30.7616 66.1391 30.5807 66.4971L28.3188 71.0614C28.1378 71.3299 27.8664 71.5089 27.5949 71.5089Z" fill="#FF8282"/>
<path d="M64.0561 71.5083C63.7846 71.5083 63.5132 71.3293 63.4227 71.1503L61.1608 66.5859C60.9799 66.2279 61.1608 65.7805 61.5227 65.6015C61.8846 65.4225 62.337 65.6015 62.518 65.9595L64.7799 70.5238C64.9608 70.8818 64.7799 71.3293 64.418 71.5083C64.3275 71.5083 64.237 71.5083 64.0561 71.5083Z" fill="#FF8282"/>
<path d="M68.5795 71.5083C68.3081 71.5083 68.0367 71.3293 67.9462 71.1503L65.6843 66.5859C65.5033 66.2279 65.6843 65.7805 66.0462 65.6015C66.4081 65.4225 66.8605 65.6015 67.0414 65.9595L69.3033 70.5238C69.4843 70.8818 69.3033 71.3293 68.9414 71.5083C68.8509 71.5083 68.67 71.5083 68.5795 71.5083Z" fill="#FF8282"/>
<path d="M41.8899 76.6102C41.528 76.3417 41.2566 76.1627 40.9851 75.9838C40.6232 75.7153 40.6232 75.2678 40.8947 74.9098C41.1661 74.5518 41.6185 74.5518 41.9804 74.8203C42.2518 74.9993 48.4042 79.7426 52.747 75.4468C53.0185 75.1783 53.5613 75.1783 53.8327 75.4468C54.1042 75.7153 54.1042 76.2522 53.8327 76.5207C49.9423 80.2796 44.7851 78.4897 41.8899 76.6102Z" fill="#FF8282"/>
<path d="M51.3002 65.3337C50.9383 62.8278 49.7621 59.9639 48.405 59.9639C46.9573 59.9639 45.7811 62.8278 45.5097 65.3337C40.4431 66.3182 41.3478 69.9875 41.3478 69.9875C41.3478 69.9875 48.4954 73.5674 55.643 69.9875C55.5526 69.9875 56.6383 66.2287 51.3002 65.3337Z" fill="#FF8282"/>
<path d="M56.367 73.1197C56.8167 73.1197 57.1813 72.7591 57.1813 72.3143C57.1813 71.8694 56.8167 71.5088 56.367 71.5088C55.9173 71.5088 55.5527 71.8694 55.5527 72.3143C55.5527 72.7591 55.9173 73.1197 56.367 73.1197Z" fill="#230E0A"/>
<path opacity="0.29" d="M39.9002 73.6569C40.3499 73.6569 40.7145 73.2962 40.7145 72.8514C40.7145 72.4065 40.3499 72.0459 39.9002 72.0459C39.4505 72.0459 39.0859 72.4065 39.0859 72.8514C39.0859 73.2962 39.4505 73.6569 39.9002 73.6569Z" fill="#230E0A"/>
<path d="M27.8665 39.379C30.9427 41.527 35.376 43.2274 41.7998 43.2274L37.8189 30.3398C32.5712 30.9663 28.0474 33.7407 25.0617 37.6786C24.8808 37.9471 24.6998 38.2156 24.5189 38.4841C24.4284 38.6631 24.2474 38.8421 24.157 39.0211C23.8855 39.4685 23.6141 39.916 23.3427 40.453C23.2522 40.7215 23.0712 40.99 22.9808 41.2585C22.8903 41.527 22.7998 41.706 22.7093 41.9745C22.6189 42.243 22.4379 42.5114 22.3474 42.8694C22.257 43.1379 22.1665 43.3169 22.1665 43.5854C22.076 43.9434 21.9855 44.2119 21.8951 44.5699C21.8046 44.8384 21.8046 45.0174 21.7141 45.2858C21.6236 45.6438 21.6236 46.0018 21.5331 46.3598C21.5331 46.5388 21.4427 46.7178 21.4427 46.8968C21.3522 47.4338 21.3522 48.0603 21.3522 48.6867L21.2617 58.6209C22.6189 56.5625 23.6141 54.3251 24.3379 51.9981L27.8665 39.379Z" fill="#230E0A"/>
<path d="M55.6434 40.5428C55.6434 40.5428 57.5434 35.531 57.1815 30.1611H46.8672C49.7624 32.846 53.0196 36.3364 55.6434 40.5428Z" fill="#230E0A"/>
<path d="M58.9004 30.251C60.1671 33.2939 61.1623 36.8738 61.0718 40.6326L72.8337 43.4965L73.1052 50.2983C73.1956 53.2517 73.829 56.2051 75.0052 59.069L75.3671 60.0535V47.6134C75.3671 46.3604 75.1861 45.197 75.0052 44.123C73.4671 36.4263 66.8623 30.6985 58.9004 30.251Z" fill="#230E0A"/>
<path opacity="0.77" d="M33.0238 71.2393C39.07 71.2393 43.9714 66.391 43.9714 60.4102C43.9714 54.4294 39.07 49.5811 33.0238 49.5811C26.9776 49.5811 22.0762 54.4294 22.0762 60.4102C22.0762 66.391 26.9776 71.2393 33.0238 71.2393Z" fill="#A7B9EB"/>
<path opacity="0.4" d="M43.0662 56.2041L26.3281 69.0022C28.1376 70.4341 30.49 71.2396 33.0234 71.2396C39.0853 71.2396 43.971 66.4068 43.971 60.4105C43.971 58.889 43.6091 57.5466 43.0662 56.2041Z" fill="white"/>
<path opacity="0.4" d="M33.7476 49.5811L22.7095 56.7408C22.2571 57.9043 22.0762 59.0677 22.0762 60.4102C22.0762 60.8577 22.0762 61.3052 22.1666 61.6632L37.4571 50.476C36.2809 50.0285 35.0143 49.6706 33.7476 49.5811Z" fill="white"/>
<path d="M33.0243 49.5811C39.0862 49.5811 43.9719 54.414 43.9719 60.4103C43.9719 66.4066 39.0862 71.2394 33.0243 71.2394C26.9624 71.2394 22.0766 66.4066 22.0766 60.4103C22.0766 54.414 26.9624 49.5811 33.0243 49.5811ZM33.0243 48.5967C26.4195 48.5967 21.1719 53.877 21.1719 60.3208C21.1719 66.8541 26.51 72.0449 33.0243 72.0449C39.5385 72.0449 44.8766 66.7646 44.8766 60.3208C44.8766 53.877 39.5385 48.5967 33.0243 48.5967Z" fill="#FAEE9B"/>
<path opacity="0.77" d="M63.8754 71.2393C69.9216 71.2393 74.823 66.391 74.823 60.4102C74.823 54.4294 69.9216 49.5811 63.8754 49.5811C57.8292 49.5811 52.9277 54.4294 52.9277 60.4102C52.9277 66.391 57.8292 71.2393 63.8754 71.2393Z" fill="#A7B9EB"/>
<path opacity="0.4" d="M70.0282 51.4609L55.0996 66.8544C56.3663 68.5549 58.1758 69.8973 60.2567 70.6133L74.1901 56.7413C73.3758 54.5933 71.9282 52.7139 70.0282 51.4609Z" fill="white"/>
<path d="M63.8758 49.5811C69.9377 49.5811 74.8234 54.414 74.8234 60.4103C74.8234 66.4066 69.9377 71.2394 63.8758 71.2394C57.8139 71.2394 52.9282 66.4066 52.9282 60.4103C52.9282 54.414 57.8139 49.5811 63.8758 49.5811ZM63.8758 48.5967C57.2711 48.5967 52.0234 53.877 52.0234 60.3208C52.0234 66.8541 57.3615 72.0449 63.8758 72.0449C70.4806 72.0449 75.7282 66.7646 75.7282 60.3208C75.7282 53.877 70.3901 48.5967 63.8758 48.5967Z" fill="#FAEE9B"/>
<path d="M44.244 58.3514L43.4297 57.4564C43.4297 57.4564 47.5916 53.7871 52.9297 56.7405L52.4773 57.8144C47.7725 55.219 44.3345 58.3514 44.244 58.3514Z" fill="#FAEE9B"/>
</g>
<defs>
<linearGradient id="paint0_linear" x1="47.8799" y1="87.6887" x2="48.6668" y2="108.373" gradientUnits="userSpaceOnUse">
<stop stop-color="#690F1B"/>
<stop offset="0.2086" stop-color="#690F1B" stop-opacity="0.7914"/>
<stop offset="0.8855" stop-color="#690F1B" stop-opacity="0"/>
</linearGradient>
<linearGradient id="paint1_linear" x1="48.997" y1="29.5054" x2="48.21" y2="66.8957" gradientUnits="userSpaceOnUse">
<stop stop-color="#FF2441"/>
<stop offset="0.2086" stop-color="#FF2441" stop-opacity="0.7914"/>
<stop offset="0.8855" stop-color="#FF2441" stop-opacity="0"/>
</linearGradient>
<clipPath id="clip0">
<rect width="95" height="121" fill="white"/>
</clipPath>
</defs>
</svg>
