<svg width="101" height="121" viewBox="0 0 101 121" fill="none" xmlns="http://www.w3.org/2000/svg">
<g clip-path="url(#clip0)">
<path d="M100.412 121L99.0377 112.034C98.3506 107.698 96.1913 103.658 92.9522 100.604L87.4556 95.5786C85.6888 93.9035 84.4128 91.8343 83.8239 89.4695C83.3331 87.4988 82.9405 85.4295 83.6276 83.4589C84.4128 81.2911 86.4741 79.9116 87.7501 78.0395C90.2039 74.7878 90.4002 70.4523 90.5965 66.4124C90.5965 65.5256 90.6947 64.6388 90.4002 63.752C90.1057 62.4711 89.2224 61.4857 88.339 60.5004C87.2593 59.4165 86.1796 58.5297 85.0018 57.6429C85.8851 56.2634 86.2778 54.9825 86.2778 54.9825C94.8171 45.4247 94.4245 32.024 86.2778 17.4409C81.1738 8.3758 72.5363 6.89779 67.6286 8.47433C64.2914 0.887199 56.0465 -1.57616 36.7102 0.985732C36.7102 0.985732 16.6869 3.64616 13.1534 24.4369C11.5829 33.6991 10.1106 45.9173 15.6072 60.0077C14.4294 60.6975 13.3497 61.3872 12.5644 62.4711C10.6014 63.9491 9.71799 66.8066 10.1106 69.3685C10.6014 72.6201 12.5644 75.4776 14.233 78.2365C15.9017 81.094 17.4721 84.2471 16.9813 87.4988C16.3924 91.046 13.6441 93.7064 11.6811 96.6624C9.03091 100.702 7.85307 105.629 8.24568 110.359C8.34384 111.048 8.44199 111.935 9.03091 112.329C9.42353 112.625 10.0124 112.724 10.5032 112.822C31.6062 116.074 100.412 121 100.412 121Z" fill="#381706"/>
<path d="M35.9254 6.20805C56.145 3.64616 64.7825 6.10951 68.3161 13.6966C73.42 12.1201 82.4502 13.5981 87.7505 22.6633C89.3209 25.4222 90.6951 28.0826 91.6766 30.7431C90.6951 26.5061 88.8301 22.0721 86.2782 17.4409C81.1742 8.3758 72.5367 6.89778 67.629 8.47433C64.2918 0.887199 56.0469 -1.57616 36.7106 0.985732C36.7106 0.985732 18.0614 3.44909 13.6445 22.3677C20.1227 8.17873 35.9254 6.20805 35.9254 6.20805Z" fill="#6A2B0C"/>
<path d="M81.4674 106.417C64.1924 99.5198 58.4995 90.8488 59.9718 78.335H49.4694H48.1934H41.0282C42.5005 90.7503 36.8076 99.4213 19.5326 106.417C2.35568 113.413 0 121 0 121H46.1322H49.3712H100.902C101 121 98.6443 113.413 81.4674 106.417Z" fill="#222961"/>
<path d="M50.4515 116.96C60.4631 116.96 69.3951 111.048 74.7935 103.461C62.6225 97.0566 58.5982 89.0753 59.8742 78.4336H49.4699H48.1939H41.0287C42.3047 89.0753 38.2804 96.958 26.1094 103.461C31.606 111.048 40.4398 116.96 50.4515 116.96Z" fill="#DA9039"/>
<path d="M50.4517 113.807C59.6782 113.807 67.7268 109.176 72.5363 102.082C62.132 95.874 58.6966 88.2869 59.8745 78.335H49.4702H48.1942H41.029C42.2068 88.3854 38.7715 95.874 28.3672 102.082C33.1767 109.176 41.3235 113.807 50.4517 113.807Z" fill="#D1F9F6"/>
<path d="M31.6055 100.012C35.5316 106.319 42.5005 110.556 50.5491 110.556C58.5977 110.556 65.5666 106.319 69.4927 100.012C61.6405 94.199 58.9903 87.203 60.07 78.335H49.4694H48.1934H41.0282C42.1079 87.3016 39.4578 94.199 31.6055 100.012Z" fill="#FD9877"/>
<path d="M59.9719 78.335H49.4695H48.1935H41.0283C41.8135 85.2324 40.4394 90.9473 36.2188 95.8741C40.4394 97.8447 45.1507 98.9286 49.7639 98.9286C54.7698 98.9286 59.8738 97.6477 64.3888 95.3814C60.4627 90.5532 59.1867 85.0353 59.9719 78.335Z" fill="#FD8259"/>
<path opacity="0.45" d="M31.6055 100.012C35.5316 106.319 42.5005 110.556 50.5491 110.556C58.5977 110.556 65.5666 106.319 69.4927 100.012C61.6405 94.199 58.9903 87.203 60.07 78.335H49.4694H48.1934H41.0282C42.1079 87.3016 39.4578 94.199 31.6055 100.012Z" fill="url(#paint0_linear)"/>
<path d="M38.0833 80.3057C38.0833 80.3057 38.3778 93.4107 31.4089 100.702C24.44 107.994 16.784 108.092 18.6489 117.552C18.6489 117.552 7.45939 113.315 18.6489 92.5239L38.0833 80.3057Z" fill="#381706"/>
<path opacity="0.45" d="M38.0833 80.3057C38.0833 80.3057 38.3778 93.4107 31.4089 100.702C24.44 107.994 16.784 108.092 18.6489 117.552C18.6489 117.552 7.45939 113.315 18.6489 92.5239L38.0833 80.3057Z" fill="url(#paint1_linear)"/>
<path d="M61.4432 78.335C61.4432 78.335 61.1487 91.44 68.1176 98.7315C75.0865 106.023 82.7425 106.122 80.8776 115.581C80.8776 115.581 92.0671 111.344 80.8776 90.5532L61.4432 78.335Z" fill="#381706"/>
<path opacity="0.45" d="M61.4432 78.335C61.4432 78.335 61.1487 91.44 68.1176 98.7315C75.0865 106.023 82.7425 106.122 80.8776 115.581C80.8776 115.581 92.0671 111.344 80.8776 90.5532L61.4432 78.335Z" fill="url(#paint2_linear)"/>
<path d="M22.3602 71.4172C27.1642 68.896 28.4729 61.887 25.2833 55.7623C22.0937 49.6376 15.6137 46.7164 10.8097 49.2376C6.00572 51.7589 4.697 58.7678 7.88659 64.8925C11.0762 71.0172 17.5563 73.9384 22.3602 71.4172Z" fill="#FD9877"/>
<path d="M22.5759 67.3984C22.5759 67.1028 22.4777 66.9057 22.4777 66.7086C22.4777 66.9057 22.5759 67.0043 22.5759 67.1028C22.5759 65.8218 22.3796 64.8365 22.0851 64.0482C19.5331 53.7021 9.91406 52.7168 9.91406 52.7168C14.8217 55.6728 17.8645 58.9245 19.7294 61.5849C16.294 60.2054 10.8956 63.1614 10.8956 63.1614C17.2756 61.4863 20.122 62.8658 21.4962 64.5409C22.2814 66.3145 22.5759 67.3984 22.5759 67.3984Z" fill="#FD6933"/>
<path d="M91.5353 64.8929C94.7249 58.7682 93.4162 51.7593 88.6122 49.2381C83.8082 46.7169 77.3281 49.6381 74.1385 55.7628C70.949 61.8875 72.2577 68.8964 77.0616 71.4176C81.8656 73.9389 88.3457 71.0177 91.5353 64.8929Z" fill="#FD9877"/>
<path d="M76.9512 67.3974C76.9512 67.1018 77.0493 66.9047 77.0493 66.7077C77.0493 66.9047 76.9512 67.0033 76.9512 67.1018C76.9512 65.8209 77.1475 64.8355 77.4419 64.0473C79.9939 53.7012 89.613 52.7158 89.613 52.7158C84.7053 55.6718 81.6625 58.9235 79.7976 61.5839C83.233 60.2044 88.6314 63.1604 88.6314 63.1604C82.2515 61.4854 79.405 62.8648 78.0309 64.5399C77.1475 66.3135 76.9512 67.3974 76.9512 67.3974Z" fill="#FD6933"/>
<path d="M40.8329 20.9883C29.6434 20.9883 20.6133 30.0534 20.417 41.1878L20.2207 60.6976C20.2207 67.8906 20.9078 74.5909 24.7358 79.9117C30.4287 87.7945 39.9496 92.9183 49.6668 92.9183C58.795 92.9183 67.9233 88.3857 73.6162 81.2912C78.1313 75.6748 79.1128 68.4818 79.1128 60.6976L79.0147 40.0054C79.0147 29.4622 70.4753 20.9883 59.9729 20.9883H40.8329Z" fill="#EBBB81"/>
<path opacity="0.45" d="M40.8329 20.9883C29.6434 20.9883 20.6133 30.0534 20.417 41.1878L20.2207 60.6976C20.2207 67.8906 20.9078 74.5909 24.7358 79.9117C30.4287 87.7945 39.9496 92.9183 49.6668 92.9183C58.795 92.9183 67.9233 88.3857 73.6162 81.2912C78.1313 75.6748 79.1128 68.4818 79.1128 60.6976L79.0147 40.0054C79.0147 29.4622 70.4753 20.9883 59.9729 20.9883H40.8329Z" fill="url(#paint3_linear)"/>
<path d="M73.7139 77.448C68.021 84.5424 58.8927 89.075 49.7644 89.075C40.0472 89.075 30.5263 83.9512 24.8334 76.0685C21.2999 71.1418 20.4165 65.2297 20.3184 58.7265V60.6971C20.3184 67.8901 21.0054 74.5905 24.8334 79.9113C30.5263 87.794 40.0472 92.9178 49.7644 92.9178C58.8927 92.9178 68.021 88.3853 73.7139 81.2908C78.229 75.6743 79.2105 68.4813 79.2105 60.6971V57.6426C79.1123 65.2297 77.9345 72.1271 73.7139 77.448Z" fill="#EBC9A0"/>
<path d="M65.7634 37.739C64.3893 37.6404 61.1502 37.5419 59.1871 37.6404C58.5001 37.6404 57.9112 38.2316 57.9112 38.9214L57.7148 41.3847C57.7148 41.9759 58.2056 42.4686 58.7945 42.4686C65.9597 42.4686 77.3456 45.129 77.1492 45.3261C77.1492 45.4246 75.7751 38.9214 65.7634 37.739Z" fill="#381605"/>
<path d="M34.1583 37.739C35.5325 37.6404 38.7716 37.5419 40.7346 37.6404C41.4217 37.6404 42.0106 38.2316 42.0106 38.9214L42.1088 41.3847C42.1088 41.9759 41.618 42.4686 41.0291 42.4686C33.8639 42.4686 22.4781 45.129 22.6744 45.3261C22.7725 45.4246 24.1467 38.9214 34.1583 37.739Z" fill="#381605"/>
<path d="M63.2121 56.4603C64.1878 56.4603 64.9788 54.5633 64.9788 52.2233C64.9788 49.8833 64.1878 47.9863 63.2121 47.9863C62.2363 47.9863 61.4453 49.8833 61.4453 52.2233C61.4453 54.5633 62.2363 56.4603 63.2121 56.4603Z" fill="#25120B"/>
<path d="M36.3175 56.4603C37.2933 56.4603 38.0843 54.5633 38.0843 52.2233C38.0843 49.8833 37.2933 47.9863 36.3175 47.9863C35.3418 47.9863 34.5508 49.8833 34.5508 52.2233C34.5508 54.5633 35.3418 56.4603 36.3175 56.4603Z" fill="#25120B"/>
<path d="M52.9048 60.8944C52.8067 58.1354 51.4325 54.8838 49.7639 54.8838C48.0953 54.8838 46.7211 58.234 46.623 60.9929C42.6968 62.0768 43.4821 65.0328 43.4821 65.0328C43.4821 65.0328 49.8621 68.2844 56.3402 65.0328C56.242 65.1313 57.2236 61.8797 52.9048 60.8944Z" fill="#FD6933"/>
<path d="M40.3418 70.9445C42.1086 71.2401 43.7772 71.3386 45.4458 71.4372C47.1144 71.5357 48.783 71.4372 50.3535 71.2401C51.1387 71.1416 51.9239 70.9445 52.7091 70.846C53.4944 70.6489 54.2796 70.4518 55.0648 70.1562C56.6353 69.6636 58.1076 68.9738 59.7762 68.1855C58.6965 69.565 57.3224 70.7474 55.6538 71.5357C54.8685 72.0284 53.9851 72.2254 53.1999 72.6196C52.3165 72.8166 51.4331 73.1122 50.5498 73.1122C48.783 73.3093 46.9181 73.2108 45.2495 72.8167C43.4827 72.6196 41.8141 71.9298 40.3418 70.9445Z" fill="#FD6933"/>
<path d="M47.0156 74.4922C47.0156 74.4922 55.3587 75.9702 58.4996 71.5361C58.4996 71.5361 58.107 76.4628 53.8864 77.1526C49.6658 77.9409 47.0156 74.4922 47.0156 74.4922Z" fill="#FD9877"/>
<path d="M32.0961 66.5111C31.998 66.5111 31.8998 66.5111 31.8017 66.4126C31.409 66.2155 31.2127 65.7229 31.409 65.3287L33.8629 60.3035C34.0592 59.9093 34.55 59.7123 34.9426 59.9093C35.3352 60.1064 35.5315 60.5991 35.3352 60.9932L32.8813 66.0185C32.685 66.3141 32.3906 66.5111 32.0961 66.5111Z" fill="#FD7949"/>
<path d="M27.2875 66.5111C27.1894 66.5111 27.0912 66.5111 26.9931 66.4126C26.6004 66.2155 26.4041 65.7229 26.6004 65.3287L29.0543 60.3035C29.2506 59.9093 29.7414 59.7123 30.134 59.9093C30.5266 60.1064 30.7229 60.5991 30.5266 60.9932L27.9746 66.0185C27.7783 66.3141 27.582 66.5111 27.2875 66.5111Z" fill="#FD7949"/>
<path d="M66.8429 66.5112C66.5485 66.5112 66.254 66.3142 66.1559 66.1171L63.702 61.0919C63.5057 60.6977 63.702 60.205 64.0946 60.008C64.4872 59.8109 64.978 60.008 65.1743 60.4021L67.6282 65.4274C67.8245 65.8215 67.6282 66.3142 67.2355 66.5112C67.1374 66.5112 67.0392 66.5112 66.8429 66.5112Z" fill="#FD7949"/>
<path d="M71.7511 66.5112C71.4567 66.5112 71.1622 66.3142 71.0641 66.1171L68.6102 61.0919C68.4139 60.6977 68.6102 60.205 69.0028 60.008C69.3954 59.8109 69.8862 60.008 70.0825 60.4021L72.5364 65.4274C72.7327 65.8215 72.5364 66.3142 72.1437 66.5112C72.0456 66.5112 71.8493 66.5112 71.7511 66.5112Z" fill="#FD7949"/>
<path opacity="0.77" d="M33.3727 67.2994C39.9319 67.2994 45.2493 61.9614 45.2493 55.3767C45.2493 48.7921 39.9319 43.4541 33.3727 43.4541C26.8134 43.4541 21.4961 48.7921 21.4961 55.3767C21.4961 61.9614 26.8134 67.2994 33.3727 67.2994Z" fill="#949CEB"/>
<path opacity="0.4" d="M44.2678 50.7451L26.1094 64.737C28.0724 66.3135 30.6244 67.2003 33.3727 67.2003C39.949 67.2003 45.2493 61.8795 45.2493 55.2777C45.2493 53.7011 44.8567 52.1246 44.2678 50.7451Z" fill="white"/>
<path opacity="0.4" d="M34.1579 43.4541L22.1832 51.3368C21.6924 52.6178 21.4961 53.8987 21.4961 55.3767C21.4961 55.8694 21.4961 56.3621 21.5942 56.7562L38.1822 44.4394C36.9062 43.8482 35.5321 43.5526 34.1579 43.4541Z" fill="white"/>
<path d="M33.3718 43.454C39.9481 43.454 45.2484 48.7748 45.2484 55.3766C45.2484 61.9784 39.8499 67.2993 33.3718 67.2993C26.7955 67.2993 21.4952 61.9784 21.4952 55.3766C21.4952 48.7748 26.7955 43.454 33.3718 43.454ZM33.3718 42.3701C26.2066 42.3701 20.5137 48.1836 20.5137 55.2781C20.5137 62.4711 26.3047 68.1861 33.3718 68.1861C40.537 68.1861 46.2299 62.3726 46.2299 55.2781C46.2299 48.1836 40.4388 42.3701 33.3718 42.3701Z" fill="#230F08"/>
<path opacity="0.77" d="M66.8434 67.2994C73.4026 67.2994 78.72 61.9614 78.72 55.3767C78.72 48.7921 73.4026 43.4541 66.8434 43.4541C60.2841 43.4541 54.9668 48.7921 54.9668 55.3767C54.9668 61.9614 60.2841 67.2994 66.8434 67.2994Z" fill="#949CEB"/>
<path opacity="0.4" d="M73.5176 45.5234L57.3223 62.4713C58.6964 64.3435 60.6595 65.8215 62.917 66.6098L78.0327 51.337C77.1493 48.9721 75.5788 46.9029 73.5176 45.5234Z" fill="white"/>
<path d="M66.8425 43.454C73.4188 43.454 78.7191 48.7748 78.7191 55.3766C78.7191 61.9784 73.4188 67.2993 66.8425 67.2993C60.2662 67.2993 54.9659 61.9784 54.9659 55.3766C54.9659 48.7748 60.2662 43.454 66.8425 43.454ZM66.8425 42.3701C59.6773 42.3701 53.9844 48.1836 53.9844 55.2781C53.9844 62.4711 59.7754 68.1861 66.8425 68.1861C73.9095 68.1861 79.7006 62.3726 79.7006 55.2781C79.7006 48.1836 73.9095 42.3701 66.8425 42.3701Z" fill="#230F08"/>
<path d="M45.5435 53.1106L44.6602 52.1253C44.6602 52.1253 49.1752 48.0854 54.9663 51.337L54.3774 52.4209C49.3715 49.6619 45.6417 53.1106 45.5435 53.1106Z" fill="#230F08"/>
<path d="M24.734 47.0995C24.5377 47.0995 24.4395 47.001 24.2432 47.001H21.0041C19.63 47.001 18.6484 48.0848 18.6484 49.3658C18.6484 50.6467 19.7281 51.7306 21.0041 51.7306H21.8875C22.4764 50.0555 23.458 48.3805 24.734 47.0995Z" fill="#230F08"/>
<path d="M76.0684 47.0995C76.2647 47.0995 76.3628 47.001 76.5591 47.001H79.7982C81.0742 47.001 82.1539 48.0848 82.1539 49.3658C82.1539 50.6467 81.0742 51.7306 79.7982 51.7306H78.9148C78.2277 50.0555 77.3444 48.3805 76.0684 47.0995Z" fill="#230F08"/>
</g>
<defs>
<linearGradient id="paint0_linear" x1="49.1741" y1="76.1225" x2="50.9326" y2="107.653" gradientUnits="userSpaceOnUse">
<stop stop-color="#F00E47"/>
<stop offset="0.2086" stop-color="#F00E47" stop-opacity="0.7914"/>
<stop offset="0.3652" stop-color="#F00E47" stop-opacity="0.5024"/>
<stop offset="0.8855" stop-color="#F00E47" stop-opacity="0"/>
</linearGradient>
<linearGradient id="paint1_linear" x1="19.7325" y1="117.486" x2="26.6731" y2="92.9845" gradientUnits="userSpaceOnUse">
<stop stop-color="#FF9500"/>
<stop offset="0.2086" stop-color="#FF9500" stop-opacity="0.7914"/>
<stop offset="0.8855" stop-color="#FF9500" stop-opacity="0"/>
</linearGradient>
<linearGradient id="paint2_linear" x1="78.5188" y1="114.234" x2="72.2826" y2="88.0543" gradientUnits="userSpaceOnUse">
<stop stop-color="#FF9500"/>
<stop offset="0.2086" stop-color="#FF9500" stop-opacity="0.7914"/>
<stop offset="0.8855" stop-color="#FF9500" stop-opacity="0"/>
</linearGradient>
<linearGradient id="paint3_linear" x1="49.5792" y1="12.9184" x2="49.8723" y2="89.9939" gradientUnits="userSpaceOnUse">
<stop stop-color="#F00E47"/>
<stop offset="0.2086" stop-color="#F00E47" stop-opacity="0.7914"/>
<stop offset="0.3652" stop-color="#F00E47" stop-opacity="0.5024"/>
<stop offset="0.8855" stop-color="#F00E47" stop-opacity="0"/>
</linearGradient>
<clipPath id="clip0">
<rect width="101" height="121" fill="white"/>
</clipPath>
</defs>
</svg>
