<svg width="103" height="118" viewBox="0 0 103 118" fill="none" xmlns="http://www.w3.org/2000/svg">
<path d="M101.794 83.1171C100.958 77.8518 96.1333 68.2614 94.2774 59.6112C93.7207 57.0725 93.6279 54.4398 93.8135 52.2773C94.1846 45.9777 93.5351 39.5841 91.4008 33.6606C87.7819 23.694 80.7297 10.4367 66.9963 4.23108C64.3981 3.00876 62.2639 2.44462 60.408 2.16255C60.0369 1.9745 59.6657 1.88048 59.2017 1.69243C57.8098 1.22231 56.418 0.846215 55.0261 0.564143C53.0774 0.188048 51.036 0 48.9945 0C48.0666 0 47.0459 0.0940239 46.118 0.282072C33.5909 2.91474 33.127 11.941 33.127 11.941C23.6621 12.8813 17.6306 20.6853 13.9189 28.7713C10.3927 36.3873 8.62967 44.7554 8.53688 53.2175C8.53688 56.2263 8.35129 59.7052 7.79453 62.4319C6.03147 71.0821 2.78372 77.7578 1.763 83.1171C-2.87664 107.845 3.52607 118 3.52607 118H51.4999H98.9171C98.9171 118 105.598 106.999 101.794 83.1171Z" fill="#230E0A"/>
<path d="M53.5405 118H66.8099C91.4 95.998 84.0693 60.833 84.0693 60.833L51.2207 61.3972L53.5405 118Z" fill="black"/>
<path d="M80.4516 104.084C64.1201 97.4082 58.7381 89.1341 60.13 77.2871H50.2012H48.9949H42.221C43.6129 89.1341 38.2309 97.4082 21.8994 104.084C5.56783 110.76 3.43359 117.999 3.43359 117.999H47.0462H50.1084H98.8246C98.9174 117.999 96.7831 110.76 80.4516 104.084Z" fill="#E82A40"/>
<path opacity="0.28" d="M53.3556 109.256C61.4285 109.256 69.0375 106.717 75.533 101.828C75.2547 101.64 74.8835 101.546 74.6051 101.358C68.388 105.871 61.0574 108.315 53.3556 108.315C44.9114 108.315 36.8384 105.401 30.3429 99.9473C30.0646 100.135 29.7862 100.323 29.5078 100.417C36.1889 106.153 44.633 109.256 53.3556 109.256Z" fill="#E8E1E2"/>
<path d="M33.2207 98.0661C38.5099 102.767 45.5621 105.682 53.1712 105.682C59.945 105.682 66.2549 103.425 71.3585 99.5705C62.1721 93.741 59.1099 86.6892 60.2234 77.3809H50.2018H48.9955H42.2216C43.2423 85.843 40.7369 92.5187 33.2207 98.0661Z" fill="#FFA3A3"/>
<path d="M63.3792 92.2369C60.4099 87.9118 59.4819 83.0226 60.1315 77.2871H50.2027H48.9963H42.2225C42.9648 83.3987 41.8513 88.57 38.418 92.9891C40.2738 94.5875 41.7585 96.374 44.3567 97.1262C46.4909 97.7843 48.718 98.0664 51.0378 98.0664C53.3576 98.0664 55.5846 97.6903 57.7189 97.1262C60.2243 96.468 61.5234 93.9293 63.3792 92.2369Z" fill="#FF7A7A"/>
<path d="M25.2192 70.6656C29.7608 68.2598 30.998 61.5717 27.9826 55.7273C24.9672 49.883 18.8411 47.0955 14.2995 49.5013C9.75787 51.9071 8.52063 58.5952 11.536 64.4396C14.5514 70.2839 20.6776 73.0714 25.2192 70.6656Z" fill="#FF8282"/>
<path d="M25.4253 66.8504C25.4253 66.5683 25.3326 66.3803 25.3326 66.1922C25.3326 66.3803 25.4253 66.4743 25.4253 66.5683C25.4253 65.346 25.2398 64.4058 24.9614 63.6536C22.5488 53.7811 13.4551 52.8408 13.4551 52.8408C18.0947 55.6615 20.9713 58.7643 22.7344 61.303C19.4866 59.9866 14.383 62.8074 14.383 62.8074C20.4145 61.209 23.1055 62.5253 24.4046 64.1237C25.147 65.7221 25.4253 66.8504 25.4253 66.8504Z" fill="#FF4F4F"/>
<path d="M90.6018 64.4192C93.6171 58.5748 92.3799 51.8867 87.8383 49.4809C83.2967 47.0751 77.1705 49.8626 74.1552 55.7069C71.1398 61.5513 72.377 68.2394 76.9186 70.6452C81.4602 73.051 87.5864 70.2635 90.6018 64.4192Z" fill="#FF8282"/>
<path d="M76.7383 66.8504C76.7383 66.5683 76.8311 66.3803 76.8311 66.1922C76.8311 66.3803 76.7383 66.4743 76.7383 66.5683C76.7383 65.346 76.9239 64.4058 77.2022 63.6536C79.6149 53.7811 88.7085 52.8408 88.7085 52.8408C84.0689 55.6615 81.1923 58.7643 79.4293 61.303C82.677 59.9866 87.7806 62.8074 87.7806 62.8074C81.7491 61.209 79.0581 62.5253 77.759 64.1237C77.0167 65.7221 76.7383 66.8504 76.7383 66.8504Z" fill="#FF4F4F"/>
<path d="M42.6838 22.5654C32.1054 22.5654 23.5684 31.2156 23.3829 41.8403L23.1973 60.4571C23.1973 70.6116 28.3009 83.2109 35.9099 86.7838C39.2504 88.3822 40.7351 91.2969 44.354 92.2371C46.4883 92.8013 48.7153 93.1774 51.0351 93.1774C53.3549 93.1774 55.582 92.8953 57.7162 92.2371C60.6856 91.3909 61.9847 88.1001 64.6756 86.7838C72.563 82.8348 78.8729 71.3638 78.8729 60.4571L78.7802 40.712C78.8729 30.7455 70.8 22.5654 60.8711 22.5654H42.6838Z" fill="#FDBFA8"/>
<path opacity="0.45" d="M42.6838 22.5654C32.1054 22.5654 23.5684 31.2156 23.3829 41.8403L23.1973 60.4571C23.1973 70.6116 28.3009 83.2109 35.9099 86.7838C39.2504 88.3822 40.7351 91.2969 44.354 92.2371C46.4883 92.8013 48.7153 93.1774 51.0351 93.1774C53.3549 93.1774 55.582 92.8953 57.7162 92.2371C60.6856 91.3909 61.9847 88.1001 64.6756 86.7838C72.563 82.8348 78.8729 71.3638 78.8729 60.4571L78.7802 40.712C78.8729 30.7455 70.8 22.5654 60.8711 22.5654H42.6838Z" fill="url(#paint0_linear)"/>
<path opacity="0.38" d="M45.9316 74.8429C45.9316 74.8429 53.4479 76.7234 57.8091 72.7744C57.8091 72.7744 57.3452 76.5354 52.2415 77.3816C47.1379 78.2278 45.9316 74.8429 45.9316 74.8429Z" fill="#FF7A7A"/>
<path d="M66.4388 82.6464C63.3766 83.9627 61.9847 87.2536 58.6442 88.0998C56.2316 88.6639 53.7262 89.04 51.128 89.04C48.5298 89.04 46.0244 88.7579 43.6117 88.0998C39.6217 87.1595 37.8586 84.1508 34.1469 82.6464C31.6415 81.6121 29.4144 79.8257 27.5586 77.5691C29.6928 81.7062 32.6622 85.185 36.0955 86.7835C39.4361 88.3819 40.9208 91.2966 44.5397 92.2368C46.6739 92.801 48.9009 93.1771 51.2208 93.1771C53.5406 93.1771 55.7676 92.895 57.9018 92.2368C60.8712 91.3906 62.1703 88.0998 64.8613 86.7835C68.8514 84.8089 72.4703 80.8599 74.9757 75.9707C72.4703 78.9795 69.5937 81.236 66.4388 82.6464Z" fill="#FFDCCF"/>
<path d="M63.7464 56.4142C64.6689 56.4142 65.4167 54.6041 65.4167 52.3712C65.4167 50.1382 64.6689 48.3281 63.7464 48.3281C62.824 48.3281 62.0762 50.1382 62.0762 52.3712C62.0762 54.6041 62.824 56.4142 63.7464 56.4142Z" fill="#25110D"/>
<path d="M71.5408 47.9522C71.7264 47.8582 62.6327 41.9346 56.9723 42.2167C56.8795 42.3107 57.0651 37.1394 64.5813 39.8661C71.8192 42.8749 71.448 48.0462 71.5408 47.9522Z" fill="#25110D"/>
<path d="M38.4144 56.4142C39.3369 56.4142 40.0847 54.6041 40.0847 52.3712C40.0847 50.1382 39.3369 48.3281 38.4144 48.3281C37.4919 48.3281 36.7441 50.1382 36.7441 52.3712C36.7441 54.6041 37.4919 56.4142 38.4144 56.4142Z" fill="#25110D"/>
<path d="M29.784 47.9522C29.5985 47.8582 38.6922 41.9346 44.3525 42.2167C44.4453 42.3107 44.2597 37.1394 36.7435 39.8661C29.5057 42.8749 29.8768 48.0462 29.784 47.9522Z" fill="#25110D"/>
<path d="M34.4235 66.0052C34.3307 66.0052 34.2379 66.0052 34.1451 65.9112C33.774 65.7231 33.5884 65.253 33.774 64.8769L36.0938 60.0817C36.2794 59.7056 36.7433 59.5176 37.1145 59.7056C37.4857 59.8937 37.6713 60.3638 37.4857 60.7399L35.1659 65.5351C34.9803 65.8172 34.7019 66.0052 34.4235 66.0052Z" fill="#FF8282"/>
<path d="M29.7849 66.0052C29.6921 66.0052 29.5993 66.0052 29.5065 65.9112C29.1353 65.7231 28.9497 65.253 29.1353 64.8769L31.4551 60.0817C31.6407 59.7056 32.1047 59.5176 32.4758 59.7056C32.847 59.8937 33.0326 60.3638 32.847 60.7399L30.5272 65.5351C30.3416 65.8172 30.0632 66.0052 29.7849 66.0052Z" fill="#FF8282"/>
<path d="M67.2726 66.0049C66.9943 66.0049 66.7159 65.8169 66.6231 65.6288L64.3033 60.8336C64.1177 60.4575 64.3033 59.9874 64.6744 59.7994C65.0456 59.6113 65.5096 59.7994 65.6952 60.1755L68.015 64.9707C68.2006 65.3468 68.015 65.8169 67.6438 66.0049C67.4582 66.0049 67.3654 66.0049 67.2726 66.0049Z" fill="#FF8282"/>
<path d="M71.9113 66.0049C71.6329 66.0049 71.3546 65.8169 71.2618 65.6288L68.9419 60.8336C68.7564 60.4575 68.9419 59.9874 69.3131 59.7994C69.6843 59.6113 70.1483 59.7994 70.3338 60.1755L72.6537 64.9707C72.8392 65.3468 72.6537 65.8169 72.2825 66.0049C72.0969 66.0049 72.0041 66.0049 71.9113 66.0049Z" fill="#FF8282"/>
<path d="M43.3332 64.2182C43.3332 64.2182 51.1278 68.2613 58.9224 64.2182C58.9224 64.2182 60.4999 58.6708 51.1278 58.7649C42.1269 58.7649 43.3332 64.2182 43.3332 64.2182Z" fill="#FF8282"/>
<path d="M42.127 71.5524L46.4882 71.2703C47.8801 71.1763 49.272 71.0822 50.6639 70.8942C52.0558 70.7061 53.4477 70.6121 54.8396 70.33C56.2315 70.142 57.6233 69.8599 59.108 69.6719C57.9017 70.6121 56.6026 71.2703 55.2107 71.7404C53.8188 72.2105 52.3342 72.5866 50.8495 72.6806C49.3648 72.8687 47.8801 72.7747 46.3954 72.5866C44.9107 72.4926 43.4261 72.2105 42.127 71.5524Z" fill="#FF8282"/>
<path opacity="0.77" d="M35.1693 68.7313C41.3703 68.7313 46.3973 63.6377 46.3973 57.3544C46.3973 51.0711 41.3703 45.9775 35.1693 45.9775C28.9683 45.9775 23.9414 51.0711 23.9414 57.3544C23.9414 63.6377 28.9683 68.7313 35.1693 68.7313Z" fill="#A7B9EB"/>
<path opacity="0.4" d="M45.4694 52.9355L28.3027 66.381C30.1586 67.8853 32.5712 68.7316 35.1694 68.7316C41.3865 68.7316 46.3973 63.6543 46.3973 57.3547C46.3973 55.7563 46.0262 54.2519 45.4694 52.9355Z" fill="white"/>
<path opacity="0.4" d="M35.9117 45.9775L24.591 53.4995C24.127 54.7218 23.9414 55.9441 23.9414 57.3544C23.9414 57.8246 23.9414 58.2947 24.0342 58.6708L39.7162 46.9178C38.5099 46.3536 37.2108 46.0716 35.9117 45.9775Z" fill="white"/>
<path d="M35.1695 45.9776C41.3866 45.9776 46.3975 51.0549 46.3975 57.3545C46.3975 63.6541 41.3866 68.7314 35.1695 68.7314C28.9524 68.7314 23.9416 63.6541 23.9416 57.3545C23.9416 51.0549 28.9524 45.9776 35.1695 45.9776ZM35.1695 44.9434C28.3957 44.9434 23.0137 50.4908 23.0137 57.2605C23.0137 64.0302 28.4884 69.5776 35.1695 69.5776C41.8506 69.6716 47.3254 64.1242 47.3254 57.3545C47.3254 50.5848 41.8506 44.9434 35.1695 44.9434Z" fill="#230E0A"/>
<path opacity="0.77" d="M66.8119 68.7313C73.0129 68.7313 78.0398 63.6377 78.0398 57.3544C78.0398 51.0711 73.0129 45.9775 66.8119 45.9775C60.6109 45.9775 55.584 51.0711 55.584 57.3544C55.584 63.6377 60.6109 68.7313 66.8119 68.7313Z" fill="#A7B9EB"/>
<path opacity="0.4" d="M73.1214 47.9521L57.8105 64.1243C59.1096 65.9107 60.9655 67.3211 63.0997 68.0733L77.3898 53.4996C76.5547 51.243 75.07 49.2685 73.1214 47.9521Z" fill="white"/>
<path d="M66.8121 45.9776C73.0292 45.9776 78.04 51.0549 78.04 57.3545C78.04 63.6541 73.0292 68.7314 66.8121 68.7314C60.595 68.7314 55.5842 63.6541 55.5842 57.3545C55.5842 51.0549 60.595 45.9776 66.8121 45.9776ZM66.8121 44.9434C60.0382 44.9434 54.6562 50.4908 54.6562 57.2605C54.6562 64.0302 60.0382 69.6716 66.8121 69.6716C73.586 69.6716 78.968 64.1242 78.968 57.3545C78.968 50.5848 73.4932 44.9434 66.8121 44.9434Z" fill="#230E0A"/>
<path d="M46.675 55.1922L45.8398 54.252C45.8398 54.252 50.1083 50.397 55.5831 53.4998L55.0263 54.5341C50.2939 51.9014 46.7678 55.1922 46.675 55.1922Z" fill="#230E0A"/>
<path d="M27.0032 49.4563C26.8176 49.4563 26.7248 49.3623 26.5392 49.3623H23.477C22.2707 49.3623 21.25 50.3966 21.25 51.6189C21.25 52.9352 22.2707 53.8754 23.477 53.8754H24.3122C24.9617 52.277 25.7968 50.6786 27.0032 49.4563Z" fill="#230E0A"/>
<path d="M75.5332 49.4563C75.7188 49.4563 75.8116 49.3623 75.9972 49.3623H79.0593C80.3584 49.3623 81.2864 50.3966 81.2864 51.6189C81.2864 52.9352 80.2656 53.8754 79.0593 53.8754H78.2242C77.6674 52.277 76.7395 50.6786 75.5332 49.4563Z" fill="#230E0A"/>
<path d="M38.6954 32.0623C42.8711 31.4041 46.0261 27.8312 46.3044 23.5061L46.49 19.5571L29.6017 12.6934C22.1783 14.9499 17.1675 21.8137 13.827 28.7714C10.3008 36.3874 8.53778 44.7555 8.44499 53.2177C8.44499 56.2264 8.2594 59.7053 7.70264 62.432C5.93958 71.0822 2.69183 77.7579 1.67111 83.1173C1.20715 85.3738 0.928769 87.5364 0.650391 89.6049C2.13508 105.119 3.43417 118 3.43417 118C3.43417 118 8.81616 109.35 17.2603 106.153C23.1062 103.991 25.7972 108.88 31.736 102.204C45.1909 87.0663 25.89 77.8519 31.736 39.8663C32.1999 37.0456 35.9117 32.5324 38.6954 32.0623Z" fill="#230E0A"/>
<defs>
<linearGradient id="paint0_linear" x1="48.8712" y1="24.7272" x2="51.6935" y2="57.8732" gradientUnits="userSpaceOnUse">
<stop stop-color="#FF2441"/>
<stop offset="0.2086" stop-color="#FF2441" stop-opacity="0.7914"/>
<stop offset="0.8855" stop-color="#FF2441" stop-opacity="0"/>
</linearGradient>
</defs>
</svg>
