<svg width="400" height="114" viewBox="0 0 400 114" fill="none" xmlns="http://www.w3.org/2000/svg">
<rect x="5" y="5" width="390" height="104" rx="52" fill="black"/>
<g filter="url(#filter0_d)">
<path d="M78.36 44.88L75.08 42.44C74.28 42.72 72.68 42.96 70.96 42.96H56.84C55.64 42.96 53.2 42.84 52.12 42.68V48.36C52.96 48.32 55.16 48.08 56.84 48.08H70.4C69.52 50.92 67.08 54.88 64.44 57.88C60.68 62.08 54.48 66.96 48.04 69.36L52.16 73.68C57.64 71.08 62.96 66.92 67.2 62.44C70.96 66.08 74.68 70.16 77.28 73.76L81.84 69.8C79.48 66.92 74.64 61.8 70.68 58.36C73.36 54.76 75.6 50.48 76.96 47.36C77.32 46.56 78.04 45.32 78.36 44.88ZM107.76 40.32L101.96 38.52C101.6 39.88 100.76 41.72 100.12 42.68C98.12 46.16 94.4 51.64 87.4 56L91.72 59.32C95.76 56.52 99.48 52.68 102.28 48.96H113.72C113.12 51.44 111.4 54.92 109.32 57.8C106.8 56.12 104.28 54.48 102.16 53.28L98.6 56.92C100.64 58.2 103.28 60 105.88 61.92C102.56 65.24 98.12 68.48 91.2 70.6L95.84 74.64C102.08 72.28 106.64 68.88 110.16 65.16C111.8 66.48 113.28 67.72 114.36 68.72L118.16 64.2C117 63.24 115.44 62.08 113.72 60.84C116.56 56.84 118.56 52.56 119.64 49.32C120 48.32 120.52 47.24 120.96 46.48L116.88 43.96C116 44.24 114.64 44.4 113.4 44.4H105.28C105.76 43.52 106.76 41.72 107.76 40.32ZM145.2 48.24L140.44 49.8C141.44 51.88 143.2 56.72 143.68 58.68L148.48 57C147.92 55.16 145.96 49.96 145.2 48.24ZM159.96 51.16L154.36 49.36C153.88 54.36 151.96 59.68 149.24 63.08C145.92 67.24 140.36 70.28 135.96 71.44L140.16 75.72C144.84 73.96 149.84 70.6 153.56 65.8C156.28 62.28 157.96 58.12 159 54.08C159.24 53.28 159.48 52.44 159.96 51.16ZM135.92 50.36L131.12 52.08C132.08 53.84 134.08 59.16 134.76 61.32L139.64 59.48C138.84 57.24 136.92 52.4 135.92 50.36ZM200.56 45.36L196.64 42.84C195.56 43.12 194.28 43.16 193.48 43.16H175C173.68 43.16 171.4 42.96 170.2 42.84V48.48C171.24 48.4 173.16 48.32 174.96 48.32H193.6C193.08 51.72 191.56 56.28 188.92 59.6C185.68 63.64 181.16 67.12 173.24 69L177.6 73.76C184.72 71.48 190.04 67.52 193.68 62.72C197 58.28 198.76 52.08 199.68 48.16C199.88 47.32 200.2 46.16 200.56 45.36ZM214.6 46.44V60.48H211.84V46.44H214.6ZM218.84 42.04H207.72V68.16H211.84V64.88H218.84V42.04ZM243.44 57.32H233.88V44.16C237 43.72 239.92 43.2 242.52 42.48L239.32 38.6C234.48 40 226.64 41 219.68 41.48C220.2 42.52 220.8 44.28 220.96 45.44C223.56 45.28 226.32 45.08 229.12 44.76V57.32H220.04V61.8H229.12V70C229.12 70.68 228.88 70.88 228.16 70.88C227.44 70.92 225.12 70.92 222.92 70.8C223.6 72.08 224.36 74.12 224.6 75.4C227.88 75.44 230.2 75.28 231.72 74.52C233.32 73.8 233.88 72.56 233.88 70.04V61.8H243.44V57.32ZM220.52 47.72C221.88 50.48 222.96 54.2 223.2 56.64L227.4 55.2C227.04 52.72 225.84 49.12 224.4 46.4L220.52 47.72ZM238.64 56.6C239.96 54.24 241.52 50.48 242.88 47.08L238.24 45.8C237.52 48.8 236.08 52.84 234.88 55.44L238.64 56.6ZM277.56 39.84L274.56 40.76C275.44 42.48 276.24 44.72 276.88 46.6L279.88 45.6C279.32 43.96 278.28 41.48 277.56 39.84ZM281.84 38.32L278.96 39.32C279.8 40.96 280.68 43.28 281.32 45.08L284.32 44.08C283.72 42.48 282.72 39.96 281.84 38.32ZM247.64 44.04L248 49.24C248.92 49.08 249.52 49 250.36 48.88C251.56 48.72 254.08 48.44 255.6 48.28C251.88 53.04 249.2 57.92 249.2 64.4C249.2 71.64 254.68 75.16 261.12 75.16C272.28 75.16 275.4 66.6 274.84 57.48C276.16 59.8 277.64 61.84 279.28 63.64L282.52 59.04C276.4 53.4 274.76 47.08 273.96 42.04L268.92 43.44C269.2 44.28 269.48 45.12 269.76 45.92C272.84 60.4 270 69.8 261.2 69.8C257.36 69.8 254.32 67.96 254.32 63.28C254.32 55.6 259.72 49.4 262.44 47.36C263.08 47 263.88 46.72 264.48 46.48L262.96 42.04C260.36 43 253.68 43.84 249.88 44.04C249.12 44.08 248.32 44.08 247.64 44.04ZM316.12 58.52V68.48H307.2V56.4H319.48V41.88H314.48V51.76H307.2V38.52H302.32V51.76H295.44V41.88H290.72V56.4H302.32V68.48H293.96V58.52H289.12V75.48H293.96V73.16H316.12V75.44H321.08V58.52H316.12ZM339.84 40.28L333.4 40.2C333.76 41.8 333.92 43.72 333.92 45.6C333.92 49.04 333.52 59.56 333.52 64.92C333.52 71.76 337.76 74.64 344.32 74.64C353.44 74.64 359.12 69.28 361.68 65.44L358.04 61.04C355.16 65.4 350.96 69.2 344.36 69.2C341.24 69.2 338.84 67.88 338.84 63.84C338.84 58.88 339.16 49.92 339.32 45.6C339.4 44 339.6 41.96 339.84 40.28Z" fill="white"/>
</g>
<rect x="5" y="5" width="390" height="104" rx="52" stroke="url(#paint0_linear)" stroke-width="10"/>
<defs>
<filter id="filter0_d" x="44.04" y="38.3198" width="321.64" height="45.4" filterUnits="userSpaceOnUse" color-interpolation-filters="sRGB">
<feFlood flood-opacity="0" result="BackgroundImageFix"/>
<feColorMatrix in="SourceAlpha" type="matrix" values="0 0 0 0 0 0 0 0 0 0 0 0 0 0 0 0 0 0 127 0"/>
<feOffset dy="4"/>
<feGaussianBlur stdDeviation="2"/>
<feColorMatrix type="matrix" values="0 0 0 0 0 0 0 0 0 0 0 0 0 0 0 0 0 0 0.5 0"/>
<feBlend mode="normal" in2="BackgroundImageFix" result="effect1_dropShadow"/>
<feBlend mode="normal" in="SourceGraphic" in2="effect1_dropShadow" result="shape"/>
</filter>
<linearGradient id="paint0_linear" x1="200" y1="0" x2="200" y2="114" gradientUnits="userSpaceOnUse">
<stop stop-color="white"/>
<stop offset="1" stop-color="#A8A8A8"/>
</linearGradient>
</defs>
</svg>
