<svg width="179" height="173" viewBox="0 0 179 173" fill="none" xmlns="http://www.w3.org/2000/svg">
<path d="M150.429 36.4286C150.429 32.4107 153.665 29.2857 157.571 29.2857C161.589 29.2857 164.714 32.4107 164.714 36.4286C164.714 40.3348 161.589 43.5714 157.571 43.5714C153.665 43.5714 150.429 40.3348 150.429 36.4286ZM132.571 93.5714C132.571 97.4777 135.808 100.714 139.714 100.714L171.857 100.714C175.763 100.714 179 97.4777 179 93.5714L179 22.1429C179 18.2366 175.763 15 171.857 15L139.714 15C135.808 15 132.571 18.2366 132.571 22.1429L132.571 93.5714ZM0.428561 93.5714C0.428562 105.179 10.25 115 21.8571 115L52.7723 115C51.8795 118.571 50.7634 119.688 49.5357 122.143C46.5223 127.946 43.2857 134.42 43.2857 143.571C43.2857 152.165 43.2857 172.143 68.2857 172.143C70.183 172.143 71.9688 171.362 73.308 170.022C78.1071 165.335 79.4464 158.415 80.6741 151.83C82.0134 145.357 83.2411 138.661 87.5937 134.308C91.0536 130.848 94.8482 126.049 98.8661 120.915C103.777 114.442 114.491 101.161 118.621 100.826C122.304 100.491 125.429 97.3661 125.429 93.683L125.429 22.1429C125.429 18.2366 122.08 15.1116 118.286 15C114.379 14.8884 107.683 12.5446 100.652 10.0893C88.5982 5.95983 73.5312 0.714294 57.5714 0.714296L55.6741 0.714296L47.1919 0.714297C45.183 0.714297 43.6205 0.714297 43.1741 0.714297C33.3527 0.825905 25.9866 3.72769 21.1875 9.41966C16.9464 14.442 15.0491 21.25 15.7187 29.6206C12.9286 32.2991 10.808 35.9822 9.69195 40.1116C8.46428 44.5759 8.46428 49.0402 9.69195 53.1697C6.34373 57.6339 4.66963 62.8795 4.89285 68.4598C4.89285 70.0223 5.33928 73.3706 6.56696 76.942C2.77231 81.2947 0.42856 87.6563 0.428561 93.5714Z" fill="url(#paint0_radial)"/>
<defs>
<radialGradient id="paint0_radial" cx="0" cy="0" r="1" gradientUnits="userSpaceOnUse" gradientTransform="translate(153.5 77.5) rotate(-151.252) scale(99.8011 124.143)">
<stop stop-color="#C5FFD9"/>
<stop offset="1" stop-color="#1ED760"/>
</radialGradient>
</defs>
</svg>
