<svg width="87" height="87" viewBox="0 0 87 87" fill="none" xmlns="http://www.w3.org/2000/svg">
<path d="M43.6699 0C19.7772 0 0 19.4374 0 43.3301C0 67.2228 19.7772 87 43.6699 87C67.5626 87 87 67.2228 87 43.3301C87 19.4374 67.5626 0 43.6699 0ZM65.1175 57.5678C67.1055 59.5559 67.1055 62.7895 65.1175 64.7793C63.1447 66.7504 59.9111 66.7827 57.906 64.7793L43.6699 50.5382L29.0923 64.781C27.1042 66.7691 23.8706 66.7691 21.8808 64.781C19.8928 62.7929 19.8928 59.5593 21.8808 57.5695L36.1203 43.3301L21.8808 29.0906C19.8928 27.1008 19.8928 23.8672 21.8808 21.8791C23.8706 19.8911 27.1042 19.8911 29.0923 21.8791L43.6699 36.122L57.906 21.8791C59.8907 19.8945 63.1243 19.8877 65.1175 21.8791C67.1055 23.8672 67.1055 27.1008 65.1175 29.0906L50.878 43.3301L65.1175 57.5678Z" fill="white"/>
</svg>
