<svg width="188" height="188" viewBox="0 0 188 188" fill="none" xmlns="http://www.w3.org/2000/svg">
<path d="M94 188C145.915 188 188 145.915 188 94C188 42.0852 145.915 0 94 0C42.0852 0 0 42.0852 0 94C0 145.915 42.0852 188 94 188Z" fill="#0FE1C2"/>
<path d="M94 158.258C129.489 158.258 158.258 129.489 158.258 94C158.258 58.5114 129.489 29.7422 94 29.7422C58.5114 29.7422 29.7422 58.5114 29.7422 94C29.7422 129.489 58.5114 158.258 94 158.258Z" fill="#66FADE"/>
<path d="M25.9699 175.94C25.9699 175.94 6.38672 183.773 6.38672 185.976C6.38672 188.179 9.56913 187.996 14.4648 187.996C19.3606 187.996 24.7461 186.343 27.3164 187.2C29.8867 188.057 34.6602 188.669 36.0066 186.588C37.3531 184.507 36.0066 178.265 36.0066 178.265C29.0521 180.649 25.9699 175.94 25.9699 175.94Z" fill="#FFAEA1"/>
<path d="M162.031 175.94C162.031 175.94 181.614 183.773 181.614 185.976C181.614 188.179 178.431 187.996 173.536 187.996C168.64 187.996 163.254 186.343 160.684 187.2C158.114 188.057 153.34 188.669 151.994 186.588C150.647 184.507 151.994 178.265 151.994 178.265C158.948 180.649 162.031 175.94 162.031 175.94Z" fill="#FFAEA1"/>
<path d="M151.993 178.266C158.947 180.649 162.029 175.941 162.029 175.941C156.521 166.516 163.498 124.497 156.766 118.744C150.035 112.992 115.112 111.252 115.112 111.252L93.9992 102.833L72.8859 111.252C72.8859 111.252 37.9642 112.992 31.2321 118.744C24.5005 124.497 31.4771 166.516 25.9692 175.941C25.9692 175.941 29.0514 180.649 36.0056 178.266C36.0056 178.266 44.9403 145.427 44.9403 140.775C44.9403 136.124 43.1044 129.882 43.1044 129.882C43.1044 129.882 61.0257 134.843 77.8649 132.942C87.8829 131.811 93.9992 131.269 93.9992 131.269C93.9992 131.269 100.115 131.81 110.133 132.942C126.972 134.843 144.894 129.882 144.894 129.882C144.894 129.882 143.058 136.124 143.058 140.775C143.058 145.427 151.993 178.266 151.993 178.266Z" fill="#0C99E6"/>
<path d="M168.723 46.102C165.143 46.102 99.3723 46.102 99.3723 46.102V36.5552H94H88.6277V46.102C88.6277 46.102 22.8574 46.102 19.2773 46.102C15.6973 46.102 0 46.6528 0 48.2134C0 49.7739 8.26172 49.7739 9.08789 50.1411C9.91406 50.5083 15.7891 52.1606 17.0742 51.8852C18.3594 51.6099 20.4707 50.6919 20.4707 50.6919C20.4707 50.6919 39.5645 55.4653 45.1641 55.0981H68.052C69.2181 55.0981 70.5962 61.7317 71.5817 67.5623H116.418C117.404 61.7317 118.781 55.0981 119.948 55.0981H142.836C148.435 55.4653 167.529 50.6919 167.529 50.6919C167.529 50.6919 169.64 51.6099 170.925 51.8852C172.211 52.1606 178.086 50.5083 178.912 50.1411C179.738 49.7739 188 49.7739 188 48.2134C188 46.6528 172.303 46.102 168.723 46.102Z" fill="#FFAEA1"/>
<path d="M72.7135 58.4416C72.0367 56.443 70.1615 55.0984 68.0513 55.0984C69.2175 55.0984 70.5955 61.732 71.5811 67.5626H75.8022L72.7135 58.4416Z" fill="#F4958C"/>
<path d="M111.509 62.6524V46.1018H104.165V52.0737C104.165 57.6873 99.6139 62.2382 94.0003 62.2382C88.3867 62.2382 83.8358 57.6873 83.8358 52.0737V46.1018H76.4921V62.6524C76.4921 65.3641 74.2937 67.5624 71.582 67.5624C72.355 72.1336 72.887 76.2115 72.887 76.2115V111.251C72.887 111.251 82.1618 116.95 94.0003 116.95C105.839 116.95 115.114 111.251 115.114 111.251V76.2115C115.114 76.2115 115.646 72.1339 116.419 67.5624C113.707 67.5624 111.509 65.3641 111.509 62.6524Z" fill="#3E4A68"/>
<path d="M72.887 111.251C72.887 111.251 75.1827 112.661 78.9456 114.078V79.8649C78.9456 79.4896 78.9302 79.1154 78.9074 78.7416C83.0959 78.5136 89.839 76.8404 89.839 76.8404C81.8831 76.8404 77.9755 73.9756 76.904 70.8119L75.2451 65.9136C75.1346 66.0377 75.0178 66.1559 74.8952 66.2683C74.8908 66.2723 74.8864 66.2764 74.8819 66.2804C74.7652 66.3869 74.6433 66.4871 74.5166 66.5822C74.5048 66.591 74.4931 66.5999 74.4813 66.6087C74.3624 66.6961 74.2394 66.7779 74.1123 66.8543C74.0914 66.8672 74.0705 66.88 74.0492 66.8925C73.9306 66.9615 73.8087 67.0251 73.6842 67.0842C73.6533 67.0989 73.6229 67.1147 73.5913 67.129C73.4745 67.1815 73.3552 67.2277 73.2336 67.2711C73.1929 67.2858 73.1532 67.3019 73.1121 67.3155C72.9964 67.3537 72.8778 67.3845 72.7581 67.4143C72.7104 67.426 72.6638 67.4403 72.6157 67.451C72.4945 67.4771 72.3711 67.4951 72.247 67.5119C72.1993 67.5186 72.153 67.5285 72.1049 67.5336C71.9331 67.552 71.7586 67.5622 71.582 67.5622C72.355 72.1334 72.887 76.2114 72.887 76.2114V111.251Z" fill="#303A59"/>
<path d="M88.627 46.1021C88.627 46.1021 97.1732 45.9185 97.9076 36.5552H88.627V46.1021Z" fill="#F4958C"/>
<path d="M106.677 15.5789C106.677 15.5789 107.379 10.3387 104.856 7.41262C104.478 6.9742 103.76 7.27273 103.806 7.84958L103.836 8.22044C103.836 8.22044 102.388 5.39493 98.6605 4.28565C98.1432 4.1318 97.7081 4.70094 97.9834 5.16544L98.1535 5.45221C98.1535 5.45221 95.9066 3.20539 88.4608 3.05044C87.9141 3.03905 87.6431 3.71101 88.0426 4.08444L88.4689 4.4832C88.4685 4.4832 85.665 4.9778 81.9509 7.22646C81.4927 7.50405 81.6069 8.19987 82.1294 8.31921L82.4334 8.38861C80.9959 10.0417 80.2009 11.7634 79.7959 12.8727C79.62 13.3548 80.0919 13.8197 80.571 13.6361C81.0502 13.4525 79.4302 18.9302 80.8123 23.498L94.0006 26.477L107.189 23.4976C107.189 23.498 107.989 19.6587 106.677 15.5789Z" fill="#8C4F5C"/>
<path d="M88.606 15.3146C84.7205 14.4815 81.9559 12.9562 80.5709 13.6358C80.5709 13.6358 79.43 18.9299 80.8121 23.4978L88.953 25.3366L88.606 15.3146Z" fill="#7B3C47"/>
<path d="M104.065 26.0211C104.065 26.0211 105.362 22.8648 107.673 23.5977C109.983 24.3302 107.617 31.1702 103.107 31.6009L104.065 26.0211Z" fill="#FFAEA1"/>
<path d="M83.9364 26.0211C83.9364 26.0211 82.6402 22.8648 80.3292 23.5977C78.0181 24.3306 80.385 31.1702 84.8944 31.6009L83.9364 26.0211Z" fill="#F4958C"/>
<path d="M104.388 22.0385C104.256 21.7164 104.149 21.2556 104.048 20.7232L94.0001 17.8088L83.952 20.7228C83.851 21.2553 83.7442 21.7161 83.6124 22.0381C83.0186 23.4863 82.2725 23.7811 82.1734 23.8149C82.166 24.0415 82.1616 24.2691 82.1616 24.499C82.1616 33.2168 87.462 43.4407 94.0001 43.4407C100.538 43.4407 105.839 33.2168 105.839 24.499C105.839 24.2691 105.834 24.0415 105.827 23.8149C105.728 23.7815 104.982 23.4863 104.388 22.0385Z" fill="#FFCFC2"/>
<path d="M86.2326 24.4994C86.2326 22.875 86.4188 21.3375 86.761 19.9084L83.952 20.7232C83.851 21.2557 83.7442 21.7165 83.6124 22.0385C83.0186 23.4867 82.2725 23.7815 82.1734 23.8153C82.166 24.0419 82.1616 24.2695 82.1616 24.4994C82.1616 33.2172 87.462 43.4411 94.0001 43.4411C94.6941 43.4411 95.3741 43.3247 96.0358 43.1084C90.4674 41.2861 86.2326 32.2915 86.2326 24.4994Z" fill="#FFAEA1"/>
<path d="M94.0022 16.2098C89.864 16.2098 88.2076 14.8978 86.7759 14.8945H86.7745C86.5097 14.8942 86.2523 14.9386 85.9883 15.0443C84.6481 15.5819 84.3411 18.685 83.9541 20.7229H104.05C103.663 18.685 103.357 15.5819 102.016 15.0443C101.752 14.9386 101.495 14.8942 101.23 14.8945H101.228C99.7968 14.8978 98.1404 16.2098 94.0022 16.2098Z" fill="white"/>
<path d="M91.7459 18.4662C91.7459 17.2199 92.756 16.2098 94.0022 16.2098C89.864 16.2098 88.2076 14.8978 86.776 14.8945H86.7745C86.5097 14.8942 86.2523 14.9386 85.9883 15.0443C84.6481 15.5819 84.3411 18.685 83.9541 20.7229H94.0022C92.756 20.7229 91.7459 19.7124 91.7459 18.4662Z" fill="#EBF0F3"/>
<path d="M36.0056 178.266C36.0056 178.266 40.9307 160.164 43.4672 148.936C42.1857 151.746 39.3562 153.702 36.0665 153.702C32.2257 153.702 29.0209 151.035 28.168 147.456C28.3802 159.384 28.613 171.417 25.9692 175.94C25.9692 175.94 29.0514 180.649 36.0056 178.266Z" fill="#066AE7"/>
<path d="M151.993 178.266C151.993 178.266 147.068 160.164 144.531 148.936C145.813 151.746 148.642 153.702 151.932 153.702C155.773 153.702 158.978 151.035 159.83 147.456C159.618 159.384 159.385 171.417 162.029 175.94C162.029 175.94 158.947 180.649 151.993 178.266Z" fill="#066AE7"/>
</svg>
