<svg width="194" height="194" viewBox="0 0 194 194" fill="none" xmlns="http://www.w3.org/2000/svg">
<g clip-path="url(#clip0)">
<path d="M109.974 193.454C104.423 191.605 101.422 185.606 103.272 180.055L119.047 132.71L75.2622 125.954C69.4795 125.062 65.5153 119.651 66.4077 113.869C67.3 108.087 72.7087 104.121 78.4932 105.014L134.68 113.684C141.153 114.683 145.19 121.274 143.115 127.503L123.373 186.752C121.524 192.303 115.525 195.304 109.974 193.454Z" fill="#FFB69E"/>
<path d="M109.974 193.454C104.423 191.605 101.422 185.606 103.272 180.055L119.047 132.71L75.2622 125.954C69.4795 125.062 65.5153 119.651 66.4077 113.869C67.3 108.087 72.7087 104.121 78.4932 105.014L134.68 113.684C141.153 114.683 145.19 121.274 143.115 127.503L123.373 186.752C121.524 192.303 115.525 195.304 109.974 193.454Z" fill="#F2A88F"/>
<path d="M75.2622 125.954L119.047 132.71L128.674 112.757L78.4932 105.014C72.7086 104.121 67.3 108.087 66.4077 113.869C65.5153 119.651 69.4799 125.062 75.2622 125.954Z" fill="#3C5064"/>
<path d="M102.86 39.2262L60.5723 40.4774C56.2349 40.6058 52.6598 43.9153 52.1941 48.23C51.3264 56.2653 49.8953 72.6765 48.8294 85.4535C48.4084 90.5018 52.3927 94.8291 57.4584 94.8291C61.9292 94.8291 65.665 91.4253 66.0795 86.9741L68.5974 59.9593L103.482 57.1531C108.432 56.9814 112.309 52.8289 112.134 47.8787C111.962 42.9282 107.81 39.0545 102.86 39.2262Z" fill="#FFB69E"/>
<path d="M112.134 47.8784C111.962 42.9278 107.81 39.0542 102.859 39.2262L79.9644 39.9037V59.0446L103.481 57.1531C108.432 56.9807 112.309 52.8285 112.134 47.8784Z" fill="#FA870A"/>
<path d="M70.9246 192.128C66.1063 188.809 64.8907 182.213 68.2096 177.394L94.0907 139.82L68.1051 122.904C63.2015 119.712 61.8143 113.149 65.0063 108.245C68.1983 103.342 74.7607 101.954 79.6643 105.146L114.764 127.995C119.762 131.249 121.084 137.983 117.709 142.883L85.6587 189.413C82.3398 194.231 75.7436 195.447 70.9246 192.128Z" fill="#FFB69E"/>
<path d="M68.1052 122.903L92.0744 138.507L108.267 123.766L79.6645 105.146C74.7609 101.954 68.1984 103.342 65.0065 108.245C61.8141 113.149 63.2017 119.711 68.1052 122.903Z" fill="#3C5A73"/>
<path d="M63.8013 110.768L90.7755 121.141C99.8657 124.254 109.759 119.41 112.873 110.319L130.501 58.8535C132.44 53.1932 129.423 47.0332 123.763 45.0943L100.484 37.1208C94.8235 35.1818 88.6635 38.1988 86.7246 43.859L63.8013 110.768Z" fill="#FFA50A"/>
<path d="M127.097 36.2115C137.096 36.2115 145.203 28.1053 145.203 18.1057C145.203 8.10622 137.096 0 127.097 0C117.097 0 108.991 8.10622 108.991 18.1057C108.991 28.1053 117.097 36.2115 127.097 36.2115Z" fill="#FFB69E"/>
<path d="M70.5384 115.791L66.4669 80.1914C66.1255 77.2071 67.3005 74.2511 69.5971 72.3149L102.993 44.1641C106.78 40.9717 112.438 41.4541 115.631 45.2413C118.826 49.0267 118.341 54.6866 114.554 57.8793L84.8345 82.931L88.3596 113.753C88.9222 118.675 85.3896 123.12 80.4682 123.683C75.5529 124.245 71.1011 120.716 70.5384 115.791Z" fill="#FFB69E"/>
<path d="M114.553 57.8783C118.341 54.686 118.825 49.0257 115.631 45.2404C112.438 41.4531 106.78 40.9707 102.993 44.1631L87.6514 57.0947L99.7945 70.3185L114.553 57.8783Z" fill="#FA870A"/>
</g>
<defs>
<clipPath id="clip0">
<rect width="194" height="194" fill="white"/>
</clipPath>
</defs>
</svg>
