<svg width="74" height="82" viewBox="0 0 74 82" fill="none" xmlns="http://www.w3.org/2000/svg">
<path d="M25.6795 58.2435L18.7659 46.6715C17.1304 43.9322 13.5057 42.9949 10.6711 44.5755C7.83653 46.1561 6.86673 49.659 8.50229 52.3983L16.4035 65.6234C24.5852 79.318 42.7067 84.0121 56.8775 76.1034C71.0484 68.1966 75.9056 50.6841 67.7219 36.9895L51.9195 10.5393C50.2839 7.80003 46.6592 6.86276 43.8246 8.44336C40.9901 10.0239 40.0203 13.5268 41.6558 16.2661L50.5447 31.1443L35.7299 6.34734C34.0943 3.60803 30.4696 2.67076 27.6351 4.25135C24.8005 5.83194 23.8286 9.33481 25.4661 12.0741L38.3056 33.5648L36.3303 30.2586L21.5155 5.46159C19.88 2.72228 16.2553 1.78501 13.4208 3.3656C10.5862 4.94619 9.61432 8.44906 11.2518 11.1884L26.0666 35.9854L28.042 39.2916L13.2272 14.4947C11.5916 11.7553 7.96687 10.8161 5.1323 12.3986C2.29774 13.9792 1.32596 17.4821 2.96349 20.2214L17.7783 45.0184" stroke="white" stroke-width="3.57925" stroke-miterlimit="10" stroke-linecap="round" stroke-linejoin="round"/>
</svg>
