<svg width="967" height="212" viewBox="0 0 967 212" fill="none" xmlns="http://www.w3.org/2000/svg">
    <path d="M87.248 70.832V64.496H94.416V70.832H87.248ZM108.4 70.832H96.816V64.496H106.192V62.256H96.816V57.392H106.928V55.088H87.856C88.368 54 88.88 52.848 89.328 51.728L86.928 51.152C85.424 55.44 82.736 59.568 79.728 62.192C80.336 62.512 81.328 63.312 81.776 63.696C83.504 62.032 85.2 59.856 86.64 57.392H94.416V62.256H84.88V70.832H79.632V73.136H94.416V80.464H96.816V73.136H108.4V70.832ZM124.304 76.368H114.416V62.544H112.592V80.4H114.416V78.288H124.304V80.08H126.256V62.544H124.304V76.368ZM118.64 75.728H120.208V70.864C121.136 71.792 122.32 72.976 122.8 73.616L123.76 72.4C123.216 71.888 121.008 69.968 120.208 69.296V69.072H123.632V67.536H120.208V62.768H118.64V67.536H115.12V69.072H118C117.2 70.704 115.952 72.4 114.832 73.264C115.12 73.68 115.504 74.352 115.664 74.8C116.72 73.872 117.808 72.304 118.64 70.672V75.728ZM115.28 63.856C115.824 64.848 116.336 66.224 116.496 67.152L117.808 66.672C117.616 65.808 117.136 64.432 116.464 63.44L115.28 63.856ZM122.224 63.472C121.936 64.4 121.296 65.808 120.784 66.704L121.968 67.12C122.448 66.224 123.024 65.072 123.568 63.888L122.224 63.472ZM139.344 66H127.536V68.08H130.768V80.4H133.008V68.08H137.168V74.224C137.168 74.512 137.104 74.64 136.72 74.64C136.368 74.672 135.344 74.672 134 74.608C134.288 75.248 134.608 76.112 134.672 76.784C136.432 76.784 137.616 76.752 138.416 76.368C139.184 75.984 139.344 75.344 139.344 74.224V66ZM137.552 60.848H129.264V62.928H137.552V60.848ZM132.112 51.28C131.12 54.192 129.072 57.616 126.768 59.92V59.28H120.944V56.08H126.096V54.128H120.944V51.248H118.768V59.28H115.728V53.04H113.68V59.28H111.408V61.296H125.936C126.288 61.808 126.672 62.48 126.832 62.96C129.648 60.624 132.048 56.784 133.296 53.744C134.704 56.784 137.264 60.432 139.824 62.672C140.144 61.968 140.656 61.072 141.104 60.464C138.544 58.544 135.952 54.832 134.352 51.28H132.112Z" fill="white"/>
    <path d="M79.9356 153V147.6H67.2956V143.12L78.4156 125.08H84.9356V143.52H88.5756V147.6H84.9356V153H79.9356ZM71.6156 143.52H79.9356V130.2H79.6156L71.6156 143.52ZM102 153.48C100.213 153.48 98.6667 153.16 97.36 152.52C96.0533 151.853 94.9733 150.907 94.12 149.68C93.2667 148.453 92.6267 146.947 92.2 145.16C91.8 143.373 91.6 141.333 91.6 139.04C91.6 136.773 91.8 134.747 92.2 132.96C92.6267 131.147 93.2667 129.627 94.12 128.4C94.9733 127.173 96.0533 126.24 97.36 125.6C98.6667 124.933 100.213 124.6 102 124.6C105.547 124.6 108.16 125.867 109.84 128.4C111.547 130.933 112.4 134.48 112.4 139.04C112.4 143.6 111.547 147.147 109.84 149.68C108.16 152.213 105.547 153.48 102 153.48ZM102 149.04C103.787 149.04 105.027 148.373 105.72 147.04C106.44 145.68 106.8 143.853 106.8 141.56V136.52C106.8 134.227 106.44 132.413 105.72 131.08C105.027 129.72 103.787 129.04 102 129.04C100.213 129.04 98.96 129.72 98.24 131.08C97.5467 132.413 97.2 134.227 97.2 136.52V141.56C97.2 143.853 97.5467 145.68 98.24 147.04C98.96 148.373 100.213 149.04 102 149.04ZM151.904 125.84C150.744 123.96 148.264 121.32 146.144 119.4L142.584 121.6C144.664 123.64 147.064 126.44 148.064 128.32L151.904 125.84ZM125.384 119.44C122.984 125.48 118.784 131.36 114.464 135.04C115.304 136.2 116.664 138.76 117.104 139.88C118.544 138.6 119.904 137.08 121.264 135.4V156.4H126.224V128.28C127.664 125.84 128.904 123.36 129.944 120.92L125.384 119.44ZM152.504 133.8L151.824 129.32L140.424 130.8C140.144 127.4 139.984 123.64 139.904 119.72H135.064C135.184 123.92 135.424 127.84 135.704 131.44L127.624 132.52L128.304 137.12L136.184 136.04C137.624 148.24 140.784 155.76 147.544 156.4C149.784 156.52 151.944 154.68 152.944 146.96C152.064 146.48 149.944 145.28 149.064 144.24C148.744 148.68 148.264 150.68 147.344 150.6C144.144 150.2 142.024 144.28 140.904 135.4L152.504 133.8Z" fill="white"/>
    <rect x="1" y="1" width="218" height="210" rx="31" stroke="white" strokeOpacity="0.25" strokeWidth="2"/>
    <path d="M329.848 66.096C330.68 63.76 331.288 60.144 331.448 57.52L329.656 57.264C329.432 59.856 328.856 63.344 327.992 65.456L329.848 66.096ZM332.6 80.432H334.968V51.216H332.6V80.432ZM335.192 57.104C336.088 58.864 337.048 61.168 337.4 62.544L339.192 61.68C338.808 60.336 337.816 58.064 336.856 56.336L335.192 57.104ZM349.24 77.072V69.072H355.768V66.864H349.24V60.24H356.472V57.968H349.24V51.344H346.872V57.968H342.872C343.32 56.4 343.704 54.736 344.024 53.072L341.72 52.688C340.984 57.04 339.704 61.328 337.848 64.112C338.424 64.368 339.48 64.88 339.96 65.2C340.824 63.824 341.56 62.16 342.2 60.24H346.872V66.864H340.088V69.072H346.872V77.072H337.72V79.344H357.24V77.072H349.24ZM364.344 54.832H372.472V60.976H364.344V54.832ZM367.64 66.512C367.768 65.36 367.864 64.208 367.928 63.088H374.712V52.688H362.136V63.088H365.624C365.304 68.88 364.536 75.408 360.184 78.864C360.76 79.216 361.496 79.984 361.816 80.496C365.176 77.712 366.68 73.296 367.384 68.656H372.632C372.344 74.96 372.024 77.392 371.448 78.032C371.16 78.32 370.904 78.384 370.36 78.384C369.784 78.384 368.28 78.384 366.712 78.224C367.096 78.768 367.32 79.664 367.384 80.304C368.92 80.368 370.488 80.4 371.288 80.304C372.248 80.24 372.792 80.048 373.336 79.408C374.2 78.416 374.52 75.504 374.904 67.536C374.904 67.248 374.936 66.512 374.936 66.512H367.64ZM380.28 55.056H377.976V72.656H380.28V55.056ZM385.752 51.856V77.296C385.752 77.904 385.496 78.096 384.92 78.096C384.312 78.128 382.296 78.16 380.056 78.064C380.44 78.736 380.792 79.824 380.92 80.464C383.832 80.464 385.624 80.432 386.68 80.048C387.672 79.632 388.12 78.896 388.12 77.296V51.856H385.752Z" fill="white"/>
    <path d="M329.4 131.44H336.44V134.24H329.4V131.44ZM329.4 125H336.44V127.76H329.4V125ZM348.4 127.76H341.24V125H348.4V127.76ZM348.4 134.24H341.24V131.44H348.4V134.24ZM340.2 140.92C340.36 140 340.52 139.12 340.64 138.16H353.4V121.08H324.64V138.16H335.64C335.52 139.12 335.36 140.04 335.2 140.92H321.96V145.2H333.64C331.76 148.4 328.04 150.76 320.24 152.28C321.2 153.32 322.36 155.2 322.72 156.44C332.8 154.24 337.04 150.36 339.04 145.2H349.56C349.12 149.16 348.52 151.16 347.8 151.76C347.36 152.12 346.88 152.16 346.04 152.16C344.96 152.16 342.44 152.12 339.96 151.92C340.8 153.12 341.44 154.92 341.52 156.28C344.04 156.32 346.48 156.36 347.88 156.24C349.56 156.12 350.76 155.8 351.88 154.68C353.16 153.4 353.96 150.12 354.6 142.84C354.68 142.2 354.76 140.92 354.76 140.92H340.2ZM388.04 150.68V142.68H395.36V138.24H388.04V131.68H396.2V127.2H388.04V119.36H383.28V127.2H380.08C380.48 125.4 380.8 123.52 381.08 121.64L376.44 121C376.04 124.4 375.32 127.84 374.32 130.76C373.76 129.2 372.92 127.28 372.12 125.72L369.8 126.68V119.12H365.04V127.28L361.68 126.8C361.4 130.08 360.68 134.56 359.72 137.2L363.24 138.48C364.16 135.64 364.8 131.24 365.04 127.88V156.48H369.8V129.16C370.48 130.8 371.08 132.56 371.32 133.76L373.6 132.72C373.2 133.56 372.8 134.32 372.4 135.04C373.52 135.52 375.68 136.6 376.64 137.2C377.48 135.68 378.28 133.76 378.88 131.68H383.28V138.24H375.56V142.68H383.28V150.68H372.6V155.2H397.48V150.68H388.04Z" fill="white"/>
    <rect x="250" y="1" width="218" height="210" rx="31" stroke="white" strokeOpacity="0.25" strokeWidth="2"/>
    <path d="M579.008 69.36C578.656 72.176 577.984 75.024 576.928 76.976C577.44 77.136 578.4 77.584 578.784 77.872C579.84 75.824 580.608 72.752 581.056 69.744L579.008 69.36ZM585.952 69.808C586.816 71.792 587.712 74.352 588 76.016L589.888 75.376C589.6 73.712 588.672 71.184 587.744 69.232L585.952 69.808ZM585.152 62.224C585.696 63.088 586.24 64.08 586.72 65.04C584.96 65.136 583.2 65.2 581.6 65.264C583.84 62.544 586.368 58.768 588.224 55.76L586.176 54.864C585.28 56.592 584.064 58.672 582.752 60.688C582.24 60.016 581.568 59.248 580.8 58.48C582.016 56.752 583.36 54.192 584.448 52.048L582.336 51.248C581.664 53.008 580.544 55.408 579.488 57.2C579.168 56.912 578.848 56.624 578.528 56.368L577.312 57.904C578.816 59.248 580.544 61.072 581.504 62.512C580.8 63.536 580.064 64.528 579.36 65.36C578.624 65.392 577.888 65.424 577.248 65.424L577.44 67.568C578.976 67.504 580.736 67.408 582.656 67.312V80.496H584.8V67.184L587.584 66.992C587.872 67.696 588.064 68.304 588.192 68.848L590.08 67.952C589.632 66.224 588.224 63.504 586.912 61.456L585.152 62.224ZM602.72 70.48V76.656H593.504V70.48H602.72ZM591.296 80.4H593.504V78.8H602.72V80.304H605.024V68.336H591.296V80.4ZM606.624 57.904V55.728H599.04V51.216H596.64V55.728H589.28V57.904H596.64V62.704H590.272V64.848H605.92V62.704H599.04V57.904H606.624ZM618.208 59.984C617.856 64.144 617.12 67.664 616.032 70.48C614.912 69.584 613.728 68.688 612.64 67.888C613.216 65.456 613.824 62.736 614.368 59.984H618.208ZM619.136 57.744L618.72 57.808H614.848C615.296 55.6 615.712 53.424 616.064 51.472L613.792 51.248C613.472 53.232 613.056 55.504 612.608 57.808H609.408V59.984H612.16C611.392 63.92 610.528 67.792 609.792 70.512L611.744 71.568L612.096 70.192C613.088 70.96 614.08 71.792 615.072 72.656C613.664 75.376 611.872 77.296 609.664 78.512C610.176 79.024 610.752 79.888 611.104 80.464C613.44 79.024 615.36 77.008 616.832 74.288C617.984 75.408 618.976 76.496 619.68 77.424L621.216 75.504C620.416 74.48 619.232 73.296 617.856 72.048C619.296 68.464 620.192 63.856 620.544 57.936L619.136 57.744ZM634.368 69.584V72.496H624.864V69.584H634.368ZM624.864 77.232V74.256H634.368V77.232H624.864ZM622.656 80.4H624.864V79.12H634.368V80.368H636.704V67.664H622.656V80.4ZM624.608 57.968V54.896C626.24 54.736 627.968 54.544 629.632 54.288C629.696 55.6 629.824 56.816 630.016 57.968H624.608ZM638.528 59.92V57.968H632.224C632 56.752 631.872 55.408 631.808 53.936C633.664 53.616 635.392 53.232 636.832 52.784L635.008 51.184C632.48 52.048 627.872 52.784 623.744 53.2L622.4 52.784V64.368C621.728 64.464 621.12 64.528 620.544 64.592L620.928 66.768C623.68 66.32 627.2 65.712 630.688 65.104L630.592 63.12C628.512 63.44 626.464 63.792 624.608 64.048V59.92H630.432C631.488 64.368 633.568 67.12 636.256 67.12C637.92 67.12 638.72 66.288 638.976 63.216C638.464 63.056 637.76 62.672 637.28 62.256C637.184 64.208 636.96 64.976 636.352 64.976C634.944 65.008 633.504 63.12 632.64 59.92H638.528Z" fill="white"/>
    <path d="M581.44 124.68V127.4H576.36V124.68H581.44ZM576.36 134.12V131.32H581.44V134.12H576.36ZM587.88 149.04C586.92 146.44 584.8 142.64 582.68 139.72L578.64 141.44C579.4 142.52 580.16 143.76 580.84 145C579.32 145.44 577.8 145.88 576.36 146.28V138.48H586V120.36H571.8V147.48C570.84 147.72 569.96 147.96 569.16 148.16L570.36 152.88C573.96 151.8 578.48 150.4 582.84 149C583.16 149.72 583.44 150.44 583.64 151.04L587.88 149.04ZM593.88 134.08V124.76H598.32C597.92 128.16 597.4 131.24 596.68 134.08H593.88ZM600.96 151.8C600.4 151.8 600.32 151.64 600.32 150.44V138.56H606.64V134.08H601.56C602.24 131.2 602.76 128.12 603.2 124.76H606.04V120.32H587.6V124.76H589.48V134.08H587V138.56H595.28C592.76 145.2 588.68 150 582.08 153.12C583.24 153.92 585.24 155.72 586 156.6C590.16 154.32 593.4 151.36 595.88 147.72V150.48C595.88 154.6 596.68 155.96 600.16 155.96H602.84C605.76 155.96 606.8 154.32 607.2 148.16C606 147.88 604.12 147.12 603.24 146.4C603.12 151.08 602.96 151.8 602.36 151.8H600.96ZM619.6 131.4C619.24 135.4 618.6 138.92 617.6 141.92C616.64 141.12 615.72 140.32 614.8 139.6C615.36 137 615.96 134.2 616.52 131.4H619.6ZM621.44 127L620.64 127.08H617.32C617.8 124.48 618.24 121.92 618.64 119.56L614.12 119.16C613.76 121.64 613.36 124.32 612.88 127.08H609.44V131.4H612.12C611.28 135.92 610.4 140.24 609.6 143.44L613.4 145.68L613.72 144.44C614.4 145.04 615.08 145.64 615.76 146.28C614.2 149.2 612.16 151.32 609.6 152.68C610.48 153.6 611.68 155.32 612.32 156.52C615.12 154.8 617.36 152.52 619.12 149.6C620.32 150.88 621.32 152.08 622.04 153.12L625.08 149.28C624.16 148.04 622.8 146.6 621.24 145.12C622.88 140.52 623.84 134.68 624.16 127.28L621.44 127ZM639.68 143.48V145.76H630.64V143.48H639.68ZM630.64 151.32V149.04H639.68V151.32H630.64ZM626.16 156.4H630.64V154.92H639.68V156.28H644.36V139.8H626.16V156.4ZM630.28 127.16V124.68C631.76 124.56 633.28 124.4 634.76 124.2C634.84 125.24 634.92 126.2 635.04 127.16H630.28ZM646.36 130.96V127.16H639.36C639.24 126.04 639.12 124.8 639.08 123.52C641.16 123.16 643.12 122.68 644.84 122.12L641.48 119.08C638.4 120.12 633.24 120.96 628.4 121.36L625.96 120.64V135L623.6 135.24L624.2 139.4C627.68 138.88 632 138.24 636.2 137.56L636 133.72C634.08 134 632.12 134.24 630.28 134.48V130.96H635.72C636.96 136.32 639.4 139.76 642.88 139.76C645.48 139.76 646.72 138.8 647.32 134.48C646.28 134.12 644.92 133.4 644.04 132.6C643.96 134.68 643.68 135.64 643.12 135.64C642.04 135.68 640.92 133.84 640.12 130.96H646.36Z" fill="white"/>
    <rect x="499" y="1" width="218" height="210" rx="31" stroke="white" strokeOpacity="0.25" strokeWidth="2"/>
    <path d="M822.152 52.432H819.304C819.4 52.976 819.464 54.064 819.464 54.704C819.464 55.28 819.432 56.688 819.432 58.352C818.536 58.416 817.704 58.448 816.968 58.448C815.784 58.448 814.632 58.416 812.872 58.192L812.936 60.624C814.024 60.752 815.208 60.784 817.032 60.784C817.704 60.784 818.504 60.752 819.4 60.688C819.368 62.096 819.368 63.6 819.368 64.88C819.368 65.456 819.368 66.096 819.368 66.704C815.688 68.272 812.36 71.056 812.36 73.712C812.36 76.56 816.52 79.024 819.016 79.024C820.744 79.024 821.832 78.064 821.832 75.088C821.832 73.712 821.768 70.864 821.704 68.144C824.008 67.344 826.28 66.896 828.68 66.896C831.72 66.896 834.184 68.368 834.184 71.088C834.184 74.032 831.624 75.536 828.808 76.08C827.624 76.336 826.248 76.336 825.064 76.304L825.96 78.896C827.08 78.832 828.488 78.768 829.928 78.448C834.312 77.392 836.744 74.928 836.744 71.056C836.744 67.216 833.384 64.688 828.712 64.688C826.6 64.688 824.104 65.104 821.672 65.872C821.672 65.488 821.672 65.104 821.672 64.752C821.672 63.472 821.704 61.936 821.736 60.432C824.072 60.176 826.568 59.76 828.456 59.312L828.392 56.816C826.568 57.36 824.136 57.808 821.8 58.096C821.832 56.656 821.896 55.408 821.928 54.64C821.96 53.904 822.056 53.008 822.152 52.432ZM832.072 55.984L830.92 57.904C832.968 58.992 836.52 61.2 838.088 62.704L839.4 60.656C837.832 59.376 834.344 57.2 832.072 55.984ZM814.856 73.584C814.856 72.144 816.808 70.288 819.432 69.072C819.464 71.408 819.528 73.584 819.528 74.736C819.528 75.792 819.08 76.304 818.344 76.304C817.096 76.304 814.856 75.056 814.856 73.584ZM871.464 65.424H858.28V62.288C861.832 60.368 866.024 57.392 868.744 54.64L867.016 53.328L866.44 53.456H845.928V55.76H863.944C862.088 57.36 859.624 59.056 857.352 60.304H855.848V65.424H842.632V67.792H855.848V77.36C855.848 77.936 855.656 78.096 854.952 78.128C854.28 78.16 851.912 78.16 849.352 78.064C849.768 78.736 850.184 79.824 850.376 80.496C853.416 80.528 855.496 80.464 856.68 80.08C857.864 79.696 858.28 78.96 858.28 77.36V67.792H871.464V65.424ZM885.256 68.016C884.712 67.152 882.312 63.536 881.416 62.352V60.336H885.064V58.128H881.416V51.216H879.24V58.128H874.76V60.336H878.984C878.056 64.688 876.104 69.68 874.12 72.336C874.504 72.88 875.08 73.776 875.336 74.384C876.808 72.304 878.184 68.944 879.24 65.456V80.4H881.416V65.168C882.376 66.768 883.496 68.752 883.944 69.776L885.256 68.016ZM891.72 72.432C888.808 74.032 885.8 75.664 883.784 76.688L884.904 78.672C887.08 77.456 889.8 75.888 892.36 74.384L891.72 72.432ZM886.088 68.144C887.304 69.456 888.68 71.248 889.288 72.432L891.016 71.216C890.376 70.064 888.968 68.336 887.72 67.088L886.088 68.144ZM898.728 72.592C900.04 71.44 901.768 69.808 903.08 68.24L901.256 66.96C900.296 68.272 898.6 70.096 897.32 71.248C896.552 69.968 895.88 68.592 895.4 67.088V65.808H903.464V63.792H895.4V61.328H902.312V59.472H895.4V57.2H903.016V55.248H898.792C899.4 54.288 900.104 53.04 900.776 51.856L898.44 51.184C898.024 52.336 897.224 54.064 896.584 55.152L896.872 55.248H891.304L891.88 55.024C891.56 54.032 890.728 52.464 889.96 51.344L888.104 51.952C888.68 52.976 889.352 54.256 889.704 55.248H885.704V57.2H893.096V59.472H886.632V61.328H893.096V63.792H885.032V65.808H893.096V77.776C893.096 78.192 893 78.32 892.584 78.32C892.168 78.352 890.792 78.352 889.384 78.32C889.704 78.896 889.96 79.888 890.056 80.496C892.04 80.496 893.48 80.464 894.312 80.08C895.144 79.696 895.4 79.056 895.4 77.776V71.6C897.128 74.896 899.496 77.584 902.504 79.088C902.856 78.48 903.56 77.616 904.04 77.168C901.448 76.112 899.304 74.224 897.704 71.824L898.728 72.592Z" fill="white"/>
    <path d="M827.4 124.4L821.24 124.32C821.48 125.56 821.56 127.28 821.56 128.4C821.56 130.84 821.6 135.52 822 139.2C823.12 149.92 826.92 153.88 831.32 153.88C834.52 153.88 837.04 151.44 839.68 144.48L835.68 139.6C834.92 142.8 833.32 147.48 831.44 147.48C828.92 147.48 827.72 143.52 827.16 137.76C826.92 134.88 826.88 131.88 826.92 129.28C826.92 128.16 827.12 125.84 827.4 124.4ZM847.4 125.32L842.32 126.96C846.68 131.92 848.8 141.64 849.44 148.08L854.68 146.04C854.24 139.92 851.2 129.92 847.4 125.32ZM872.6 148.28C872.6 147.28 873.56 146.36 875.08 146.36C877.24 146.36 878.72 148.04 878.96 150.64C878.24 150.72 877.48 150.76 876.64 150.76C874.24 150.76 872.6 149.76 872.6 148.28ZM865.8 122.52L865.96 127.72C866.88 127.6 868.16 127.48 869.24 127.4C871.36 127.28 876.88 127.04 878.92 127C876.96 128.72 872.8 132.08 870.56 133.92C868.2 135.88 863.36 139.96 860.52 142.24L864.16 146C868.44 141.12 872.44 137.88 878.56 137.88C883.28 137.88 886.88 140.32 886.88 143.92C886.88 146.36 885.76 148.2 883.56 149.36C883 145.56 880 142.52 875.04 142.52C870.8 142.52 867.88 145.52 867.88 148.76C867.88 152.76 872.08 155.32 877.64 155.32C887.32 155.32 892.12 150.32 892.12 144C892.12 138.16 886.96 133.92 880.16 133.92C878.88 133.92 877.68 134.04 876.36 134.36C878.88 132.36 883.08 128.84 885.24 127.32C886.16 126.64 887.12 126.08 888.04 125.48L885.44 121.92C884.96 122.08 884.04 122.2 882.4 122.36C880.12 122.56 871.56 122.72 869.44 122.72C868.32 122.72 866.92 122.68 865.8 122.52Z" fill="white"/>
    <rect x="748" y="1" width="218" height="210" rx="31" stroke="white" strokeOpacity="0.25" strokeWidth="2"/>
</svg>
