<svg width="200" height="200" viewBox="0 0 200 200" fill="none" xmlns="http://www.w3.org/2000/svg">
<path d="M48.5665 58.3332L69.6998 79.4666L57.9165 91.2499L16.6665 49.9999L57.9165 8.74991L69.6998 20.5332L48.5665 41.6666H108.333C126.014 41.6666 142.971 48.6904 155.474 61.1928C167.976 73.6952 175 90.6521 175 108.333C175 126.014 167.976 142.971 155.474 155.474C142.971 167.976 126.014 175 108.333 175H33.3332V158.333H108.333C121.594 158.333 134.312 153.065 143.689 143.689C153.065 134.312 158.333 121.594 158.333 108.333C158.333 95.0724 153.065 82.3547 143.689 72.9779C134.312 63.6011 121.594 58.3332 108.333 58.3332H48.5665Z" fill="#F2F2F2"/>
</svg>
