<svg width="164" height="224" viewBox="0 0 164 224" fill="none" xmlns="http://www.w3.org/2000/svg">
<g clip-path="url(#clip0)">
<path d="M64.7186 70.084H63.6216V183.402H64.7186V70.084Z" fill="#F3F3F3"/>
<path d="M75.9347 56.1177H64.1621V59.0793H75.9347V56.1177Z" fill="white"/>
<path d="M73.5933 61.5718H64.1621V64.5334H73.5933V61.5718Z" fill="white"/>
<path d="M77.0808 190.103H64.7188V194.035H77.0808V190.103Z" fill="white"/>
<path d="M33.838 70.084H32.741V183.402H33.838V70.084Z" fill="#F3F3F3"/>
<path d="M111.53 70.084H110.433V183.402H111.53V70.084Z" fill="#F3F3F3"/>
<path d="M54.2884 56.1177H32.446V59.0793H54.2884V56.1177Z" fill="white"/>
<path d="M46.4128 61.5718H32.446V64.5334H46.4128V61.5718Z" fill="white"/>
<path d="M125.072 56.1177H111.531V59.0793H125.072V56.1177Z" fill="white"/>
<path d="M127.315 61.5718H111.531V64.5334H127.315V61.5718Z" fill="white"/>
<path d="M45.6438 190.103H33.2817V194.035H45.6438V190.103Z" fill="white"/>
<path d="M123.893 190.103H111.531V194.035H123.893V190.103Z" fill="white"/>
<path d="M10.2763 199.845H127.151C132.571 199.845 136.959 195.508 136.959 190.151V31.0329C136.959 25.6761 132.571 21.3389 127.151 21.3389H10.2763C4.85663 21.3389 0.468506 25.6761 0.468506 31.0329V190.135C0.468506 195.492 4.85663 199.845 10.2763 199.845Z" fill="url(#paint0_linear)"/>
<path d="M128.887 0.235352H15.1396C11.5046 0.235352 8.54102 3.14842 8.54102 6.75738V190.847H128.887V0.235352Z" fill="#F5F5F5"/>
<path d="M117.67 37.377H82.1887V41.8113H117.67V37.377Z" fill="url(#paint1_linear)"/>
<path d="M114.756 55.9722H82.1887V60.4065H114.756V55.9722Z" fill="url(#paint2_linear)"/>
<path d="M110.368 46.6826H82.1887V51.117H110.368V46.6826Z" fill="url(#paint3_linear)"/>
<path d="M44.1207 65.8278C40.0928 65.8278 36.1958 65.0024 32.5609 63.3679C22.6057 58.885 16.1545 49.0129 16.1545 38.2022C16.1545 22.9734 28.6967 10.5767 44.1043 10.5767C59.5119 10.5767 72.054 22.9734 72.054 38.2022C72.054 49.0129 65.6192 58.885 55.6477 63.3679C52.0455 65.0024 48.1486 65.8278 44.1207 65.8278ZM44.1207 12.0332C29.5154 12.0332 17.6445 23.7664 17.6445 38.2022C17.6445 48.4465 23.7355 57.8007 33.1831 62.0408C36.6216 63.5945 40.3056 64.3713 44.1207 64.3713C47.9357 64.3713 51.6198 63.5945 55.0582 62.0408C64.4894 57.8007 70.5968 48.4465 70.5968 38.2022C70.5968 23.7664 58.7259 12.0332 44.1207 12.0332Z" fill="url(#paint4_linear)"/>
<path d="M56.9409 76.9463H16.1707V80.8951H56.9409V76.9463Z" fill="#4E7ED6"/>
<path d="M56.9409 87.5952H16.1707V91.544H56.9409V87.5952Z" fill="#E0E0E0"/>
<path d="M56.9409 98.228H16.1707V102.177H56.9409V98.228Z" fill="#E0E0E0"/>
<path d="M72.0707 76.9463H65.2593V80.8951H72.0707V76.9463Z" fill="#4E7ED6"/>
<path d="M72.0707 87.5952H65.2593V91.544H72.0707V87.5952Z" fill="#E0E0E0"/>
<path d="M72.0707 98.228H65.2593V102.177H72.0707V98.228Z" fill="#E0E0E0"/>
<path d="M151.007 195.233H94.0272C87.2649 195.233 81.7961 189.811 81.7961 183.143V85.0702C81.7961 78.3863 87.2813 72.981 94.0272 72.981H151.024C157.786 72.981 163.255 78.4025 163.255 85.0702V183.143C163.255 189.811 157.77 195.233 151.007 195.233Z" fill="#F5F5F5"/>
<path d="M153.726 91.1554C151.729 85.6368 146.391 82.2544 140.775 82.4162C139.416 82.4648 138.04 82.7075 136.681 83.1768C132.588 84.6172 129.641 87.8539 128.446 91.6571C127.61 94.295 127.61 97.2243 128.626 100.024C128.724 100.299 128.838 100.574 128.953 100.849C129.493 102.063 130.181 103.164 131.016 104.135C134.504 108.197 140.3 109.896 145.671 108.003C152.597 105.543 156.199 98.0011 153.726 91.1554ZM144.541 104.895C140.513 106.319 136.174 105.041 133.554 101.998C132.932 101.27 132.408 100.445 131.999 99.5385C131.917 99.3443 131.835 99.1339 131.753 98.9235C131 96.8197 131 94.6349 131.622 92.6443C132.523 89.7798 134.733 87.3684 137.795 86.2841C138.81 85.9281 139.842 85.7339 140.857 85.7015C145.065 85.572 149.076 88.1129 150.566 92.2559C152.449 97.4023 149.731 103.05 144.541 104.895Z" fill="#E0E0E0"/>
<path d="M131.62 92.6441L128.427 91.6569C129.639 87.8537 132.57 84.617 136.663 83.1767C138.022 82.6911 139.398 82.4484 140.757 82.416L140.855 85.7175C139.84 85.7499 138.808 85.9279 137.793 86.3001C134.731 87.3682 132.521 89.7796 131.62 92.6441Z" fill="#537FFD"/>
<path d="M131.998 99.5387L128.936 100.85C128.821 100.574 128.707 100.299 128.609 100.024C127.593 97.2244 127.593 94.2952 128.428 91.6572L131.621 92.6444C130.999 94.6188 130.983 96.8198 131.752 98.9237C131.834 99.1341 131.916 99.3283 131.998 99.5387Z" fill="#4BA6F3"/>
<path d="M131.015 104.135C130.18 103.164 129.476 102.063 128.952 100.849L132.014 99.5386C132.407 100.445 132.947 101.27 133.569 101.998L131.015 104.135Z" fill="#46BBED"/>
<path d="M141.052 167.624H133.864V190.912H141.052V167.624Z" fill="#46BBED"/>
<path d="M130.36 174.162H123.172V190.928H130.36V174.162Z" fill="#46BBED"/>
<path d="M151.417 156.829H144.229V190.928H151.417V156.829Z" fill="#46BBED"/>
<path d="M92.6683 165.228L92.0461 164.759L103.753 149.692L118.211 150.469L129.116 133.314L140.856 132.116L147.913 118.312L148.617 118.668L141.363 132.844L129.574 134.042L118.637 151.278L104.13 150.485L92.6683 165.228Z" fill="#46BBED"/>
<path d="M114.822 90.3302H94.3876C93.0941 90.3302 92.0461 89.2945 92.0461 88.0159C92.0461 86.7374 93.0941 85.7017 94.3876 85.7017H114.822C116.115 85.7017 117.163 86.7374 117.163 88.0159C117.163 89.2945 116.115 90.3302 114.822 90.3302Z" fill="#4E7ED6"/>
<path d="M114.822 98.3893H94.3876C93.0941 98.3893 92.0461 97.3535 92.0461 96.075C92.0461 94.7965 93.0941 93.7607 94.3876 93.7607H114.822C116.115 93.7607 117.163 94.7965 117.163 96.075C117.163 97.3535 116.115 98.3893 114.822 98.3893Z" fill="#E0E0E0"/>
<path d="M114.822 106.433H94.3876C93.0941 106.433 92.0461 105.397 92.0461 104.118C92.0461 102.84 93.0941 101.804 94.3876 101.804H114.822C116.115 101.804 117.163 102.84 117.163 104.118C117.163 105.413 116.115 106.433 114.822 106.433Z" fill="#E0E0E0"/>
<path d="M48.4267 167.672C48.4267 167.672 40.3381 165.406 30.4485 167.672L35.1968 143.639C35.1968 143.639 47.0349 156.052 48.4267 167.672Z" fill="#B3B7C4"/>
<path d="M74.0842 126.242C74.0842 126.242 75.9017 127.52 76.442 127.375C76.9823 127.213 77.8829 127.472 78.3905 127.423C78.898 127.375 80.2407 126.743 80.7646 126.873C80.9775 126.921 82.2055 127.779 82.664 127.844C83.1224 127.909 84.0557 127.925 84.0066 128.313C83.9575 128.702 83.1061 128.912 83.1061 128.912C83.1061 128.912 83.5154 128.993 83.5645 129.349C83.6628 130.045 83.3025 130.288 83.3025 130.288C83.3025 130.288 83.6791 130.644 83.6464 130.935C83.5809 131.599 83.2043 131.809 83.2043 131.809C83.2043 131.809 83.368 132.149 83.2207 132.586C83.0242 133.136 82.4511 133.201 82.4511 133.201C82.4511 133.201 82.3692 133.929 81.9599 134.042C81.5506 134.139 81.1903 133.994 80.8629 133.994C80.519 133.978 77.6209 132.99 75.8853 131.501C74.1497 130.013 72.1521 129.139 72.1521 129.139L74.0842 126.242Z" fill="#EEA987"/>
<path d="M36.8182 77.0918C36.8182 77.0918 34.1002 75.3763 31.6605 78.435C29.2209 81.4938 30.0887 84.4392 30.6126 87.1742C31.1202 89.8931 33.5926 96.1238 32.5447 98.8751C31.4968 101.626 32.8394 103.05 32.8394 103.05C32.8394 103.05 41.2555 105.187 40.2731 92.6767C39.2743 80.1667 36.8182 77.0918 36.8182 77.0918Z" fill="#FCCCA2"/>
<path d="M40.4206 100.72C40.4206 100.72 43.6298 100.283 45.7748 101.885C47.9197 103.471 49.3933 106.465 50.0483 107.404C50.7032 108.343 58.3825 116.726 58.7754 116.871C59.152 117.017 63.9331 119.623 67.1587 121.743C70.3843 123.847 75.4438 126.387 75.4438 126.387L72.693 129.705C72.693 129.705 59.1356 124.915 56.3194 122.309C53.3066 119.542 39.3727 105.785 39.3727 105.785C39.3727 105.785 35.8851 103.002 40.4206 100.72Z" fill="#DBDFF0"/>
<path d="M63.7364 217.259C63.7364 217.259 67.2076 221.871 66.7328 222.599C66.258 223.327 62.6067 223.441 60.3962 222.599C58.1694 221.758 58.1203 216.352 57.1215 214.038C56.6958 213.067 57.5964 210.202 58.8571 209.992C60.1179 209.782 61.4933 210.397 61.4933 210.397C61.4933 210.397 60.1834 213.65 63.7364 217.259Z" fill="#1D3B54"/>
<path d="M61.5093 210.349C61.5093 210.349 62.2461 212.307 62.5081 214.184C62.7373 215.738 64.9805 219.039 64.8659 219.46C64.7676 219.881 61.9023 220.253 60.7397 219.185C59.5772 218.1 58.824 214.977 58.5784 213.1C58.3328 211.352 58.0381 210.494 58.0381 210.494C58.0381 210.494 60.4123 209.199 61.5093 210.349Z" fill="#EEA886"/>
<path d="M57.0234 213.634V218.457H57.6456V214.718L57.0234 213.634Z" fill="#1D3B54"/>
<path d="M33.5598 217.324C33.5598 217.324 36.9 221.855 36.4252 222.583C35.9504 223.312 32.2991 223.425 30.0886 222.583C27.8618 221.742 27.8127 216.336 26.8139 214.022C26.3882 213.051 27.2887 210.187 28.5495 209.976C29.8103 209.766 31.3003 210.429 31.3003 210.429C31.3003 210.429 30.0068 213.731 33.5598 217.324Z" fill="#1D3B54"/>
<path d="M31.3002 210.429C31.3002 210.429 31.5622 212.565 31.9879 214.086C32.4136 215.608 34.6896 219.055 34.575 219.459C34.4767 219.88 31.6113 220.252 30.4488 219.184C29.2863 218.1 28.3857 214.993 28.2875 213.099C28.1892 211.206 28.5495 209.976 28.5495 209.976C28.5495 209.976 30.2032 209.28 31.3002 210.429Z" fill="#EEA886"/>
<path d="M26.7156 213.634V218.457H27.3541V214.718L26.7156 213.634Z" fill="#1D3B54"/>
<path d="M48.0014 135.337C48.0014 135.337 50.9814 149.012 51.6527 152.459C52.3404 155.906 54.2561 172.575 54.4526 175.424C54.6654 178.256 57.5635 188.937 57.4162 189.957C57.2852 190.976 61.8698 211.06 61.8698 211.06C61.8698 211.06 57.1378 212.339 56.3355 211.481C55.6642 210.753 48.8528 192.368 48.8528 187.319C48.8528 180.311 43.515 171.41 42.8273 169.84C36.5562 155.291 37.8988 150.614 37.0638 149.675C36.2451 148.737 36.1796 150.258 35.6884 152.346C35.2136 154.433 34.182 172.527 33.5762 174.825C32.954 177.123 33.4452 184.891 33.1014 188.808C32.7575 192.724 32.3646 210.267 32.3646 210.267C32.3646 210.267 28.9425 211.044 27.3051 210.3C26.8303 210.089 25.6514 190.75 25.5859 186.089C25.5204 181.428 25.4385 175.003 25.3075 172.996C24.0468 153.689 22.1802 150.954 25.8315 137.262C32.8885 111.013 48.0014 135.337 48.0014 135.337Z" fill="#3B3B40"/>
<path d="M40.3054 98.9076C40.3054 98.9076 43.4164 100.364 44.4807 100.574C45.5613 100.785 49.7366 106.158 50.4734 108.116C51.2102 110.074 50.4734 113.02 48.967 116.467C47.4607 119.914 48.8852 121.063 48.1975 124.526C47.5098 127.973 48.1647 136.065 48.2957 137.991C48.4267 139.917 32.4297 142.345 26.2732 136.227C26.2732 136.227 29.6134 130.029 30.121 129.187C30.645 128.33 30.2029 123.685 29.7281 122.503C29.2532 121.306 26.0931 111.159 26.0931 111.159C26.0931 111.159 23.5061 103.358 25.8475 101.578C27.8778 100.024 33.3957 99.474 34.3945 99.1341C35.3933 98.7457 38.2751 98.6001 40.3054 98.9076Z" fill="#E8734D"/>
<path d="M41.2884 105.737L43.1713 103.552L41.534 97.8066C41.5503 97.8066 40.9937 101.011 41.2884 105.737Z" fill="#D6C5BE"/>
<path d="M41.779 95.363C41.779 95.363 41.1568 100.995 41.2878 102.824C41.2878 102.824 38.0622 106.012 34.3945 99.1015C34.3945 99.1015 35.9337 96.2531 34.7711 92.3528C33.625 88.4525 41.779 95.363 41.779 95.363Z" fill="#EEA886"/>
<path d="M41.2881 102.824V105.737L37.5876 103.002L41.2881 102.824Z" fill="#EEA886"/>
<path d="M41.2881 105.737L39.749 103.86L34.5586 98.7456L32.8721 100.332L41.2881 105.737Z" fill="#D6C5BE"/>
<path d="M43.1874 103.552L45.5616 104.199L41.55 97.8066L43.1874 103.552Z" fill="#FAE6DE"/>
<path d="M39.749 103.86L37.5876 106.659L33.1504 99.1826L34.6895 98.4058L39.749 103.86Z" fill="#FAE6DE"/>
<path d="M41.6481 96.5931L41.5334 97.726C41.5334 97.726 38.9628 98.1953 35.6062 94.1494C35.6226 94.1494 38.0131 97.0301 41.6481 96.5931Z" fill="#A77860"/>
<path d="M41.0102 96.6741C42.0254 96.6418 44.8417 96.3181 46.2334 89.8931C47.9363 82.044 44.1703 77.9819 40.9611 77.2213C37.7519 76.4606 34.7883 77.5773 33.1345 81.6718C33.1345 81.6718 31.9393 84.8762 33.8877 90.5567C35.8362 96.2695 39.9296 96.7227 41.0102 96.6741Z" fill="#EEA987"/>
<path d="M38.4233 82.3191C38.4233 82.3191 42.7459 82.578 46.7574 88.5498C46.7574 88.5498 48.6404 81.3804 43.7283 78.1113C38.8162 74.8422 35.3778 77.6582 34.1825 79.0823C34.1825 79.0823 32.4633 79.4708 32.4141 82.6913C32.365 85.9119 30.1709 90.7832 34.9848 93.0812C34.9848 93.0812 34.5263 89.4075 34.952 88.566C35.3614 87.7083 36.835 88.2747 38.4233 82.3191Z" fill="#FCCCA2"/>
<path d="M35.1642 87.1257C34.9513 86.5755 34.3455 86.3489 34.0344 86.9477C33.7069 87.5465 34.0999 89.8608 34.9677 90.1197C35.8355 90.3625 35.6063 88.2586 35.1642 87.1257Z" fill="#EEA987"/>
<path d="M33.1508 99.1826C33.1508 99.1826 38.0302 104.944 38.5377 117.066C39.0453 129.187 34.6899 167.915 34.9683 172.624L22.3279 166.572C22.3279 166.572 22.3934 147.038 26.6341 134.738C31.5953 120.319 25.9464 115.917 25.4389 107.048C25.4389 107.048 25.6681 100.558 29.3358 99.9594C32.7579 99.4254 33.1508 99.1826 33.1508 99.1826Z" fill="#DBDFF0"/>
<path d="M42.9414 100.04C42.9414 100.04 44.9226 100.267 45.5448 100.995C46.167 101.723 50.0967 106.19 50.375 107.501C50.6534 108.812 51.5703 109.799 49.6873 115.916C48.0009 121.403 48.4266 127.552 48.7704 130.012C49.1143 132.472 55.1725 165.713 54.845 166.571C54.5176 167.429 51.996 169.452 51.996 169.452C51.996 169.452 46.5927 136.664 46.6418 131.194C46.7073 125.724 48.8687 109.41 42.9414 100.04Z" fill="#DBDFF0"/>
<path d="M84.4326 117.357L80.2082 138.881L66.2251 136.195L69.9092 114.573L84.4326 117.357Z" fill="#616161"/>
<path d="M83.3846 118.409L79.6351 137.522L67.2239 135.143L70.4822 115.933L83.3846 118.409Z" fill="#E0CEC7"/>
<path d="M79.4554 118.134L79.7173 116.806L74.6906 115.835L74.2322 117.146L79.4554 118.134Z" fill="#616161"/>
<path d="M82.8604 128.734C82.8604 128.734 80.3552 127.925 79.6184 128.394C78.8816 128.863 79.7658 129.203 79.7658 129.203C79.7658 129.203 78.8979 128.847 78.5541 129.494C78.2103 130.142 79.2745 130.482 79.2745 130.482C79.2745 130.482 78.5377 130.385 78.4559 131.145C78.3576 131.906 79.3073 131.987 79.3073 131.987C79.3073 131.987 78.2103 132.408 78.8979 133.103C80.0605 134.269 81.9926 134.091 81.9926 134.091C81.9926 134.091 82.4674 133.977 82.5002 133.233C82.5002 133.233 83.6463 133.039 83.2861 131.809C83.2861 131.809 84.2194 130.805 83.3025 130.271C83.2861 130.287 84.2685 129.138 82.8604 128.734Z" fill="#DB9C7C"/>
<path d="M22.2782 141.082C22.2782 141.082 21.7707 143.412 22.8022 144.982C23.1952 145.581 22.8186 150.129 22.7858 150.711C22.7531 151.181 22.3274 151.601 22.1473 151.488C21.9671 151.391 21.9344 148.866 21.656 148.057C21.4268 147.378 21.2303 147.119 21.0993 147.329C20.9684 147.539 21.3941 151.197 21.6397 152.411C21.8853 153.624 21.5742 156.181 20.9356 155.761C20.297 155.356 18.1685 149.676 18.3322 147.798C18.4959 145.905 19.2164 143.542 19.2164 143.542L22.2782 141.082Z" fill="#EEA886"/>
<path d="M32.3972 99.5225C32.3972 99.5225 27.3542 99.215 24.8162 102.128C22.2783 105.041 22.4257 108.504 21.7708 110.01C21.1322 111.515 19.6586 117.972 19.3311 119.024C19.0036 120.076 18.6925 125.95 18.2341 130.692C17.7756 135.434 17.8738 144.27 17.8738 144.27L22.7041 143.413C22.7041 143.413 22.9005 134.981 23.0151 130.094C23.1461 125.206 27.1577 116.58 28.6804 112.793C30.2032 109.006 36.2614 101.902 32.3972 99.5225Z" fill="#DBDFF0"/>
<path d="M47.7711 23.0708H40.4849V53.3505H47.7711V23.0708Z" fill="url(#paint5_linear)"/>
<path d="M28.8108 41.7954V34.6099H59.4294V41.7954H28.8108Z" fill="url(#paint6_linear)"/>
</g>
<defs>
<linearGradient id="paint0_linear" x1="65.9672" y1="265.131" x2="70.6243" y2="-2.50454" gradientUnits="userSpaceOnUse">
<stop stop-color="#40D5E6"/>
<stop offset="1" stop-color="#5577FF"/>
</linearGradient>
<linearGradient id="paint1_linear" x1="82.1938" y1="39.598" x2="117.679" y2="39.598" gradientUnits="userSpaceOnUse">
<stop stop-color="#40D5E6"/>
<stop offset="1" stop-color="#5577FF"/>
</linearGradient>
<linearGradient id="paint2_linear" x1="82.1938" y1="58.1941" x2="114.768" y2="58.1941" gradientUnits="userSpaceOnUse">
<stop stop-color="#40D5E6"/>
<stop offset="1" stop-color="#5577FF"/>
</linearGradient>
<linearGradient id="paint3_linear" x1="82.1938" y1="48.8959" x2="110.378" y2="48.8959" gradientUnits="userSpaceOnUse">
<stop stop-color="#40D5E6"/>
<stop offset="1" stop-color="#5577FF"/>
</linearGradient>
<linearGradient id="paint4_linear" x1="44.1211" y1="75.8416" x2="44.1211" y2="37.3251" gradientUnits="userSpaceOnUse">
<stop stop-color="#7DB3E0"/>
<stop offset="1" stop-color="white"/>
</linearGradient>
<linearGradient id="paint5_linear" x1="42.8269" y1="18.6348" x2="45.8544" y2="65.5225" gradientUnits="userSpaceOnUse">
<stop stop-color="#40D5E6"/>
<stop offset="1" stop-color="#5577FF"/>
</linearGradient>
<linearGradient id="paint6_linear" x1="42.8272" y1="18.6351" x2="45.8546" y2="65.5221" gradientUnits="userSpaceOnUse">
<stop stop-color="#40D5E6"/>
<stop offset="1" stop-color="#5577FF"/>
</linearGradient>
<clipPath id="clip0">
<rect width="162.786" height="222.947" fill="white" transform="translate(0.468506 0.235352)"/>
</clipPath>
</defs>
</svg>
