<svg width="424" height="265" viewBox="0 0 424 265" fill="none" xmlns="http://www.w3.org/2000/svg">
<g clip-path="url(#clip0)">
<path d="M208.671 85.9648V146.625L99.709 214.392V85.9648H208.671Z" fill="#251C72"/>
<path d="M154.19 117.508L99.709 85.9644L154.19 54.4209L208.671 85.9644L154.19 117.508Z" fill="#0F054C"/>
<path d="M154.19 117.508V190.908L99.709 214.392V85.9648L154.19 117.508Z" fill="url(#paint0_linear)"/>
<path d="M424 159.19V19.6709L0 265H19.9763H241.013L424 159.19Z" fill="#0F054C"/>
<path opacity="0.5" d="M424 159.19V19.6709L0 265H19.9763H241.013L424 159.19Z" fill="url(#paint1_radial)"/>
<path d="M212.735 223.751L167.248 265H78.522L201.234 210.579L206.077 212.052L150.558 250.268L154.19 250.095L205.99 220.891L212.735 223.751Z" fill="#0F054C"/>
<path d="M216.454 214.911C216.454 214.911 219.048 214.998 221.556 214.651C224.064 214.304 230.895 214.218 230.982 216.384C231.068 218.551 227.782 222.364 223.458 223.663C219.048 224.963 213.254 224.877 210.314 225.483C207.373 226.09 205.211 223.923 206.163 221.237C206.941 218.637 216.454 214.911 216.454 214.911Z" fill="#160A5B"/>
<path d="M201.753 207.892C201.753 207.892 200.801 209.625 201.234 210.665C201.666 211.705 202.963 214.218 207.114 211.532C211.179 208.932 219.048 205.119 219.048 205.119C219.048 205.119 223.545 202.346 223.286 199.313C223.026 196.28 218.875 196.886 218.875 196.886L201.753 207.892Z" fill="#160A5B"/>
<path d="M227.869 164.39C227.869 164.39 226.399 183.628 222.767 191.167C219.135 198.88 218.183 213.005 217.405 215.778C216.627 218.551 214.205 222.624 210.314 223.577C206.422 224.617 205.817 221.671 205.99 219.937C206.163 218.204 207.287 215.345 207.287 213.525C207.287 211.705 206.941 210.838 206.855 209.972C206.855 209.972 202.444 211.532 201.753 207.892C201.753 207.892 202.099 206.765 202.185 206.246C202.271 205.726 201.839 192.38 201.753 190.82C201.666 189.261 202.444 180.681 203.742 176.435C204.952 172.276 204.606 163.61 204.606 163.61L216.8 161.443L227.869 164.39Z" fill="#24126A"/>
<path d="M203.742 176.435C204.952 172.276 204.606 163.61 204.606 163.61L205.644 163.437C205.731 164.65 205.903 172.276 204.866 176.089C203.655 180.335 202.877 188.827 202.963 190.474C203.05 192.034 203.482 205.292 203.396 205.899C203.309 206.419 202.963 207.545 202.963 207.545C203.655 211.272 208.065 209.625 208.065 209.625C208.152 210.492 208.498 211.358 208.498 213.178C208.498 214.998 207.374 217.858 207.201 219.591C207.028 221.324 207.633 224.184 211.525 223.231C211.611 223.231 211.784 223.144 211.87 223.144C211.352 223.404 210.919 223.577 210.314 223.75C206.422 224.79 205.817 221.844 205.99 220.111C206.163 218.378 207.287 215.518 207.287 213.698C207.287 211.878 206.941 210.838 206.855 209.972C206.855 209.972 202.444 211.705 201.753 208.065C201.753 208.065 202.098 206.939 202.185 206.419C202.271 205.899 201.839 192.554 201.753 190.994C201.666 189.261 202.531 180.681 203.742 176.435Z" fill="url(#paint2_linear)"/>
<path d="M208.152 164.91C208.152 164.91 208.238 167.856 209.362 170.369C209.362 170.369 209.362 180.595 210.314 185.794C210.314 185.794 208.671 196.453 207.719 199.833C206.682 203.299 206.855 209.972 206.855 209.972C206.855 209.972 206.336 210.232 205.644 210.232C204.952 210.319 204.866 197.06 205.99 194.72C207.114 192.38 207.892 182.241 207.546 179.208C207.114 176.175 207.287 167.596 206.768 166.123C206.249 164.65 207.46 163.783 207.46 163.783L208.152 164.91Z" fill="#160A5B"/>
<path d="M218.097 98.876C218.097 98.876 221.469 101.302 221.383 105.635L218.875 105.115C218.789 105.115 219.48 100.263 218.097 98.876Z" fill="#160A5B"/>
<path d="M217.059 168.81C208.93 169.329 204.606 165.69 204.606 165.69C204.606 164.477 204.52 163.697 204.52 163.697L216.713 161.53L227.868 164.477C227.868 164.477 227.609 168.203 226.917 173.056C224.928 173.316 222.939 168.203 222.939 168.203L217.405 168.723C217.405 168.723 225.188 168.29 217.059 168.81Z" fill="#160A5B"/>
<path d="M226.312 164.736C226.312 164.736 208.757 172.882 200.282 158.757C200.023 158.324 199.936 157.891 199.936 157.371L200.023 154.078C200.023 153.644 200.023 153.211 199.85 152.864C199.59 151.998 199.504 151.131 199.677 150.265C200.369 146.538 202.185 136.573 202.617 133.8C203.136 130.507 201.493 117.335 198.726 111.788C195.958 106.329 203.136 93.9369 203.136 93.9369C203.136 93.9369 204.865 91.0772 208.238 91.9438C208.238 91.9438 204.952 94.2836 206.768 96.71C208.584 99.1364 213.859 100.956 213.859 100.956C213.859 100.956 223.804 105.982 227.263 112.308C227.263 112.308 228.474 115.601 228.647 119.848C228.82 124.181 228.474 134.666 228.647 136.139C228.82 137.613 229.512 147.752 229.425 148.185C229.425 148.618 226.312 164.736 226.312 164.736Z" fill="#453C9E"/>
<path d="M206.682 93.5901C206.422 92.8968 206.509 92.2035 206.768 91.6836C207.2 91.6836 207.719 91.6836 208.325 91.8569C208.325 91.8569 207.287 92.5502 206.682 93.5901Z" fill="url(#paint3_linear)"/>
<path d="M221.037 166.469C221.037 166.469 210.66 137.612 211.092 127.3C211.525 117.334 226.053 147.404 226.053 147.404L226.312 164.736C226.312 164.736 223.026 166.122 221.037 166.469Z" fill="#24126A"/>
<path d="M200.196 149.918C200.282 150.264 200.369 150.698 200.369 151.131L200.282 154.424C200.282 154.944 200.369 155.377 200.628 155.81C209.103 169.849 226.571 161.79 226.571 161.79C226.571 161.79 228.82 150.178 229.512 146.538C229.598 147.405 229.598 148.098 229.598 148.185C229.512 148.705 226.398 164.823 226.398 164.823C226.398 164.823 208.843 172.969 200.369 158.844C200.109 158.41 200.023 157.977 200.023 157.457L200.109 154.164C200.109 153.731 200.109 153.297 199.936 152.951C199.677 152.084 199.59 151.218 199.763 150.351C199.85 150.004 199.936 149.484 200.023 148.964C200.023 149.138 200.109 149.571 200.196 149.918Z" fill="url(#paint4_linear)"/>
<path d="M198.985 109.188C201.752 114.734 203.396 127.733 202.877 131.026C202.79 131.373 202.79 131.719 202.704 132.239C202.704 127.473 201.147 116.641 198.726 111.701C197.947 110.141 197.947 108.062 198.38 105.809C198.38 107.108 198.553 108.235 198.985 109.188Z" fill="url(#paint5_linear)"/>
<path d="M226.226 131.98C225.793 129.64 225.621 127.387 225.534 125.047C225.448 121.061 224.323 114.475 217.319 115.775C207.46 117.594 211.698 131.893 212.822 134.406C213.946 136.919 218.356 148.445 218.616 149.138C218.875 149.744 225.966 164.303 228.474 167.856C228.734 168.203 229.08 168.203 229.426 167.943C230.463 166.989 232.712 164.736 232.971 163.35C233.317 161.53 231.76 155.204 231.76 155.204C231.76 155.204 227.696 139.519 227.35 138.826C227.091 138.306 226.831 135.793 226.226 131.98Z" fill="#4846A5"/>
<path d="M217.924 99.1363C217.924 99.1363 218.702 97.3164 220.432 97.1431C222.248 96.8831 223.199 96.3632 223.372 95.7566C223.545 95.0633 223.545 94.2834 223.977 93.2435C224.41 92.2036 224.755 89.7772 224.755 89.7772C224.755 89.6905 226.053 89.2572 226.139 88.6506C226.226 88.044 225.447 85.9642 225.534 85.7909C225.62 85.6176 226.312 84.3177 226.226 83.2778C226.139 82.238 225.966 80.8514 225.447 79.5516C224.928 78.3383 221.123 70.9724 211.438 74.9587C201.579 79.0316 209.103 87.2641 208.065 92.7236C208.065 92.7236 207.2 93.9368 208.844 95.8432C210.4 97.7497 215.156 98.0964 217.924 99.1363Z" fill="#FCD1C5"/>
<path d="M208.844 95.8432C207.201 93.9368 208.065 92.7236 208.065 92.7236C208.238 91.9436 208.152 91.1637 208.065 90.2971L211.957 90.9904C211.957 90.9904 217.664 85.7043 217.232 88.4773C216.8 91.2504 218.27 91.6837 218.27 91.6837L217.059 93.2435C216.8 93.6768 216.973 94.1101 217.232 94.5434C218.875 97.4031 222.853 96.4499 222.853 96.4499C222.334 96.7965 221.556 97.0565 220.432 97.1431C218.616 97.4031 217.924 99.1362 217.924 99.1362C215.156 98.0963 210.4 97.7497 208.844 95.8432Z" fill="#E2B1A6"/>
<path d="M225.793 76.6918C225.793 76.6918 226.485 78.6849 225.447 79.5515C224.323 80.4181 223.372 81.198 223.372 81.198V83.7111C223.372 84.0577 223.286 84.4044 223.113 84.751L221.729 86.9174C221.469 87.3507 221.297 87.8707 221.297 88.304V89.3439C221.297 89.6905 221.037 89.9505 220.778 89.9505L220.432 90.0371C220.086 90.0371 219.826 89.8638 219.74 89.5172L219.567 88.044C219.567 88.044 218.789 86.9174 217.232 88.304L215.762 88.9106C215.33 89.0839 215.07 89.4305 214.897 89.8638C214.465 90.9904 213.6 93.2435 212.995 93.6768C212.13 94.1967 208.671 92.4636 208.238 91.6836C207.806 90.9037 206.682 85.7042 205.904 83.2778C205.212 80.8514 205.644 74.7853 212.908 73.1388C220.172 71.579 224.756 74.5254 225.793 76.6918Z" fill="#AA8383"/>
<path d="M208.325 91.8565C207.893 91.0766 206.769 85.8772 205.99 83.4507C205.99 83.4507 208.844 85.2705 212.476 85.7905C216.108 86.3104 223.372 81.9775 223.372 81.9775V83.884C223.372 84.2306 223.286 84.5773 223.113 84.9239L221.729 87.0904C221.47 87.5236 221.297 88.0436 221.297 88.4769V89.5168C221.297 89.8634 221.037 90.1234 220.778 90.1234L220.432 90.21C220.086 90.21 219.827 90.0367 219.74 89.6901L219.567 88.2169C219.567 88.2169 218.789 87.0904 217.232 88.4769L215.157 89.3435C215.157 89.3435 213.86 93.2431 212.995 93.763C212.13 94.283 208.758 92.6365 208.325 91.8565Z" fill="#936D6D"/>
<path d="M208.152 92.0303C208.152 92.0303 205.298 93.8501 206.682 96.3632C208.152 98.8763 218.529 103.209 219.048 103.902C219.048 103.902 219.394 100.089 218.01 98.7896C218.01 98.7896 210.054 97.4031 208.844 95.3233C207.633 93.4168 208.152 92.0303 208.152 92.0303Z" fill="#F0F6FF"/>
<path d="M208.152 92.0303C208.152 92.0303 207.633 93.3301 208.93 95.3233C209.881 96.8831 214.637 98.0097 216.886 98.5296C216.886 98.5296 216.021 99.0496 214.637 101.476C211.438 99.8295 207.546 97.7497 206.768 96.2765C205.298 93.9367 208.152 92.0303 208.152 92.0303Z" fill="#C4CCD6"/>
<path d="M206.163 100.176C206.163 100.176 210.832 102.776 213.081 103.989C215.329 105.202 217.837 106.762 217.837 106.762L218.702 105.895L219.74 108.235C219.74 108.235 223.285 110.315 225.015 112.135C226.744 113.954 228.041 116.294 228.214 116.901C228.214 116.901 223.718 111.008 220.172 109.275L219.221 108.842L218.702 107.022L217.837 107.975C217.837 107.802 207.633 101.822 206.163 100.176Z" fill="#24126A"/>
<path d="M218.616 183.887C218.789 183.454 218.962 183.02 219.221 182.76L238.852 164.389C239.37 163.869 239.889 164.216 239.976 165.169L242.657 185.793C242.743 186.747 242.484 187.96 241.965 188.48L225.361 204.858L226.053 211.098L220.951 208.758C220.691 208.585 220.518 208.238 220.518 207.718L218.529 185.534C218.356 184.927 218.443 184.407 218.616 183.887Z" fill="url(#paint6_linear)"/>
<path d="M244.213 166.21L239.543 164.217L239.37 164.13C239.197 164.13 239.024 164.13 238.851 164.303L219.221 182.675C218.962 182.935 218.702 183.368 218.616 183.801L219.308 184.148L223.372 186.141L240.581 169.676L244.213 166.21Z" fill="#453C9E"/>
<path d="M246.981 190.647L226.745 210.839C226.139 211.359 225.621 211.012 225.534 209.972L223.286 187.614C223.199 186.661 223.545 185.448 224.064 184.928L243.521 166.383C244.04 165.863 244.559 166.21 244.646 167.163L247.586 187.874C247.759 188.914 247.499 190.127 246.981 190.647Z" fill="#24126A"/>
<path d="M222.939 208.673L220.864 186.401C220.778 185.448 221.123 184.235 221.642 183.715L241.186 165.257C241.359 165.084 241.532 164.997 241.619 164.997C241.446 164.91 241.186 164.997 241.013 165.17L221.469 183.715C220.951 184.235 220.518 185.448 220.691 186.401L222.767 208.673C222.853 209.366 223.112 209.799 223.458 209.799C223.112 209.712 222.939 209.279 222.939 208.673Z" fill="#160A5B"/>
<path d="M229.944 175.829L228.907 175.309C228.647 175.222 228.474 175.136 228.301 175.222H228.215C228.128 175.222 228.042 175.396 228.042 175.569V175.742L230.982 177.216V177.042C230.982 176.869 230.896 176.696 230.723 176.522L230.636 176.436C230.377 176.176 230.117 175.916 229.944 175.829Z" fill="#160A5B"/>
<path d="M229.598 178.515L230.982 177.215L228.042 175.309L226.658 176.608L229.598 178.515Z" fill="#160A5B"/>
<path d="M228.561 177.129L227.523 176.609C227.264 176.522 227.091 176.436 226.831 176.522H226.745C226.658 176.522 226.572 176.696 226.572 176.869V177.042L229.512 178.515V178.342C229.512 178.169 229.426 177.995 229.253 177.822L229.166 177.735C228.993 177.475 228.734 177.215 228.561 177.129Z" fill="url(#paint7_linear)"/>
<path d="M227.955 177.735L227.782 176.782H227.869L228.042 177.735H227.955Z" fill="#722318"/>
<path d="M227.782 176.782L229.252 175.482L229.339 175.569L227.869 176.782H227.782Z" fill="#722318"/>
<path d="M236.085 170.022L235.047 169.502C234.787 169.416 234.615 169.329 234.442 169.416H234.355C234.269 169.416 234.182 169.589 234.182 169.762V169.936L237.122 171.409V171.236C237.122 171.062 237.036 170.889 236.863 170.716L236.776 170.629C236.604 170.282 236.344 170.109 236.085 170.022Z" fill="#160A5B"/>
<path d="M235.825 172.622L237.209 171.322L234.268 169.502L232.885 170.715L235.825 172.622Z" fill="#160A5B"/>
<path d="M234.787 171.235L233.75 170.715C233.49 170.629 233.317 170.542 233.144 170.629H233.058C232.971 170.629 232.885 170.802 232.885 170.975V171.149L235.825 172.622V172.448C235.825 172.275 235.739 172.102 235.566 171.929L235.479 171.842C235.22 171.582 234.96 171.409 234.787 171.235Z" fill="url(#paint8_linear)"/>
<path d="M234.182 171.842L234.009 170.889L234.095 170.975L234.268 171.842H234.182Z" fill="#722318"/>
<path d="M234.009 170.889L235.479 169.676H235.565L234.095 170.976L234.009 170.889Z" fill="#722318"/>
<path d="M227.177 172.449L227.61 176.262L228.561 175.395L228.129 171.669C228.042 171.149 228.302 170.456 228.647 170.109L232.625 166.383C232.971 166.036 233.317 166.21 233.404 166.73L233.836 170.369L234.787 169.503L234.355 165.776C234.182 164.563 233.49 164.217 232.712 164.997L228.474 168.896C227.61 169.676 227.091 171.236 227.177 172.449Z" fill="#453C9E"/>
<path d="M234.096 166.123L232.453 166.036L227.696 170.976L227.523 173.922L227.61 176.348L228.734 176.868V173.749V171.669L229.685 170.109C229.685 170.109 231.501 168.549 231.501 168.463L234.096 166.123Z" fill="#453C9E"/>
<path d="M234.96 170.976L233.836 170.456L233.49 167.77H234.528L234.874 167.856L234.96 170.976Z" fill="#453C9E"/>
<path d="M234.787 165.256L233.663 164.736L234.009 165.43L234.355 165.516L234.787 165.256Z" fill="#453C9E"/>
<path d="M228.302 172.969L228.734 176.782L229.685 175.915L229.253 172.189C229.166 171.669 229.426 170.975 229.772 170.629L233.75 166.903C234.096 166.556 234.441 166.729 234.528 167.249L234.96 170.889L235.912 170.022L235.479 166.296C235.306 165.083 234.614 164.736 233.836 165.516L229.599 169.416C228.647 170.196 228.129 171.755 228.302 172.969Z" fill="#160A5B"/>
<path d="M232.625 163.177C232.625 163.177 233.317 166.903 233.144 167.856C232.971 168.81 231.328 170.716 230.29 171.063C229.252 171.409 229.685 170.109 229.425 169.329C229.166 168.55 229.166 166.73 229.166 166.73L232.625 163.177Z" fill="#FCD1C5"/>
<path d="M229.252 166.73L232.625 163.177C232.625 163.177 232.798 163.957 232.884 164.823C232.884 164.823 231.674 167.683 229.339 168.81C229.252 168.03 229.252 166.73 229.252 166.73Z" fill="#E2B1A6"/>
<path d="M232.884 163.436C232.884 163.436 231.76 167.509 228.733 167.942L229.685 163.523C229.685 163.523 232.193 162.656 232.279 162.656C232.365 162.743 232.884 163.436 232.884 163.436Z" fill="#4846A5"/>
<path d="M212.994 118.201C210.227 126.867 217.232 140.299 218.27 144.372C219.307 148.445 230.203 167.25 230.203 167.25C230.29 167.336 230.29 167.423 230.29 167.423C230.03 167.596 229.771 167.856 229.598 167.943C229.339 168.029 229.425 168.029 229.079 168.116C228.82 168.203 228.647 168.116 228.474 167.856C225.966 164.39 218.788 149.831 218.615 149.138C218.356 148.445 213.946 137.006 212.821 134.406C211.957 132.5 209.016 122.794 212.994 118.201Z" fill="url(#paint9_linear)"/>
<path d="M326.28 183.455C325.675 183.455 324.983 183.282 324.291 182.848L264.449 148.185C261.768 146.625 259.52 142.379 259.52 138.739V4.33296C259.52 2.42648 260.125 0.953297 261.249 0.260033C262.2 -0.259914 263.325 -0.173256 264.622 0.520007L324.464 35.1832C327.145 36.743 329.393 40.9893 329.393 44.6289V179.035C329.393 180.942 328.788 182.415 327.664 183.108C327.232 183.368 326.799 183.455 326.28 183.455ZM262.546 0.346691C262.114 0.346691 261.768 0.433349 261.422 0.606665C260.384 1.21327 259.865 2.5998 259.865 4.33296V138.739C259.865 142.206 262.027 146.365 264.622 147.839L324.464 182.502C325.588 183.108 326.626 183.195 327.491 182.762C328.529 182.155 329.048 180.769 329.048 179.035V44.6289C329.048 41.1626 326.886 37.003 324.291 35.5298L264.449 0.866639C263.757 0.520007 263.152 0.346691 262.546 0.346691Z" fill="#42E8E0"/>
<path d="M317.719 191.687L314.606 183.195L259.606 151.391C256.839 149.831 254.59 145.499 254.59 141.859V20.1045L249.056 5.02605L253.898 2.253C254.763 1.73305 255.887 1.73305 257.185 2.51297L319.276 38.3894C322.043 39.9492 324.291 44.2821 324.291 47.9217V184.841C324.291 186.834 323.599 188.221 322.648 188.828L317.719 191.687Z" fill="url(#paint10_linear)"/>
<path d="M314.346 41.1621L252.342 5.2857C249.575 3.72586 247.326 5.37236 247.326 9.09865V146.018C247.326 149.745 249.575 153.991 252.342 155.551L314.433 191.427C317.2 192.987 319.449 191.34 319.449 187.614V50.6945C319.362 47.0548 317.114 42.8086 314.346 41.1621Z" fill="#24126A"/>
<path d="M319.362 187.701V50.7819C319.362 47.0556 317.114 42.8093 314.347 41.2495L252.342 5.28643C251.218 4.67982 250.18 4.5065 249.402 4.85314C250.267 4.15987 251.564 4.07321 252.947 4.93979L315.038 40.8162C317.806 42.376 320.054 46.7089 320.054 50.3486V187.268C320.054 189.435 319.276 190.994 317.979 191.428C318.843 190.821 319.362 189.521 319.362 187.701Z" fill="white"/>
<path opacity="0.51" d="M313.222 41.9423L253.38 7.36575C250.699 5.8059 248.537 7.4524 248.537 11.0054V145.412C248.537 148.965 250.699 153.124 253.38 154.684L313.222 189.347C315.903 190.907 318.065 189.261 318.065 185.708V51.3013C318.065 47.6617 315.903 43.5021 313.222 41.9423Z" fill="#453C9E"/>
<path opacity="0.8" d="M313.828 190.821C313.222 190.821 312.53 190.648 311.839 190.215L251.996 155.551C249.315 153.992 247.067 149.745 247.067 146.106V11.6992C247.067 9.79269 247.672 8.23285 248.796 7.62624C249.748 7.1063 250.958 7.19295 252.169 7.88622L312.012 42.5494C314.692 44.1092 316.941 48.3555 316.941 51.9951V186.402C316.941 188.308 316.335 189.868 315.211 190.475C314.779 190.734 314.26 190.821 313.828 190.821ZM250.094 7.7129C249.661 7.7129 249.315 7.79956 248.969 7.97288C247.932 8.57948 247.413 9.87935 247.413 11.6992V146.106C247.413 149.572 249.575 153.645 252.169 155.205L312.012 189.868C313.136 190.475 314.174 190.561 314.952 190.128C315.99 189.521 316.508 188.221 316.508 186.402V51.9951C316.508 48.5288 314.346 44.4559 311.752 42.896L251.91 8.23285C251.304 7.88622 250.699 7.7129 250.094 7.7129Z" fill="url(#paint11_linear)"/>
<g opacity="0.6">
<g opacity="0.6">
<g opacity="0.6">
<path opacity="0.6" d="M250.267 174.529C250.267 174.529 245.597 177.562 244.04 179.295C242.484 181.028 239.37 184.668 240.668 186.401C241.965 188.134 246.289 189.088 250.958 184.755C255.628 180.422 254.331 180.162 258.223 178.082C262.201 175.915 263.238 173.662 262.806 172.276C262.287 170.976 260.385 168.636 259.26 169.156C258.223 169.676 250.267 174.529 250.267 174.529Z" fill="#160A5B"/>
<path opacity="0.6" d="M272.923 187.094C272.923 187.094 271.28 190.821 270.416 192.034C269.551 193.247 265.4 200.266 267.562 201.913C269.724 203.559 273.875 203.126 277.161 199.573C280.447 196.02 281.139 191.687 281.917 190.301C282.695 188.914 284.771 185.101 283.82 182.935C282.868 180.768 282.695 180.335 282.695 180.335L272.923 187.094Z" fill="#160A5B"/>
<path opacity="0.6" d="M255.974 134.667C255.974 134.667 242.137 148.359 239.889 155.205C239.889 155.205 238.938 158.931 241.619 161.791C244.299 164.737 250.007 174.183 250.007 174.183C250.007 174.183 254.244 179.296 259.692 175.223C259.692 175.223 262.2 171.236 260.644 168.637C259.087 166.037 255.109 157.631 255.109 157.631C255.109 157.631 264.016 151.478 268.34 150.005C272.751 148.445 275.085 147.232 275.085 147.232C275.085 147.232 274.307 151.392 271.107 155.378C267.908 159.451 262.546 165.864 264.362 170.457C266.178 174.963 267.216 176.349 268.859 178.949C270.502 181.549 272.145 187.008 273.529 187.528C274.999 188.135 281.571 188.741 282.609 184.408C283.647 180.076 280.361 171.67 278.89 168.897C278.89 168.897 296.791 148.185 298.434 145.932C300.077 143.679 261.508 131.2 255.974 134.667Z" fill="#24126A"/>
<path opacity="0.6" d="M260.644 168.723C259.087 166.123 255.109 157.717 255.109 157.717C255.109 157.717 264.016 151.565 268.34 150.091C272.751 148.532 275.086 147.318 275.086 147.318C275.95 146.192 278.631 141.686 279.842 138.219C269.724 135.273 258.828 133.02 256.06 134.753C257.012 137.179 262.2 137.179 262.2 137.179C262.2 137.179 264.103 141.859 265.4 142.466C266.697 143.072 269.724 142.379 269.724 142.379C269.724 142.379 269.205 143.159 267.043 144.719C264.881 146.279 251.304 157.457 251.304 157.457C251.304 157.457 252.083 157.891 255.715 164.477C259.347 171.063 259.779 175.396 259.779 175.396C259.779 175.396 262.2 171.323 260.644 168.723Z" fill="#160A5B"/>
<path opacity="0.6" d="M291.17 141.945C283.214 141.165 273.875 141.079 275.95 145.325C279.496 152.431 286.673 152.778 286.673 152.778C286.587 155.377 275.691 168.029 275.691 168.029C275.691 168.029 275.691 168.029 278.285 172.969C280.879 177.908 280.533 187.007 280.533 187.007C281.485 186.488 282.263 185.621 282.609 184.408C283.647 180.075 280.361 171.669 278.89 168.896C278.89 168.896 296.791 148.185 298.434 145.932C298.867 145.325 295.84 143.679 291.17 141.945Z" fill="#160A5B"/>
<path opacity="0.6" d="M242.051 98.2703L244.213 96.6238C244.213 96.6238 255.714 90.2111 259.519 88.218C261.595 87.0914 263.757 85.0983 265.227 83.5385C266.697 81.9786 268.773 81.112 270.935 81.112L290.997 81.0254C290.997 81.0254 293.332 84.7517 294.111 85.5316C294.716 86.0515 300.164 90.6444 304.055 94.4574C306.217 96.5372 307.774 99.1369 308.639 102.083C310.887 109.969 310.801 125.914 311.147 137.266C311.147 137.266 309.763 137.786 306.304 138.566C302.845 139.26 303.277 138.826 303.277 138.826C303.277 138.826 298.175 150.352 291.17 151.478C284.252 152.605 274.826 149.312 273.183 138.393C273.183 138.393 259.606 136.4 255.974 134.84C255.628 134.667 255.542 134.32 255.714 133.973C257.358 131.807 263.497 123.314 264.016 117.855C264.708 111.529 264.449 102.257 264.016 99.7435C264.016 99.7435 253.812 103.643 250.526 104.25C250.526 104.25 238.073 117.942 232.884 121.668C232.884 121.668 234.7 118.895 231.068 116.988L242.051 98.2703Z" fill="#453C9E"/>
<path opacity="0.6" d="M306.304 138.392C306.823 138.306 307.255 138.132 307.688 138.046L306.996 136.659L288.144 134.666L277.161 135.273L273.356 138.912C273.529 140.125 273.875 141.165 274.221 142.119C274.221 142.119 278.891 142.812 281.052 142.292C283.214 141.859 299.991 144.285 299.991 144.285C301.894 141.512 303.104 138.999 303.191 138.652C303.277 138.739 303.537 138.999 306.304 138.392Z" fill="#24126A"/>
<path opacity="0.6" d="M280.879 131.72C280.879 131.633 280.793 131.633 280.707 131.633C279.755 131.633 273.875 131.46 271.713 130.68C269.291 129.813 266.697 129.987 266.611 130.16C266.438 130.333 262.46 131.98 262.2 132.673C262.027 133.28 261.595 135.446 262.114 136.226C262.633 137.006 262.892 137.526 262.892 137.526L263.325 137.613C263.325 137.613 263.843 138.653 264.189 139.086C264.362 139.259 264.449 139.432 264.535 139.606C264.795 140.126 265.227 141.079 265.4 141.079C265.659 141.079 266.87 141.339 267.216 141.252C267.475 141.166 267.735 140.386 267.562 140.039C267.562 139.952 267.562 139.866 267.648 139.866C268.254 139.779 269.81 139.606 271.886 139.779C274.48 140.039 278.199 138.306 278.545 138.133C278.545 138.133 278.545 138.133 278.631 138.133L282.35 137.786C282.436 137.786 282.523 137.699 282.523 137.613L280.879 131.72Z" fill="#FCD1C5"/>
<path opacity="0.6" d="M276.469 92.7235C276.469 92.7235 273.356 104.336 276.642 116.294C276.642 116.294 288.749 93.6767 290.046 90.0371C291.343 86.3974 291.862 83.7977 290.651 82.4112C289.441 81.1113 278.458 87.8706 278.458 87.8706L276.469 92.7235Z" fill="#F0F6FF"/>
<path opacity="0.6" d="M279.582 110.922C279.582 110.922 281.917 103.816 281.485 101.563C281.052 99.3095 280.533 97.663 280.533 97.663L282.609 95.7565L283.56 97.663C283.56 97.663 288.144 94.2834 288.403 93.6768C288.403 93.6768 284.684 96.1898 283.56 96.6231C283.56 96.6231 283.041 95.7565 282.263 95.4099C281.571 95.0633 279.755 97.5764 279.755 97.5764L279.409 101.823L277.593 111.788L278.199 113.261L279.582 110.922Z" fill="#C4CCD6"/>
<path opacity="0.6" d="M277.507 92.897C277.507 92.897 277.074 97.4899 277.42 97.7499C277.766 98.0965 279.236 98.0965 279.842 97.7499C280.533 97.4032 282.177 95.4101 282.177 95.4101C282.177 95.4101 280.188 91.7705 277.507 92.897Z" fill="#24126A"/>
<path opacity="0.6" d="M280.015 96.8838C280.015 96.8838 281.226 100.09 280.101 104.423C278.891 108.843 278.458 112.829 278.458 112.829L276.642 116.209C276.642 116.209 274.394 109.623 275.172 102.95C275.518 100.003 277.766 97.3171 277.766 97.3171L280.015 96.8838Z" fill="#24126A"/>
<path opacity="0.6" d="M270.762 74.1793C270.762 74.1793 270.243 77.039 270.416 77.5589C270.589 78.0789 271.367 78.4255 271.194 79.5521C271.021 80.6786 271.626 83.9716 271.972 85.0115C271.972 85.0115 271.713 86.2247 272.059 86.5714C272.405 86.918 272.837 86.918 273.096 87.4379C273.442 87.9579 273.529 90.8176 274.653 91.7708C275.777 92.7241 277.334 92.8974 278.112 92.7241C278.89 92.5508 279.669 91.9442 279.669 91.9442L281.398 92.6374C281.398 92.6374 290.392 90.1243 290.133 83.7116V83.0184C290.133 83.0184 290.738 82.1518 290.997 81.5452C291.17 80.9386 292.64 78.3389 291.949 77.2123C291.949 77.2123 295.408 63.4337 284.684 62.5671C273.788 61.8738 272.232 69.4131 270.762 74.1793Z" fill="#FCD1C5"/>
<path opacity="0.6" d="M290.133 83.7984C289.7 83.4518 289.268 83.2785 288.922 83.3652C287.711 83.6251 287.971 81.0254 287.971 81.0254C287.971 81.0254 287.711 81.4587 287.106 84.7517C286.501 88.0447 279.669 91.9443 279.669 91.9443L281.399 92.6376C281.399 92.7242 290.392 90.1245 290.133 83.7984Z" fill="#E2B1A6"/>
<path opacity="0.6" d="M270.848 68.1997C269.81 70.4528 269.292 73.1392 271.453 74.959C271.453 74.959 273.269 75.479 276.815 73.8325C279.15 72.7059 281.571 73.2259 282.869 73.6591C283.474 73.8325 283.82 74.4391 283.82 75.0457L283.733 77.0388C283.733 77.5588 283.993 77.992 284.512 78.252L286.155 78.9453L286.501 80.8518C286.587 81.3717 287.192 81.7183 287.711 81.545L288.144 81.3717C288.144 81.3717 288.403 77.1255 291.862 77.2988C291.862 77.2988 294.716 71.1461 291.776 65.5133C288.835 59.8805 280.966 60.3138 279.236 60.9204C276.988 61.787 277.334 61.6137 276.037 62.3936C273.788 63.8668 271.972 65.8599 270.848 68.1997Z" fill="#AA8383"/>
<path opacity="0.6" d="M299.472 111.442C299.472 111.442 297.829 123.488 297.137 126.867L291.862 129.641L301.202 129.034L299.472 111.442Z" fill="#24126A"/>
<path opacity="0.6" d="M291.862 77.2989C291.862 77.2989 292.813 75.2191 293.073 72.3594C288.749 75.8257 283.906 75.0458 283.906 75.0458L283.82 77.0389C283.82 77.5588 284.079 77.9921 284.598 78.2521L286.241 78.9454L286.587 80.8519C286.674 81.3718 287.279 81.7184 287.798 81.5451L288.23 81.3718C288.144 81.3718 288.317 77.1256 291.862 77.2989Z" fill="#936D6D"/>
<path opacity="0.6" d="M294.197 87.8711C294.197 87.8711 291.43 97.4901 290.824 99.3099L288.576 99.05L289.008 102.083L276.901 118.028L290.305 102.603L289.787 99.9166L291.862 100.09L294.197 87.8711Z" fill="#24126A"/>
<path opacity="0.6" d="M282.35 139.953C282.35 139.953 310.628 138.999 311.406 138.479C312.098 137.959 312.271 130.68 312.185 126.434C312.098 123.487 312.185 111.875 309.677 103.729C311.666 110.662 310.628 135.013 309.677 136.226C308.812 137.439 281.831 138.219 281.831 138.219C282.09 139.259 282.35 139.953 282.35 139.953Z" fill="#263649"/>
<path opacity="0.6" d="M226.745 117.248C226.745 117.248 226.658 117.942 225.447 118.635C224.237 119.328 221.037 120.888 220.518 121.321C219.999 121.754 217.751 123.748 217.664 124.008C217.578 124.268 216.886 126.521 216.886 126.694C216.886 126.867 217.146 127.907 217.146 127.907L216.454 131.287C216.454 131.287 215.589 132.587 216.54 132.933C217.491 133.28 218.097 132.24 218.097 132.153C218.097 132.153 219.567 131.46 220.605 130.594C221.642 129.727 225.966 126.261 226.658 126.521C227.35 126.694 226.745 127.994 226.399 128.167C226.053 128.34 223.804 130.594 224.756 132.153C225.707 133.713 226.312 131.287 227.004 130.767C227.609 130.247 228.993 128.34 229.858 128.081C230.722 127.821 232.193 124.701 232.452 123.314C232.625 121.928 233.663 121.061 234.009 120.541C234.355 120.108 233.23 116.642 233.23 116.642L228.993 115.342L227.523 116.295L226.745 117.248Z" fill="#FCD1C5"/>
</g>
</g>
</g>
<g opacity="0.3">
<path opacity="0.5" d="M311.839 42.7223L251.996 8.0591C249.315 6.49926 247.153 8.14576 247.153 11.6987V146.105C247.153 149.658 249.315 153.818 251.996 155.378L311.839 190.041C314.519 191.601 316.681 189.954 316.681 186.401V51.9947C316.681 48.4417 314.519 44.2821 311.839 42.7223Z" fill="url(#paint12_radial)"/>
</g>
<path opacity="0.4" d="M310.974 52.3408C310.974 51.3009 310.195 50.001 309.331 49.4811C308.379 48.9611 307.688 49.3944 307.688 50.4343C307.688 51.4742 308.466 52.7741 309.331 53.294C310.195 53.814 310.974 53.4673 310.974 52.3408Z" fill="#24126A"/>
<path d="M308.898 53.5546C308.898 52.5147 308.12 51.2149 307.255 50.6949C306.304 50.175 305.612 50.6083 305.612 51.6482C305.612 52.6881 306.39 53.9879 307.255 54.5079C308.206 55.0278 308.898 54.5945 308.898 53.5546Z" fill="#42E8E0"/>
<path opacity="0.4" d="M296.619 46.0151L303.104 49.7414C303.883 50.1747 304.575 49.7414 304.575 48.6148C304.575 47.5749 303.969 46.3617 303.104 45.8418L296.619 42.1155C295.84 41.6822 295.148 42.1155 295.148 43.242C295.235 44.3686 295.84 45.5818 296.619 46.0151Z" fill="#24126A"/>
<path d="M294.629 47.1411L301.115 50.8674C301.893 51.3007 302.585 50.8674 302.585 49.7408C302.585 48.7009 301.98 47.4877 301.115 46.9678L294.629 43.2415C293.851 42.8082 293.159 43.2415 293.159 44.368C293.246 45.4946 293.851 46.7078 294.629 47.1411Z" fill="#42E8E0"/>
<path opacity="0.4" d="M257.531 23.4839L264.016 27.2101C264.795 27.6434 265.487 27.2101 265.487 26.0836C265.487 25.0437 264.881 23.8305 264.016 23.3105L257.531 19.5842C256.752 19.151 256.061 19.5842 256.061 20.7108C256.061 21.8373 256.752 23.0506 257.531 23.4839Z" fill="#24126A"/>
<path d="M255.541 24.6967L262.027 28.423C262.806 28.8563 263.497 28.423 263.497 27.2965C263.497 26.2566 262.892 25.0434 262.027 24.5234L255.541 20.7971C254.763 20.3638 254.071 20.7971 254.071 21.9237C254.071 22.9636 254.763 24.1768 255.541 24.6967Z" fill="#42E8E0"/>
<path opacity="0.4" d="M282.868 34.4896C282.868 35.7028 282.004 36.2227 280.966 35.6161C279.928 35.0095 279.063 33.5363 279.063 32.3231C279.063 31.1099 279.928 30.5899 280.966 31.1965C282.004 31.8032 282.868 33.2763 282.868 34.4896Z" fill="#24126A"/>
<path d="M281.831 33.8828C281.831 34.4027 281.485 34.6627 280.966 34.4027C280.533 34.1428 280.101 33.4495 280.101 32.9296C280.101 32.4096 280.447 32.1496 280.966 32.4096C281.485 32.6696 281.831 33.3628 281.831 33.8828Z" fill="#42E8E0"/>
<path d="M289.527 100.61L285.722 98.3569L285.895 98.0102L289.095 99.9167V96.1904H289.527V100.61Z" fill="#42E8E0"/>
<path d="M289.527 78.9452H289.095V74.9589L285.722 72.9658L285.895 72.6191L289.527 74.6989V78.9452Z" fill="#42E8E0"/>
<path d="M267.562 66.2067H267.129V61.7871L271.021 64.0402L270.848 64.3868L267.562 62.4804V66.2067Z" fill="#42E8E0"/>
<path d="M270.848 89.7772L267.129 87.6974V83.4512H267.562V87.4374L271.021 89.4306L270.848 89.7772Z" fill="#42E8E0"/>
<path opacity="0.4" d="M303.969 151.131L260.471 125.914C257.531 124.18 255.109 126 255.109 129.987C255.109 133.973 257.531 138.566 260.471 140.299L303.969 165.516C306.909 167.249 309.331 165.43 309.331 161.443C309.331 157.457 306.909 152.864 303.969 151.131Z" fill="#24126A"/>
<path opacity="0.4" d="M301.288 152.691L257.703 127.387C254.763 125.654 252.342 127.474 252.342 131.46C252.342 135.446 254.763 140.039 257.703 141.772L301.202 166.99C304.142 168.723 306.563 166.903 306.563 162.917C306.65 159.017 304.228 154.425 301.288 152.691Z" fill="#42E8E0"/>
<path d="M303.364 167.77C302.672 167.77 301.894 167.51 301.115 167.076L257.617 141.859C254.59 140.126 252.169 135.446 252.169 131.46C252.169 129.294 252.861 127.734 254.071 126.954C255.109 126.347 256.406 126.434 257.704 127.214L301.202 152.431C304.228 154.164 306.65 158.844 306.65 162.83C306.65 164.997 305.958 166.556 304.747 167.336C304.401 167.683 303.883 167.77 303.364 167.77ZM255.628 126.867C255.196 126.867 254.677 126.954 254.331 127.214C253.207 127.907 252.515 129.38 252.515 131.46C252.515 135.36 254.85 139.952 257.79 141.599L301.288 166.816C302.499 167.51 303.71 167.683 304.661 167.076C305.785 166.383 306.477 164.91 306.477 162.83C306.477 158.931 304.142 154.338 301.202 152.691L257.704 127.56C256.925 127.127 256.233 126.867 255.628 126.867Z" fill="#42E8E0"/>
<path opacity="0.4" d="M303.191 160.75C303.191 159.536 302.326 158.15 301.375 157.543C300.337 156.937 299.559 157.457 299.559 158.583C299.559 159.796 300.337 161.183 301.375 161.79C302.326 162.396 303.191 161.876 303.191 160.75Z" fill="#42E8E0"/>
<path d="M302.153 162.137C301.894 162.137 301.548 162.05 301.288 161.877C300.25 161.27 299.386 159.797 299.386 158.584C299.386 157.977 299.559 157.544 299.991 157.284C300.337 157.024 300.856 157.111 301.375 157.457C302.412 158.064 303.277 159.537 303.277 160.75C303.277 161.357 303.104 161.79 302.672 162.05C302.499 162.137 302.326 162.137 302.153 162.137ZM300.51 157.371C300.337 157.371 300.164 157.371 300.078 157.457C299.732 157.631 299.559 158.064 299.559 158.584C299.559 159.71 300.337 161.097 301.375 161.704C301.807 161.964 302.239 162.05 302.585 161.877C302.931 161.704 303.104 161.27 303.104 160.75C303.104 159.624 302.326 158.237 301.288 157.631C301.029 157.457 300.769 157.371 300.51 157.371Z" fill="#42E8E0"/>
<path opacity="0.4" d="M297.051 157.197C297.051 155.984 296.186 154.597 295.235 153.991C294.197 153.384 293.419 153.904 293.419 155.03C293.419 156.244 294.197 157.63 295.235 158.237C296.186 158.843 297.051 158.41 297.051 157.197Z" fill="#42E8E0"/>
<path d="M294.976 159.191C294.716 159.191 294.37 159.104 294.111 158.931C293.073 158.324 292.208 156.851 292.208 155.638C292.208 155.031 292.381 154.598 292.814 154.338C293.16 154.078 293.679 154.164 294.198 154.511C295.235 155.118 296.1 156.591 296.1 157.804C296.1 158.411 295.927 158.844 295.495 159.104C295.408 159.191 295.235 159.191 294.976 159.191ZM293.333 154.424C293.16 154.424 292.987 154.424 292.9 154.511C292.554 154.684 292.381 155.118 292.381 155.638C292.381 156.764 293.16 158.151 294.198 158.757C294.63 159.017 295.062 159.104 295.408 158.931C295.754 158.757 295.927 158.324 295.927 157.804C295.927 156.677 295.149 155.291 294.111 154.684C293.852 154.511 293.592 154.424 293.333 154.424Z" fill="#42E8E0"/>
<path d="M275.864 151.824C275.605 151.824 275.259 151.738 274.999 151.564C273.961 150.958 273.097 149.485 273.097 148.271C273.097 147.665 273.27 147.231 273.702 146.971C274.048 146.712 274.567 146.798 275.086 147.145C276.123 147.751 276.988 149.225 276.988 150.438H276.902H276.988C276.988 151.044 276.815 151.478 276.383 151.738C276.296 151.738 276.123 151.824 275.864 151.824ZM274.221 147.058C274.048 147.058 273.875 147.058 273.789 147.145C273.443 147.318 273.27 147.751 273.27 148.271C273.27 149.398 274.048 150.784 275.086 151.391C275.518 151.651 275.95 151.738 276.296 151.564C276.642 151.391 276.815 150.958 276.815 150.438C276.815 149.311 276.037 147.925 274.999 147.318C274.74 147.145 274.48 147.058 274.221 147.058Z" fill="#42E8E0"/>
<path opacity="0.4" d="M281.399 147.838C281.399 146.624 280.534 145.238 279.583 144.631C278.545 144.025 277.767 144.545 277.767 145.671C277.767 146.884 278.545 148.271 279.583 148.877C280.534 149.484 281.399 148.964 281.399 147.838Z" fill="#42E8E0"/>
<path d="M267.13 149.831C266.87 149.831 266.524 149.744 266.265 149.571C265.227 148.965 264.362 147.491 264.362 146.278C264.362 145.672 264.535 145.238 264.968 144.978C265.314 144.718 265.832 144.805 266.351 145.152C267.389 145.758 268.254 147.231 268.254 148.445H268.167H268.254C268.254 149.051 268.081 149.485 267.648 149.744C267.476 149.744 267.303 149.831 267.13 149.831ZM265.487 145.065C265.314 145.065 265.141 145.065 265.054 145.152C264.708 145.325 264.535 145.758 264.535 146.278C264.535 147.405 265.314 148.791 266.351 149.398C266.784 149.658 267.216 149.744 267.562 149.571C267.908 149.398 268.081 148.965 268.081 148.445C268.081 147.318 267.303 145.932 266.265 145.325C266.005 145.065 265.746 145.065 265.487 145.065Z" fill="#42E8E0"/>
<path opacity="0.4" d="M275.518 144.112C275.518 142.899 274.74 141.512 273.702 140.906C272.665 140.299 271.886 140.819 271.886 141.946C271.886 143.159 272.665 144.545 273.702 145.152C274.654 145.758 275.518 145.325 275.518 144.112Z" fill="#42E8E0"/>
<path d="M257.098 148.444C256.839 148.444 256.493 148.358 256.234 148.184C255.196 147.578 254.331 146.105 254.331 144.891C254.331 144.285 254.504 143.852 254.936 143.592C255.282 143.332 255.801 143.418 256.32 143.765C257.358 144.372 258.223 145.845 258.223 147.058C258.223 147.664 258.05 148.098 257.617 148.358C257.531 148.444 257.358 148.444 257.098 148.444ZM255.455 143.678C255.282 143.678 255.109 143.678 255.023 143.765C254.677 143.938 254.504 144.372 254.504 144.891C254.504 146.018 255.282 147.405 256.32 148.011C256.752 148.271 257.185 148.358 257.531 148.184C257.877 148.011 258.05 147.578 258.05 147.058C258.05 145.931 257.271 144.545 256.234 143.938C255.974 143.765 255.715 143.678 255.455 143.678Z" fill="#42E8E0"/>
<path opacity="0.4" d="M269.465 140.385C269.465 139.172 268.686 137.786 267.649 137.179C266.611 136.572 265.833 137.092 265.833 138.219C265.833 139.432 266.611 140.819 267.649 141.425C268.6 142.119 269.465 141.599 269.465 140.385Z" fill="#42E8E0"/>
<path opacity="0.4" d="M284.685 151.911L290.046 155.031C290.911 155.551 291.603 155.031 291.603 153.817C291.603 152.604 290.911 151.304 290.046 150.784L284.685 147.665C283.82 147.145 283.128 147.665 283.128 148.878C283.042 150.091 283.82 151.391 284.685 151.911Z" fill="#42E8E0"/>
<path d="M288.49 156.591C288.23 156.591 288.057 156.504 287.798 156.418L282.436 153.298C281.571 152.778 280.793 151.391 280.793 150.178C280.793 149.485 281.052 149.052 281.398 148.792C281.744 148.618 282.09 148.618 282.523 148.878L287.884 151.998C288.749 152.518 289.527 153.905 289.527 155.118C289.527 155.811 289.268 156.244 288.922 156.504C288.749 156.504 288.662 156.591 288.49 156.591ZM282.523 153.125L287.884 156.244C288.23 156.418 288.576 156.504 288.835 156.331C289.181 156.158 289.354 155.724 289.354 155.118C289.354 153.991 288.662 152.605 287.798 152.171L282.436 149.052C282.09 148.878 281.744 148.792 281.485 148.965C281.139 149.138 280.966 149.572 280.966 150.178C281.052 151.305 281.744 152.605 282.523 153.125Z" fill="#42E8E0"/>
<path d="M393.988 176.544C407.322 168.834 424 178.456 424 193.858V245C424 256.045 415.046 265 404 265H315.555C295.1 265 287.836 237.925 305.544 227.686L393.988 176.544Z" fill="#251C72"/>
</g>
<defs>
<linearGradient id="paint0_linear" x1="163.11" y1="116.489" x2="56.9245" y2="180.705" gradientUnits="userSpaceOnUse">
<stop stop-color="#5761D7"/>
<stop offset="0.0725764" stop-color="#5472D8"/>
<stop offset="0.2791" stop-color="#4E9CDB"/>
<stop offset="0.4801" stop-color="#49BDDD"/>
<stop offset="0.6715" stop-color="#45D5DF"/>
<stop offset="0.8493" stop-color="#43E3E0"/>
<stop offset="1" stop-color="#42E8E0"/>
</linearGradient>
<radialGradient id="paint1_radial" cx="0" cy="0" r="1" gradientUnits="userSpaceOnUse" gradientTransform="translate(180.444 227.057) scale(162.837 84.1175)">
<stop stop-color="#42E8E0"/>
<stop offset="0.1176" stop-color="#35B0BC"/>
<stop offset="0.1886" stop-color="#2F93A9"/>
<stop offset="0.2212" stop-color="#2C87A1"/>
<stop offset="0.3379" stop-color="#235F87"/>
<stop offset="0.4585" stop-color="#1C3E72"/>
<stop offset="0.5823" stop-color="#162561"/>
<stop offset="0.7104" stop-color="#121355"/>
<stop offset="0.8456" stop-color="#10084E"/>
<stop offset="1" stop-color="#0F054C"/>
</radialGradient>
<linearGradient id="paint2_linear" x1="213.854" y1="194.083" x2="201.524" y2="193.217" gradientUnits="userSpaceOnUse">
<stop stop-color="#5761D7"/>
<stop offset="0.0725764" stop-color="#5472D8"/>
<stop offset="0.2791" stop-color="#4E9CDB"/>
<stop offset="0.4801" stop-color="#49BDDD"/>
<stop offset="0.6715" stop-color="#45D5DF"/>
<stop offset="0.8493" stop-color="#43E3E0"/>
<stop offset="1" stop-color="#42E8E0"/>
</linearGradient>
<linearGradient id="paint3_linear" x1="208.224" y1="92.7216" x2="206.54" y2="92.6033" gradientUnits="userSpaceOnUse">
<stop stop-color="#5761D7"/>
<stop offset="0.0725764" stop-color="#5472D8"/>
<stop offset="0.2791" stop-color="#4E9CDB"/>
<stop offset="0.4801" stop-color="#49BDDD"/>
<stop offset="0.6715" stop-color="#45D5DF"/>
<stop offset="0.8493" stop-color="#43E3E0"/>
<stop offset="1" stop-color="#42E8E0"/>
</linearGradient>
<linearGradient id="paint4_linear" x1="228.858" y1="157.261" x2="199.338" y2="155.188" gradientUnits="userSpaceOnUse">
<stop stop-color="#5761D7"/>
<stop offset="0.0725764" stop-color="#5472D8"/>
<stop offset="0.2791" stop-color="#4E9CDB"/>
<stop offset="0.4801" stop-color="#49BDDD"/>
<stop offset="0.6715" stop-color="#45D5DF"/>
<stop offset="0.8493" stop-color="#43E3E0"/>
<stop offset="1" stop-color="#42E8E0"/>
</linearGradient>
<linearGradient id="paint5_linear" x1="203.764" y1="119.219" x2="197.355" y2="118.769" gradientUnits="userSpaceOnUse">
<stop stop-color="#5761D7"/>
<stop offset="0.0725764" stop-color="#5472D8"/>
<stop offset="0.2791" stop-color="#4E9CDB"/>
<stop offset="0.4801" stop-color="#49BDDD"/>
<stop offset="0.6715" stop-color="#45D5DF"/>
<stop offset="0.8493" stop-color="#43E3E0"/>
<stop offset="1" stop-color="#42E8E0"/>
</linearGradient>
<linearGradient id="paint6_linear" x1="242.6" y1="188.301" x2="218.305" y2="186.595" gradientUnits="userSpaceOnUse">
<stop stop-color="#5761D7"/>
<stop offset="0.0725764" stop-color="#5472D8"/>
<stop offset="0.2791" stop-color="#4E9CDB"/>
<stop offset="0.4801" stop-color="#49BDDD"/>
<stop offset="0.6715" stop-color="#45D5DF"/>
<stop offset="0.8493" stop-color="#43E3E0"/>
<stop offset="1" stop-color="#42E8E0"/>
</linearGradient>
<linearGradient id="paint7_linear" x1="229.645" y1="177.603" x2="226.566" y2="177.386" gradientUnits="userSpaceOnUse">
<stop stop-color="#5761D7"/>
<stop offset="0.0725764" stop-color="#5472D8"/>
<stop offset="0.2791" stop-color="#4E9CDB"/>
<stop offset="0.4801" stop-color="#49BDDD"/>
<stop offset="0.6715" stop-color="#45D5DF"/>
<stop offset="0.8493" stop-color="#43E3E0"/>
<stop offset="1" stop-color="#42E8E0"/>
</linearGradient>
<linearGradient id="paint8_linear" x1="235.879" y1="171.723" x2="232.816" y2="171.508" gradientUnits="userSpaceOnUse">
<stop stop-color="#5761D7"/>
<stop offset="0.0725764" stop-color="#5472D8"/>
<stop offset="0.2791" stop-color="#4E9CDB"/>
<stop offset="0.4801" stop-color="#49BDDD"/>
<stop offset="0.6715" stop-color="#45D5DF"/>
<stop offset="0.8493" stop-color="#43E3E0"/>
<stop offset="1" stop-color="#42E8E0"/>
</linearGradient>
<linearGradient id="paint9_linear" x1="231.932" y1="143.928" x2="209.712" y2="142.368" gradientUnits="userSpaceOnUse">
<stop stop-color="#5761D7"/>
<stop offset="0.0725764" stop-color="#5472D8"/>
<stop offset="0.2791" stop-color="#4E9CDB"/>
<stop offset="0.4801" stop-color="#49BDDD"/>
<stop offset="0.6715" stop-color="#45D5DF"/>
<stop offset="0.8493" stop-color="#43E3E0"/>
<stop offset="1" stop-color="#42E8E0"/>
</linearGradient>
<linearGradient id="paint10_linear" x1="240.483" y1="9.93776" x2="338.614" y2="179.601" gradientUnits="userSpaceOnUse">
<stop stop-color="#BCBEFF"/>
<stop offset="0.151" stop-color="#A3A7F5"/>
<stop offset="0.3866" stop-color="#8289E8"/>
<stop offset="0.6124" stop-color="#6A73DF"/>
<stop offset="0.8221" stop-color="#5C66D9"/>
<stop offset="1" stop-color="#5761D7"/>
</linearGradient>
<linearGradient id="paint11_linear" x1="327.002" y1="104.646" x2="236.901" y2="93.5949" gradientUnits="userSpaceOnUse">
<stop stop-color="#42E8E0"/>
<stop offset="0.1055" stop-color="#37B6BF"/>
<stop offset="0.2197" stop-color="#2C87A1"/>
<stop offset="0.338" stop-color="#235F87"/>
<stop offset="0.4587" stop-color="#1C3F72"/>
<stop offset="0.5824" stop-color="#162561"/>
<stop offset="0.7105" stop-color="#121355"/>
<stop offset="0.8458" stop-color="#10084E"/>
<stop offset="1" stop-color="#0F054C"/>
</linearGradient>
<radialGradient id="paint12_radial" cx="0" cy="0" r="1" gradientUnits="userSpaceOnUse" gradientTransform="translate(297.247 58.2878) scale(307.092 307.732)">
<stop stop-color="#42E8E0"/>
<stop offset="0.1176" stop-color="#35B0BC"/>
<stop offset="0.1886" stop-color="#2F93A9"/>
<stop offset="0.2212" stop-color="#2C87A1"/>
<stop offset="0.3379" stop-color="#235F87"/>
<stop offset="0.4585" stop-color="#1C3E72"/>
<stop offset="0.5823" stop-color="#162561"/>
<stop offset="0.7104" stop-color="#121355"/>
<stop offset="0.8456" stop-color="#10084E"/>
<stop offset="1" stop-color="#0F054C"/>
</radialGradient>
<clipPath id="clip0">
<rect width="424" height="265" fill="white"/>
</clipPath>
</defs>
</svg>
