<svg width="171" height="202" viewBox="0 0 171 202" fill="none" xmlns="http://www.w3.org/2000/svg">
<g clip-path="url(#clip0)">
<path d="M89.7507 167.818C134.489 167.818 170.756 130.327 170.756 84.0799C170.756 37.8329 134.489 0.342285 89.7507 0.342285C45.0124 0.342285 8.74487 37.8329 8.74487 84.0799C8.74487 130.327 45.0124 167.818 89.7507 167.818Z" fill="#8496B9"/>
<path d="M45.2362 201.741H126.708V158.293L131.47 113.615C131.47 108.479 127.07 105.161 122.463 103.235C114.855 100.025 97.4112 92.855 97.4112 92.855C97.4112 92.855 95.5995 104.198 85.7132 104.198C76.655 104.198 74.274 92.855 74.274 92.855C74.274 92.855 55.7436 99.3293 49.2218 103.235C44.8738 105.804 39.6978 109.281 39.6978 111.689L45.4432 157.865L45.2362 201.741Z" fill="#F99B2D"/>
<path d="M97.3598 92.9083C97.3598 92.9083 96.0658 104.412 85.6101 104.412C75.9308 104.412 74.2227 92.9083 74.2227 92.9083V81.1904H97.3598V92.9083Z" fill="#E78779"/>
<path d="M110.455 67.6533C110.455 76.6959 98.7572 89.1094 85.7652 89.1094C73.2908 89.1094 61.127 78.4081 61.127 67.6533L60.1436 47.7489C60.1436 33.0881 71.6345 21.2632 85.7652 21.2632C99.9477 21.2632 111.387 33.1416 111.387 47.7489L110.455 67.6533Z" fill="#F69583"/>
<path d="M111.439 55.7748C111.956 52.7249 112.215 50.5847 112.215 43.5218C112.215 31.7504 107.35 17.4106 85.7652 17.4106C69.6158 17.4106 59.3672 30.8408 59.3672 45.7156C59.3672 50.2636 59.7295 53.046 60.7647 59.5738C60.7647 59.5738 62.2658 42.4517 65.6303 42.5052C69.6676 42.6122 69.6158 46.7322 81.3138 46.4647C95.1857 46.1436 96.1692 40.4184 100.931 40.3114C103.571 40.2579 104.554 41.5956 105.176 45.0735C106.314 51.0127 105.072 55.1862 109.161 60.0553C109.213 60.1088 110.766 59.4668 111.439 55.7748Z" fill="#5D2610"/>
<path d="M133.489 201.473V201.687H150.518C148.241 171.777 145.549 140.689 143.738 132.289C139.183 111.421 126.708 105.536 126.708 105.536C126.708 105.536 126.812 126.136 126.708 155.992C126.605 173.81 133.489 201.473 133.489 201.473Z" fill="#F99B2D"/>
<path d="M82.4528 73.111C82.5563 73.111 82.7116 73.111 82.8151 73.111C83.0221 73.111 83.1774 72.897 83.1774 72.6829C83.1774 72.4689 82.9704 72.2549 82.7633 72.3084C81.9869 72.3619 81.3658 72.1479 81.314 71.9873C81.2623 71.9338 81.3658 71.6128 82.0387 71.1848C84.0056 69.7936 84.2644 64.9245 84.2644 64.764C84.2644 64.55 84.1091 64.3359 83.9021 64.3359C83.695 64.3359 83.488 64.4965 83.488 64.7105C83.4362 65.9946 82.9704 69.5261 81.6246 70.5427C80.7447 71.1312 80.4341 71.7198 80.5894 72.3084C80.7964 72.8435 81.6246 73.111 82.4528 73.111Z" fill="#071938"/>
<path d="M70.0301 60.0015C69.4608 60.0015 68.8914 60.269 68.5291 60.6971C68.2185 61.0716 68.0632 61.6067 68.0632 62.1417C68.0632 63.2119 68.7361 64.282 70.0301 64.282C70.6513 64.282 71.1689 64.0144 71.5312 63.5864C71.8418 63.2119 72.0488 62.6768 72.0488 62.1417C72.0488 61.0716 71.3242 60.0015 70.0301 60.0015Z" fill="#071938"/>
<path d="M94.8236 60.0015C95.393 60.0015 95.9623 60.269 96.3247 60.6971C96.6352 61.0716 96.7905 61.6067 96.7905 62.1417C96.7905 63.2119 96.1176 64.282 94.8236 64.282C94.2025 64.282 93.6849 64.0144 93.3225 63.5864C93.012 63.2119 92.8049 62.6768 92.8049 62.1417C92.8049 61.0716 93.4778 60.0015 94.8236 60.0015Z" fill="#071938"/>
<path d="M99.5861 54.5975C99.5861 54.5975 97.3604 51.7616 92.3914 53.4738" stroke="#071938" stroke-width="2.1579" stroke-miterlimit="10" stroke-linecap="round" stroke-linejoin="round"/>
<path d="M65.8372 54.5975C65.8372 54.5975 68.0629 51.7616 73.0319 53.4738" stroke="#071938" stroke-width="2.1579" stroke-miterlimit="10" stroke-linecap="round" stroke-linejoin="round"/>
<path d="M75.1026 71.2917C75.1026 73.1109 72.9287 74.609 70.2371 74.609C67.5455 74.609 65.3716 73.1109 65.3716 71.2917C65.3716 69.4724 67.5455 68.0278 70.2371 68.0278C72.9287 67.9743 75.1026 69.4724 75.1026 71.2917Z" fill="#F37784"/>
<path d="M99.5343 71.9873C99.5343 73.8065 97.3603 75.2512 94.6688 75.2512C91.9772 75.2512 89.8032 73.753 89.8032 71.9873C89.8032 70.1681 91.9772 68.6699 94.6688 68.6699C97.3086 68.6699 99.5343 70.1146 99.5343 71.9873Z" fill="#F37784"/>
<path d="M76.1895 77.6055C76.293 81.1904 79.3986 84.0797 83.2289 84.0797C87.0592 84.0797 90.1649 81.1904 90.2684 77.6055H76.1895Z" fill="white"/>
<path d="M13.9209 179.91C13.4033 185.474 14.3867 190.022 21.1674 193.554C25.9812 196.069 34.1594 189.862 36.0228 184.618C38.8696 176.592 44.7186 152.942 44.7186 152.942C45.2362 151.177 44.0457 105.696 42.907 107.408C30.122 126.671 13.9209 179.91 13.9209 179.91Z" fill="#F99B2D"/>
<path d="M114.441 59.895C114.337 62.9984 112.474 65.4061 110.248 65.3526C108.022 65.2456 106.314 62.7308 106.418 59.6275C106.521 56.5776 108.384 54.1163 110.61 54.1698C112.836 54.2768 114.544 56.8451 114.441 59.895Z" fill="#F69583"/>
<path d="M65.32 54.5978C66.4348 54.5978 67.3386 53.6636 67.3386 52.5111C67.3386 51.3586 66.4348 50.4243 65.32 50.4243C64.2051 50.4243 63.3013 51.3586 63.3013 52.5111C63.3013 53.6636 64.2051 54.5978 65.32 54.5978Z" fill="white"/>
<path d="M85.0929 67.8673C86.2078 67.8673 87.1116 66.9331 87.1116 65.7806C87.1116 64.6281 86.2078 63.6938 85.0929 63.6938C83.978 63.6938 83.0742 64.6281 83.0742 65.7806C83.0742 66.9331 83.978 67.8673 85.0929 67.8673Z" fill="white"/>
<path d="M99.4305 56.6847C100.545 56.6847 101.449 55.7505 101.449 54.598C101.449 53.4455 100.545 52.5112 99.4305 52.5112C98.3157 52.5112 97.4119 53.4455 97.4119 54.598C97.4119 55.7505 98.3157 56.6847 99.4305 56.6847Z" fill="white"/>
<path d="M71.4276 86.5949C72.5425 86.5949 73.4463 85.6606 73.4463 84.5081C73.4463 83.3557 72.5425 82.4214 71.4276 82.4214C70.3127 82.4214 69.4089 83.3557 69.4089 84.5081C69.4089 85.6606 70.3127 86.5949 71.4276 86.5949Z" fill="white"/>
<path d="M98.0328 89.8586C99.1477 89.8586 100.051 88.9243 100.051 87.7718C100.051 86.6193 99.1477 85.6851 98.0328 85.6851C96.9179 85.6851 96.0142 86.6193 96.0142 87.7718C96.0142 88.9243 96.9179 89.8586 98.0328 89.8586Z" fill="white"/>
<path d="M71.4279 84.5081L85.0927 65.7808L65.3201 52.5112" stroke="white" stroke-width="1.2003" stroke-miterlimit="10"/>
<path d="M86.0244 67.0649L98.5506 87.772" stroke="white" stroke-width="1.2003" stroke-miterlimit="10"/>
<path d="M98.5505 86.7016L100.052 54.5977" stroke="white" stroke-width="1.2003" stroke-miterlimit="10"/>
<path d="M70.8065 84.5081L64.6987 52.5112L99.4303 54.1164L86.283 65.2458" stroke="white" stroke-width="1.2003" stroke-miterlimit="10"/>
<path d="M72.0488 85.6851L97.2046 87.7718" stroke="white" stroke-width="1.2003" stroke-miterlimit="10"/>
<path d="M126.346 21.1025H40.7334V109.602H126.346V21.1025Z" stroke="white" stroke-width="1.8618" stroke-miterlimit="10"/>
<path d="M114.234 33.623H52.8455V97.0817H114.234V33.623Z" stroke="white" stroke-width="1.8618" stroke-miterlimit="10"/>
<path d="M4.03491 97.3494L62.7835 58.7178L110.455 98.2591L62.7835 135.928L4.03491 97.3494Z" fill="url(#paint0_linear)"/>
<path d="M62.7835 97.3491H4.03491V135.981H62.7835V97.3491Z" fill="#00001E"/>
<path d="M3.67236 136.623L4.44877 140.476H16.5091C14.8527 135.606 13.8693 132.022 14.2316 131.058C15.0598 128.972 16.7161 120.09 16.9231 118.11C18.1136 106.82 6.41569 98.3125 0.463181 119.019C-0.830842 123.621 1.86073 130.042 2.74066 132.717C3.41355 134.376 3.67236 136.623 3.67236 136.623Z" fill="#F69583"/>
<path d="M33.1759 181.836C33.1759 181.836 20.7015 151.444 16.1983 137.426H2.84399L13.8691 186.17C15.0078 191.628 19.8216 195.266 25.7223 193.875C31.0019 192.591 34.3664 187.294 33.1759 181.836Z" fill="#F99B2D"/>
<path d="M109.575 9.06396H110.351" stroke="white" stroke-width="1.468" stroke-linecap="round" stroke-linejoin="round"/>
<path d="M112.473 9.06396H133.384" stroke="white" stroke-width="1.468" stroke-linecap="round" stroke-linejoin="round" stroke-dasharray="3.03 3.03"/>
<path d="M134.42 9.06396H135.196" stroke="white" stroke-width="1.468" stroke-linecap="round" stroke-linejoin="round"/>
<path d="M135.456 10.7227C136.342 10.7227 137.06 9.98005 137.06 9.06397C137.06 8.1479 136.342 7.40527 135.456 7.40527C134.569 7.40527 133.851 8.1479 133.851 9.06397C133.851 9.98005 134.569 10.7227 135.456 10.7227Z" fill="white"/>
<path d="M109.575 10.7227C110.461 10.7227 111.18 9.98005 111.18 9.06397C111.18 8.1479 110.461 7.40527 109.575 7.40527C108.689 7.40527 107.97 8.1479 107.97 9.06397C107.97 9.98005 108.689 10.7227 109.575 10.7227Z" fill="white"/>
<path d="M1.80859 73.1113H2.58501" stroke="white" stroke-width="1.468" stroke-linecap="round" stroke-linejoin="round"/>
<path d="M4.65527 73.1113H25.6184" stroke="white" stroke-width="1.468" stroke-linecap="round" stroke-linejoin="round" stroke-dasharray="3.03 3.03"/>
<path d="M26.6538 73.1113H27.4302" stroke="white" stroke-width="1.468" stroke-linecap="round" stroke-linejoin="round"/>
<path d="M27.6895 74.77C28.5757 74.77 29.2941 74.0274 29.2941 73.1113C29.2941 72.1953 28.5757 71.4526 27.6895 71.4526C26.8034 71.4526 26.085 72.1953 26.085 73.1113C26.085 74.0274 26.8034 74.77 27.6895 74.77Z" fill="white"/>
<path d="M1.80893 74.77C2.69512 74.77 3.41352 74.0274 3.41352 73.1113C3.41352 72.1953 2.69512 71.4526 1.80893 71.4526C0.922744 71.4526 0.204346 72.1953 0.204346 73.1113C0.204346 74.0274 0.922744 74.77 1.80893 74.77Z" fill="white"/>
<path d="M112.319 118.324H140.942V96.333" stroke="white" stroke-width="1.468" stroke-miterlimit="10" stroke-linecap="round" stroke-linejoin="round" stroke-dasharray="2.94 2.94"/>
<path d="M112.888 119.983C113.774 119.983 114.492 119.24 114.492 118.324C114.492 117.408 113.774 116.666 112.888 116.666C112.001 116.666 111.283 117.408 111.283 118.324C111.283 119.24 112.001 119.983 112.888 119.983Z" fill="white"/>
<path d="M140.942 97.9917C141.828 97.9917 142.547 97.2491 142.547 96.333C142.547 95.4169 141.828 94.6743 140.942 94.6743C140.056 94.6743 139.337 95.4169 139.337 96.333C139.337 97.2491 140.056 97.9917 140.942 97.9917Z" fill="white"/>
<path d="M24.4282 36.4058V6.76318H45.7537" stroke="white" stroke-width="1.468" stroke-miterlimit="10" stroke-linecap="round" stroke-linejoin="round" stroke-dasharray="2.94 2.94"/>
<path d="M24.4286 37.4761C25.3148 37.4761 26.0332 36.7335 26.0332 35.8174C26.0332 34.9013 25.3148 34.1587 24.4286 34.1587C23.5424 34.1587 22.824 34.9013 22.824 35.8174C22.824 36.7335 23.5424 37.4761 24.4286 37.4761Z" fill="white"/>
<path d="M45.7542 8.42189C46.6404 8.42189 47.3588 7.67927 47.3588 6.76319C47.3588 5.84712 46.6404 5.10449 45.7542 5.10449C44.8681 5.10449 44.1497 5.84712 44.1497 6.76319C44.1497 7.67927 44.8681 8.42189 45.7542 8.42189Z" fill="white"/>
</g>
<defs>
<linearGradient id="paint0_linear" x1="15.3091" y1="131.528" x2="98.2671" y2="69.1098" gradientUnits="userSpaceOnUse">
<stop stop-color="white" stop-opacity="0"/>
<stop offset="0.3295" stop-color="white" stop-opacity="0"/>
<stop offset="0.5626" stop-color="white" stop-opacity="0"/>
<stop offset="0.6674" stop-color="white" stop-opacity="0.942405"/>
<stop offset="0.6675" stop-color="white" stop-opacity="0"/>
</linearGradient>
<clipPath id="clip0">
<rect width="170.552" height="201.398" fill="white" transform="translate(0.204346 0.342285)"/>
</clipPath>
</defs>
</svg>
