<svg width="200" height="200" viewBox="0 0 200 200" fill="none" xmlns="http://www.w3.org/2000/svg">
<path d="M48.5665 58.3333L69.6998 79.4667L57.9165 91.25L16.6665 50L57.9165 8.75L69.6998 20.5333L48.5665 41.6667H108.333C126.014 41.6667 142.971 48.6905 155.474 61.1929C167.976 73.6953 175 90.6522 175 108.333C175 126.014 167.976 142.971 155.474 155.474C142.971 167.976 126.014 175 108.333 175H33.3332V158.333H108.333C121.594 158.333 134.312 153.066 143.689 143.689C153.065 134.312 158.333 121.594 158.333 108.333C158.333 95.0725 153.065 82.3548 143.689 72.978C134.312 63.6012 121.594 58.3333 108.333 58.3333H48.5665Z" fill="#F2F2F2"/>
</svg>
