<svg width="203" height="227" viewBox="0 0 203 227" fill="none" xmlns="http://www.w3.org/2000/svg">
<path d="M172.626 194.431C146.945 209.872 105.178 209.719 79.2019 194.278C53.3739 178.838 53.2263 153.765 78.9068 138.478C104.587 123.037 146.355 123.19 172.331 138.63C198.159 154.071 198.306 178.991 172.626 194.431Z" fill="#CCCCCC" fill-opacity="0.2"/>
<path d="M190.632 58.5217C189.746 63.8724 187.385 68.9174 183.252 72.4337C179.71 75.4913 173.954 78.396 169.231 78.396C167.46 78.396 165.542 77.7844 163.623 76.8672C160.966 75.6441 158.457 73.6567 156.686 71.6693C154.915 69.529 152.849 67.2358 152.996 64.3311C153.144 61.2735 153.439 58.3688 152.996 55.1583C151.816 44.7625 148.126 34.8254 146.355 24.5825C146.798 19.3846 146.207 13.4223 147.978 8.3773C149.602 3.63804 154.915 0.886217 159.49 0.580459C164.656 0.2747 169.526 2.26213 174.102 4.7082C177.496 6.54275 180.743 8.83593 182.957 12.1993C183.843 13.5752 184.728 14.9511 185.466 16.327C192.255 28.8631 192.846 44.7625 190.632 58.5217Z" fill="#A1602F"/>
<path d="M190.632 58.5218C189.746 63.8726 187.385 68.9176 183.253 72.4338C179.71 75.4914 173.954 78.3961 169.232 78.3961C167.46 78.3961 165.542 77.7846 163.623 76.8673C163.623 76.7144 163.476 76.4087 163.476 76.2558C162.738 71.9752 162.738 67.6945 163.476 63.4139C163.918 60.6621 164.509 58.0632 165.394 55.4642C165.542 55.1585 165.689 54.8527 165.985 54.8527C166.427 50.725 167.018 46.5972 167.46 42.3166C168.198 36.6601 168.936 31.0036 169.527 25.347C169.527 25.1941 169.527 24.5826 169.674 24.4297C170.117 23.9711 172.479 24.124 173.216 24.124C175.725 23.6653 178.234 22.7481 180.301 21.3722C182.219 19.9962 183.99 18.3146 185.319 16.3271C192.255 28.8632 192.846 44.7627 190.632 58.5218Z" fill="#CCCCCC" fill-opacity="0.2"/>
<path d="M174.545 160.339C174.102 160.798 173.659 161.103 173.216 161.562C172.036 162.632 170.855 163.55 169.527 164.62C168.641 165.384 167.756 166.148 166.722 166.76C166.28 167.219 165.689 167.524 165.246 167.983C162.59 169.97 159.933 171.958 157.277 173.792C149.602 179.296 141.632 184.494 132.629 187.093C124.069 189.692 114.919 189.692 106.358 187.399C103.407 186.634 100.602 185.717 97.9458 184.341C95.5844 183.118 93.3706 181.589 91.3043 179.296C87.6146 175.474 85.1056 170.429 83.7773 165.384C82.3014 159.88 81.2683 154.377 80.6779 148.72C80.3827 146.121 79.94 143.675 79.6448 141.076C79.4972 139.7 79.4972 138.324 79.7924 137.101C80.2352 135.114 81.4159 133.279 82.8918 132.056C84.0725 131.139 85.4008 130.681 86.7291 130.375C87.3194 130.222 88.0574 130.069 88.6477 130.069C90.4188 129.763 92.1899 129.457 93.8134 129.152C95.2892 128.846 96.6175 128.234 97.9458 127.776C100.455 126.859 102.816 125.635 103.849 122.884L109.753 116.157C109.31 116.004 108.867 115.698 108.425 115.545C108.425 115.545 108.425 115.545 108.277 115.393C108.572 115.24 109.015 115.24 109.31 115.087C115.214 113.405 120.97 110.959 126.431 107.902C127.021 107.596 127.611 107.29 128.202 106.831C128.644 106.526 129.235 106.22 129.678 105.914C129.973 105.761 130.268 105.608 130.563 105.303C136.614 101.328 142.665 94.7539 146.06 88.1801C148.717 83.288 152.259 78.8545 156.391 75.3383C157.572 74.2681 159.195 73.1979 160.819 73.5037C160.966 76.2555 159.786 78.8545 158.9 81.4534C155.653 90.1675 152.406 99.4932 150.783 108.513C149.602 114.934 151.963 123.342 156.244 128.082C157.867 129.763 159.638 131.292 161.557 132.668C162.737 133.432 163.918 134.197 165.099 135.114C165.394 135.267 165.542 135.42 165.837 135.573C168.789 137.407 172.626 139.242 175.283 141.841C177.201 143.675 178.677 145.663 179.12 148.414C179.12 148.567 179.12 148.567 179.12 148.72C180.301 154.071 177.792 157.281 174.545 160.339Z" fill="#FFD6BF"/>
<path d="M174.545 160.339C174.102 160.798 173.659 161.104 173.216 161.562C172.036 162.633 170.855 163.55 169.527 164.62C168.641 165.384 167.755 166.149 166.722 166.76C166.28 167.219 165.689 167.525 165.246 167.983C162.59 169.971 159.933 171.958 157.277 173.793C149.602 179.296 141.632 184.494 132.629 187.093C124.069 189.692 114.919 189.692 106.358 187.399C103.407 186.635 100.602 185.717 97.9458 184.341C95.5844 183.118 93.3706 181.59 91.3043 179.296C87.6146 175.474 85.1056 170.429 83.7773 165.384C82.3014 159.881 81.2683 154.377 80.6779 148.72C80.3827 146.122 79.94 143.675 79.6448 141.077C79.4972 139.701 79.4972 138.325 79.7924 137.102C80.2352 135.114 81.4159 133.28 82.8918 132.057C84.0725 131.139 85.4008 130.681 86.7291 130.375C86.2863 136.337 88.5001 142.605 92.0423 147.345C96.3224 153.001 102.374 156.823 108.867 159.422C116.394 162.327 124.659 163.703 132.482 162.021C141.632 160.186 149.75 154.683 156.391 147.803C159.933 144.134 163.033 140.006 165.984 135.726C168.936 137.56 172.774 139.395 175.43 141.994C177.349 143.828 178.825 145.816 179.267 148.568C179.267 148.721 179.267 148.72 179.267 148.873C180.301 154.071 177.792 157.282 174.545 160.339Z" fill="#8A5DBE"/>
<path d="M166.427 135.725C163.475 140.006 160.376 143.981 156.834 147.803C155.506 149.179 154.177 150.402 152.701 151.778C152.701 147.191 151.521 142.758 149.455 138.63C145.027 130.375 136.614 124.871 133.515 116.004L127.021 108.054C127.611 107.749 128.202 107.443 128.792 106.984C129.235 106.678 129.825 106.373 130.268 106.067C130.563 105.914 130.858 105.761 131.153 105.455C137.205 101.481 143.256 94.9067 146.65 88.3329C149.307 83.4408 152.849 79.0073 156.982 75.4911C158.162 74.4209 159.786 73.3508 161.409 73.6565C161.557 76.4084 160.376 79.0073 159.491 81.6063C156.244 90.3204 152.997 99.646 151.373 108.666C150.192 115.087 152.554 123.495 156.834 128.234C158.457 129.916 160.229 131.445 162.147 132.821C163.328 133.585 164.509 134.35 165.689 135.267L166.427 135.725Z" fill="#FFC6A6"/>
<path d="M145.469 120.744C143.994 122.578 142.518 124.566 140.599 126.094C132.924 132.821 121.708 134.197 111.967 134.35C107.244 134.35 102.373 134.35 97.6506 133.28C94.6988 132.668 91.8946 131.598 89.238 130.375C91.3043 130.069 93.3705 129.458 95.4368 128.693C98.9789 127.47 102.816 126.859 104.292 122.884L110.196 116.157C109.753 116.004 109.31 115.699 108.867 115.546C109.163 115.393 109.458 115.24 109.753 115.087C110.786 114.628 111.819 114.17 112.705 113.711C116.542 111.877 120.232 109.736 123.921 107.749C125.545 106.832 126.578 105.761 128.497 105.303C130.268 104.844 132.039 104.691 133.81 104.386C135.729 104.08 137.5 103.468 139.418 102.857C144.141 101.328 147.536 99.3405 150.34 95.0599C151.521 93.2253 152.554 91.2379 153.439 89.2505C153.734 94.907 153.144 100.716 151.816 106.22C151.373 107.902 150.93 109.583 150.488 111.112C150.045 112.641 149.602 114.17 148.864 115.546C147.978 117.38 146.798 119.062 145.617 120.591L145.469 120.744Z" fill="#FFEFE6"/>
<path d="M168.198 81.3006C167.017 92.3079 156.981 101.634 146.355 101.634C145.765 101.634 145.174 101.634 144.584 101.939C144.141 102.245 143.698 102.551 143.403 103.009C138.237 109.736 133.515 117.38 125.84 120.896C123.331 122.119 120.527 122.731 117.723 123.342H117.575C112.852 124.26 107.982 125.024 103.259 125.483H103.111C100.602 125.788 97.9456 125.941 95.4366 125.788C91.4517 125.483 87.4668 124.413 84.8102 121.355C82.4488 118.909 82.4488 116.004 82.006 112.794C80.9729 105.456 79.7922 97.9644 79.0542 90.6262C78.9066 89.0974 78.759 87.7215 78.6115 86.1927C78.3163 81.7592 78.0211 77.1729 78.759 72.8922C79.0542 71.5163 79.3494 70.1404 79.7922 68.7645C80.0874 68.153 80.2349 67.5415 80.5301 66.93C80.6777 66.7771 80.8253 66.4713 80.8253 66.3184C81.4156 65.2483 82.006 64.331 82.3012 63.2609C82.5964 62.4965 82.744 61.5792 82.744 60.8148C82.744 58.9802 81.8584 57.2986 81.7108 55.6169C81.7108 55.0054 81.8584 54.3939 82.006 53.6295C82.3012 52.7122 82.5964 51.7949 83.0391 50.8776L92.6324 29.3217L104.292 24.5824C111.967 22.4421 119.641 20.1489 127.611 20.1489C135.581 20.1489 143.846 22.4421 149.454 28.4044C155.801 35.1311 157.424 45.0682 156.391 54.3939C156.243 56.0755 155.948 57.7572 155.653 59.4389C154.62 63.8724 153.292 68.153 152.849 72.7394C152.701 73.6566 152.701 74.7268 153.439 75.4912C154.029 76.1027 155.063 76.2556 155.948 76.1027C158.014 75.9498 159.933 75.1854 161.999 75.0326C164.066 74.8797 166.279 75.6441 167.313 77.4786C168.346 78.3959 168.346 79.9247 168.198 81.3006Z" fill="#FFD6BF"/>
<path d="M82.8915 79.6191C82.5964 83.2882 81.7108 87.1102 79.497 90.0149C79.3494 90.1678 79.2018 90.3207 79.0542 90.4735C78.9066 88.9447 78.759 87.5688 78.6115 86.04C78.3163 81.6066 78.0211 77.0202 78.759 72.7396C79.0542 71.3636 79.3494 69.9877 79.7922 68.6118C81.2681 69.8349 82.1536 71.6694 82.5964 73.6568C83.0391 75.6443 83.0391 77.6317 82.8915 79.6191Z" fill="#FFF4F2"/>
<path d="M97.5026 100.716C97.355 100.869 97.355 101.175 97.355 101.328C97.355 101.328 97.355 101.328 97.355 101.481C97.355 101.481 97.355 101.481 97.355 101.634C97.5026 101.786 97.5026 101.939 97.6502 102.092C97.7977 102.245 97.9453 102.245 98.0929 102.245H98.2405C98.2405 102.245 98.2405 102.245 98.2405 102.092C98.3881 101.786 98.5357 101.481 98.3881 101.175C98.2405 100.869 98.0929 100.716 97.7977 100.716C97.6502 100.563 97.5026 100.563 97.5026 100.716Z" fill="#944F06"/>
<path d="M84.0728 66.4715C83.7776 65.0956 83.3348 63.7197 82.7445 62.3438C82.7445 62.1909 82.5969 62.1909 82.5969 62.1909C82.4493 64.0255 83.0397 66.0129 84.0728 67.5417V66.4715Z" fill="#252C05"/>
<path d="M119.199 75.4915C119.494 75.1857 119.937 75.0328 120.232 74.7271C120.527 74.5742 120.674 74.2684 120.822 74.1156C120.97 73.8098 120.822 73.504 120.822 73.1983V73.0454H120.674C120.232 73.0454 119.789 73.1983 119.494 73.504C119.051 73.8098 118.903 74.2684 118.756 74.7271C118.608 75.1857 118.313 75.6443 118.018 75.9501C117.723 76.2559 117.428 76.4087 116.985 76.5616C116.099 77.0203 115.214 77.326 114.328 77.6318C113.885 77.7847 113.59 77.9375 113.147 78.0904C113.885 77.7847 114.623 77.7846 115.361 77.4789C116.542 77.0203 117.723 76.5616 118.903 75.7972C118.903 75.7972 119.051 75.6443 119.199 75.4915Z" fill="#252C05"/>
<path d="M168.198 81.3007C167.017 92.308 157.129 101.634 146.355 101.634C145.765 101.634 145.027 101.634 144.584 101.939C144.141 102.245 143.698 102.551 143.403 103.01C138.238 109.736 133.515 117.38 125.84 120.896C123.331 122.119 120.527 122.731 117.723 123.343C120.527 122.425 123.331 121.049 125.545 118.909C130.415 114.476 132.777 107.902 134.4 101.481C135.581 97.0473 136.319 92.6138 136.614 88.1803C137.057 78.0903 134.253 68.1531 134.105 58.0631C133.957 48.4317 139.713 40.1763 147.388 35.1312C147.536 34.9784 147.831 34.8255 147.978 34.9784C148.274 35.1312 148.274 35.437 148.421 35.7428C148.716 38.1888 149.307 40.6349 150.045 43.081C150.487 44.6097 151.668 45.8328 152.406 47.2087C153.734 49.6548 155.21 51.9479 156.686 54.2411C156.539 55.9228 156.243 57.6045 155.948 59.2861C155.063 63.7196 153.587 68.0003 153.144 72.5866C152.996 73.5039 152.996 74.5741 153.734 75.3385C154.325 75.95 155.358 76.1029 156.243 75.95C158.31 75.7971 160.228 75.0327 162.295 75.0327C164.361 74.8798 166.575 75.6442 167.608 77.4788C168.346 78.396 168.346 79.9248 168.198 81.3007Z" fill="#FFC6A6"/>
<path d="M89.2378 60.3562C88.057 59.4389 86.5812 58.5216 84.9577 58.6745C84.3673 58.6745 83.777 58.8274 83.3342 59.286C82.7438 60.0504 82.8914 61.1206 83.3342 61.885C83.9246 62.9551 84.6625 63.108 85.6956 63.4138C88.9426 63.5666 92.0419 65.4012 94.1082 68.0001C93.5178 64.9426 91.5992 62.3436 89.2378 60.3562Z" fill="#B7B494"/>
<path d="M92.3372 70.7522C90.4186 68.6119 88.2047 66.7774 85.5481 65.7072L83.0391 63.5669C82.8915 64.9428 83.4819 66.3187 84.2198 67.5417C84.8102 68.459 85.4006 69.3763 86.2861 69.9878C87.9096 71.2109 90.1234 71.5166 92.1897 71.6695C92.3372 71.6695 92.4848 71.6695 92.4848 71.6695C92.6324 71.5166 92.6324 71.3637 92.6324 71.2109C92.4848 71.058 92.3372 70.9051 92.3372 70.7522Z" fill="#B7B494"/>
<path d="M93.8137 70.1403C93.8137 70.2932 93.8137 70.2932 93.8137 70.4461C93.8137 70.599 93.6661 70.599 93.6661 70.599C92.0427 71.5163 90.124 71.2105 88.5005 70.4461C88.3529 70.4461 88.3529 70.4461 88.2053 70.2932C87.0246 69.6817 85.9915 68.9173 85.106 67.8472C84.8108 67.3885 84.5156 66.9299 84.0729 66.4712C83.6301 65.7069 83.3349 64.9425 82.8921 64.1781C82.3018 62.8021 84.6632 62.6493 86.1391 62.8022C86.5819 62.8022 86.877 62.8022 87.0246 62.8022C87.9102 62.8022 88.7957 63.1079 89.5336 63.4137C90.2716 63.7194 90.862 64.1781 91.3047 64.7896C91.7475 65.2482 92.0427 65.8597 92.3378 66.4712C93.0758 67.5414 93.5186 68.7644 93.8137 70.1403Z" fill="white"/>
<path d="M91.1566 69.0703C90.5663 70.1404 89.3856 70.5991 88.3524 70.4462C88.2049 70.4462 88.2049 70.4462 88.0573 70.2933C86.8766 69.6818 85.8434 68.9174 84.9579 67.8473C84.6627 66.93 84.5151 66.0127 84.5151 65.0954C84.5151 64.6368 84.6627 64.0253 84.8103 63.7195C85.1055 63.2609 85.5483 62.9551 86.1386 62.8022C86.5814 62.8022 86.8766 62.8022 87.0241 62.8022C87.9097 62.8022 88.7952 63.108 89.5332 63.4138C89.6807 63.5666 89.9759 63.7195 90.1235 64.0253C90.5663 64.6368 91.009 65.2483 91.3042 66.0127C91.747 66.93 91.747 68.153 91.1566 69.0703Z" fill="#944F06"/>
<path d="M90.5663 63.2609C89.3855 62.4965 87.7621 62.0378 86.2862 61.885C85.5482 61.885 84.6627 61.885 83.9248 61.885C83.3344 61.885 82.5964 61.7321 82.3013 61.2734C82.4489 61.885 82.5965 62.4965 82.744 63.108C82.744 63.108 82.744 63.2609 82.8916 63.2609C83.0392 63.4138 83.1868 63.2609 83.1868 63.2609C84.8103 62.8022 86.5814 62.8022 88.0572 63.4137C89.6807 63.8724 91.009 64.9425 92.3373 66.0127C92.6325 66.3185 92.9277 66.4713 93.0753 66.7771C92.7801 65.4012 91.8946 64.1781 90.5663 63.2609Z" fill="#252C05"/>
<path d="M99.1261 84.5109C100.012 86.0397 100.307 88.3329 99.8641 90.0146C99.4213 91.8491 97.7978 93.3779 96.0267 92.9193C94.846 92.6135 93.8129 91.6963 92.6322 91.0847C90.8611 90.3204 88.7949 90.779 86.7286 91.0847C85.8431 91.2376 84.9576 91.2376 84.072 90.9319C83.1865 90.6261 82.5961 89.8617 82.4485 88.9444C82.4485 88.18 82.7437 87.5685 83.1865 86.957C84.2196 85.2753 85.4003 83.5937 86.581 82.0649C88.0569 80.0774 89.5328 78.09 91.0087 76.1026C91.8943 74.8796 92.9274 73.6565 93.5177 72.1277C94.2557 70.4461 94.4033 68.6115 94.4033 66.9299C94.4033 65.4011 94.2557 63.5665 93.9605 62.1906C93.5177 60.6618 92.6322 59.2859 91.7467 58.2157C91.3039 57.6042 90.7135 57.1456 90.1232 56.5341C89.828 56.2283 88.4997 55.7697 88.3521 55.311C89.9756 58.8273 92.9274 60.6618 93.075 64.7895C93.2226 68.3058 91.5991 70.9047 89.828 73.8094C87.9093 77.0199 85.8431 80.0775 83.6293 83.135C82.4485 84.8167 80.9727 86.6513 80.9727 88.7916C80.9727 89.4031 81.1202 90.1675 81.4154 90.779C81.8582 91.5434 82.7437 91.8491 83.6293 92.002C84.81 92.1549 85.8431 91.8491 87.0238 91.5434C88.4997 91.2376 89.9756 90.9319 91.3039 91.3905C93.5177 92.002 95.2888 94.1423 97.5026 93.8366C99.4213 93.5308 100.602 91.5434 100.75 89.7088C100.897 88.0272 100.159 86.1926 99.1261 84.5109Z" fill="#FFC6A6"/>
<path d="M86.1382 51.4893C85.4003 51.1836 84.6623 50.8778 83.7768 50.7249C83.1864 50.5721 82.7437 51.1836 82.4485 51.7951C82.3009 51.948 82.1533 52.2537 82.1533 52.5595C82.1533 53.0181 82.1533 53.7825 82.5961 54.0883C83.0389 54.394 83.4816 54.6998 83.9244 55.0055C84.8099 55.6171 85.6955 56.2286 86.7286 56.8401C87.6141 57.2987 91.3038 59.439 91.1563 57.1459C91.1563 56.6872 91.0087 56.2286 90.7135 55.7699C89.6804 53.9354 88.0569 52.4066 86.1382 51.4893Z" fill="#333333"/>
<path d="M120.231 59.7445C119.641 59.4388 119.051 58.9801 118.313 58.9801C115.656 58.9801 112.852 58.6744 110.195 58.6744C108.719 58.6744 107.391 58.5215 105.915 58.5215C104.587 58.5215 102.373 59.5916 102.668 61.2733C102.816 62.1906 103.406 62.6492 104.292 62.6492C104.734 62.6492 105.325 62.6492 105.768 62.6492C107.834 62.4963 109.752 61.8848 111.671 61.7319C117.279 61.2733 122.445 64.0251 127.463 66.3183C128.349 66.6241 129.529 66.9298 130.267 67.5414C128.791 66.4712 120.822 60.2032 120.231 59.7445Z" fill="#333333"/>
<path d="M178.381 64.484C177.201 75.9499 173.363 88.3331 164.656 95.8242C161.114 98.8818 157.129 101.481 152.553 102.551C151.963 102.704 151.52 102.704 150.93 102.551C150.487 102.398 150.044 101.787 150.192 101.175C150.487 100.411 151.52 99.4933 151.963 98.8818C152.701 97.8117 153.439 96.7415 154.029 95.5185C154.472 94.6012 154.62 93.3782 153.882 92.6138C153.587 92.308 153.144 92.1551 152.701 92.1551C151.963 92.1551 151.373 92.308 150.782 92.6138C150.044 92.9195 149.306 93.3782 149.011 94.1426C148.716 94.7541 148.716 95.3656 148.569 95.9771C147.683 95.2127 147.535 93.9897 147.093 92.9195C146.65 91.6965 146.059 90.6263 145.617 89.4033C144.584 86.9572 143.698 84.5112 143.108 82.0651C141.927 77.4787 141.632 72.7395 141.337 68.1531C141.041 64.0254 140.451 59.8976 140.156 55.9228C140.008 52.2537 139.566 49.1961 140.894 45.6799C142.075 42.7752 143.846 40.0233 145.026 37.1186C144.879 37.1186 144.584 37.2715 144.436 37.2715C139.861 38.4945 134.99 38.6474 130.415 37.7301C124.659 36.5071 119.198 33.6024 113.442 32.838C110.195 32.3794 106.948 32.5323 103.849 32.9909C98.5358 33.6024 93.2226 34.9783 89.0901 38.4945C91.1563 35.1312 91.5991 31.0035 93.8129 27.793C94.6985 26.4171 95.8792 25.1941 96.9123 23.971C103.554 16.3271 112.409 10.6705 121.855 7.91871C124.069 7.30719 126.135 6.69568 128.349 6.23704C137.057 5.014 146.059 6.23704 154.029 10.059C157.719 11.7407 161.114 14.0339 164.213 16.6328C166.574 18.6202 168.641 21.2192 170.412 23.971C173.659 29.016 176.02 35.1312 177.496 40.482C179.415 48.2788 179.267 56.3814 178.381 64.484Z" fill="#B17242"/>
<path d="M178.382 64.4841C177.201 75.95 173.364 88.3333 164.656 95.8243C161.114 98.8819 157.129 101.481 152.554 102.551C151.963 102.704 151.52 102.704 150.93 102.551C150.487 102.398 150.045 101.787 150.192 101.175C150.487 100.411 151.52 99.4934 151.963 98.8819C152.701 97.8118 153.439 96.7416 154.029 95.5186C154.472 94.6013 154.62 93.3783 153.882 92.6139C153.587 92.3081 153.144 92.1552 152.701 92.1552C151.963 92.1552 151.373 92.3081 150.783 92.6139C150.045 92.9196 149.307 93.3783 149.011 94.1427C148.716 94.7542 148.716 95.3657 148.569 95.9772C147.683 95.2128 147.536 93.9898 147.093 92.9196C146.65 91.6966 146.06 90.6264 145.617 89.4034C144.584 86.9573 143.698 84.5113 143.108 82.0652C141.927 77.4788 141.632 72.7396 141.337 68.1532C141.042 64.0255 140.451 59.8977 140.156 55.9229C140.009 52.2538 139.566 49.1962 140.894 45.6799C142.075 42.7752 143.846 40.0234 145.027 37.1187C144.879 37.1187 144.584 37.2716 144.436 37.2716L144.731 36.9658C148.864 38.036 153.144 37.1187 156.981 35.2842C160.671 33.4496 163.918 30.5449 167.017 27.6402C168.198 26.4172 169.231 25.347 170.412 24.2769C173.659 29.3219 176.02 35.437 177.496 40.7878C179.415 48.2789 179.267 56.3815 178.382 64.4841Z" fill="#CCCCCC" fill-opacity="0.2"/>
<path d="M119.493 73.8097C119.198 74.1155 118.903 74.2684 118.755 74.4212C118.608 74.5741 118.313 74.8799 118.165 74.8799C117.87 75.0327 117.575 75.1856 117.279 75.3385L112.261 76.2558C111.966 76.2558 111.671 76.2558 111.376 76.2558C110.786 76.2558 110.343 75.95 109.752 75.7971C109.162 75.6443 108.719 75.7971 108.129 75.4914C107.096 75.0327 106.063 74.2684 105.325 73.504C105.472 73.6568 105.62 73.9626 105.62 74.1155C105.767 74.2684 105.915 74.5741 106.063 74.727C106.358 75.1856 106.653 75.4914 106.948 75.95C107.539 76.7144 108.424 77.3259 109.162 77.6317C109.605 77.7846 110.048 77.9375 110.638 78.0903C113.442 78.549 116.541 77.7846 118.755 75.7971C119.05 75.4914 119.493 75.1856 119.788 74.727C120.084 74.2684 120.379 73.8097 120.526 73.3511C120.526 73.3511 120.231 73.504 120.231 73.6568C119.788 73.6568 119.641 73.6568 119.493 73.8097Z" fill="#B7B494"/>
<path d="M112.115 67.5416C114.476 67.3887 116.985 68.306 119.051 69.529C120.232 70.2934 121.413 71.2107 121.56 72.7395C121.56 73.351 121.265 73.8096 120.822 73.9625C120.084 74.2683 119.346 74.4211 118.608 74.2683C118.313 74.2683 118.018 74.1154 117.87 74.1154C117.575 74.1154 117.428 74.1154 117.133 74.1154C115.804 73.9625 114.624 73.6567 113.295 73.5039C110.786 73.0452 108.13 72.7395 105.621 73.6567C105.916 72.8923 106.211 72.1279 106.654 71.3636C107.244 70.2934 108.13 69.3761 109.163 68.7646C109.753 68.0002 110.934 67.6945 112.115 67.5416Z" fill="#B7B494"/>
<path d="M119.936 73.9624C120.526 74.421 115.361 77.02 115.066 77.1728C114.77 77.1728 114.623 77.3257 114.328 77.3257C112.557 77.6315 110.638 77.3257 108.867 76.5613C107.391 75.9498 106.21 74.7268 105.325 73.3509C106.653 72.8922 107.243 71.6692 108.572 71.2106C108.867 71.0577 109.014 71.0577 109.31 70.9048C110.49 70.599 111.671 70.4462 112.852 70.599C113.885 70.7519 114.918 71.0577 115.804 71.3634C117.279 72.1278 118.608 73.0451 119.936 73.9624Z" fill="white"/>
<path d="M116.099 72.8922C116.247 73.9623 115.952 75.0325 115.509 75.9498C115.214 76.5613 114.771 77.0199 114.181 77.3257C112.41 77.6314 110.491 77.3257 108.72 76.5613C108.572 76.4084 108.425 76.1026 108.277 75.9498C107.834 75.1854 107.687 74.1152 107.834 73.1979C107.982 72.4335 108.425 71.5163 109.163 71.0576C110.343 70.7519 111.524 70.599 112.705 70.7519C113.738 70.9047 114.771 71.2105 115.657 71.5163C115.952 71.9749 116.099 72.4335 116.099 72.8922Z" fill="#944F06"/>
<path d="M81.8586 102.092C81.8586 101.939 81.8586 101.786 81.8586 101.634C81.7112 101.786 81.7112 101.939 81.8586 102.092Z" fill="#A6A6A6"/>
<path d="M89.8287 101.634C89.6811 101.481 89.386 101.481 89.0908 101.481C88.648 101.481 88.3528 101.787 87.9101 101.787C87.0245 101.787 86.7294 100.564 85.8438 100.258C85.401 99.9521 84.8107 100.105 84.2203 100.105C83.63 100.258 83.0396 100.411 82.4493 100.411C82.0065 100.411 81.7113 100.105 81.2686 99.9521C81.4161 101.175 81.5637 102.398 81.7113 103.621C81.8589 104.844 82.1541 106.067 82.5969 107.29C84.0727 110.195 87.3197 111.571 90.4191 111.571C91.4522 111.571 92.6329 111.418 93.666 111.112C94.6992 110.807 95.5847 110.195 96.1751 109.431C96.913 108.513 97.651 107.749 98.2413 106.679C97.0606 106.679 96.0275 106.22 94.9943 105.762C93.9612 105.303 92.9281 104.539 92.0426 103.774C91.4522 103.163 90.7143 102.857 90.1239 102.245C90.1239 101.787 89.9763 101.634 89.8287 101.634Z" fill="#FF5C5C"/>
<path d="M88.2045 104.844C88.3521 104.844 88.4996 104.844 88.6472 104.844C89.09 104.844 89.2376 105.302 89.5328 105.455C89.9755 105.761 90.4183 106.067 90.8611 106.373C91.599 106.678 92.1894 106.831 93.0749 106.984C93.5177 106.984 93.9604 107.137 94.4032 107.137C94.5508 107.137 94.846 107.137 94.9936 107.137C95.1412 107.137 95.2887 107.137 95.2887 107.137C94.4032 107.29 93.5177 107.137 92.6321 107.137C91.7466 106.984 90.8611 106.831 89.9755 106.526C88.9424 106.22 88.0569 105.761 87.0238 105.455C86.581 105.302 86.1382 105.302 85.6955 104.997C85.4003 104.844 85.2527 104.538 84.9575 104.385C84.5147 103.927 83.9244 103.621 83.4816 103.315C83.1864 103.162 83.0389 102.856 82.8913 102.704C82.7437 102.398 82.5961 102.092 82.4485 101.786C82.4485 101.633 82.3009 101.328 82.1533 101.328C82.4485 101.633 82.5961 101.939 82.8913 102.092C83.1864 102.398 83.6292 102.704 84.072 102.856C84.3672 103.009 84.6623 103.162 84.9575 103.315C85.1051 103.468 85.2527 103.621 85.4003 103.774C85.6955 104.232 86.1382 104.691 86.7286 104.844C87.4665 105.15 87.9093 104.997 88.2045 104.844Z" fill="#FF0000"/>
<path d="M166.427 76.867C166.279 76.7142 165.984 76.5613 165.836 76.5613C164.361 75.9498 162.59 75.9498 160.966 76.2555C158.752 76.7142 156.538 77.7843 154.767 79.3131C154.325 79.6189 154.029 79.9246 153.734 80.3833C152.996 81.3005 152.406 82.8293 152.111 84.0524C151.52 86.8042 150.487 89.4031 149.307 92.0021C148.716 93.2251 148.126 94.1424 147.388 95.2125C146.65 96.2827 145.912 97.6586 145.764 99.0345C145.764 99.3403 145.764 99.7989 145.912 100.105C146.207 100.716 147.24 100.869 147.831 101.022C148.569 101.175 149.454 101.328 150.34 101.175C151.963 101.175 153.734 100.716 155.21 99.9518C157.572 99.0345 159.785 97.6586 161.704 95.9769C162.442 95.3654 163.18 94.601 163.918 93.9895C165.394 92.6136 166.722 90.9319 167.46 89.0974C168.346 87.11 168.641 84.8168 168.493 82.5236C168.493 80.2304 168.198 78.0901 166.427 76.867Z" fill="#FFD6BF"/>
<path d="M152.701 95.9772C152.554 95.6714 152.406 95.3657 152.111 95.2128C151.963 95.0599 151.521 94.7542 151.226 94.7542C150.488 94.6013 149.75 94.4484 149.012 94.7542C148.421 94.907 147.979 95.2128 147.536 95.8243C147.241 96.1301 147.241 96.5887 147.093 97.0473C146.945 97.8117 146.945 98.5761 147.241 99.1876C147.536 99.7992 148.126 100.258 148.717 100.564C149.307 100.869 150.045 100.869 150.783 100.716C151.373 100.564 151.816 100.411 152.259 99.952C152.554 99.4934 152.701 99.0348 152.849 98.4233C153.144 97.506 152.997 96.7416 152.701 95.9772Z" fill="#FF5C5C"/>
<path d="M151.078 95.9769C150.93 95.824 150.783 95.6711 150.635 95.5182C150.488 95.3654 150.34 95.2125 150.045 95.2125C149.602 95.2125 149.159 95.0596 148.717 95.2125C148.274 95.3654 147.979 95.5182 147.831 95.824C147.683 96.1298 147.683 96.2826 147.536 96.5884C147.536 97.047 147.536 97.5057 147.683 97.9643C147.831 98.4229 148.274 98.7287 148.717 98.8816C149.159 99.0345 149.602 99.0345 150.045 98.8816C150.34 98.8816 150.783 98.7287 150.93 98.4229C151.226 98.1172 151.226 97.8114 151.226 97.5057C151.373 96.8942 151.226 96.2826 151.078 95.9769Z" fill="#FFBABA"/>
<path d="M164.656 79.6188C163.918 79.0073 162.885 78.7015 161.852 78.8544C160.819 79.0073 159.933 79.313 159.048 79.6188C157.719 80.2303 156.391 80.8418 155.21 81.6062L153.144 83.4408C154.62 82.5235 156.243 81.6062 157.867 80.8418C158.9 80.3832 159.933 79.9245 161.114 79.9245C162.295 79.9245 163.475 80.2303 164.213 80.9947C164.656 81.4533 164.951 82.2177 165.246 82.9821C165.542 84.2052 165.542 85.4282 165.099 86.6512C165.542 85.4282 165.984 84.2052 166.132 82.9821C165.984 81.7591 165.542 80.5361 164.656 79.6188Z" fill="#FFC6A6"/>
<path d="M151.373 90.3205C150.635 90.932 150.045 91.8493 150.192 92.7665C150.192 92.9194 150.192 93.2252 150.34 93.2252C150.487 93.3781 150.635 93.3781 150.783 93.3781C151.816 93.5309 152.849 92.9194 153.882 92.6137C155.358 92.155 156.981 92.0021 158.457 91.5435C159.933 90.932 161.261 89.709 161.409 88.0273C161.409 87.11 161.114 86.3456 160.671 85.5812C159.785 83.8995 156.981 81.1477 155.505 83.7467C154.767 84.8168 154.915 86.0399 154.472 87.2629C153.734 88.7917 152.406 89.4032 151.373 90.3205Z" fill="#FFC6A6"/>
<path d="M93.2228 91.5437C94.1084 92.0024 94.8463 92.6139 95.4367 93.3783C94.8463 93.684 93.9608 93.684 93.2228 93.684C92.3373 93.5311 89.3855 93.5311 89.3855 92.1552C89.3855 90.4736 92.4849 91.0851 93.2228 91.5437Z" fill="#FFC6A6"/>
<path d="M87.614 98.423C87.4664 98.7288 86.876 99.6461 87.3188 99.9518C87.4664 99.9518 87.614 99.9518 87.7616 99.9518C88.0567 99.9518 88.2043 100.105 88.2043 100.41C88.2043 100.563 88.2043 100.716 88.3519 100.869H88.4995C88.7947 100.869 88.9423 100.563 89.0899 100.41C89.2375 100.105 89.2375 99.9518 89.2375 99.6461C89.5326 97.6586 89.0899 95.5183 88.9423 93.5309C88.9423 93.378 88.9423 93.0723 88.6471 93.0723C88.3519 94.2953 88.2043 95.5183 87.9092 96.8942C87.9092 97.2 87.7616 97.8115 87.614 98.423Z" fill="#FFC6A6"/>
<path d="M92.3371 113.711C91.7468 112.794 90.7136 112.335 89.8281 112.03C88.795 111.724 87.6143 111.724 86.7287 111.418C85.6956 111.112 84.9577 110.806 83.9245 111.265C83.6294 111.418 83.039 111.571 82.7438 111.877C82.4487 112.335 83.3342 112.641 83.7769 112.641C83.9245 112.641 84.0721 112.641 84.2197 112.641C84.6625 112.641 84.9577 112.488 85.4004 112.488C87.1715 112.182 89.2377 112.488 90.7136 113.711C91.304 114.17 91.8943 114.781 92.6323 114.934C92.7799 114.934 92.9275 114.934 93.0751 114.934C93.0751 114.628 92.4847 113.864 92.3371 113.711Z" fill="#FFC6A6"/>
<path d="M106.359 98.8816C108.13 101.481 109.753 104.385 110.048 107.596C110.196 104.997 109.163 102.398 107.982 100.258C106.654 97.9643 105.178 95.9769 103.997 93.5308C102.964 91.3905 102.374 88.9445 101.045 86.957C101.045 88.7916 101.931 91.2376 102.669 92.9193C103.702 94.9067 105.03 96.8942 106.359 98.8816Z" fill="#FFC6A6"/>
<path d="M95.4363 125.789C97.9453 125.789 100.602 125.636 103.111 125.483C100.749 125.789 98.0929 125.942 95.4363 125.789Z" fill="#FFC6A6"/>
<path d="M108.868 72.4338C108.425 73.1982 108.573 74.2684 109.015 75.0328C109.163 75.3386 109.458 75.6443 109.753 75.7972C110.048 75.9501 110.491 76.103 110.786 76.103C111.229 76.103 111.672 75.9501 111.967 75.6443C112.705 75.0328 112.853 73.8098 112.557 72.8925C112.557 72.7396 112.41 72.4338 112.262 72.281C111.967 71.8223 111.672 71.5166 111.229 71.3637C110.786 71.2108 110.491 71.2108 110.048 71.3637C109.606 71.5166 109.31 71.5166 109.015 71.8223C108.868 72.1281 108.72 72.4338 108.72 72.8925C108.573 73.8098 108.72 74.5742 109.163 75.3386C109.31 75.4914 109.31 75.6443 109.458 75.6443L108.868 72.4338Z" fill="#252C05"/>
<path d="M89.0903 65.2486C89.0903 65.0957 88.9427 64.7899 88.7951 64.637C88.4999 64.1784 88.2048 63.8727 87.9096 63.7198C87.6144 63.5669 87.1716 63.5669 86.7289 63.5669C86.2861 63.5669 85.9909 63.7198 85.6957 64.0255C85.4006 64.1784 85.253 64.637 85.253 64.9428V65.0957C85.1054 65.7072 85.253 66.4716 85.5481 67.236L85.6957 67.3889C85.6957 67.3889 85.6957 67.3889 85.8433 67.5417L85.9909 67.6946C85.9909 67.6946 85.9909 67.8475 86.1385 67.8475C86.2861 67.8475 86.2861 68.0004 86.4337 68.0004C86.7289 68.1533 87.1716 68.3061 87.4668 68.459C87.9096 68.459 88.3523 68.459 88.6475 68.1533C89.2379 67.236 89.3855 66.1658 89.0903 65.2486Z" fill="#252C05"/>
<path d="M90.1236 64.9427C90.1236 64.7898 90.1236 64.7898 89.976 64.6369C89.8284 64.484 89.6808 64.3311 89.5332 64.1783C89.3856 64.0254 89.238 64.0254 89.0905 64.0254C88.9429 64.0254 88.7953 64.0254 88.6477 64.1783C88.5001 64.3311 88.5001 64.484 88.5001 64.6369C88.3525 64.9427 88.5001 65.2484 88.6477 65.5542C88.6477 65.5542 88.6477 65.5542 88.6477 65.7071C88.6477 65.7071 88.6477 65.7071 88.7953 65.8599C88.7953 65.8599 88.7953 65.8599 88.9429 66.0128C89.0905 66.1657 89.238 66.1657 89.3856 66.1657C89.5332 66.1657 89.8284 66.1657 89.976 66.0128C90.1236 65.8599 90.2712 65.4013 90.1236 64.9427Z" fill="white"/>
<path d="M89.5334 67.0832V66.9303C89.5334 66.7774 89.3858 66.7774 89.2382 66.6245C89.0906 66.6245 89.0906 66.6245 88.943 66.6245C88.7954 66.6245 88.7954 66.6245 88.6478 66.7774C88.6478 66.7774 88.5002 66.9303 88.5002 67.0832C88.5002 67.236 88.5002 67.5418 88.6478 67.6947C88.7954 67.6947 88.7954 67.8475 88.943 67.8475C89.0906 67.8475 89.2382 67.8476 89.2382 67.6947C89.5334 67.6947 89.681 67.3889 89.5334 67.0832Z" fill="white"/>
<path d="M111.524 72.4338C111.229 72.8924 111.376 73.3511 111.671 73.8097C111.819 73.9626 111.967 74.1155 112.114 74.2683C112.262 74.4212 112.557 74.4212 112.705 74.4212C113 74.4212 113.147 74.2683 113.295 74.1155C113.59 73.8097 113.738 73.1982 113.59 72.5867C113.59 72.4338 113.443 72.4338 113.443 72.2809C113.295 72.128 113.147 71.8223 112.852 71.8223C112.705 71.8223 112.409 71.8223 112.262 71.8223C112.114 71.8223 111.819 71.9751 111.671 72.128C111.524 72.2809 111.524 72.4338 111.376 72.5867C111.229 73.0453 111.376 73.5039 111.671 73.9626L111.819 74.1155L111.524 72.4338Z" fill="white"/>
<path d="M111.819 74.8795C111.672 75.1853 111.672 75.4911 111.819 75.6439C111.819 75.7968 111.967 75.7968 112.114 75.7968C112.262 75.7968 112.41 75.9497 112.41 75.9497C112.557 75.9497 112.705 75.9497 112.852 75.7968C113 75.6439 113.147 75.1853 113 74.8795C113 74.8795 113 74.7267 112.852 74.7267C112.852 74.5738 112.705 74.5738 112.557 74.4209C112.41 74.4209 112.262 74.4209 112.114 74.4209C111.967 74.4209 111.819 74.4209 111.819 74.5738C111.819 74.7267 111.819 74.8795 111.819 74.8795C111.672 75.1853 111.819 75.4911 111.967 75.7968C111.967 75.7968 111.967 75.9497 112.114 75.9497L111.819 74.8795Z" fill="white"/>
<path d="M110.048 70.2934C110.49 70.1406 111.081 69.9877 111.671 69.8348C113.147 69.6819 114.77 70.1406 116.099 70.7521C117.575 71.3636 118.903 72.128 120.379 72.5866C122.002 73.0453 123.773 73.1982 125.397 73.0453C124.806 73.351 124.069 73.8097 123.331 73.9625C121.264 74.5741 119.198 73.6568 117.279 72.8924C115.361 71.9751 113.442 71.0578 111.376 71.0578C109.9 71.0578 108.572 71.6694 107.243 72.2809C106.653 72.5866 105.915 72.8924 105.325 73.1981C105.915 72.7395 106.358 72.128 106.948 71.8222C107.243 71.6694 107.539 71.3636 107.834 71.2107C108.424 70.905 109.014 70.5992 109.605 70.2934C109.752 70.4463 109.9 70.2934 110.048 70.2934Z" fill="#252C05"/>
<path d="M121.117 70.7519C121.265 70.599 121.413 70.4462 121.413 70.1404C121.265 70.1404 121.265 70.2933 121.117 70.2933C121.265 70.1404 121.413 69.9875 121.56 69.6818C120.97 69.9875 120.379 70.2933 119.642 70.2933C119.642 70.2933 119.642 70.1404 119.789 70.1404C119.642 70.1404 119.642 70.1404 119.494 70.2933L119.642 70.1404C119.346 70.2933 119.199 70.4462 118.904 70.599C119.346 69.9875 119.642 69.376 120.084 68.7645C119.494 69.376 118.608 69.9875 117.87 70.2933C117.87 70.1404 118.018 69.8346 118.018 69.6818C118.018 69.5289 117.87 69.5289 117.723 69.5289C117.575 69.5289 117.428 69.6818 117.428 69.6818C117.723 69.0703 118.166 68.4587 118.461 67.8472C118.018 68.4587 117.428 69.0702 116.837 69.376C116.837 69.0702 116.837 68.9174 116.837 68.6116C116.69 68.7645 116.542 68.9174 116.247 69.0702C116.542 68.6116 116.542 68.153 116.542 67.6943C116.542 68.3059 116.395 68.7645 115.952 69.2231C115.657 69.6818 115.214 69.9875 114.771 70.2933C114.033 70.7519 113 71.2106 112.115 70.9048L115.657 71.975C116.837 72.5865 117.87 73.198 119.199 73.3509C120.379 73.5038 121.855 73.198 122.593 72.2807C123.184 71.6692 123.479 70.7519 124.069 70.1404C123.184 70.4462 122.151 70.7519 121.117 70.7519Z" fill="#252C05"/>
<path d="M84.8103 60.9677C84.6627 60.8149 84.5152 60.662 84.3676 60.5091C84.5152 60.8149 84.6627 61.1206 84.9579 61.4264C84.5152 61.1206 84.22 60.8149 83.7772 60.3562C83.7772 60.662 83.9248 60.9677 84.22 61.1206C83.7772 60.8149 83.1869 60.3562 82.8917 59.8976C82.8917 59.7447 82.7441 59.7447 82.7441 59.5918C82.8917 60.0505 83.0393 60.5091 83.3344 60.8149C82.8917 60.5091 82.3013 60.0505 82.0061 59.5918C81.8586 59.2861 81.5634 59.1332 81.4158 58.8274C81.2682 58.6745 81.2682 58.5217 81.2682 58.3688C81.2682 58.2159 81.1206 58.063 81.1206 57.9102C81.1206 59.7447 82.3013 61.4264 83.9248 62.0379L84.3676 62.1908C84.9579 62.1908 85.4007 62.1908 85.991 62.1908C86.1386 62.1908 86.4338 62.1908 86.5814 62.1908C86.729 62.1908 86.8766 62.1908 87.0242 62.1908H87.3194C86.8766 61.885 86.2862 61.4264 85.8435 60.9677C85.6959 60.8149 85.5483 60.662 85.4007 60.662C85.5483 60.9677 85.6959 61.1206 85.8435 61.2735C85.6959 61.2735 85.4007 61.1206 85.2531 60.9677C85.1055 61.2735 84.9579 61.1206 84.8103 60.9677Z" fill="#252C05"/>
<path d="M174.545 160.339C174.102 160.798 173.659 161.104 173.216 161.562C172.036 162.632 170.855 163.55 169.527 164.62C168.641 165.384 167.755 166.149 166.722 166.76C166.28 167.219 165.689 167.525 165.246 167.983C162.59 169.971 159.933 171.958 157.277 173.793C149.602 179.296 141.632 184.494 132.629 187.093C124.069 189.692 114.919 189.692 106.358 187.399C103.407 186.634 100.602 185.717 97.9458 184.341C104.145 186.023 110.491 187.093 116.837 186.787C128.202 186.176 139.418 180.978 146.207 171.652C150.34 165.996 152.554 158.81 152.406 151.625C153.882 150.402 155.21 149.026 156.539 147.65C160.081 143.981 163.18 139.853 166.132 135.573C169.231 137.713 172.478 139.7 175.578 141.841C177.496 143.675 178.972 145.663 179.415 148.415C179.415 148.567 179.415 148.567 179.415 148.72C180.301 154.071 177.792 157.282 174.545 160.339Z" fill="#CCCAB8"/>
<path d="M175.873 141.994C172.773 139.853 169.526 137.866 166.427 135.726C169.379 137.56 173.068 139.548 175.873 141.994Z" fill="#B7B494"/>
<path d="M122.888 81.7593C121.708 82.0651 120.527 82.3708 119.494 82.8295C118.166 83.2881 116.837 83.8996 115.804 84.8169C112.852 86.8043 110.196 90.4734 110.196 94.2954C110.196 95.8242 110.639 97.353 111.672 98.2703C112.262 98.8818 113 99.3404 113.886 99.6462C117.87 101.328 122.593 99.7991 126.283 97.5059C129.087 95.6713 131.301 93.0724 131.891 89.709C132.187 87.7216 131.596 84.5111 130.268 82.9824C128.94 81.4536 126.726 81.3007 124.807 81.6064C123.922 81.4536 123.331 81.6064 122.888 81.7593Z" fill="#FFF4F2"/>
<path d="M90.4187 125.33L81.5633 121.049V120.743L75.8074 74.4209L81.4158 66.0126L79.2019 52.2535L90.4187 34.6724L126.135 35.4368L141.78 49.043V49.1959L148.569 92.3078L135.729 112.794L112.705 123.342L90.4187 125.33ZM82.4489 120.285L90.5663 124.26L112.705 122.425L135.138 112.182L147.536 92.3078L140.747 49.8074L125.692 36.6598L90.8615 35.8954L80.235 52.5592L82.4489 66.1655L76.8405 74.7267L82.4489 120.285Z" fill="white"/>
<path d="M139.423 87.8581C139.423 89.6247 138.229 90.1547 136.865 89.4481C135.5 88.5647 134.306 86.6214 134.306 84.8548C134.306 83.0881 135.5 82.5581 136.865 83.2648C138.229 84.1481 139.423 86.0914 139.423 87.8581Z" fill="white"/>
<path d="M101.635 53.3238C101.635 54.8526 100.602 55.3113 99.4216 54.6998C98.2409 53.9354 97.2078 52.2537 97.2078 50.7249C97.2078 49.1961 98.2409 48.7375 99.4216 49.349C100.602 50.1134 101.635 51.7951 101.635 53.3238Z" fill="white"/>
<path d="M89.5336 87.8746C89.5336 89.4034 88.5005 89.8621 87.3198 89.2505C86.1391 88.4861 85.106 86.8045 85.106 85.2757C85.106 83.7469 86.1391 83.2883 87.3198 83.8998C88.5005 84.6642 89.5336 86.3458 89.5336 87.8746Z" fill="white"/>
<path d="M81.5629 77.9371C81.5629 79.4659 80.5298 79.9246 79.3491 79.313C78.1684 78.5487 77.1353 76.867 77.1353 75.3382C77.1353 73.8094 78.1684 73.3508 79.3491 73.9623C80.6774 74.7267 81.5629 76.4083 81.5629 77.9371Z" fill="white"/>
<path d="M116.394 114.934C116.394 116.463 115.361 116.922 114.18 116.31C113 115.546 111.967 113.864 111.967 112.335C111.967 110.806 113 110.348 114.18 110.959C115.361 111.724 116.394 113.405 116.394 114.934Z" fill="white"/>
<path d="M90.1235 119.368C90.1235 120.897 89.0904 121.355 87.9096 120.744C86.7289 119.979 85.6958 118.298 85.6958 116.769C85.6958 115.24 86.7289 114.781 87.9096 115.393C89.2379 116.004 90.1235 117.839 90.1235 119.368Z" fill="white"/>
<path d="M87.4668 118.603L86.8765 87.416L99.2739 51.0308L129.382 75.6443L114.476 114.017H114.18L87.4668 118.603ZM87.762 87.5689L88.3524 117.38L113.59 113.1L127.906 75.9501L99.7167 52.8653L87.762 87.5689Z" fill="white"/>
<path d="M127.705 73.685L87.343 86.4785L87.6453 87.5018L128.007 74.7083L127.705 73.685Z" fill="white"/>
<path d="M99.1111 51.5111L98.1121 51.7837L114.051 114.465L115.05 114.193L99.1111 51.5111Z" fill="white"/>
<path d="M128.243 74.3342L86.9963 118.51L87.7389 119.254L128.986 75.0781L128.243 74.3342Z" fill="white"/>
<path d="M86.8762 87.8746L77.5781 75.3386L98.9785 51.0308L99.7165 51.7952L78.9064 75.4914L87.7618 87.1102L86.8762 87.8746Z" fill="white"/>
<path d="M78.3691 75.6783L77.3647 75.9287L87.242 118.437L88.2464 118.186L78.3691 75.6783Z" fill="white"/>
<path d="M1.86548 114.17L5.55521 112.183C6.14556 111.877 7.0311 111.724 7.76904 112.183L49.8319 134.35L50.2747 134.503C51.603 135.267 52.4885 136.49 52.6361 138.019V138.172L60.0156 221.797C60.1632 222.714 59.5728 223.326 58.9825 223.784L55.4403 225.772V223.02L15.5913 202.075C14.263 201.311 13.3774 200.088 13.2298 198.559L6.58833 135.114L4.81726 116.31L4.52208 116.463L1.86548 114.17Z" fill="#999999"/>
<path d="M1.86548 114.17L5.55521 112.183C6.14556 111.877 7.0311 111.724 7.76904 112.183L49.9795 134.503L45.4043 137.102L6.58833 135.114L4.81726 116.31L4.52208 116.463L1.86548 114.17Z" fill="white"/>
<path d="M44.9617 137.255L49.9797 134.35L50.4225 134.503C51.7508 135.267 52.6363 136.49 52.7839 138.019V138.172L47.7659 141.23L44.9617 137.255Z" fill="#F2F2F2"/>
<path d="M56.6209 223.937C56.7685 225.619 54.9974 226.689 53.374 225.772L41.4192 219.504L10.8683 203.451C9.54 202.687 8.65446 201.464 8.50687 199.935L7.76893 191.68L5.4075 166.302L3.63643 145.969L1.42259 120.591L0.979828 116.157C0.832238 114.476 2.60331 113.405 4.22679 114.323L44.371 135.42L47.0276 136.796C48.3559 137.56 49.2415 138.783 49.3891 140.312L49.6842 143.37L51.3077 161.562L53.5215 186.94L55.2926 207.273L56.6209 223.937Z" fill="#CCCCCC"/>
<path d="M54.5542 225.008C54.4066 225.008 54.1114 225.008 53.9638 224.855L11.3106 202.381C10.2774 201.77 9.5395 200.853 9.5395 199.782L2.01245 116.005C2.01245 115.699 2.01245 115.546 2.16004 115.393C2.45522 115.24 2.7504 115.087 3.04557 115.087C3.19316 115.087 3.48834 115.087 3.63593 115.24L46.2892 137.714C47.3223 138.325 48.0602 139.242 48.0602 140.312L55.4397 224.09C55.4397 224.396 55.4397 224.549 55.2921 224.702C55.1445 224.855 54.8493 225.008 54.5542 225.008Z" fill="#808080"/>
<path d="M11.9015 201.464C11.1635 201.158 10.7208 200.394 10.7208 199.782L3.34131 116.31L45.9946 138.783C46.7325 139.089 47.1753 139.853 47.1753 140.465L54.4071 223.937L11.9015 201.464Z" fill="#CCCCCC"/>
<path d="M26.2171 139.548C25.7743 139.548 25.3315 139.395 24.8888 138.936C23.1177 137.713 21.7894 134.961 21.937 132.668C22.0846 131.292 22.6749 130.528 23.7081 130.528C24.1508 130.528 24.5936 130.681 25.0364 131.139C26.8074 132.362 28.1357 135.114 27.9881 137.407C27.8405 138.783 27.1026 139.701 26.2171 139.548Z" fill="#575757"/>
<path d="M26.2169 139.241C25.7742 139.241 25.3314 139.088 24.8886 138.783C23.1176 137.56 21.9369 134.961 22.0845 132.82C22.0845 131.597 22.6748 130.986 23.4128 130.986C23.4128 130.986 23.4128 130.986 23.5603 130.986C24.0031 130.986 24.2983 131.139 24.7411 131.444C26.5121 132.668 27.6928 135.266 27.5452 137.407C27.5452 138.63 26.9549 139.241 26.2169 139.241Z" fill="#4666B3"/>
<path d="M26.3649 138.478C25.9221 138.478 25.6269 138.325 25.3318 138.019C23.8559 137.102 22.8227 134.809 22.9703 133.127C22.9703 132.21 23.4131 131.598 24.0034 131.598C24.2986 131.598 24.7414 131.751 25.0366 132.057C26.5125 132.974 27.5456 135.267 27.398 136.949C27.398 137.866 26.9552 138.478 26.3649 138.478Z" fill="#6B6EB6"/>
<path d="M26.5122 137.713C26.5122 137.713 26.3646 137.713 26.5122 137.713C26.217 137.713 25.9218 137.56 25.6267 137.407C24.446 136.643 23.708 134.961 23.708 133.433C23.708 132.668 24.1508 132.209 24.5935 132.209C24.8887 132.209 25.1839 132.362 25.4791 132.515C26.6598 133.28 27.3977 134.961 27.3977 136.49C27.2502 137.255 26.955 137.713 26.5122 137.713Z" fill="#9076B9"/>
<path d="M26.5121 136.796C26.2169 136.796 26.0693 136.643 25.9217 136.49C25.0362 135.878 24.4458 134.655 24.4458 133.585C24.4458 132.974 24.741 132.668 25.0362 132.668C25.1837 132.668 25.4789 132.821 25.6265 132.974C26.5121 133.585 27.1024 134.808 27.1024 135.878C27.25 136.49 26.9548 136.796 26.5121 136.796Z" fill="#B57DBD"/>
<path d="M26.6599 136.032C26.5123 136.032 26.3647 136.032 26.2171 135.879C25.6268 135.573 25.184 134.656 25.3316 133.891C25.3316 133.586 25.4792 133.28 25.7743 133.28C25.9219 133.28 26.0695 133.28 26.2171 133.433C26.8075 133.738 27.2502 134.656 27.1027 135.42C27.1027 135.879 26.9551 136.032 26.6599 136.032Z" fill="#DA85C0"/>
<path d="M26.8076 135.267C26.8076 135.267 26.6601 135.267 26.6601 135.114C26.3649 134.961 26.2173 134.503 26.2173 134.197C26.2173 134.044 26.3649 133.891 26.3649 133.891C26.3649 133.891 26.5125 133.891 26.5125 134.044C26.8076 134.197 26.9552 134.656 26.9552 134.961C26.9552 135.114 26.9552 135.267 26.8076 135.267Z" fill="#FF8DC3"/>
<path d="M26.8076 138.171C26.3648 138.171 26.0696 138.018 25.7744 137.713C24.2985 136.795 23.2654 134.502 23.413 132.82C23.413 131.903 23.8558 131.292 24.5937 131.292C24.2985 131.139 23.8558 130.986 23.5606 130.986C23.5606 130.986 23.5606 130.986 23.413 130.986C22.6751 130.986 22.0847 131.75 22.0847 132.82C21.9371 134.961 23.2654 137.56 24.8889 138.783C25.3317 139.088 25.7744 139.241 26.0696 139.241C26.0696 139.241 26.0696 139.241 26.2172 139.241C26.8076 139.241 27.3979 138.783 27.5455 137.865C27.3979 138.171 27.1027 138.171 26.8076 138.171Z" fill="#474747"/>
<path d="M27.5452 137.408C27.5452 137.866 27.3976 138.325 27.25 138.631L26.2169 139.242C25.7741 139.242 25.4789 139.089 25.0362 138.783C24.8886 138.631 24.741 138.478 24.4458 138.325L27.5452 136.337C27.5452 136.796 27.5452 137.102 27.5452 137.408Z" fill="#4D4D4D"/>
<path d="M27.5453 136.031L24.1508 138.172C24.0032 138.019 23.8556 137.866 23.708 137.56L27.2501 135.267C27.3977 135.573 27.3977 135.879 27.5453 136.031Z" fill="#4D4D4D"/>
<path d="M26.8076 138.936C26.3648 138.936 25.922 138.783 25.4793 138.477C23.7082 137.254 22.5275 134.655 22.6751 132.515C22.6751 131.75 22.9702 131.292 23.2654 130.986C22.6751 131.139 22.2323 131.75 22.0847 132.82C21.9371 134.961 23.2654 137.56 24.8889 138.783C25.3317 139.088 25.7744 139.241 26.0696 139.241C26.0696 139.241 26.0696 139.241 26.2172 139.241C26.5124 139.241 26.8076 139.088 26.9551 138.936H26.8076Z" fill="url(#paint0_linear)"/>
<path d="M24.7411 134.044C24.5935 134.044 24.446 134.044 24.446 133.891C24.0032 133.585 23.708 132.974 23.708 132.362C23.708 132.057 23.8556 131.904 24.0032 131.904C24.1508 131.904 24.1508 131.904 24.2984 132.057C24.7411 132.362 25.0363 132.974 25.0363 133.585C25.1839 133.891 25.0363 134.044 24.7411 134.044Z" fill="#666666"/>
<path d="M25.3311 134.503H25.1835C24.8883 134.35 24.7407 134.044 24.7407 133.738C24.7407 133.585 24.8883 133.433 24.8883 133.433H25.0359C25.3311 133.586 25.4787 133.891 25.4787 134.197C25.4787 134.35 25.3311 134.503 25.3311 134.503Z" fill="#666666"/>
<path d="M24.4456 133.279C24.2983 133.126 24.1509 132.973 24.1509 132.821C24.1509 132.821 24.1509 132.668 24.2983 132.668C24.2983 132.668 24.2983 132.668 24.4456 132.668C24.593 132.821 24.593 132.973 24.4456 133.279C24.593 133.279 24.593 133.279 24.4456 133.279Z" fill="#666666"/>
<path d="M26.9551 149.026C26.5123 149.026 26.0696 148.873 25.6268 148.415C23.8557 147.192 22.5274 144.44 22.675 142.147C22.8226 140.771 23.413 140.006 24.4461 140.006C24.8889 140.006 25.3316 140.159 25.7744 140.618C27.5455 141.841 28.8738 144.593 28.7262 146.886C28.7262 148.262 27.9882 149.026 26.9551 149.026Z" fill="#575757"/>
<path d="M27.1029 148.567C26.6602 148.567 26.2174 148.414 25.7746 148.108C24.0036 146.885 22.8228 144.286 22.9704 142.146C22.9704 140.923 23.5608 140.312 24.2987 140.312C24.2987 140.312 24.2987 140.312 24.4463 140.312C24.8891 140.312 25.1843 140.464 25.627 140.77C27.3981 141.993 28.5788 144.592 28.4312 146.732C28.4312 147.955 27.8409 148.567 27.1029 148.567Z" fill="#4666B3"/>
<path d="M27.2509 147.803C27.2509 147.803 27.1033 147.803 27.2509 147.803C26.8081 147.803 26.5129 147.65 26.2177 147.344C24.7418 146.427 23.7087 144.134 23.8563 142.452C23.8563 141.535 24.2991 140.923 24.8894 140.923C25.1846 140.923 25.6274 141.076 25.9226 141.382C27.3984 142.299 28.4316 144.592 28.284 146.274C28.284 147.191 27.8412 147.803 27.2509 147.803Z" fill="#6B6EB6"/>
<path d="M27.2502 147.039C26.9551 147.039 26.6599 146.886 26.3647 146.733C25.184 145.969 24.446 144.287 24.446 142.758C24.446 141.994 24.8888 141.535 25.3316 141.535C25.6268 141.535 25.9219 141.688 26.2171 141.841C27.3978 142.605 28.1358 144.287 28.1358 145.816C28.1358 146.58 27.8406 147.039 27.2502 147.039Z" fill="#9076B9"/>
<path d="M27.398 146.274C27.1029 146.274 26.9553 146.121 26.8077 145.968C25.9221 145.357 25.3318 144.134 25.3318 143.064C25.3318 142.452 25.627 142.146 25.9221 142.146C26.0697 142.146 26.3649 142.299 26.5125 142.452C27.398 143.064 27.9884 144.287 27.9884 145.357C27.9884 145.816 27.8408 146.274 27.398 146.274Z" fill="#B57DBD"/>
<path d="M27.5461 145.357C27.3985 145.357 27.2509 145.357 27.1033 145.204C26.513 144.898 26.0702 143.981 26.2178 143.216C26.2178 142.911 26.3654 142.605 26.6606 142.605C26.8082 142.605 26.9558 142.605 27.1033 142.758C27.6937 143.064 28.1365 143.981 27.9889 144.745C27.9889 145.204 27.8413 145.357 27.5461 145.357Z" fill="#DA85C0"/>
<path d="M27.6931 144.593C27.6931 144.593 27.5456 144.593 27.5456 144.44C27.2504 144.287 27.1028 143.828 27.1028 143.523C27.1028 143.37 27.2504 143.217 27.2504 143.217C27.2504 143.217 27.398 143.217 27.398 143.37C27.6931 143.523 27.8407 143.981 27.8407 144.287C27.8407 144.44 27.6931 144.593 27.6931 144.593Z" fill="#FF8DC3"/>
<path d="M27.6928 147.65C27.25 147.65 26.9549 147.497 26.6597 147.191C25.1838 146.274 24.1507 143.981 24.2983 142.299C24.2983 141.382 24.741 140.77 25.479 140.77C25.1838 140.617 24.741 140.464 24.4459 140.464C24.4459 140.464 24.4459 140.464 24.2983 140.464C23.5603 140.464 22.97 141.229 22.97 142.299C22.8224 144.439 24.1507 147.038 25.7742 148.261C26.2169 148.567 26.6597 148.72 26.9549 148.72C26.9549 148.72 26.9549 148.72 27.1025 148.72C27.6928 148.72 28.2832 148.261 28.4308 147.344C28.1356 147.497 27.988 147.65 27.6928 147.65Z" fill="#474747"/>
<path d="M28.4312 146.733C28.4312 147.192 28.2836 147.651 28.136 147.956L27.1029 148.568C26.6601 148.568 26.3649 148.415 25.9221 148.109C25.7746 147.956 25.627 147.803 25.3318 147.651L28.4312 145.663C28.4312 146.122 28.4312 146.427 28.4312 146.733Z" fill="#4D4D4D"/>
<path d="M28.2837 145.51L25.0368 147.65C24.8892 147.497 24.7416 147.345 24.594 147.039L28.1361 144.746C28.2837 144.898 28.2837 145.204 28.2837 145.51Z" fill="#4D4D4D"/>
<path d="M27.6928 148.414C27.6928 148.414 27.5452 148.414 27.6928 148.414C27.25 148.414 26.8073 148.261 26.3645 147.955C24.5934 146.732 23.4127 144.133 23.5603 141.993C23.5603 141.229 23.8555 140.77 24.1507 140.464C23.5603 140.617 23.1176 141.229 22.97 142.299C22.8224 144.439 24.1507 147.038 25.7742 148.261C26.2169 148.567 26.6597 148.72 26.9549 148.72C26.9549 148.72 26.9549 148.72 27.1025 148.72C27.3976 148.72 27.6928 148.567 27.8404 148.414H27.6928Z" fill="url(#paint1_linear)"/>
<path d="M25.6271 143.37C25.4795 143.37 25.3319 143.37 25.3319 143.217C24.8892 142.911 24.594 142.3 24.594 141.688C24.594 141.382 24.7416 141.229 24.8892 141.229C25.0368 141.229 25.0368 141.229 25.1843 141.382C25.6271 141.688 25.9223 142.3 25.9223 142.911C25.9223 143.217 25.7747 143.37 25.6271 143.37Z" fill="#666666"/>
<path d="M26.0701 143.828H25.9225C25.6273 143.676 25.4797 143.37 25.4797 143.064C25.4797 142.911 25.6273 142.758 25.6273 142.758H25.7749C26.0701 142.911 26.2177 143.217 26.2177 143.523C26.3653 143.828 26.2177 143.828 26.0701 143.828Z" fill="#666666"/>
<path d="M25.3316 142.604C25.1843 142.452 25.0369 142.299 25.0369 142.146C25.0369 142.146 25.0369 141.994 25.1843 141.994C25.1843 141.994 25.1843 141.994 25.3316 141.994C25.3316 142.299 25.479 142.452 25.3316 142.604C25.479 142.604 25.479 142.604 25.3316 142.604Z" fill="#666666"/>
<path d="M16.0339 148.873C17.5098 149.638 18.2477 151.014 18.3953 152.542L18.5429 153.918C18.6905 155.6 18.2477 156.212 16.7718 155.447L15.8863 154.988L16.4767 159.269L15.4435 158.81L14.1152 147.956L16.0339 148.873ZM16.6242 154.377C17.3622 154.836 17.6574 154.53 17.5098 153.46L17.3622 152.084C17.2146 151.014 16.9194 150.402 16.1815 150.096L15.1484 149.638L15.7387 154.071L16.6242 154.377Z" fill="#808080"/>
<path d="M20.4609 156.976L21.0512 161.868L20.0181 161.41L18.8374 150.402L19.8705 150.861L20.4609 155.753L22.6747 156.976L22.0844 152.084L23.1175 152.543L24.4458 163.397L23.4127 162.938L22.8223 158.046L20.4609 156.976Z" fill="#808080"/>
<path d="M24.2988 155.753C24.1512 154.071 24.594 153.307 26.0699 154.071C27.3982 154.836 28.2837 156.212 28.4313 157.893L29.1693 163.55C29.3169 165.232 28.8741 165.996 27.3982 165.232C26.0699 164.467 25.1844 163.091 25.0368 161.41L24.2988 155.753ZM26.0699 162.021C26.2175 163.091 26.6603 163.703 27.3982 164.161C28.1362 164.62 28.4313 164.161 28.2837 163.091L27.5458 157.282C27.3982 156.365 26.9554 155.6 26.2175 155.142C25.4795 154.836 25.1844 155.142 25.332 156.212L26.0699 162.021Z" fill="#808080"/>
<path d="M31.3828 167.219L30.4972 166.76L29.1689 155.906L30.4972 156.517L33.5966 165.537L32.5635 157.74L33.449 158.199L34.7773 169.053L33.7442 168.442L30.3497 158.352L31.3828 167.219Z" fill="#808080"/>
<path d="M38.1723 165.078L38.3199 166.148L36.106 164.925L36.5488 168.747L39.2054 170.123L39.353 171.193L35.6633 169.206L34.335 158.352L38.0247 160.339L38.1723 161.409L35.5157 160.033L35.9584 163.702L38.1723 165.078Z" fill="#808080"/>
<path d="M56.6211 223.937C56.7687 225.619 54.9977 226.689 53.3742 225.772L41.4195 219.504L7.76914 191.833L5.40771 166.302L55.1452 207.121L56.6211 223.937Z" fill="white" fill-opacity="0.2"/>
<path d="M53.374 186.94L3.63644 145.969L1.42261 120.591L51.1601 161.41L53.374 186.94Z" fill="white" fill-opacity="0.2"/>
<path d="M53.5219 154.377C53.3743 154.224 53.3743 154.224 53.2267 154.071C53.0791 154.071 52.9315 154.071 52.7839 154.071L51.7508 154.683C51.4556 154.836 51.1605 155.294 51.3081 155.753L52.046 164.008C52.046 164.161 52.046 164.314 52.1936 164.314C52.3412 164.467 52.3412 164.467 52.4888 164.62C52.6364 164.62 52.7839 164.62 52.9315 164.62L53.9646 164.008C54.2598 163.856 54.555 163.397 54.4074 162.938L53.6695 154.683C53.6695 154.53 53.6695 154.377 53.5219 154.377Z" fill="#666666"/>
<path d="M53.9645 154.682C53.9645 154.682 53.8169 154.835 53.5217 154.988L54.2596 163.09C54.2596 163.396 54.112 163.855 53.8169 164.008L54.112 163.855L53.0789 164.466L53.2265 164.772L53.0789 165.078L52.4886 164.772C52.341 164.772 52.341 164.619 52.341 164.466L51.603 156.211C51.603 155.905 51.7506 155.599 51.8982 155.447L52.9313 154.835C53.0789 154.835 53.0789 154.835 53.2265 154.835L53.9645 154.682Z" fill="#E6E6E6"/>
<path d="M53.9637 154.682C53.9637 154.682 53.8161 154.835 53.5209 154.988V155.599C53.3733 155.752 53.2258 155.905 53.2258 155.905L52.4878 155.294L51.8975 154.988L52.9306 154.376C53.0782 154.376 53.0782 154.376 53.2258 154.376L53.9637 154.682Z" fill="#515159"/>
<path d="M53.9637 154.682C53.9637 154.682 53.8161 154.835 53.5209 154.988V155.599C53.3733 155.752 53.2258 155.905 53.2258 155.905L52.4878 155.294L51.8975 154.988L52.9306 154.376C53.0782 154.376 53.0782 154.376 53.2258 154.376L53.9637 154.682Z" fill="#CCCCCC"/>
<path d="M54.2602 163.55L53.2271 164.161L53.3747 164.467L53.2271 164.773L52.6368 164.467C52.4892 164.467 52.4892 164.314 52.4892 164.161L51.7512 155.906L52.3416 156.212L54.4078 159.881C54.2602 159.881 54.4078 161.868 54.2602 163.55Z" fill="#515159"/>
<path d="M54.2602 163.55L53.2271 164.161L53.3747 164.467L53.2271 164.773L52.6368 164.467C52.4892 164.467 52.4892 164.314 52.4892 164.161L51.7512 155.906L52.3416 156.212L54.4078 159.881C54.2602 159.881 54.4078 161.868 54.2602 163.55Z" fill="#F2F2F2"/>
<path d="M54.5552 164.161L53.522 164.773C53.2268 164.925 53.0793 164.773 53.0793 164.467L52.3413 156.211C52.3413 155.906 52.4889 155.447 52.7841 155.294L53.8172 154.683C54.1124 154.53 54.26 154.683 54.26 154.988L54.9979 163.244C54.9979 163.55 54.8503 164.008 54.5552 164.161Z" fill="#808080"/>
<path d="M52.6362 143.37C52.4886 143.217 52.4886 143.217 52.341 143.064C52.1934 143.064 52.0458 143.064 51.8982 143.064L50.8651 143.675C50.5699 143.828 50.2747 144.287 50.4223 144.746L51.1603 153.001C51.1603 153.154 51.1603 153.307 51.3078 153.307C51.4554 153.46 51.4554 153.46 51.603 153.613C51.7506 153.613 51.8982 153.613 52.0458 153.613L53.0789 153.001C53.3741 152.848 53.6693 152.39 53.5217 151.931L52.7837 143.675C52.7837 143.523 52.6362 143.37 52.6362 143.37Z" fill="#666666"/>
<path d="M52.9308 143.675C52.9308 143.675 52.7832 143.828 52.488 143.981L53.2259 152.083C53.2259 152.389 53.0784 152.848 52.7832 153L53.0784 152.848L52.0452 153.459L52.1928 153.765L52.0452 154.071L51.4549 153.765C51.3073 153.765 51.3073 153.612 51.3073 153.459L50.5693 145.204C50.5693 144.898 50.7169 144.592 50.8645 144.439L51.8976 143.828C52.0452 143.828 52.0452 143.828 52.1928 143.828L52.9308 143.675Z" fill="#E6E6E6"/>
<path d="M52.9303 143.675C52.9303 143.675 52.7827 143.828 52.4875 143.981V144.592C52.3399 144.745 52.1923 144.898 52.1923 144.898L51.4544 144.286L50.864 143.981L51.8971 143.369C52.0447 143.369 52.0447 143.369 52.1923 143.369L52.9303 143.675Z" fill="#515159"/>
<path d="M52.9303 143.675C52.9303 143.675 52.7827 143.828 52.4875 143.981V144.592C52.3399 144.745 52.1923 144.898 52.1923 144.898L51.4544 144.286L50.864 143.981L51.8971 143.369C52.0447 143.369 52.0447 143.369 52.1923 143.369L52.9303 143.675Z" fill="#CCCCCC"/>
<path d="M53.2265 152.542L52.1934 153.154L52.341 153.46L52.1934 153.765L51.6031 153.46C51.4555 153.46 51.4555 153.307 51.4555 153.154L50.7175 144.898L51.3079 145.204L53.3741 148.873C53.3741 148.873 53.5217 150.861 53.2265 152.542Z" fill="#515159"/>
<path d="M53.2265 152.542L52.1934 153.154L52.341 153.46L52.1934 153.765L51.6031 153.46C51.4555 153.46 51.4555 153.307 51.4555 153.154L50.7175 144.898L51.3079 145.204L53.3741 148.873C53.3741 148.873 53.5217 150.861 53.2265 152.542Z" fill="#F2F2F2"/>
<path d="M53.5218 153.154L52.4887 153.765C52.1935 153.918 52.0459 153.765 52.0459 153.459L51.1604 145.204C51.1604 144.898 51.308 144.44 51.6032 144.287L52.6363 143.675C52.9315 143.522 53.0791 143.675 53.0791 143.981L53.817 152.236C53.9646 152.542 53.817 153.001 53.5218 153.154Z" fill="#808080"/>
<defs>
<linearGradient id="paint0_linear" x1="22.0862" y1="131.995" x2="26.5105" y2="139.21" gradientUnits="userSpaceOnUse">
<stop offset="0.1261" stop-color="#787878"/>
<stop offset="0.1344" stop-color="#9F9F9F"/>
<stop offset="0.7619" stop-color="#9F9F9F"/>
<stop offset="0.7661" stop-color="#B8B8B8"/>
</linearGradient>
<linearGradient id="paint1_linear" x1="22.9425" y1="141.365" x2="27.3667" y2="148.579" gradientUnits="userSpaceOnUse">
<stop offset="0.1261" stop-color="#787878"/>
<stop offset="0.1344" stop-color="#9F9F9F"/>
<stop offset="0.7619" stop-color="#9F9F9F"/>
<stop offset="0.7661" stop-color="#B8B8B8"/>
</linearGradient>
</defs>
</svg>
