<?xml version="1.0" encoding="UTF-8" standalone="no"?>
<svg
   xmlns:dc="http://purl.org/dc/elements/1.1/"
   xmlns:cc="http://creativecommons.org/ns#"
   xmlns:rdf="http://www.w3.org/1999/02/22-rdf-syntax-ns#"
   xmlns:svg="http://www.w3.org/2000/svg"
   xmlns="http://www.w3.org/2000/svg"
   xmlns:sodipodi="http://sodipodi.sourceforge.net/DTD/sodipodi-0.dtd"
   xmlns:inkscape="http://www.inkscape.org/namespaces/inkscape"
   width="95"
   height="95"
   viewBox="0 0 95 95"
   fill="none"
   version="1.1"
   id="svg30"
   sodipodi:docname="Next.inline.svg"
   inkscape:version="1.0.2 (e86c8708, 2021-01-15)">
  <metadata
     id="metadata34">
    <rdf:RDF>
      <cc:Work
         rdf:about="">
        <dc:format>image/svg+xml</dc:format>
        <dc:type
           rdf:resource="http://purl.org/dc/dcmitype/StillImage" />
        <dc:title></dc:title>
      </cc:Work>
    </rdf:RDF>
  </metadata>
  <sodipodi:namedview
     pagecolor="#ffffff"
     bordercolor="#666666"
     borderopacity="1"
     objecttolerance="10"
     gridtolerance="10"
     guidetolerance="10"
     inkscape:pageopacity="0"
     inkscape:pageshadow="2"
     inkscape:window-width="1562"
     inkscape:window-height="1052"
     id="namedview32"
     showgrid="false"
     inkscape:zoom="7.7368421"
     inkscape:cx="47.5"
     inkscape:cy="47.5"
     inkscape:window-x="2520"
     inkscape:window-y="216"
     inkscape:window-maximized="0"
     inkscape:current-layer="svg30" />
  <g
     id="Prev"
     filter="url(#prev_filter0_d)"
     transform="matrix(-1,0,0,1,95,0)">
    <path
       d="M 47.5,0 C 23.5133,0 4,19.5133 4,43.5 4,67.4867 23.5133,87 47.5,87 71.4867,87 91,67.4867 91,43.5 91,19.5133 71.4867,0 47.5,0 Z m 9.8128,59.0621 c 1.4173,1.4173 1.4173,3.7084 0,5.1257 -0.7069,0.7069 -1.6348,1.0622 -2.5629,1.0622 -0.928,0 -1.8561,-0.3553 -2.5629,-1.0622 L 34.0621,46.0629 c -1.4173,-1.4173 -1.4173,-3.7083 0,-5.1257 l 18.125,-18.125 c 1.4173,-1.4173 3.7084,-1.4173 5.1257,0 1.4173,1.4173 1.4173,3.7084 0,5.1257 L 41.7507,43.5 Z"
       fill="#ffffff"
       id="path10" />
  </g>
  <defs
     id="defs28">
    <filter
       id="prev_filter0_d"
       x="0"
       y="0"
       width="95"
       height="95"
       filterUnits="userSpaceOnUse"
       color-interpolation-filters="sRGB">
      <feFlood
         flood-opacity="0"
         result="BackgroundImageFix"
         id="feFlood13" />
      <feColorMatrix
         in="SourceAlpha"
         type="matrix"
         values="0 0 0 0 0 0 0 0 0 0 0 0 0 0 0 0 0 0 127 0"
         id="feColorMatrix15" />
      <feOffset
         dy="4"
         id="feOffset17" />
      <feGaussianBlur
         stdDeviation="2"
         id="feGaussianBlur19" />
      <feColorMatrix
         type="matrix"
         values="0 0 0 0 0 0 0 0 0 0 0 0 0 0 0 0 0 0 0.5 0"
         id="feColorMatrix21" />
      <feBlend
         mode="normal"
         in2="BackgroundImageFix"
         result="effect1_dropShadow"
         id="feBlend23" />
      <feBlend
         mode="normal"
         in="SourceGraphic"
         in2="effect1_dropShadow"
         result="shape"
         id="feBlend25" />
    </filter>
  </defs>
</svg>
