<svg width="214" height="214" viewBox="0 0 214 214" fill="none" xmlns="http://www.w3.org/2000/svg">
<g clip-path="url(#clip0)">
<path d="M210.849 91.4041C205.053 53.2285 181.268 6.32062 134.288 1.41211C134.288 1.41211 98.6152 -2.95014 63.4542 3.65957C42.5873 7.58482 24.2812 19.2669 12.7032 36.0604C1.12514 52.8539 -2.74715 73.3308 1.94771 92.8478C4.99742 105.529 7.05385 118.647 6.49512 131.679C5.50959 154.356 6.07607 175.52 27.9595 189.044C47.4994 201.116 72.0834 211.768 95.5422 213.633C111.481 214.897 129.361 212.853 144.726 208.678C223.033 187.397 216.654 129.587 210.849 91.4041Z" fill="#49149E"/>
<path d="M174.827 53.2756C170.513 60.7515 157.786 65.1606 162.528 75.7892C163.901 78.8794 165.996 81.9072 166.206 85.3799C166.423 88.9383 163.436 91.4355 161.418 93.9795C159.315 96.6484 157.786 99.4421 157.538 102.907C157.173 108.018 160.51 111.577 162.9 115.697C165.671 120.45 163.583 123.423 160.044 126.958C152.463 134.527 157.282 146.272 156.18 155.589C155.094 164.806 150.306 171.712 141.707 175.27C137.532 177.003 133.047 177.908 128.577 178.454C125.132 178.876 121.337 178.595 117.768 178.852H117.76C117.248 178.891 116.743 179 116.247 179C115.626 179 115.02 179.188 114.431 179.313C120.189 178.041 131.984 162.894 130.129 154.614C128.275 146.326 123.541 140.325 129.159 132.194C134.778 124.063 129.097 123.345 123.751 114.651C118.404 105.958 117.573 98.9114 125.101 94.5804C132.628 90.2572 132.194 90.2103 126.63 69C121.073 47.774 141.467 31.6048 153.821 28.577C156.987 27.7966 161.93 28.2961 164.871 29.7085C165.391 29.9582 165.903 30.2392 166.4 30.5591C168.394 31.8233 170.164 33.587 171.646 35.6159C175.138 40.4152 178.079 47.6492 174.827 53.2756Z" fill="url(#paint0_linear)"/>
<path opacity="0.3" d="M174.828 53.2751C170.514 60.751 157.787 65.1601 162.528 75.7887C163.902 78.8789 165.997 81.9067 166.207 85.3794C166.424 88.9378 163.436 91.435 161.419 93.979C159.316 96.6479 157.787 99.4416 157.539 102.906C157.174 108.018 160.511 111.576 162.901 115.697C165.671 120.449 163.584 123.422 160.045 126.957C152.464 134.527 157.283 146.271 156.181 155.589C155.094 164.805 150.306 171.711 141.708 175.27C137.533 177.002 133.048 177.907 128.578 178.454C125.132 178.875 121.338 178.594 117.768 178.852C119.995 178.454 122.339 177.346 124.186 176.401C130.161 173.35 136.33 169.503 139.45 163.299C141.079 160.053 140.164 158.484 138.814 155.214C136.726 150.173 135.872 144.633 138.418 139.506C140.916 134.48 144.866 129.65 144.719 123.734C144.494 114.628 132.714 108.377 138.596 98.9499C142.189 93.1986 148.925 89.4529 149.988 82.1877C150.71 77.2713 147.613 73.1822 146.116 68.7497C144.525 64.0363 144.494 58.9405 145.316 54.0632C147.73 39.8606 157.577 33.4381 166.377 30.5508C168.372 31.815 170.141 33.5786 171.623 35.6076C175.139 40.4146 178.08 47.6486 174.828 53.2751Z" fill="url(#paint1_linear)"/>
<path d="M183.992 126.372C176.953 129.345 171.327 132.17 172.864 141.043C175.332 155.331 167.509 164.032 158.655 167.833C150.104 171.508 128.678 176.51 118.691 167.513C118.342 167.201 118 166.865 117.674 166.506C119.948 166.17 130.238 174.591 133.738 152.842C137.237 131.101 145.89 141.246 153.984 132.623C162.077 123.999 148.365 115.774 150.996 93.7369C151.718 87.7046 159.051 79.4562 164.669 77.6691C169.535 76.124 174.936 76.7639 179.91 78.7928C180.011 78.8319 180.112 78.8787 180.213 78.9177C186.739 81.6724 192.497 86.815 195.314 92.5429C201.312 104.748 197.168 120.808 183.992 126.372Z" fill="#D8DEE8"/>
<path opacity="0.3" d="M183.992 126.372C176.954 129.345 171.328 132.17 172.864 141.043C175.332 155.332 167.51 164.033 158.655 167.833C150.104 171.509 128.678 176.511 118.691 167.513C122.943 169.019 128.081 170.088 132.481 169.573C138.766 168.84 144.579 164.072 148.179 159.046C151.159 154.902 153.045 150.08 155.978 145.905C158.011 143.01 161.1 141.129 163.164 138.281C165.174 135.51 166.47 132.17 167.587 128.955C168.992 124.928 169.372 120.699 169.124 116.461C168.449 104.85 162.194 89.6637 174.261 81.8132C176.1 80.6192 178.118 79.6749 180.205 78.9336C186.731 81.6883 192.489 86.8309 195.306 92.5588C201.313 104.748 197.169 120.808 183.992 126.372Z" fill="#D8DEE8"/>
<path d="M137.455 185.578C137.455 187.498 136.004 189.129 134.211 189.223L20.3162 195.169C18.2288 195.278 16.5293 193.678 16.5293 191.603V21.6775C16.5293 19.594 18.2288 18.0176 20.3162 18.1425L21.845 18.0566L134.219 25.1268C136.011 25.236 137.463 26.8826 137.463 28.8023V185.578H137.455Z" fill="url(#paint2_linear)"/>
<path d="M139.697 185.501C139.697 187.421 138.246 189.052 136.454 189.145L22.5589 195.092C20.4714 195.201 18.772 193.601 18.772 191.525V21.6006C18.772 19.517 20.4714 17.9407 22.5589 18.0655L136.454 25.0498C138.246 25.1591 139.697 26.8056 139.697 28.7253V185.501Z" fill="url(#paint3_linear)"/>
<path opacity="0.3" d="M52.109 34.0398C49.2766 37.6997 48.8731 44.6138 53.7231 47.4621C64.2381 53.9704 77.9889 51.9336 88.1003 45.0196C95.5423 39.7833 92.3761 30.0677 90.2421 22.2172L67.8387 20.8438C65.9142 26.2595 55.6554 29.2795 52.109 34.0398Z" fill="url(#paint4_linear)"/>
<path d="M134.343 178.704C134.343 180.405 133.055 181.841 131.464 181.919L28.3326 186.773C26.5012 186.859 25.0112 185.447 25.0112 183.621V38.1603C25.0112 36.3343 26.5012 34.9296 28.3326 35.0155L131.464 40.2439C133.055 40.3219 134.343 41.7656 134.343 43.4668V178.704Z" fill="white"/>
<path d="M106.065 35.6156C105.91 34.726 105.219 34.0939 104.342 34.0471L98.9178 33.7505C96.4656 33.6179 94.6886 31.5577 94.805 28.9747L95.0766 22.9893C95.1231 21.8811 94.3626 20.9915 93.3073 20.9291L91.5535 20.8198C90.2188 20.734 89.3108 19.54 89.5203 18.1354C89.8928 15.6616 88.2787 13.5312 85.9041 13.3673C83.5218 13.2035 81.2869 15.0919 80.9144 17.5813C80.8135 18.2524 80.4566 18.8845 79.9289 19.3371C79.4012 19.7819 78.7338 20.0161 78.082 19.977L76.2972 19.8678C75.2185 19.7976 74.1786 20.5857 73.8915 21.6938L72.3395 27.6949C71.6644 30.2857 69.2355 32.1508 66.6824 32.0103L60.971 31.6981C60.0398 31.6513 59.1163 32.2132 58.674 33.095L54.5767 41.3669L54.9259 41.8195L107.493 43.8719L106.065 35.6156ZM85.1281 18.5256C84.4297 18.4787 83.9564 17.8544 84.065 17.1287C84.1736 16.403 84.8255 15.8489 85.5239 15.8957C86.2223 15.9425 86.6957 16.5668 86.587 17.2926C86.4784 18.0183 85.8265 18.5724 85.1281 18.5256Z" fill="#6165D7"/>
<path d="M106.422 36.0687C106.267 35.1791 105.576 34.547 104.7 34.5002L99.2752 34.2036C96.8231 34.071 95.046 32.0108 95.1624 29.4278L95.434 23.4424C95.4806 22.3343 94.7201 21.4446 93.6647 21.3822L91.9109 21.273C90.5762 21.1871 89.6682 19.9932 89.8778 18.5885C90.2503 16.1147 88.6362 13.9843 86.2616 13.8205C83.8792 13.6566 81.6443 15.5451 81.2718 18.0344C81.171 18.7134 80.814 19.3376 80.2863 19.7903C79.7586 20.2351 79.0912 20.4692 78.4394 20.4302L76.6546 20.3209C75.5759 20.2507 74.5361 21.0388 74.2489 22.147L72.6969 28.148C72.0218 30.7388 69.5929 32.6039 67.0398 32.4634L61.3284 32.1513C60.3972 32.1045 59.4737 32.6663 59.0314 33.5481L54.9341 41.82L107.858 44.3328L106.422 36.0687ZM85.4856 18.9787C84.7872 18.9319 84.3138 18.3076 84.4224 17.5818C84.5311 16.8561 85.1829 16.302 85.8813 16.3488C86.5797 16.3957 87.0531 17.02 86.9445 17.7457C86.8358 18.4714 86.1762 19.0255 85.4856 18.9787Z" fill="url(#paint5_linear)"/>
<path d="M104.692 34.4989L99.2674 34.2024C97.6377 34.1165 96.3108 33.1723 95.6357 31.7988C90.6071 32.8601 85.307 31.752 80.0068 32.8133C76.3673 33.6249 76.7709 39.3216 72.7279 39.7274C66.9233 40.5156 61.1886 40.5702 55.5082 40.6248L54.9185 41.8188L107.842 44.3316L106.422 36.0675C106.267 35.1778 105.576 34.5457 104.692 34.4989Z" fill="url(#paint6_linear)"/>
<path d="M112.381 57.4423L51.519 55.7645V47.8438L112.381 49.7791V57.4423Z" fill="#D8DEE8"/>
<path d="M46.5292 81.1198C46.5292 81.4788 46.3119 81.7597 45.9394 81.7597L34.6485 81.6115C34.276 81.6037 33.9346 81.3071 33.9346 80.9482V70.1244C33.9346 69.7655 34.3148 69.4767 34.6951 69.4845L45.9006 69.7108C46.2731 69.7186 46.5292 70.0152 46.5292 70.3741V81.1198ZM35.2538 80.3239L45.4816 80.4643V70.975L35.2538 70.7877V80.3239Z" fill="#D8DEE8"/>
<path d="M128.383 75.268L55.4536 73.9726V70.3984L128.383 71.8421V75.268Z" fill="#D8DEE8"/>
<path d="M128.383 83.1105L55.4536 82.135V78.8184L128.383 79.9265V83.1105Z" fill="#D8DEE8"/>
<path d="M46.5292 104.678C46.5292 105.037 46.3119 105.326 45.9394 105.326L34.6485 105.318C34.276 105.318 33.9346 105.03 33.9346 104.671V93.8547C33.9346 93.4958 34.3148 93.207 34.6951 93.207L45.9006 93.2851C46.2731 93.2851 46.5292 93.5816 46.5292 93.9328V104.678ZM35.2538 104.031L45.4816 104.046V94.5649L35.2538 94.5024V104.031Z" fill="#D8DEE8"/>
<path d="M128.383 97.8041L55.4536 97.4296V93.8633L128.383 94.3705V97.8041Z" fill="#D8DEE8"/>
<path d="M128.383 105.881L55.4536 105.842V102.275L128.383 102.455V105.881Z" fill="#D8DEE8"/>
<path d="M46.5292 128.245C46.5292 128.604 46.3119 128.893 45.9394 128.9L34.6485 129.033C34.276 129.041 33.9346 128.752 33.9346 128.393V117.577C33.9346 117.218 34.3148 116.922 34.6951 116.922L45.9006 116.859C46.2731 116.859 46.5292 117.148 46.5292 117.499V128.245ZM35.2538 127.738L45.4816 127.628V118.147L35.2538 118.209V127.738Z" fill="#D8DEE8"/>
<path d="M128.383 120.332L55.4536 120.887V117.57L128.383 117.148V120.332Z" fill="#D8DEE8"/>
<path d="M128.383 128.416L55.4536 129.298V125.732L128.383 124.982V128.416Z" fill="#D8DEE8"/>
<path d="M46.5292 151.811C46.5292 152.17 46.3119 152.467 45.9394 152.475L34.6485 152.748C34.276 152.756 33.9346 152.475 33.9346 152.116V141.3C33.9346 140.941 34.3148 140.644 34.6951 140.637L45.9006 140.434C46.2731 140.426 46.5292 140.715 46.5292 141.066V151.811ZM35.2538 151.445L45.4816 151.21V141.729L35.2538 141.916V151.445Z" fill="#D8DEE8"/>
<path d="M128.383 143.111L55.4536 144.602V141.028L128.383 139.678V143.111Z" fill="#D8DEE8"/>
<path d="M128.383 150.945L55.4536 152.756V149.189L128.383 147.52V150.945Z" fill="#D8DEE8"/>
<path d="M39.025 80.058C39.025 80.058 39.0172 80.058 39.025 80.058C38.668 80.058 38.3343 79.9019 38.1093 79.6366L35.2226 76.2654C34.8035 75.7738 34.8733 75.0559 35.3778 74.6657C35.8822 74.2755 36.6349 74.3535 37.0539 74.8452L39.0328 77.1629L46.9015 68.3759C47.3205 67.9077 48.0655 67.8609 48.5621 68.2745C49.0588 68.6881 49.1209 69.3982 48.7018 69.8664L39.9329 79.66C39.7079 79.9332 39.3742 80.3233 39.025 80.058Z" fill="#97A6B7"/>
<path d="M39.025 104.859C39.025 104.859 39.0172 104.859 39.025 104.859C38.668 104.859 38.3343 104.726 38.1093 104.468L35.2226 101.144C34.8035 100.66 34.8733 99.95 35.3778 99.5442C35.8822 99.1463 36.6349 99.2165 37.0539 99.7003L39.0328 101.995L46.9015 93.1062C47.3205 92.6301 48.0655 92.5755 48.5621 92.9891C49.0588 93.3949 49.1209 94.1129 48.7018 94.5811L39.9329 104.476C39.7079 104.734 39.3742 104.859 39.025 104.859Z" fill="#97A6B7"/>
<path d="M39.025 127.808C39.025 127.808 39.0172 127.808 39.025 127.808C38.668 127.808 38.3343 127.574 38.1093 127.316L35.2226 123.969C34.8035 123.485 34.8733 122.743 35.3778 122.338C35.8822 121.932 36.6349 121.979 37.0539 122.462L39.0328 124.726L46.9015 115.736C47.3205 115.26 48.0655 115.189 48.5621 115.595C49.0588 115.993 49.1209 116.711 48.7018 117.187L39.9329 127.301C39.7079 127.566 39.3742 127.55 39.025 127.808Z" fill="#97A6B7"/>
<path d="M39.025 151.29C39.025 151.29 39.0172 151.29 39.025 151.29C38.668 151.29 38.3343 151.173 38.1093 150.916L35.2226 147.662C34.8035 147.186 34.8733 146.476 35.3778 146.062C35.8822 145.649 36.6349 145.703 37.0539 146.179L39.0328 148.419L46.9015 139.335C47.3205 138.852 48.0655 138.781 48.5621 139.172C49.0588 139.57 49.1209 140.28 48.7018 140.764L39.9329 150.885C39.7079 151.15 39.3742 151.29 39.025 151.29Z" fill="#97A6B7"/>
<path d="M128.911 164.158L33.6787 167.224V163.104L128.911 160.24V164.158Z" fill="#D8DEE8"/>
<path d="M128.911 171.009L33.6787 174.451V170.323L128.911 167.092V171.009Z" fill="#D8DEE8"/>
<path d="M32.391 67.9473C31.0718 67.9863 29.7836 67.6508 28.6661 66.9797C25.2672 64.9273 20.2464 61.5483 15.7301 57.1158C10.0031 51.505 6.70507 45.7927 5.98338 40.1818L5.97562 40.096L5.83594 16.1543C5.83594 11.4253 8.90117 7.58585 14.6669 5.05745C19.4239 2.98167 25.7328 1.95159 32.391 2.13888C38.9793 2.33397 45.071 3.69961 49.5796 5.97048C54.9418 8.67836 57.7587 12.4788 57.7587 16.9893L57.6345 39.8619L57.6268 39.9477C56.9672 45.3166 53.9407 50.8729 48.5785 56.4837C44.2794 60.9864 39.4294 64.5527 36.0925 66.769C34.9906 67.5025 33.7102 67.9161 32.391 67.9473Z" fill="url(#paint7_linear)"/>
<path d="M33.7029 67.9473C32.3992 67.9863 31.1265 67.6508 30.0324 66.9797C26.68 64.9273 21.7213 61.5483 17.267 57.1158C11.6099 51.4972 8.35839 45.7849 7.65222 40.174L7.64446 40.0882L7.48926 16.1543C7.48926 11.4253 10.5157 7.58585 16.2039 5.05745C20.8987 2.98167 27.1223 1.95159 33.7029 2.13888C40.2059 2.33397 46.2122 3.69961 50.6665 5.97048C55.9589 8.67836 58.737 12.4788 58.737 16.9893L58.6128 39.8619L58.6051 39.9477C57.9532 45.3166 54.9656 50.8729 49.6809 56.4837C45.4439 60.9864 40.6482 64.5527 37.3579 66.769C36.2637 67.5025 34.9988 67.9161 33.7029 67.9473Z" fill="url(#paint8_linear)"/>
<path d="M9.06348 16.1775L9.20316 39.9943C10.7629 52.1446 24.9639 61.9851 31.1487 65.7231C32.918 66.7922 35.1839 66.7297 36.9455 65.567C42.9983 61.5637 56.4233 51.4735 57.8589 39.7914L57.9831 16.9813C57.9831 0.0550802 9.06348 -1.49005 9.06348 16.1775Z" fill="url(#paint9_linear)"/>
<path d="M34.0518 62.0469C33.9354 62.0469 33.7647 62.0313 33.594 61.922C31.0487 60.3691 26.1132 57.1228 21.8141 52.8854C17.1736 48.3046 14.5041 43.8487 13.8833 39.6659L13.7437 16.2471C13.7514 13.9997 15.5207 12.08 18.9817 10.5349C22.854 8.81805 28.3481 7.91282 34.0363 8.05329C39.6701 8.18595 45.0013 9.32528 48.7029 11.1748C51.9699 12.8057 53.6228 14.7332 53.6305 16.9026L53.5064 39.5099C52.9321 43.56 50.4256 47.9222 46.0179 52.5108C41.874 56.8262 37.0317 60.2442 34.5019 61.9064C34.3389 62.0157 34.1682 62.0391 34.0518 62.0469Z" fill="url(#paint10_linear)"/>
<path d="M33.4701 60.4393C30.9015 58.8473 26.3231 55.7727 22.3344 51.824C17.9732 47.5086 15.4512 43.3727 14.8614 39.541L14.7295 16.2549C14.7373 14.6474 16.2039 13.1725 19.0829 11.8927C22.7534 10.2617 27.9992 9.40329 33.4701 9.52034C38.8867 9.6452 43.9928 10.7221 47.5004 12.4623C50.2241 13.8202 51.6054 15.2951 51.6132 16.8636L51.489 39.3928C50.9303 43.1073 48.5557 47.173 44.3886 51.4963C40.524 55.5152 36.0309 58.7381 33.4701 60.4393Z" fill="url(#paint11_linear)"/>
<path d="M38.3972 19.1191H28.9531V45.238H38.3972V19.1191Z" fill="white"/>
<path d="M46.538 27.2969H20.5649V36.7939H46.538V27.2969Z" fill="white"/>
<path d="M98.3973 193.577C99.2354 199.391 96.6823 204.776 92.6005 205.619C88.4255 206.485 84.2661 202.286 83.3892 196.223C82.5123 190.159 85.2827 184.736 89.4964 184.127C93.6015 183.526 97.5514 187.764 98.3973 193.577Z" fill="url(#paint12_linear)"/>
<path d="M92.601 205.626L88.3718 206.5L85.2212 184.751L89.4892 184.127L92.601 205.626Z" fill="url(#paint13_linear)"/>
<path d="M94.5718 194.257C95.4254 200.133 92.8025 205.588 88.6353 206.446C84.3672 207.328 80.1224 203.09 79.2378 196.965C78.3531 190.839 81.1933 185.345 85.4924 184.721C89.6984 184.096 93.7259 188.373 94.5718 194.257Z" fill="url(#paint14_linear)"/>
<path d="M86.4784 198.595L55.3836 204.838L54.2041 198.884L85.2989 192.641C86.9363 192.313 88.5271 193.382 88.853 195.029C89.179 196.668 88.1158 198.267 86.4784 198.595Z" fill="url(#paint15_linear)"/>
<path d="M60.9792 200.007C61.8173 205.821 59.2642 211.206 55.1825 212.048C51.0075 212.915 46.8481 208.716 45.9713 202.653C45.0944 196.589 47.8647 191.165 52.0784 190.557C56.1913 189.956 60.1334 194.193 60.9792 200.007Z" fill="url(#paint16_linear)"/>
<path d="M55.1826 212.056L50.9534 212.93L47.8105 191.181L52.0708 190.557L55.1826 212.056Z" fill="url(#paint17_linear)"/>
<path d="M57.161 200.685C58.0146 206.561 55.3917 212.016 51.2246 212.874C46.9565 213.756 42.7118 209.518 41.8271 203.392C40.9425 197.266 43.7827 191.773 48.0817 191.148C52.2799 190.524 56.3074 194.808 57.161 200.685Z" fill="url(#paint18_linear)"/>
<path d="M144.415 200.68C144.415 200.68 144.749 202.755 144.71 203.489C144.664 204.23 136.531 204.605 136.446 204.051C136.36 203.497 137.788 202.623 138.797 202.311C139.798 201.998 142.739 201.171 142.739 201.171L144.415 200.68Z" fill="url(#paint19_linear)"/>
<path d="M142.436 198.619L142.692 201.194C142.692 201.194 143.639 201.826 144.469 201.335L144.888 198.533L142.436 198.619Z" fill="url(#paint20_linear)"/>
<path d="M158.934 204.043C158.934 204.043 159.267 206.119 159.229 206.852C159.19 207.586 151.049 207.968 150.964 207.414C150.879 206.86 152.307 205.986 153.315 205.674C154.316 205.362 157.258 204.535 157.258 204.535L158.934 204.043Z" fill="url(#paint21_linear)"/>
<path d="M156.956 201.975L157.212 204.55C157.212 204.55 158.158 205.182 158.989 204.69L159.408 201.889L156.956 201.975Z" fill="url(#paint22_linear)"/>
<path d="M143.918 131.344C142.979 133.264 142.04 135.184 141.094 137.096C140.341 148.044 139.961 159.945 140.201 172.673C140.38 182.139 140.884 191.113 141.606 199.533C142.878 199.47 144.159 199.416 145.432 199.353C147.278 195.67 149.451 190.098 149.653 183.208C149.863 176.028 147.698 175.076 147.837 168.201C148.016 159.289 151.733 156.909 153.712 146.195C154.472 142.098 154.976 136.745 154.371 130.244C150.887 130.619 147.403 130.985 143.918 131.344Z" fill="url(#paint23_linear)"/>
<path opacity="0.3" d="M154.371 130.252C152.485 130.447 150.608 130.65 148.722 130.845C145.331 136.776 144.384 142.949 144.981 145.68C145.82 149.543 148.047 150.783 147.923 154.662C147.798 158.501 145.556 159.492 144.128 164.018C143.142 167.148 143.398 170.027 143.965 175.662C145.098 187 147.822 190.473 145.54 194.187C144.888 195.241 143.724 196.505 141.435 197.465C141.489 198.159 141.544 198.862 141.606 199.549C142.878 199.494 144.159 199.431 145.432 199.369C147.278 195.686 149.451 190.114 149.653 183.223C149.863 176.044 147.697 175.092 147.837 168.217C148.016 159.305 151.733 156.925 153.712 146.21C154.464 142.098 154.976 136.745 154.371 130.252Z" fill="url(#paint24_linear)"/>
<path d="M148.979 134.802C150.748 144.486 152.308 154.85 153.518 165.837C154.985 179.111 155.769 191.62 156.079 203.232C157.476 203.271 158.88 203.31 160.277 203.349C165.795 192.377 166.128 184.933 165.337 180.087C165.034 178.222 164.196 174.562 164.01 169.091C163.878 165.275 164.119 162.372 164.421 158.884C165.081 151.237 165.888 149.567 166.004 143.714C166.113 138.22 166.136 135.442 164.576 133.827C160.471 129.566 149.786 134.42 148.979 134.802Z" fill="url(#paint25_linear)"/>
<path d="M122.237 97.9285C121.305 97.8661 120.964 97.5852 120.033 97.5149C117.837 106.442 119.715 116.587 124.673 119.771C132.418 124.742 142.382 113.06 145.501 102.853C146.867 98.3734 146.557 91.9119 143.825 90.6555C143.065 90.3043 141.885 90.2497 139.332 91.6934C131.704 96.001 132.573 104.242 128.701 104.936C126.97 105.241 126.66 105.069 122.237 97.9285Z" fill="url(#paint26_linear)"/>
<path d="M140.023 139.062C138.68 136.822 140.364 134.668 140.752 130.423C141.187 125.616 139.348 124.82 137.524 116.853C136.314 111.554 135.15 106.474 136.539 100.52C137.206 97.6634 138.331 92.8252 142.312 90.4919C144.369 89.2823 147.17 89.4072 152.703 89.6959C159.54 90.0549 162.76 90.7026 165.507 91.5844C172.088 93.707 173.632 96.0247 174.167 102.939C174.711 109.978 167.09 110.922 166.074 120.302C165.616 124.516 166.431 130.993 166.958 135.199C167.463 139.233 167.812 140.264 167.02 141.489C165.111 144.431 159.268 143.596 147.581 141.918C142.995 141.262 141.024 140.732 140.023 139.062Z" fill="url(#paint27_linear)"/>
<path opacity="0.4" d="M157.801 118.797C158.297 120.623 160.074 121.988 161.308 126.444C161.572 127.404 163.481 134.248 161.013 135.926C159.586 136.901 158.305 135.059 154.852 134.817C148.861 134.404 146.005 139.468 142.087 138.079C141.404 137.837 140.511 137.33 139.611 136.152C139.433 137.213 139.464 138.134 140.022 139.063C141.023 140.733 142.994 141.255 147.581 141.919C159.267 143.597 165.111 144.439 167.02 141.49C167.811 140.264 167.462 139.234 166.958 135.2C166.43 130.994 165.615 124.517 166.073 120.303C167.09 110.915 174.71 109.971 174.167 102.94C174.019 101.059 173.337 99.3812 172.413 97.9219C162.744 101.863 156.249 113.053 157.801 118.797Z" fill="url(#paint28_linear)"/>
<path d="M153.06 82.7656C153.06 82.7656 153.176 85.3252 153.968 87.2449C154.681 88.9773 158.437 90.0698 159.206 90.4522C159.966 90.8424 157.778 91.9739 155.582 92.1924C153.386 92.4109 147.108 91.9115 145.975 91.0765C144.842 90.2415 146.883 90.3039 148.45 89.7187C150.018 89.1412 150.926 86.051 150.646 84.6541C150.367 83.2573 153.06 82.7656 153.06 82.7656Z" fill="url(#paint29_linear)"/>
<path d="M149.575 81.8379C148.435 80.7141 148.272 80.5815 148.148 80.1913C147.651 78.6305 148.854 76.4845 150.437 75.9617C150.522 75.9305 151.577 75.5949 151.981 76.0553C152.322 76.4455 151.818 76.9918 152.059 77.7487C152.284 78.4589 152.897 78.5135 154.03 79.4421C154.961 80.2069 155.543 80.6829 155.675 81.354C155.954 82.7353 154.286 84.7331 152.819 84.6784C152.299 84.655 152.159 84.3819 149.575 81.8379Z" fill="url(#paint30_linear)"/>
<path d="M152.687 84.8897C152.687 84.8897 151.477 86.2709 149.63 85.8105C147.977 85.4047 148.396 81.581 149.606 80.9723C150.01 80.7694 150.747 80.785 151.298 81.0503C151.624 81.2064 151.717 81.3703 152.253 81.62C152.749 81.8463 152.905 81.8151 153.036 81.979C153.207 82.1819 153.277 82.6111 152.749 83.6567C153.13 83.3914 153.533 83.329 153.781 83.5085C153.82 83.5397 153.921 83.6333 153.968 83.766C154.123 84.2498 153.634 84.7258 152.687 84.8897Z" fill="url(#paint31_linear)"/>
<path d="M154.643 100.02C153.72 100.153 152.742 100.543 151.818 100.676C151.555 109.869 154.853 123.041 160.37 125.093C168.984 128.309 175.642 115.362 176.534 104.726C176.93 100.059 172.065 93.8554 169.124 93.2155C168.309 93.036 167.222 91.9045 165.026 93.8554C158.477 99.6847 163.342 109.712 159.478 110.462C158.981 110.555 160.463 106.053 154.643 100.02Z" fill="url(#paint32_linear)"/>
<path d="M108.765 92.9112L86.6025 91.2256C85.9428 91.1787 85.3608 91.7016 85.3608 92.3961C85.3608 93.0906 85.7799 93.6915 86.4317 93.7462L108.532 95.4317C107.974 94.2612 108.393 93.3872 108.765 92.9112Z" fill="url(#paint33_linear)"/>
<path d="M101.905 110.602C107.653 110.602 112.312 102.887 112.312 93.3711C112.312 83.855 107.653 76.1406 101.905 76.1406C96.1581 76.1406 91.499 83.855 91.499 93.3711C91.499 102.887 96.1581 110.602 101.905 110.602Z" fill="url(#paint34_linear)"/>
<path d="M103.916 110.594C109.663 110.594 114.322 102.879 114.322 93.3632C114.322 83.8471 109.663 76.1328 103.916 76.1328C98.1683 76.1328 93.5093 83.8471 93.5093 93.3632C93.5093 102.879 98.1683 110.594 103.916 110.594Z" fill="url(#paint35_linear)"/>
<path d="M105.56 97.4831C106.769 97.4831 107.748 96.0786 107.748 94.3461C107.748 92.6135 106.769 91.209 105.56 91.209C104.351 91.209 103.372 92.6135 103.372 94.3461C103.372 96.0786 104.351 97.4831 105.56 97.4831Z" fill="url(#paint36_linear)"/>
<path d="M191.084 99.4184L105.599 92.9102C105.227 93.3784 104.808 94.2602 105.366 95.4229L191.084 101.947V99.4184Z" fill="url(#paint37_linear)"/>
<path d="M188.042 119.397C194.578 119.397 199.876 110.624 199.876 99.802C199.876 88.98 194.578 80.207 188.042 80.207C181.506 80.207 176.208 88.98 176.208 99.802C176.208 110.624 181.506 119.397 188.042 119.397Z" fill="url(#paint38_linear)"/>
<path d="M190.331 120.387C196.867 120.387 202.165 111.614 202.165 100.792C202.165 89.9703 196.867 81.1973 190.331 81.1973C183.795 81.1973 178.497 89.9703 178.497 100.792C178.497 111.614 183.795 120.387 190.331 120.387Z" fill="url(#paint39_linear)"/>
<path d="M192.201 104.351C193.577 104.351 194.692 102.755 194.692 100.785C194.692 98.8154 193.577 97.2188 192.201 97.2188C190.826 97.2188 189.71 98.8154 189.71 100.785C189.71 102.755 190.826 104.351 192.201 104.351Z" fill="url(#paint40_linear)"/>
<path d="M211.548 102.36C211.548 102.875 211.253 103.297 210.827 103.46L191.876 102.017C191.527 100.932 191.698 100.144 191.993 99.5977L210.493 101.01C211.152 101.065 211.548 101.666 211.548 102.36Z" fill="url(#paint41_linear)"/>
<path d="M119.754 97.1647C119.754 97.1647 118.528 93.4892 120.809 93.2785C123.083 93.0678 124.883 94.2618 124.332 94.9017C123.774 95.5416 123.285 96.8448 123.704 97.1647C124.123 97.4847 123.673 98.0387 123.409 98.0387C123.145 98.0387 120.739 101.769 119.746 97.2662L119.754 97.1647Z" fill="url(#paint42_linear)"/>
<path d="M151.313 99.0846C151.313 99.0846 150.087 95.4091 152.369 95.1984C154.643 94.9877 156.443 96.1817 155.892 96.8216C155.333 97.4615 154.844 98.7647 155.263 99.0846C155.682 99.4046 155.232 99.9586 154.969 99.9586C154.705 99.9586 152.299 103.689 151.306 99.1861L151.313 99.0846Z" fill="url(#paint43_linear)"/>
<path d="M156.195 101.081C156.195 101.417 155.923 101.69 155.589 101.69H151.818C151.484 101.69 151.213 101.417 151.213 101.081V100.988C151.213 100.652 151.484 100.379 151.818 100.379H155.589C155.923 100.379 156.195 100.652 156.195 100.988V101.081Z" fill="url(#paint44_linear)"/>
<path d="M154.355 100.527C154.355 100.293 154.168 100.105 153.936 100.105H152.407C152.174 100.105 151.988 100.293 151.988 100.527V101.799C151.988 102.033 152.174 102.22 152.407 102.22H153.936C154.168 102.22 154.355 102.033 154.355 101.799V100.527Z" fill="url(#paint45_linear)"/>
<path d="M154.091 100.699C154.091 100.519 153.944 100.379 153.773 100.379H152.578C152.4 100.379 152.26 100.527 152.26 100.699V101.635C152.26 101.815 152.408 101.955 152.578 101.955H153.773C153.952 101.955 154.091 101.807 154.091 101.635V100.699Z" fill="white"/>
<path d="M148.536 83.1797C148.536 83.1797 149.522 83.8742 153.115 83.4762C153.115 83.4762 151.229 84.202 151.268 84.678C151.306 85.154 152.944 84.8341 152.944 84.8341C152.944 84.8341 152.02 86.0826 150.228 86.0826C148.427 86.0826 148.264 84.28 148.536 83.1797Z" fill="white"/>
</g>
<defs>
<linearGradient id="paint0_linear" x1="114.439" y1="103.758" x2="176.235" y2="103.758" gradientUnits="userSpaceOnUse">
<stop stop-color="#AA80F9"/>
<stop offset="0.9964" stop-color="#6165D7"/>
</linearGradient>
<linearGradient id="paint1_linear" x1="117.782" y1="104.705" x2="176.236" y2="104.705" gradientUnits="userSpaceOnUse">
<stop stop-color="#AA80F9"/>
<stop offset="0.9964" stop-color="#6165D7"/>
</linearGradient>
<linearGradient id="paint2_linear" x1="-48.4856" y1="-155.933" x2="160.056" y2="281.443" gradientUnits="userSpaceOnUse">
<stop stop-color="#311944"/>
<stop offset="1" stop-color="#A03976"/>
</linearGradient>
<linearGradient id="paint3_linear" x1="36.1294" y1="18.6929" x2="244.671" y2="456.069" gradientUnits="userSpaceOnUse">
<stop offset="0.00359712" stop-color="#E38DDD"/>
<stop offset="1" stop-color="#9571F6"/>
</linearGradient>
<linearGradient id="paint4_linear" x1="57.1981" y1="4.96491" x2="88.8545" y2="71.3584" gradientUnits="userSpaceOnUse">
<stop offset="0.00359712" stop-color="#E38DDD"/>
<stop offset="1" stop-color="#9571F6"/>
</linearGradient>
<linearGradient id="paint5_linear" x1="67.7813" y1="13.8469" x2="91.3664" y2="59.0784" gradientUnits="userSpaceOnUse">
<stop stop-color="#AA80F9"/>
<stop offset="0.9964" stop-color="#6165D7"/>
</linearGradient>
<linearGradient id="paint6_linear" x1="82.705" y1="81.6556" x2="80.3832" y2="14.697" gradientUnits="userSpaceOnUse">
<stop stop-color="#AA80F9"/>
<stop offset="0.9964" stop-color="#6165D7"/>
</linearGradient>
<linearGradient id="paint7_linear" x1="62.2549" y1="0.310713" x2="47.2084" y2="14.6921" gradientUnits="userSpaceOnUse">
<stop stop-color="#FF9085"/>
<stop offset="1" stop-color="#FB6FBB"/>
</linearGradient>
<linearGradient id="paint8_linear" x1="17.7739" y1="3.6069" x2="69.0629" y2="87.025" gradientUnits="userSpaceOnUse">
<stop stop-color="#FF9085"/>
<stop offset="1" stop-color="#FB6FBB"/>
</linearGradient>
<linearGradient id="paint9_linear" x1="44.7489" y1="51.2472" x2="3.06018" y2="-32.112" gradientUnits="userSpaceOnUse">
<stop stop-color="#FF9085"/>
<stop offset="1" stop-color="#FB6FBB"/>
</linearGradient>
<linearGradient id="paint10_linear" x1="13.7528" y1="35.0389" x2="53.646" y2="35.0389" gradientUnits="userSpaceOnUse">
<stop stop-color="#311944"/>
<stop offset="1" stop-color="#893976"/>
</linearGradient>
<linearGradient id="paint11_linear" x1="28.5203" y1="38.1932" x2="3.91433" y2="91.2853" gradientUnits="userSpaceOnUse">
<stop stop-color="#FF9085"/>
<stop offset="1" stop-color="#FB6FBB"/>
</linearGradient>
<linearGradient id="paint12_linear" x1="83.2233" y1="194.904" x2="98.5534" y2="194.904" gradientUnits="userSpaceOnUse">
<stop stop-color="#444B8C"/>
<stop offset="0.4836" stop-color="#35396E"/>
<stop offset="0.9964" stop-color="#26264F"/>
</linearGradient>
<linearGradient id="paint13_linear" x1="85.2233" y1="195.314" x2="92.5993" y2="195.314" gradientUnits="userSpaceOnUse">
<stop stop-color="#444B8C"/>
<stop offset="0.4836" stop-color="#35396E"/>
<stop offset="0.9964" stop-color="#26264F"/>
</linearGradient>
<linearGradient id="paint14_linear" x1="79.0733" y1="195.608" x2="94.7338" y2="195.608" gradientUnits="userSpaceOnUse">
<stop stop-color="#444B8C"/>
<stop offset="0.4836" stop-color="#35396E"/>
<stop offset="0.9964" stop-color="#26264F"/>
</linearGradient>
<linearGradient id="paint15_linear" x1="54.2045" y1="198.705" x2="88.9114" y2="198.705" gradientUnits="userSpaceOnUse">
<stop stop-color="#444B8C"/>
<stop offset="0.4836" stop-color="#35396E"/>
<stop offset="0.9964" stop-color="#26264F"/>
</linearGradient>
<linearGradient id="paint16_linear" x1="45.8084" y1="201.335" x2="61.1384" y2="201.335" gradientUnits="userSpaceOnUse">
<stop stop-color="#444B8C"/>
<stop offset="0.4836" stop-color="#35396E"/>
<stop offset="0.9964" stop-color="#26264F"/>
</linearGradient>
<linearGradient id="paint17_linear" x1="47.808" y1="201.745" x2="55.184" y2="201.745" gradientUnits="userSpaceOnUse">
<stop stop-color="#444B8C"/>
<stop offset="0.4836" stop-color="#35396E"/>
<stop offset="0.9964" stop-color="#26264F"/>
</linearGradient>
<linearGradient id="paint18_linear" x1="41.658" y1="202.037" x2="57.3184" y2="202.037" gradientUnits="userSpaceOnUse">
<stop stop-color="#444B8C"/>
<stop offset="0.4836" stop-color="#35396E"/>
<stop offset="0.9964" stop-color="#26264F"/>
</linearGradient>
<linearGradient id="paint19_linear" x1="135.826" y1="178.345" x2="143.337" y2="217.113" gradientUnits="userSpaceOnUse">
<stop stop-color="#311944"/>
<stop offset="1" stop-color="#893976"/>
</linearGradient>
<linearGradient id="paint20_linear" x1="142.992" y1="205.919" x2="144.177" y2="193.133" gradientUnits="userSpaceOnUse">
<stop stop-color="#FFC444"/>
<stop offset="0.9964" stop-color="#F36F56"/>
</linearGradient>
<linearGradient id="paint21_linear" x1="149.205" y1="175.752" x2="156.717" y2="214.52" gradientUnits="userSpaceOnUse">
<stop stop-color="#311944"/>
<stop offset="1" stop-color="#893976"/>
</linearGradient>
<linearGradient id="paint22_linear" x1="157.696" y1="207.281" x2="158.881" y2="194.495" gradientUnits="userSpaceOnUse">
<stop stop-color="#FFC444"/>
<stop offset="0.9964" stop-color="#F36F56"/>
</linearGradient>
<linearGradient id="paint23_linear" x1="143.437" y1="141.488" x2="152.555" y2="187.842" gradientUnits="userSpaceOnUse">
<stop stop-color="#311944"/>
<stop offset="1" stop-color="#893976"/>
</linearGradient>
<linearGradient id="paint24_linear" x1="138.936" y1="164.164" x2="152.488" y2="165.244" gradientUnits="userSpaceOnUse">
<stop stop-color="#311944"/>
<stop offset="1" stop-color="#893976"/>
</linearGradient>
<linearGradient id="paint25_linear" x1="146.432" y1="166.728" x2="167.006" y2="168.368" gradientUnits="userSpaceOnUse">
<stop stop-color="#311944"/>
<stop offset="1" stop-color="#893976"/>
</linearGradient>
<linearGradient id="paint26_linear" x1="132.242" y1="98.7276" x2="149.169" y2="206.832" gradientUnits="userSpaceOnUse">
<stop stop-color="#FFC444"/>
<stop offset="0.9964" stop-color="#F36F56"/>
</linearGradient>
<linearGradient id="paint27_linear" x1="162.553" y1="206.34" x2="169.997" y2="305.54" gradientUnits="userSpaceOnUse">
<stop stop-color="#FF9085"/>
<stop offset="1" stop-color="#FB6FBB"/>
</linearGradient>
<linearGradient id="paint28_linear" x1="187.58" y1="172.516" x2="146.611" y2="102.73" gradientUnits="userSpaceOnUse">
<stop stop-color="#FF9085"/>
<stop offset="1" stop-color="#FB6FBB"/>
</linearGradient>
<linearGradient id="paint29_linear" x1="148.844" y1="95.1179" x2="157.149" y2="84.8417" gradientUnits="userSpaceOnUse">
<stop stop-color="#FFC444"/>
<stop offset="0.9964" stop-color="#F36F56"/>
</linearGradient>
<linearGradient id="paint30_linear" x1="155.116" y1="91.3279" x2="150.699" y2="76.8774" gradientUnits="userSpaceOnUse">
<stop stop-color="#444B8C"/>
<stop offset="0.9964" stop-color="#3E4177"/>
</linearGradient>
<linearGradient id="paint31_linear" x1="143.966" y1="86.281" x2="156.287" y2="80.827" gradientUnits="userSpaceOnUse">
<stop stop-color="#FFC444"/>
<stop offset="0.9964" stop-color="#F36F56"/>
</linearGradient>
<linearGradient id="paint32_linear" x1="162.457" y1="101.932" x2="204.331" y2="209.936" gradientUnits="userSpaceOnUse">
<stop stop-color="#FFC444"/>
<stop offset="0.9964" stop-color="#F36F56"/>
</linearGradient>
<linearGradient id="paint33_linear" x1="116.332" y1="37.1053" x2="97.8207" y2="90.6559" gradientUnits="userSpaceOnUse">
<stop stop-color="#444B8C"/>
<stop offset="0.9964" stop-color="#26264F"/>
</linearGradient>
<linearGradient id="paint34_linear" x1="112.709" y1="163.136" x2="124.448" y2="238.106" gradientUnits="userSpaceOnUse">
<stop stop-color="#444B8C"/>
<stop offset="0.4836" stop-color="#35396E"/>
<stop offset="0.9964" stop-color="#26264F"/>
</linearGradient>
<linearGradient id="paint35_linear" x1="113.778" y1="66.8449" x2="95.3989" y2="115.711" gradientUnits="userSpaceOnUse">
<stop stop-color="#444B8C"/>
<stop offset="0.4836" stop-color="#35396E"/>
<stop offset="0.9964" stop-color="#26264F"/>
</linearGradient>
<linearGradient id="paint36_linear" x1="107.998" y1="87.2025" x2="104.901" y2="96.1614" gradientUnits="userSpaceOnUse">
<stop stop-color="#444B8C"/>
<stop offset="0.9964" stop-color="#26264F"/>
</linearGradient>
<linearGradient id="paint37_linear" x1="159.052" y1="65.8875" x2="144.434" y2="108.177" gradientUnits="userSpaceOnUse">
<stop stop-color="#444B8C"/>
<stop offset="0.9964" stop-color="#26264F"/>
</linearGradient>
<linearGradient id="paint38_linear" x1="200.331" y1="179.152" x2="213.683" y2="264.42" gradientUnits="userSpaceOnUse">
<stop stop-color="#444B8C"/>
<stop offset="0.4836" stop-color="#35396E"/>
<stop offset="0.9964" stop-color="#26264F"/>
</linearGradient>
<linearGradient id="paint39_linear" x1="201.547" y1="70.6311" x2="180.642" y2="126.211" gradientUnits="userSpaceOnUse">
<stop stop-color="#444B8C"/>
<stop offset="0.4836" stop-color="#35396E"/>
<stop offset="0.9964" stop-color="#26264F"/>
</linearGradient>
<linearGradient id="paint40_linear" x1="194.974" y1="92.6622" x2="191.451" y2="102.852" gradientUnits="userSpaceOnUse">
<stop stop-color="#444B8C"/>
<stop offset="0.9964" stop-color="#26264F"/>
</linearGradient>
<linearGradient id="paint41_linear" x1="204.396" y1="93.3527" x2="200.808" y2="103.733" gradientUnits="userSpaceOnUse">
<stop stop-color="#444B8C"/>
<stop offset="0.9964" stop-color="#26264F"/>
</linearGradient>
<linearGradient id="paint42_linear" x1="121.847" y1="94.5893" x2="125.605" y2="118.586" gradientUnits="userSpaceOnUse">
<stop stop-color="#FFC444"/>
<stop offset="0.9964" stop-color="#F36F56"/>
</linearGradient>
<linearGradient id="paint43_linear" x1="153.406" y1="96.5065" x2="157.163" y2="120.504" gradientUnits="userSpaceOnUse">
<stop stop-color="#FFC444"/>
<stop offset="0.9964" stop-color="#F36F56"/>
</linearGradient>
<linearGradient id="paint44_linear" x1="153.758" y1="101.931" x2="153.459" y2="97.2206" gradientUnits="userSpaceOnUse">
<stop stop-color="#444B8C"/>
<stop offset="0.9964" stop-color="#26264F"/>
</linearGradient>
<linearGradient id="paint45_linear" x1="153.256" y1="102.436" x2="152.833" y2="95.7669" gradientUnits="userSpaceOnUse">
<stop stop-color="#444B8C"/>
<stop offset="0.9964" stop-color="#26264F"/>
</linearGradient>
<clipPath id="clip0">
<rect width="214" height="214" fill="white"/>
</clipPath>
</defs>
</svg>
