<svg width="188" height="195" viewBox="0 0 188 195" fill="none" xmlns="http://www.w3.org/2000/svg">
<g clip-path="url(#clip0)">
<path d="M106.604 193.825C101.259 191.978 98.3692 185.988 100.15 180.446L115.341 133.176L73.1781 126.43C67.6097 125.539 63.7923 120.137 64.6515 114.364C65.5108 108.59 70.7192 104.631 76.2895 105.523L130.395 114.179C136.628 115.176 140.516 121.757 138.518 127.976L119.507 187.133C117.727 192.675 111.949 195.671 106.604 193.825Z" fill="#FFB69E"/>
<path d="M106.604 193.825C101.259 191.978 98.3692 185.988 100.15 180.446L115.341 133.176L73.1781 126.43C67.6097 125.539 63.7923 120.137 64.6515 114.364C65.5108 108.59 70.7192 104.631 76.2895 105.523L130.395 114.179C136.628 115.176 140.516 121.757 138.518 127.976L119.507 187.133C117.727 192.675 111.949 195.671 106.604 193.825Z" fill="#F2A88F"/>
<path d="M73.1781 126.43L115.341 133.176L124.612 113.254L76.2894 105.523C70.7192 104.631 65.5108 108.591 64.6515 114.364C63.7922 120.137 67.61 125.54 73.1781 126.43Z" fill="#3C5064"/>
<path d="M99.7543 39.838L59.0328 41.0872C54.856 41.2155 51.4133 44.5198 50.9649 48.8277C50.1293 56.8505 48.7511 73.236 47.7247 85.9931C47.3193 91.0335 51.1561 95.354 56.0342 95.354C60.3394 95.354 63.9368 91.9555 64.336 87.5113L66.7606 60.5387L100.353 57.7369C105.12 57.5655 108.853 53.4194 108.685 48.477C108.519 43.5342 104.521 39.6666 99.7543 39.838Z" fill="#FFB69E"/>
<path d="M108.684 48.4771C108.518 43.5344 104.52 39.6668 99.7529 39.8385L77.7061 40.515V59.6259L100.352 57.7374C105.119 57.5652 108.852 53.4196 108.684 48.4771Z" fill="#FA870A"/>
<path d="M69.0012 192.501C64.3613 189.187 63.1908 182.601 66.3868 177.79L91.3093 140.274L66.2861 123.384C61.5641 120.197 60.2283 113.645 63.3021 108.749C66.3758 103.853 72.6952 102.468 77.4172 105.655L111.217 128.468C116.029 131.717 117.303 138.44 114.052 143.333L83.1896 189.79C79.9936 194.6 73.6417 195.815 69.0012 192.501Z" fill="#FFB69E"/>
<path d="M66.2862 123.385L89.3676 138.964L104.961 124.246L77.4174 105.655C72.6954 102.468 66.376 103.854 63.3022 108.749C60.2281 113.645 61.5643 120.197 66.2862 123.385Z" fill="#3C5A73"/>
<path d="M62.1421 111.268L88.1173 121.625C96.8708 124.733 106.398 119.896 109.396 110.82L126.372 59.4348C128.239 53.7834 125.333 47.633 119.883 45.6971L97.466 37.736C92.0154 35.8002 86.0835 38.8124 84.2164 44.4638L62.1421 111.268Z" fill="#FFA50A"/>
<path d="M123.093 36.8282C132.723 36.8282 140.529 28.7347 140.529 18.7508C140.529 8.76689 132.723 0.67334 123.093 0.67334C113.464 0.67334 105.658 8.76689 105.658 18.7508C105.658 28.7347 113.464 36.8282 123.093 36.8282Z" fill="#FFB69E"/>
<path d="M68.6296 116.284L64.7089 80.7397C64.3801 77.76 65.5116 74.8087 67.7232 72.8755L99.8821 44.7687C103.529 41.5813 108.978 42.0629 112.052 45.8443C115.128 49.6237 114.662 55.2747 111.015 58.4625L82.3962 83.475L85.7907 114.249C86.3326 119.163 82.9308 123.601 78.1917 124.163C73.4584 124.724 69.1714 121.201 68.6296 116.284Z" fill="#FFB69E"/>
<path d="M111.014 58.4615C114.661 55.2741 115.128 49.6227 112.051 45.8433C108.977 42.0619 103.528 41.5803 99.8814 44.7677L85.1084 57.6791L96.8018 70.8823L111.014 58.4615Z" fill="#FA870A"/>
</g>
<defs>
<clipPath id="clip0">
<rect width="186.815" height="193.697" fill="white" transform="translate(0.703613 0.67334)"/>
</clipPath>
</defs>
</svg>
