<svg width="205" height="213" viewBox="0 0 205 213" fill="none" xmlns="http://www.w3.org/2000/svg">
<g clip-path="url(#clip0)">
<path d="M105.237 167.035L93.2311 160.063L83.5815 167.035V170.906C83.5815 177.106 88.4293 182.133 94.4094 182.133C100.389 182.133 105.237 177.106 105.237 170.906V167.035Z" fill="#FFDDCE"/>
<path d="M97.6068 181.637C96.5972 181.957 95.5218 182.132 94.4094 182.132C88.4309 182.132 83.5815 177.109 83.5815 170.906V167.035L93.2311 160.063L96.7746 162.123L89.9763 167.035V170.906C89.9763 175.955 93.1861 180.218 97.6068 181.637Z" fill="#FFCBBE"/>
<path d="M121.887 109.316V113.469L110.715 123.979L105.237 139.606L86.3197 144.152L61.9256 139.606L45.2744 113.467L45.2756 109.316C45.2756 90.2674 60.1661 74.8242 78.5422 74.8242H88.62C106.992 74.8242 121.887 90.2674 121.887 109.316Z" fill="#BFE19F"/>
<path d="M54.0532 127.247L45.2744 113.467V109.314C45.2744 90.2654 60.1649 74.8223 78.541 74.8223H84.0207C65.6446 74.8223 50.7541 90.2654 50.7541 109.314V113.467L57.0759 123.39L54.0532 127.247Z" fill="#A7D3A3"/>
<path d="M113.989 59.5915H53.1731C48.2895 59.5915 44.3306 55.4867 44.3306 50.4232C44.3306 45.3597 48.2895 41.2549 53.1731 41.2549H113.989C118.873 41.2549 122.832 45.3597 122.832 50.4232C122.832 55.4871 118.873 59.5915 113.989 59.5915Z" fill="#EAAC9D"/>
<path d="M83.582 89.0281C69.4428 89.0281 57.981 77.1436 57.981 62.4839V37.3366C57.981 22.6765 69.4431 10.7925 83.582 10.7925C97.7212 10.7925 109.183 22.6769 109.183 37.3366V62.4839C109.183 77.144 97.7212 89.0281 83.582 89.0281Z" fill="#FFDDCE"/>
<path d="M90.153 88.1481C88.0561 88.7256 85.8579 89.0303 83.584 89.0303C69.4428 89.0303 57.981 77.1463 57.981 62.4841V37.3402C57.981 22.678 69.4428 10.7939 83.584 10.7939C85.8579 10.7939 88.0561 11.0986 90.153 11.6762C79.1924 14.6854 71.119 25.0357 71.119 37.3402V62.4845C71.1194 74.7886 79.1928 85.1393 90.153 88.1481Z" fill="#FFCBBE"/>
<path d="M83.5805 66.7292C79.1586 66.7292 75.0011 64.9437 71.8747 61.7017C70.6713 60.454 70.6713 58.432 71.8747 57.1843C73.078 55.9366 75.0286 55.9366 76.2316 57.1843C78.1949 59.22 80.8046 60.3407 83.5809 60.3407C86.3573 60.3407 88.9673 59.22 90.9303 57.1843C92.1332 55.937 94.0838 55.937 95.2872 57.1843C96.4905 58.4316 96.4905 60.454 95.2872 61.7017C92.1599 64.9441 88.0024 66.7292 83.5805 66.7292Z" fill="#DF75A5"/>
<path d="M76.9018 49.1788C75.2005 49.1788 73.8213 47.7488 73.8213 45.9848V40.6228C73.8213 38.8587 75.2005 37.4287 76.9018 37.4287C78.6032 37.4287 79.9824 38.8587 79.9824 40.6228V45.9848C79.9824 47.7488 78.6032 49.1788 76.9018 49.1788Z" fill="#365E7D"/>
<path d="M90.2622 49.1788C88.5608 49.1788 87.1816 47.7488 87.1816 45.9848V40.6228C87.1816 38.8587 88.5608 37.4287 90.2622 37.4287C91.9636 37.4287 93.3428 38.8587 93.3428 40.6228V45.9848C93.3432 47.7488 91.9636 49.1788 90.2622 49.1788Z" fill="#365E7D"/>
<path d="M61.6403 5.58252H63.8896C70.7114 5.58252 76.2417 11.3166 76.2417 18.3897V18.4881C76.2417 25.5612 70.7114 31.2949 63.8896 31.2949H61.6403C54.8185 31.2949 49.2886 25.5608 49.2886 18.4881V18.3897C49.2882 11.3166 54.8185 5.58252 61.6403 5.58252Z" fill="#C0976F"/>
<path d="M67.1886 30.8271C66.138 31.1339 65.0315 31.2939 63.8907 31.2939H61.6435C54.8205 31.2939 49.2886 25.5623 49.2886 18.4879V18.3899C49.2886 11.3156 54.8205 5.58398 61.6435 5.58398H63.8907C65.0315 5.58398 66.138 5.74398 67.1886 6.05073C61.9653 7.54027 58.1315 12.4979 58.1315 18.3895V18.4875C58.1311 24.3799 61.9649 29.3376 67.1886 30.8271Z" fill="#B28968"/>
<path d="M74.0984 14.6605C74.0984 24.8277 82.0474 33.0695 91.8533 33.0695C107.802 33.0695 120.732 19.6641 120.732 3.12706V0.6875H86.9286C79.586 0.6875 73.7375 7.05699 74.0984 14.6605Z" fill="#C0976F"/>
<path d="M97.616 32.4728C95.7547 32.8639 93.8249 33.0685 91.8524 33.0685C82.0445 33.0685 74.0983 24.8291 74.0983 14.6599C73.7382 7.05639 79.5876 0.688965 86.9293 0.688965H97.1961C89.8544 0.688965 84.0047 7.05639 84.3651 14.6599C84.3643 23.2156 89.9911 30.4053 97.616 32.4728Z" fill="#B28968"/>
<path d="M105.237 139.604V167.035H83.5809V199.839L61.9248 207.781V139.604H105.237Z" fill="#BED8FB"/>
<path d="M61.9268 139.606H67.4128V212.356H61.9268V139.606Z" fill="#9DC6FB"/>
<path d="M61.9256 113.467H45.2744V154.68C45.2744 159.447 49.0021 163.312 53.6002 163.312C58.1983 163.312 61.926 159.447 61.926 154.68V113.467H61.9256Z" fill="#FFDDCE"/>
<path d="M56.339 162.83C55.4822 163.146 54.5591 163.313 53.599 163.313C49.0009 163.313 45.272 159.447 45.272 154.679V113.467H50.7517V154.679C50.7521 158.451 53.0882 161.659 56.339 162.83Z" fill="#FFCBBE"/>
<path d="M83.5822 199.839V212.356H57.8308C56.1622 212.356 54.6542 211.655 53.5625 210.523C52.4708 209.391 51.7949 207.828 51.7949 206.098C51.7949 202.641 54.4979 199.839 57.8308 199.839H83.5822Z" fill="#407093"/>
<path d="M63.661 210.523C64.7528 211.655 66.2607 212.356 67.9294 212.356H57.8309C56.1622 212.356 54.6542 211.655 53.5625 210.523C52.4708 209.391 51.7949 207.828 51.7949 206.098C51.7949 202.641 54.4979 199.839 57.8309 199.839H67.9294C64.5961 199.839 61.8935 202.641 61.8935 206.098C61.8935 207.828 62.5689 209.391 63.661 210.523Z" fill="#365E7D"/>
<path d="M121.888 113.469H105.236V154.682C105.236 159.449 108.964 163.314 113.562 163.314C118.16 163.314 121.888 159.449 121.888 154.682V113.469H121.888Z" fill="#FFDDCE"/>
<path d="M116.303 162.831C115.446 163.148 114.523 163.314 113.563 163.314C108.965 163.314 105.236 159.448 105.236 154.68V113.469H110.716V154.68C110.716 158.452 113.052 161.661 116.303 162.831Z" fill="#FFCBBE"/>
<path d="M136.146 147.643L136.527 148.324C137.875 150.726 140.786 151.637 143.19 150.408L150.584 146.627C153.232 145.273 154.221 141.876 152.737 139.23L151.788 137.537C150.304 134.89 146.967 134.1 144.522 135.817L137.695 140.609C135.475 142.166 134.798 145.24 136.146 147.643Z" fill="#FFE07D"/>
<path d="M142.945 172.864L142.948 173.652C142.956 176.431 145.038 178.728 147.713 178.91L155.939 179.469C158.886 179.669 161.38 177.24 161.37 174.178L161.365 172.221C161.356 169.159 158.848 166.745 155.902 166.964L147.679 167.575C145.006 167.774 142.937 170.085 142.945 172.864Z" fill="#FFE07D"/>
<path d="M136.672 198.231L136.294 198.915C134.962 201.326 135.656 204.395 137.885 205.939L144.74 210.688C147.195 212.389 150.527 211.578 151.995 208.922L152.935 207.223C154.403 204.567 153.395 201.177 150.739 199.839L143.323 196.105C140.911 194.892 138.005 195.821 136.672 198.231Z" fill="#FFE07D"/>
</g>
<defs>
<clipPath id="clip0">
<rect width="204.148" height="211.669" fill="white" transform="translate(0.777832 0.6875)"/>
</clipPath>
</defs>
</svg>
