<svg width="182" height="189" viewBox="0 0 182 189" fill="none" xmlns="http://www.w3.org/2000/svg">
<g clip-path="url(#clip0)">
<path d="M90.9629 188.032C140.955 188.032 181.481 146.013 181.481 94.1793C181.481 42.3456 140.955 0.326172 90.9629 0.326172C40.9709 0.326172 0.444336 42.3456 0.444336 94.1793C0.444336 146.013 40.9709 188.032 90.9629 188.032Z" fill="#0FE1C2"/>
<path d="M90.9629 158.337C125.137 158.337 152.841 129.613 152.841 94.1794C152.841 58.7462 125.137 30.022 90.9629 30.022C56.7886 30.022 29.085 58.7462 29.085 94.1794C29.085 129.613 56.7886 158.337 90.9629 158.337Z" fill="#66FADE"/>
<path d="M25.4521 175.991C25.4521 175.991 6.59424 183.812 6.59424 186.012C6.59424 188.212 9.65879 188.028 14.3732 188.028C19.0876 188.028 24.2736 186.378 26.7488 187.234C29.2239 188.089 33.8205 188.7 35.1171 186.623C36.4137 184.545 35.1171 178.313 35.1171 178.313C28.4202 180.693 25.4521 175.991 25.4521 175.991Z" fill="#FFAEA1"/>
<path d="M156.474 175.991C156.474 175.991 175.332 183.812 175.332 186.012C175.332 188.212 172.268 188.028 167.553 188.028C162.839 188.028 157.653 186.378 155.178 187.234C152.702 188.089 148.106 188.7 146.809 186.623C145.513 184.545 146.809 178.313 146.809 178.313C153.506 180.693 156.474 175.991 156.474 175.991Z" fill="#FFAEA1"/>
<path d="M146.808 178.313C153.505 180.693 156.472 175.992 156.472 175.992C151.168 166.582 157.887 124.628 151.404 118.885C144.922 113.141 111.293 111.404 111.293 111.404L90.962 102.998L70.6307 111.404C70.6307 111.404 37.0023 113.141 30.5196 118.885C24.0373 124.629 30.7555 166.582 25.4517 175.992C25.4517 175.992 28.4197 180.693 35.1163 178.313C35.1163 178.313 43.7201 145.525 43.7201 140.881C43.7201 136.237 41.9522 130.005 41.9522 130.005C41.9522 130.005 59.2098 134.958 75.4253 133.06C85.0723 131.931 90.962 131.39 90.962 131.39C90.962 131.39 96.8513 131.93 106.499 133.06C122.714 134.958 139.972 130.005 139.972 130.005C139.972 130.005 138.204 136.237 138.204 140.881C138.203 145.525 146.808 178.313 146.808 178.313Z" fill="#0C99E6"/>
<path d="M162.918 46.3562C159.471 46.3562 96.1362 46.3562 96.1362 46.3562V36.8242H90.9629H85.7895V46.3562C85.7895 46.3562 22.4552 46.3562 19.0077 46.3562C15.5602 46.3562 0.444336 46.9061 0.444336 48.4642C0.444336 50.0223 8.40007 50.0223 9.19564 50.3889C9.99121 50.7555 15.6486 52.4053 16.8862 52.1303C18.1237 51.8554 20.1569 50.9388 20.1569 50.9388C20.1569 50.9388 38.5434 55.7048 43.9357 55.3382H65.9759C67.0989 55.3382 68.4259 61.9614 69.3749 67.7829H112.55C113.5 61.9614 114.827 55.3382 115.95 55.3382H137.99C143.382 55.7048 161.768 50.9388 161.768 50.9388C161.768 50.9388 163.802 51.8554 165.039 52.1303C166.277 52.4053 171.934 50.7555 172.73 50.3889C173.525 50.0223 181.481 50.0223 181.481 48.4642C181.481 46.9061 166.365 46.3562 162.918 46.3562Z" fill="#FFAEA1"/>
<path d="M70.4646 58.6764C69.813 56.6809 68.0072 55.3384 65.9751 55.3384C67.0981 55.3384 68.4251 61.9616 69.3741 67.7831H73.439L70.4646 58.6764Z" fill="#F4958C"/>
<path d="M107.823 62.8807V46.356H100.751V52.3186C100.751 57.9233 96.3686 62.4672 90.963 62.4672C85.5573 62.4672 81.1749 57.9233 81.1749 52.3186V46.356H74.1032V62.8807C74.1032 65.5881 71.9862 67.7831 69.375 67.7831C70.1193 72.347 70.6317 76.4186 70.6317 76.4186V111.404C70.6317 111.404 79.5629 117.093 90.963 117.093C102.363 117.093 111.294 111.404 111.294 111.404V76.4186C111.294 76.4186 111.807 72.3474 112.551 67.7831C109.94 67.7831 107.823 65.5881 107.823 62.8807Z" fill="#3E4A68"/>
<path d="M70.6317 111.403C70.6317 111.403 72.8423 112.811 76.4659 114.225V80.0662C76.4659 79.6915 76.451 79.318 76.4291 78.9447C80.4625 78.7171 86.9557 77.0464 86.9557 77.0464C79.2946 77.0464 75.5317 74.1861 74.4999 71.0274L72.9024 66.1367C72.796 66.2606 72.6835 66.3787 72.5654 66.4909C72.5612 66.4949 72.5569 66.4989 72.5527 66.503C72.4403 66.6093 72.3229 66.7094 72.2009 66.8043C72.1896 66.8131 72.1782 66.8219 72.1669 66.8307C72.0524 66.918 71.9339 66.9997 71.8116 67.076C71.7914 67.0888 71.7713 67.1016 71.7508 67.1141C71.6365 67.183 71.5192 67.2465 71.3993 67.3055C71.3696 67.3201 71.3402 67.3359 71.3098 67.3502C71.1974 67.4026 71.0825 67.4488 70.9654 67.4921C70.9262 67.5068 70.888 67.5229 70.8484 67.5365C70.737 67.5746 70.6228 67.6054 70.5075 67.6351C70.4616 67.6468 70.4167 67.6611 70.3704 67.6717C70.2537 67.6978 70.1349 67.7157 70.0153 67.7326C69.9694 67.7392 69.9248 67.7491 69.8785 67.7542C69.713 67.7726 69.5451 67.7828 69.375 67.7828C70.1193 72.3468 70.6317 76.4184 70.6317 76.4184V111.403Z" fill="#303A59"/>
<path d="M85.7886 46.3562C85.7886 46.3562 94.0183 46.1729 94.7255 36.8242H85.7886V46.3562Z" fill="#F4958C"/>
<path d="M103.17 15.8806C103.17 15.8806 103.847 10.6486 101.417 7.7271C101.053 7.28936 100.361 7.58742 100.406 8.16337L100.434 8.53365C100.434 8.53365 99.0396 5.71255 95.4507 4.60501C94.9525 4.4514 94.5335 5.01965 94.7987 5.48342L94.9624 5.76974C94.9624 5.76974 92.7988 3.52644 85.6287 3.37172C85.1022 3.36036 84.8413 4.03126 85.226 4.40411L85.6365 4.80225C85.6362 4.80225 82.9365 5.29608 79.36 7.54122C78.9187 7.81838 79.0286 8.51311 79.5318 8.63226L79.8246 8.70155C78.4403 10.352 77.6748 12.0711 77.2848 13.1786C77.1154 13.66 77.5697 14.1241 78.0312 13.9408C78.4926 13.7575 76.9326 19.2267 78.2635 23.7873L90.9633 26.7617L103.663 23.787C103.663 23.7873 104.433 19.954 103.17 15.8806Z" fill="#8C4F5C"/>
<path d="M85.7686 15.6167C82.027 14.7848 79.3648 13.2619 78.0311 13.9405C78.0311 13.9405 76.9325 19.2263 78.2634 23.787L86.1028 25.623L85.7686 15.6167Z" fill="#7B3C47"/>
<path d="M100.655 26.3067C100.655 26.3067 101.904 23.1553 104.129 23.8871C106.354 24.6185 104.075 31.4478 99.7329 31.8778L100.655 26.3067Z" fill="#FFAEA1"/>
<path d="M81.272 26.3067C81.272 26.3067 80.0238 23.1553 77.7983 23.8871C75.5728 24.6188 77.852 31.4478 82.1945 31.8778L81.272 26.3067Z" fill="#F4958C"/>
<path d="M100.966 22.33C100.839 22.0084 100.736 21.5483 100.639 21.0167L90.963 18.1069L81.2871 21.0164C81.1898 21.548 81.087 22.0081 80.96 22.3296C80.3883 23.7755 79.6698 24.0699 79.5743 24.1036C79.5672 24.3298 79.563 24.5571 79.563 24.7866C79.563 33.4908 84.667 43.6988 90.963 43.6988C97.259 43.6988 102.363 33.4908 102.363 24.7866C102.363 24.5571 102.359 24.3298 102.352 24.1036C102.256 24.0703 101.538 23.7755 100.966 22.33Z" fill="#FFCFC2"/>
<path d="M83.4832 24.7874C83.4832 23.1655 83.6625 21.6305 83.992 20.2036L81.2871 21.0171C81.1898 21.5487 81.087 22.0088 80.96 22.3303C80.3883 23.7763 79.6698 24.0707 79.5743 24.1044C79.5672 24.3306 79.563 24.5579 79.563 24.7874C79.563 33.4915 84.667 43.6995 90.963 43.6995C91.6313 43.6995 92.2862 43.5833 92.9233 43.3674C87.5612 41.5479 83.4832 32.5673 83.4832 24.7874Z" fill="#FFAEA1"/>
<path d="M90.965 16.5105C86.9801 16.5105 85.385 15.2006 84.0064 15.1973H84.005C83.75 15.1969 83.5022 15.2413 83.2479 15.3468C81.9573 15.8836 81.6617 18.9818 81.2891 21.0165H100.641C100.268 18.9818 99.973 15.8836 98.6821 15.3468C98.4279 15.2413 98.1803 15.1969 97.9251 15.1973H97.9236C96.545 15.2006 94.95 16.5105 90.965 16.5105Z" fill="white"/>
<path d="M88.7922 18.7633C88.7922 17.519 89.765 16.5105 90.965 16.5105C86.9801 16.5105 85.385 15.2006 84.0064 15.1973H84.005C83.75 15.1969 83.5022 15.2413 83.248 15.3468C81.9573 15.8836 81.6617 18.9818 81.2891 21.0165H90.965C89.765 21.0165 88.7922 20.0076 88.7922 18.7633Z" fill="#EBF0F3"/>
<path d="M35.1163 178.313C35.1163 178.313 39.859 160.24 42.3015 149.029C41.0675 151.835 38.3428 153.787 35.175 153.787C31.4764 153.787 28.3903 151.125 27.5689 147.551C27.7733 159.46 27.9975 171.475 25.4517 175.991C25.4517 175.991 28.4197 180.692 35.1163 178.313Z" fill="#066AE7"/>
<path d="M146.808 178.313C146.808 178.313 142.065 160.24 139.623 149.029C140.857 151.835 143.581 153.787 146.749 153.787C150.448 153.787 153.534 151.125 154.355 147.551C154.151 159.46 153.927 171.475 156.472 175.991C156.472 175.991 153.504 180.692 146.808 178.313Z" fill="#066AE7"/>
</g>
<defs>
<clipPath id="clip0">
<rect width="181.037" height="187.706" fill="white" transform="translate(0.444336 0.326172)"/>
</clipPath>
</defs>
</svg>
