<svg width="233" height="233" viewBox="0 0 233 233" fill="none" xmlns="http://www.w3.org/2000/svg">
<path d="M116.5 227C164.92 227 191.838 227 209.419 209.419C227 191.838 227 164.92 227 116.5C227 68.0795 227 41.1619 209.419 23.5809C191.838 6 164.92 6 116.5 6C68.0795 6 41.1619 6 23.5809 23.5809C6 41.1619 6 68.0795 6 116.5C6 164.92 6 191.838 23.5809 209.419C41.1619 227 68.0795 227 116.5 227Z" fill="url(#paint0_radial)"/>
<g style="mix-blend-mode:overlay">
<path d="M116.5 227C164.92 227 191.838 227 209.419 209.419C227 191.838 227 164.92 227 116.5C227 68.0795 227 41.1619 209.419 23.5809C191.838 6 164.92 6 116.5 6C68.0795 6 41.1619 6 23.5809 23.5809C6 41.1619 6 68.0795 6 116.5C6 164.92 6 191.838 23.5809 209.419C41.1619 227 68.0795 227 116.5 227Z" fill="url(#paint1_linear)"/>
</g>
<path d="M116.5 227C164.92 227 191.838 227 209.419 209.419C227 191.838 227 164.92 227 116.5C227 68.0795 227 41.1619 209.419 23.5809C191.838 6 164.92 6 116.5 6C68.0795 6 41.1619 6 23.5809 23.5809C6 41.1619 6 68.0795 6 116.5C6 164.92 6 191.838 23.5809 209.419C41.1619 227 68.0795 227 116.5 227Z" fill="url(#paint2_linear)"/>
<g style="mix-blend-mode:soft-light" filter="url(#filter0_f)">
<path d="M208.358 208.358C199.877 216.84 189.102 221.148 174.307 223.318C159.46 225.496 140.753 225.5 116.5 225.5C92.247 225.5 73.5397 225.496 58.6934 223.318C43.8976 221.148 33.1232 216.84 24.6416 208.358C16.16 199.877 11.8524 189.102 9.68173 174.307C7.50366 159.46 7.5 140.753 7.5 116.5C7.5 92.247 7.50366 73.5397 9.68173 58.6934C11.8524 43.8976 16.16 33.1232 24.6416 24.6416C33.1232 16.16 43.8976 11.8524 58.6934 9.68173C73.5397 7.50366 92.247 7.5 116.5 7.5C140.753 7.5 159.46 7.50366 174.307 9.68173C189.102 11.8524 199.877 16.16 208.358 24.6416C216.84 33.1232 221.148 43.8976 223.318 58.6934C225.496 73.5397 225.5 92.247 225.5 116.5C225.5 140.753 225.496 159.46 223.318 174.307C221.148 189.102 216.84 199.877 208.358 208.358Z" stroke="url(#paint3_linear)" stroke-width="3"/>
</g>
<g style="mix-blend-mode:soft-light" filter="url(#filter1_f)">
<path d="M208.005 208.005C199.626 216.383 188.969 220.662 174.234 222.824C159.432 224.995 140.767 225 116.5 225C92.2328 225 73.5679 224.995 58.766 222.824C44.0315 220.662 33.3738 216.383 24.9951 208.005C16.6165 199.626 12.3381 188.969 10.1764 174.234C8.00488 159.432 8 140.767 8 116.5C8 92.2328 8.00488 73.5679 10.1764 58.766C12.3381 44.0315 16.6165 33.3738 24.9951 24.9951C33.3738 16.6165 44.0315 12.3381 58.766 10.1764C73.5679 8.00488 92.2328 8 116.5 8C140.767 8 159.432 8.00488 174.234 10.1764C188.969 12.3381 199.626 16.6165 208.005 24.9951C216.383 33.3738 220.662 44.0315 222.824 58.766C224.995 73.5679 225 92.2328 225 116.5C225 140.767 224.995 159.432 222.824 174.234C220.662 188.969 216.383 199.626 208.005 208.005Z" stroke="url(#paint4_linear)" stroke-width="4"/>
</g>
<defs>
<filter id="filter0_f" x="4" y="4" width="225" height="225" filterUnits="userSpaceOnUse" color-interpolation-filters="sRGB">
<feFlood flood-opacity="0" result="BackgroundImageFix"/>
<feBlend mode="normal" in="SourceGraphic" in2="BackgroundImageFix" result="shape"/>
<feGaussianBlur stdDeviation="1" result="effect1_foregroundBlur"/>
</filter>
<filter id="filter1_f" x="0" y="0" width="233" height="233" filterUnits="userSpaceOnUse" color-interpolation-filters="sRGB">
<feFlood flood-opacity="0" result="BackgroundImageFix"/>
<feBlend mode="normal" in="SourceGraphic" in2="BackgroundImageFix" result="shape"/>
<feGaussianBlur stdDeviation="3" result="effect1_foregroundBlur"/>
</filter>
<radialGradient id="paint0_radial" cx="0" cy="0" r="1" gradientUnits="userSpaceOnUse" gradientTransform="translate(116.5 116.5) rotate(90) scale(110.5)">
<stop stop-color="white"/>
<stop offset="1" stop-color="#F6F6F6"/>
</radialGradient>
<linearGradient id="paint1_linear" x1="3.40802" y1="6" x2="63.9087" y2="265.085" gradientUnits="userSpaceOnUse">
<stop stop-opacity="0"/>
<stop offset="0.605667" stop-opacity="0.0781197"/>
<stop offset="1" stop-opacity="0.26"/>
</linearGradient>
<linearGradient id="paint2_linear" x1="3.40802" y1="6" x2="63.9087" y2="265.085" gradientUnits="userSpaceOnUse">
<stop offset="0.140625" stop-color="white" stop-opacity="0.26"/>
<stop offset="0.640625" stop-color="white" stop-opacity="0.0781197"/>
<stop offset="1" stop-color="white" stop-opacity="0"/>
</linearGradient>
<linearGradient id="paint3_linear" x1="116.5" y1="227" x2="116.5" y2="192.469" gradientUnits="userSpaceOnUse">
<stop/>
<stop offset="1" stop-opacity="0"/>
</linearGradient>
<linearGradient id="paint4_linear" x1="116.5" y1="6" x2="116.5" y2="116.5" gradientUnits="userSpaceOnUse">
<stop stop-color="white"/>
<stop offset="1" stop-color="white" stop-opacity="0"/>
</linearGradient>
</defs>
</svg>