<svg width="100" height="100" viewBox="0 0 100 100" fill="none" xmlns="http://www.w3.org/2000/svg">
<g clip-path="url(#clip0)">
<path d="M56.6873 99.2512C53.8261 98.3023 52.2794 95.2244 53.2327 92.3766L61.3642 68.0866L38.7949 64.6205C35.8141 64.1626 33.7707 61.3866 34.2307 58.42C34.6906 55.4534 37.4786 53.4188 40.4603 53.8772L69.4226 58.3251C72.759 58.8376 74.8403 62.2192 73.7704 65.4148L63.5941 95.8126C62.6412 98.6602 59.5487 100.2 56.6873 99.2512Z" fill="#FFB69E"/>
<path d="M56.6873 99.2512C53.8261 98.3023 52.2794 95.2244 53.2327 92.3766L61.3642 68.0866L38.7949 64.6205C35.8141 64.1626 33.7707 61.3866 34.2307 58.42C34.6906 55.4534 37.4786 53.4188 40.4603 53.8772L69.4226 58.3251C72.759 58.8376 74.8403 62.2192 73.7704 65.4148L63.5941 95.8126C62.6412 98.6602 59.5487 100.2 56.6873 99.2512Z" fill="#F2A88F"/>
<path d="M38.7948 64.6205L61.3642 68.0867L66.3268 57.8499L40.4603 53.8775C37.4786 53.4191 34.6906 55.4537 34.2307 58.4202C33.7707 61.3868 35.8143 64.1629 38.7948 64.6205Z" fill="#3C5064"/>
<path d="M53.0209 20.1249L31.2231 20.7668C28.9873 20.8327 27.1445 22.5306 26.9045 24.7443C26.4572 28.8668 25.7195 37.2865 25.17 43.8417C24.953 46.4317 27.0068 48.6518 29.618 48.6518C31.9226 48.6518 33.8482 46.9055 34.0619 44.6219L35.3597 30.762L53.3414 29.3222C55.8931 29.2342 57.8915 27.1037 57.8013 24.5641C57.7128 22.0242 55.5726 20.0368 53.0209 20.1249Z" fill="#FFB69E"/>
<path d="M57.8008 24.5641C57.7121 22.0243 55.572 20.0369 53.0202 20.1251L41.2188 20.4727V30.2929L53.3407 29.3225C55.8926 29.234 57.891 27.1038 57.8008 24.5641Z" fill="#FA870A"/>
<path d="M36.5586 98.5708C34.075 96.868 33.4484 93.4837 35.1592 91.0115L48.4999 71.734L35.1053 63.0553C32.5777 61.4176 31.8626 58.0506 33.508 55.5348C35.1533 53.0193 38.536 52.3072 41.0636 53.945L59.1561 65.6675C61.7323 67.3368 62.414 70.7917 60.6741 73.3057L44.1535 97.1779C42.4428 99.6495 39.0427 100.274 36.5586 98.5708Z" fill="#FFB69E"/>
<path d="M35.1063 63.0554L47.4616 71.0606L55.8083 63.4978L41.0647 53.9451C38.5371 52.3075 35.1544 53.0196 33.509 55.5349C31.8635 58.0507 32.5787 61.4175 35.1063 63.0554Z" fill="#3C5A73"/>
<path d="M32.8877 56.8291L46.792 62.1509C51.4776 63.7483 56.5774 61.2627 58.1823 56.599L67.2691 30.1945C68.2685 27.2906 66.7134 24.1302 63.7957 23.1354L51.7962 19.0446C48.8785 18.0499 45.7033 19.5977 44.7038 22.5017L32.8877 56.8291Z" fill="#FFA50A"/>
<path d="M65.5145 18.5782C70.6689 18.5782 74.8474 14.4193 74.8474 9.28911C74.8474 4.15887 70.6689 0 65.5145 0C60.3601 0 56.1816 4.15887 56.1816 9.28911C56.1816 14.4193 60.3601 18.5782 65.5145 18.5782Z" fill="#FFB69E"/>
<path d="M36.3601 59.4064L34.2615 41.1422C34.0855 39.6111 34.6912 38.0945 35.875 37.1011L53.0893 22.6584C55.0415 21.0206 57.958 21.2681 59.6037 23.2111C61.2505 25.1532 61.0006 28.057 59.0484 29.695L43.7293 42.5477L45.5463 58.3609C45.8364 60.8858 44.0154 63.1665 41.4786 63.4552C38.945 63.7435 36.6502 61.9333 36.3601 59.4064Z" fill="#FFB69E"/>
<path d="M59.0476 29.6945C60.9998 28.0567 61.2497 25.1527 59.6029 23.2106C57.9574 21.2676 55.0407 21.0201 53.0885 22.6579L45.1807 29.2925L51.44 36.0769L59.0476 29.6945Z" fill="#FA870A"/>
</g>
<defs>
<clipPath id="clip0">
<rect width="100" height="99.5312" fill="white"/>
</clipPath>
</defs>
</svg>
