<svg width="188" height="188" viewBox="0 0 188 188" fill="none" xmlns="http://www.w3.org/2000/svg">
<path d="M94 188C145.915 188 188 145.915 188 94C188 42.0852 145.915 0 94 0C42.0852 0 0 42.0852 0 94C0 145.915 42.0852 188 94 188Z" fill="#0FE1C2"/>
<path d="M94 158.258C129.489 158.258 158.258 129.489 158.258 94C158.258 58.5114 129.489 29.7422 94 29.7422C58.5114 29.7422 29.7422 58.5114 29.7422 94C29.7422 129.489 58.5114 158.258 94 158.258Z" fill="#66FADE"/>
<path d="M25.9699 175.939C25.9699 175.939 6.38672 183.773 6.38672 185.976C6.38672 188.179 9.56913 187.995 14.4648 187.995C19.3606 187.995 24.7461 186.343 27.3164 187.2C29.8867 188.056 34.6602 188.668 36.0066 186.588C37.3531 184.507 36.0066 178.264 36.0066 178.264C29.0521 180.648 25.9699 175.939 25.9699 175.939Z" fill="#FFAEA1"/>
<path d="M162.031 175.939C162.031 175.939 181.614 183.773 181.614 185.976C181.614 188.179 178.431 187.995 173.536 187.995C168.64 187.995 163.254 186.343 160.684 187.2C158.114 188.056 153.34 188.668 151.994 186.588C150.647 184.507 151.994 178.264 151.994 178.264C158.948 180.648 162.031 175.939 162.031 175.939Z" fill="#FFAEA1"/>
<path d="M151.993 178.267C158.947 180.65 162.029 175.942 162.029 175.942C156.521 166.517 163.498 124.498 156.766 118.746C150.035 112.993 115.112 111.253 115.112 111.253L93.9992 102.834L72.8859 111.253C72.8859 111.253 37.9642 112.993 31.2321 118.746C24.5005 124.498 31.4771 166.518 25.9692 175.942C25.9692 175.942 29.0514 180.65 36.0056 178.267C36.0056 178.267 44.9403 145.428 44.9403 140.777C44.9403 136.125 43.1044 129.883 43.1044 129.883C43.1044 129.883 61.0257 134.844 77.8649 132.943C87.8829 131.812 93.9992 131.27 93.9992 131.27C93.9992 131.27 100.115 131.812 110.133 132.943C126.972 134.844 144.894 129.883 144.894 129.883C144.894 129.883 143.058 136.125 143.058 140.777C143.058 145.428 151.993 178.267 151.993 178.267Z" fill="#0C99E6"/>
<path d="M168.723 46.1035C165.143 46.1035 99.3723 46.1035 99.3723 46.1035V36.5566H94H88.6277V46.1035C88.6277 46.1035 22.8574 46.1035 19.2773 46.1035C15.6973 46.1035 0 46.6543 0 48.2148C0 49.7754 8.26172 49.7754 9.08789 50.1426C9.91406 50.5098 15.7891 52.1621 17.0742 51.8867C18.3594 51.6113 20.4707 50.6933 20.4707 50.6933C20.4707 50.6933 39.5645 55.4668 45.1641 55.0996H68.052C69.2181 55.0996 70.5962 61.7332 71.5817 67.5638H116.418C117.404 61.7332 118.781 55.0996 119.948 55.0996H142.836C148.435 55.4668 167.529 50.6933 167.529 50.6933C167.529 50.6933 169.64 51.6113 170.925 51.8867C172.211 52.1621 178.086 50.5098 178.912 50.1426C179.738 49.7754 188 49.7754 188 48.2148C188 46.6543 172.303 46.1035 168.723 46.1035Z" fill="#FFAEA1"/>
<path d="M72.7135 58.4429C72.0367 56.4443 70.1615 55.0996 68.0513 55.0996C69.2175 55.0996 70.5955 61.7332 71.5811 67.5638H75.8022L72.7135 58.4429Z" fill="#F4958C"/>
<path d="M111.509 62.6522V46.1016H104.165V52.0735C104.165 57.6871 99.6139 62.238 94.0003 62.238C88.3867 62.238 83.8358 57.6871 83.8358 52.0735V46.1016H76.4921V62.6522C76.4921 65.3638 74.2937 67.5622 71.582 67.5622C72.355 72.1333 72.887 76.2113 72.887 76.2113V111.251C72.887 111.251 82.1618 116.949 94.0003 116.949C105.839 116.949 115.114 111.251 115.114 111.251V76.2113C115.114 76.2113 115.646 72.1337 116.419 67.5622C113.707 67.5622 111.509 65.3638 111.509 62.6522Z" fill="#3E4A68"/>
<path d="M72.887 111.251C72.887 111.251 75.1827 112.661 78.9456 114.078V79.8654C78.9456 79.4901 78.9302 79.1159 78.9074 78.7421C83.0959 78.5141 89.839 76.8408 89.839 76.8408C81.8831 76.8408 77.9755 73.976 76.904 70.8124L75.2451 65.9141C75.1346 66.0382 75.0178 66.1564 74.8952 66.2688C74.8908 66.2728 74.8864 66.2768 74.8819 66.2809C74.7652 66.3874 74.6433 66.4876 74.5166 66.5827C74.5048 66.5915 74.4931 66.6003 74.4813 66.6092C74.3624 66.6965 74.2394 66.7784 74.1123 66.8548C74.0914 66.8677 74.0705 66.8805 74.0492 66.893C73.9306 66.962 73.8087 67.0255 73.6842 67.0847C73.6533 67.0993 73.6229 67.1151 73.5913 67.1295C73.4745 67.182 73.3552 67.2282 73.2336 67.2716C73.1929 67.2862 73.1532 67.3024 73.1121 67.316C72.9964 67.3542 72.8778 67.385 72.7581 67.4148C72.7104 67.4265 72.6638 67.4408 72.6157 67.4515C72.4945 67.4776 72.3711 67.4955 72.247 67.5124C72.1993 67.519 72.153 67.529 72.1049 67.5341C71.9331 67.5525 71.7586 67.5627 71.582 67.5627C72.355 72.1339 72.887 76.2118 72.887 76.2118V111.251Z" fill="#303A59"/>
<path d="M88.627 46.1035C88.627 46.1035 97.1732 45.9199 97.9076 36.5566H88.627V46.1035Z" fill="#F4958C"/>
<path d="M106.677 15.5794C106.677 15.5794 107.379 10.3392 104.856 7.41311C104.478 6.97469 103.76 7.27321 103.806 7.85006L103.836 8.22092C103.836 8.22092 102.388 5.39542 98.6605 4.28614C98.1432 4.13229 97.7081 4.70143 97.9834 5.16592L98.1535 5.4527C98.1535 5.4527 95.9066 3.20588 88.4608 3.05092C87.9141 3.03954 87.6431 3.71149 88.0426 4.08492L88.4689 4.48369C88.4685 4.48369 85.665 4.97829 81.9509 7.22695C81.4927 7.50454 81.6069 8.20036 82.1294 8.3197L82.4334 8.3891C80.9959 10.0422 80.2009 11.7639 79.7959 12.8732C79.62 13.3553 80.0919 13.8202 80.571 13.6366C81.0502 13.453 79.4302 18.9307 80.8123 23.4985L94.0006 26.4775L107.189 23.4981C107.189 23.4985 107.989 19.6592 106.677 15.5794Z" fill="#8C4F5C"/>
<path d="M88.606 15.3154C84.7205 14.4822 81.9559 12.9569 80.5709 13.6366C80.5709 13.6366 79.43 18.9307 80.8121 23.4985L88.953 25.3374L88.606 15.3154Z" fill="#7B3C47"/>
<path d="M104.065 26.0221C104.065 26.0221 105.362 22.8658 107.673 23.5987C109.983 24.3312 107.617 31.1712 103.107 31.6019L104.065 26.0221Z" fill="#FFAEA1"/>
<path d="M83.9364 26.0221C83.9364 26.0221 82.6402 22.8658 80.3292 23.5987C78.0181 24.3316 80.385 31.1712 84.8944 31.6019L83.9364 26.0221Z" fill="#F4958C"/>
<path d="M104.388 22.0382C104.256 21.7162 104.149 21.2554 104.048 20.723L94.0001 17.8086L83.952 20.7226C83.851 21.255 83.7442 21.7158 83.6124 22.0379C83.0186 23.486 82.2725 23.7809 82.1734 23.8147C82.166 24.0412 82.1616 24.2689 82.1616 24.4987C82.1616 33.2165 87.462 43.4405 94.0001 43.4405C100.538 43.4405 105.839 33.2165 105.839 24.4987C105.839 24.2689 105.834 24.0412 105.827 23.8147C105.728 23.7813 104.982 23.486 104.388 22.0382Z" fill="#FFCFC2"/>
<path d="M86.2326 24.4991C86.2326 22.8747 86.4188 21.3373 86.761 19.9082L83.952 20.723C83.851 21.2554 83.7442 21.7162 83.6124 22.0383C83.0186 23.4864 82.2725 23.7813 82.1734 23.8151C82.166 24.0416 82.1616 24.2693 82.1616 24.4991C82.1616 33.2169 87.462 43.4409 94.0001 43.4409C94.6941 43.4409 95.3741 43.3245 96.0358 43.1082C90.4674 41.2859 86.2326 32.2912 86.2326 24.4991Z" fill="#FFAEA1"/>
<path d="M94.0022 16.2098C89.864 16.2098 88.2076 14.8978 86.7759 14.8945H86.7745C86.5097 14.8942 86.2523 14.9386 85.9883 15.0443C84.6481 15.5819 84.3411 18.685 83.9541 20.7229H104.05C103.663 18.685 103.357 15.5819 102.016 15.0443C101.752 14.9386 101.495 14.8942 101.23 14.8945H101.228C99.7968 14.8978 98.1404 16.2098 94.0022 16.2098Z" fill="white"/>
<path d="M91.7459 18.4662C91.7459 17.2199 92.756 16.2098 94.0022 16.2098C89.864 16.2098 88.2076 14.8978 86.776 14.8945H86.7745C86.5097 14.8942 86.2523 14.9386 85.9883 15.0443C84.6481 15.5819 84.3411 18.685 83.9541 20.7229H94.0022C92.756 20.7229 91.7459 19.7124 91.7459 18.4662Z" fill="#EBF0F3"/>
<path d="M36.0056 178.267C36.0056 178.267 40.9307 160.165 43.4672 148.938C42.1857 151.747 39.3562 153.703 36.0665 153.703C32.2257 153.703 29.0209 151.036 28.168 147.457C28.3802 159.385 28.613 171.418 25.9692 175.942C25.9692 175.941 29.0514 180.65 36.0056 178.267Z" fill="#066AE7"/>
<path d="M151.993 178.267C151.993 178.267 147.068 160.165 144.531 148.938C145.813 151.747 148.642 153.703 151.932 153.703C155.773 153.703 158.978 151.036 159.83 147.457C159.618 159.385 159.385 171.418 162.029 175.942C162.029 175.941 158.947 180.65 151.993 178.267Z" fill="#066AE7"/>
</svg>
